M48
INCH,LZ
;FILE_FORMAT=2:4
;TYPE=PLATED
;Layer: PTH_Through
;EasyEDA v6.5.5, 2022-06-30 21:59:10
;844943e940ba41f192d5fd3784e3f5d8,9c416354eb984020824aaf9c885bead6,10
;Gerber Generator version 0.2
;Holesize 1 = 0.0120 inch
T01C0.0120
;Holesize 2 = 0.0160 inch
T02C0.0160
;Holesize 3 = 0.0280 inch
T03C0.0280
;Holesize 4 = 0.0350 inch
T04C0.0350
;Holesize 5 = 0.0360 inch
T05C0.0360
;Holesize 6 = 0.0430 inch
T06C0.0430
;Holesize 7 = 0.0510 inch
T07C0.0510
;Holesize 8 = 0.0790 inch
T08C0.0790
%
G05
G90
T01
X009151Y-003586
X011300Y-000500
X018980Y-002800
X020763Y000057
X002724Y-003838
X015875Y000418
X003960Y002260
X014123Y-001935
X003061Y-002535
X001697Y002515
X016778Y002646
X006200Y005100
X016933Y002949
X016915Y-002012
X004381Y002507
X021240Y004050
X021260Y001440
X012240Y000200
X013570Y000810
X010170Y002010
X011620Y002030
X008440Y000680
X008620Y000980
X005760Y001830
X005940Y001100
X007690Y002320
X009930Y-002660
X011390Y-001370
X012840Y-002700
X008540Y-001150
X006940Y003350
X006660Y003170
X020270Y-000030
X016850Y000990
X017170Y000730
X000422Y002078
X000422Y001078
X000422Y000078
X000422Y-000922
X000422Y-001922
X001422Y002078
X001422Y001078
X001422Y000078
X001422Y-000922
X001422Y-001922
X001580Y005240
X002422Y002078
X002422Y001078
X002422Y000078
X002422Y-000922
X002422Y-001922
X002422Y-004922
X003720Y005260
X003422Y002078
X003422Y001078
X003422Y000078
X003422Y-000922
X003422Y-001922
X004680Y005260
X004422Y001078
X004422Y000078
X004422Y-000922
X004422Y-004922
X005540Y005280
X005422Y000078
X005422Y-001922
X005422Y-004922
X006422Y-004922
X007422Y-001922
X007422Y-004922
X008422Y003078
X008422Y-001922
X008422Y-004922
X009422Y-004922
X010422Y004078
X010422Y003078
X010422Y-004922
X011422Y004078
X011422Y003078
X012422Y004078
X012422Y003078
X015422Y005078
X015422Y004078
X015422Y-003922
X015422Y-004922
X016422Y004078
X016422Y-002922
X016422Y-003922
X017422Y004078
X017422Y-002922
X017422Y-003922
X018422Y004078
X018422Y001078
X018422Y000078
X019422Y004078
X020422Y004078
X020422Y003078
X020422Y-001922
X020422Y-002922
X021422Y-002922
X022422Y004078
X022422Y-000922
X022422Y-002922
X023390Y005190
X023400Y003970
X023320Y-003820
X023380Y-005030
X024680Y002100
X024422Y000078
X001480Y-002380
X003364Y003900
X004046Y004140
X003020Y004400
X005991Y002311
X005444Y002420
X005731Y003920
X002260Y-002380
T02
X009158Y002380
X013489Y003955
T03
X024456Y001417G85X024141Y001417
X024456Y-001417G85X024141Y-001417
X023248Y-000955
X023248Y000955
T04
X015000Y-002000
X015000Y-001000
X015000Y000000
X015000Y001000
X015000Y002000
X015000Y003000
X015000Y-003000
T05
X015000Y003000
X015000Y002000
X015000Y001000
X015000Y000000
X015000Y-001000
X015000Y-002000
X015000Y-003000
T06
X018800Y-003900
X018800Y-004900
X024350Y-002350
X023350Y-002350
T07
X007000Y004850
X008000Y004850
T08
X014516Y004500
X014516Y-004500
X001043Y004500
X001043Y-004500
X024000Y004500
X024000Y-004500
M30
