G04 Layer: TopSilkscreenLayer*
G04 EasyEDA v6.5.5, 2022-06-30 21:59:10*
G04 844943e940ba41f192d5fd3784e3f5d8,9c416354eb984020824aaf9c885bead6,10*
G04 Gerber Generator version 0.2*
G04 Scale: 100 percent, Rotated: No, Reflected: No *
G04 Dimensions in inches *
G04 leading zeros omitted , absolute positions ,3 integer and 6 decimal *
%FSLAX36Y36*%
%MOIN*%

%ADD10C,0.0100*%
%ADD43C,0.0059*%
%ADD44C,0.0060*%
%ADD45C,0.0080*%
%ADD46C,0.0080*%
%ADD47C,0.0039*%
%ADD48C,0.0197*%
%ADD49C,0.0118*%

%LPD*%
D46*
X714349Y339290D02*
G01*
X714349Y273789D01*
D44*
X2386300Y221199D02*
G01*
X2398800Y221199D01*
X2391999Y212100D01*
X2395399Y212100D01*
X2397600Y210999D01*
X2398800Y209899D01*
X2399899Y206500D01*
X2399899Y204200D01*
X2398800Y200799D01*
X2396499Y198499D01*
X2393100Y197399D01*
X2389700Y197399D01*
X2386300Y198499D01*
X2385100Y199600D01*
X2383999Y201900D01*
X2407399Y221199D02*
G01*
X2416499Y197399D01*
X2425600Y221199D02*
G01*
X2416499Y197399D01*
X2435399Y221199D02*
G01*
X2447899Y221199D01*
X2441000Y212100D01*
X2444499Y212100D01*
X2446700Y210999D01*
X2447899Y209899D01*
X2448999Y206500D01*
X2448999Y204200D01*
X2447899Y200799D01*
X2445600Y198499D01*
X2442200Y197399D01*
X2438800Y197399D01*
X2435399Y198499D01*
X2434200Y199600D01*
X2433100Y201900D01*
X2191599Y-290799D02*
G01*
X2180299Y-290799D01*
X2179099Y-300999D01*
X2180299Y-299899D01*
X2183699Y-298699D01*
X2187100Y-298699D01*
X2190500Y-299899D01*
X2192799Y-302100D01*
X2193900Y-305500D01*
X2193900Y-307800D01*
X2192799Y-311199D01*
X2190500Y-313499D01*
X2187100Y-314600D01*
X2183699Y-314600D01*
X2180299Y-313499D01*
X2179099Y-312399D01*
X2178000Y-310100D01*
X2201400Y-290799D02*
G01*
X2210500Y-314600D01*
X2219600Y-290799D02*
G01*
X2210500Y-314600D01*
X2346999Y-326500D02*
G01*
X2345900Y-324200D01*
X2343599Y-321900D01*
X2341400Y-320799D01*
X2336800Y-320799D01*
X2334499Y-321900D01*
X2332299Y-324200D01*
X2331099Y-326500D01*
X2330000Y-329899D01*
X2330000Y-335500D01*
X2331099Y-339000D01*
X2332299Y-341199D01*
X2334499Y-343499D01*
X2336800Y-344600D01*
X2341400Y-344600D01*
X2343599Y-343499D01*
X2345900Y-341199D01*
X2346999Y-339000D01*
X2346999Y-335500D01*
X2341400Y-335500D02*
G01*
X2346999Y-335500D01*
X2354499Y-320799D02*
G01*
X2354499Y-344600D01*
X2354499Y-320799D02*
G01*
X2370500Y-344600D01*
X2370500Y-320799D02*
G01*
X2370500Y-344600D01*
X2378000Y-320799D02*
G01*
X2378000Y-344600D01*
X2378000Y-320799D02*
G01*
X2385900Y-320799D01*
X2389300Y-321900D01*
X2391599Y-324200D01*
X2392700Y-326500D01*
X2393900Y-329899D01*
X2393900Y-335500D01*
X2392700Y-339000D01*
X2391599Y-341199D01*
X2389300Y-343499D01*
X2385900Y-344600D01*
X2378000Y-344600D01*
X821999Y131199D02*
G01*
X821999Y107399D01*
X836300Y131199D02*
G01*
X833999Y130100D01*
X831800Y127800D01*
X830600Y125500D01*
X829499Y122100D01*
X829499Y116500D01*
X830600Y113000D01*
X831800Y110799D01*
X833999Y108499D01*
X836300Y107399D01*
X840900Y107399D01*
X843100Y108499D01*
X845399Y110799D01*
X846499Y113000D01*
X847700Y116500D01*
X847700Y122100D01*
X846499Y125500D01*
X845399Y127800D01*
X843100Y130100D01*
X840900Y131199D01*
X836300Y131199D01*
X871099Y131199D02*
G01*
X859700Y107399D01*
X855200Y131199D02*
G01*
X871099Y131199D01*
X820000Y-24800D02*
G01*
X820000Y-48600D01*
X834300Y-24800D02*
G01*
X831999Y-25900D01*
X829799Y-28200D01*
X828599Y-30500D01*
X827500Y-33899D01*
X827500Y-39499D01*
X828599Y-43000D01*
X829799Y-45199D01*
X831999Y-47500D01*
X834300Y-48600D01*
X838900Y-48600D01*
X841099Y-47500D01*
X843400Y-45199D01*
X844499Y-43000D01*
X845699Y-39499D01*
X845699Y-33899D01*
X844499Y-30500D01*
X843400Y-28200D01*
X841099Y-25900D01*
X838900Y-24800D01*
X834300Y-24800D01*
X868000Y-32699D02*
G01*
X866800Y-36100D01*
X864499Y-38400D01*
X861099Y-39499D01*
X860000Y-39499D01*
X856599Y-38400D01*
X854300Y-36100D01*
X853199Y-32699D01*
X853199Y-31599D01*
X854300Y-28200D01*
X856599Y-25900D01*
X860000Y-24800D01*
X861099Y-24800D01*
X864499Y-25900D01*
X866800Y-28200D01*
X868000Y-32699D01*
X868000Y-38400D01*
X866800Y-44099D01*
X864499Y-47500D01*
X861099Y-48600D01*
X858900Y-48600D01*
X855500Y-47500D01*
X854300Y-45199D01*
X818000Y51199D02*
G01*
X818000Y27399D01*
X832299Y51199D02*
G01*
X830000Y50100D01*
X827799Y47800D01*
X826599Y45500D01*
X825500Y42100D01*
X825500Y36500D01*
X826599Y33000D01*
X827799Y30799D01*
X830000Y28499D01*
X832299Y27399D01*
X836899Y27399D01*
X839099Y28499D01*
X841400Y30799D01*
X842500Y33000D01*
X843699Y36500D01*
X843699Y42100D01*
X842500Y45500D01*
X841400Y47800D01*
X839099Y50100D01*
X836899Y51199D01*
X832299Y51199D01*
X851199Y46700D02*
G01*
X853500Y47800D01*
X856899Y51199D01*
X856899Y27399D01*
X871199Y51199D02*
G01*
X867799Y50100D01*
X865500Y46700D01*
X864399Y40999D01*
X864399Y37600D01*
X865500Y31900D01*
X867799Y28499D01*
X871199Y27399D01*
X873500Y27399D01*
X876899Y28499D01*
X879099Y31900D01*
X880299Y37600D01*
X880299Y40999D01*
X879099Y46700D01*
X876899Y50100D01*
X873500Y51199D01*
X871199Y51199D01*
X430000Y-378800D02*
G01*
X430000Y-402600D01*
X444299Y-378800D02*
G01*
X441999Y-379899D01*
X439800Y-382199D01*
X438600Y-384499D01*
X437500Y-387899D01*
X437500Y-393499D01*
X438600Y-396999D01*
X439800Y-399200D01*
X441999Y-401500D01*
X444299Y-402600D01*
X448899Y-402600D01*
X451100Y-401500D01*
X453400Y-399200D01*
X454499Y-396999D01*
X455700Y-393499D01*
X455700Y-387899D01*
X454499Y-384499D01*
X453400Y-382199D01*
X451100Y-379899D01*
X448899Y-378800D01*
X444299Y-378800D01*
X463200Y-383299D02*
G01*
X465500Y-382199D01*
X468899Y-378800D01*
X468899Y-402600D01*
X477500Y-384499D02*
G01*
X477500Y-383299D01*
X478600Y-380999D01*
X479800Y-379899D01*
X481999Y-378800D01*
X486599Y-378800D01*
X488899Y-379899D01*
X490000Y-380999D01*
X491100Y-383299D01*
X491100Y-385599D01*
X490000Y-387899D01*
X487699Y-391300D01*
X476399Y-402600D01*
X492300Y-402600D01*
X511999Y-377800D02*
G01*
X511999Y-401599D01*
X526300Y-377800D02*
G01*
X524000Y-378899D01*
X521799Y-381199D01*
X520599Y-383499D01*
X519499Y-386900D01*
X519499Y-392500D01*
X520599Y-395999D01*
X521799Y-398200D01*
X524000Y-400500D01*
X526300Y-401599D01*
X530900Y-401599D01*
X533099Y-400500D01*
X535399Y-398200D01*
X536500Y-395999D01*
X537699Y-392500D01*
X537699Y-386900D01*
X536500Y-383499D01*
X535399Y-381199D01*
X533099Y-378899D01*
X530900Y-377800D01*
X526300Y-377800D01*
X545199Y-382300D02*
G01*
X547500Y-381199D01*
X550900Y-377800D01*
X550900Y-401599D01*
X560599Y-377800D02*
G01*
X573099Y-377800D01*
X566300Y-386900D01*
X569699Y-386900D01*
X571999Y-388000D01*
X573099Y-389099D01*
X574299Y-392500D01*
X574299Y-394800D01*
X573099Y-398200D01*
X570900Y-400500D01*
X567500Y-401599D01*
X564000Y-401599D01*
X560599Y-400500D01*
X559499Y-399400D01*
X558400Y-397100D01*
X361999Y-377800D02*
G01*
X361999Y-401599D01*
X376300Y-377800D02*
G01*
X374000Y-378899D01*
X371799Y-381199D01*
X370599Y-383499D01*
X369499Y-386900D01*
X369499Y-392500D01*
X370599Y-395999D01*
X371799Y-398200D01*
X374000Y-400500D01*
X376300Y-401599D01*
X380900Y-401599D01*
X383099Y-400500D01*
X385399Y-398200D01*
X386500Y-395999D01*
X387699Y-392500D01*
X387699Y-386900D01*
X386500Y-383499D01*
X385399Y-381199D01*
X383099Y-378899D01*
X380900Y-377800D01*
X376300Y-377800D01*
X395199Y-382300D02*
G01*
X397500Y-381199D01*
X400900Y-377800D01*
X400900Y-401599D01*
X419699Y-377800D02*
G01*
X408400Y-393699D01*
X425399Y-393699D01*
X419699Y-377800D02*
G01*
X419699Y-401599D01*
X331999Y-438800D02*
G01*
X331999Y-462600D01*
X346300Y-438800D02*
G01*
X344000Y-439899D01*
X341799Y-442199D01*
X340599Y-444499D01*
X339499Y-447899D01*
X339499Y-453499D01*
X340599Y-456999D01*
X341799Y-459200D01*
X344000Y-461500D01*
X346300Y-462600D01*
X350900Y-462600D01*
X353099Y-461500D01*
X355399Y-459200D01*
X356500Y-456999D01*
X357699Y-453499D01*
X357699Y-447899D01*
X356500Y-444499D01*
X355399Y-442199D01*
X353099Y-439899D01*
X350900Y-438800D01*
X346300Y-438800D01*
X365199Y-443299D02*
G01*
X367500Y-442199D01*
X370900Y-438800D01*
X370900Y-462600D01*
X391999Y-442199D02*
G01*
X390900Y-439899D01*
X387500Y-438800D01*
X385199Y-438800D01*
X381799Y-439899D01*
X379499Y-443299D01*
X378400Y-449000D01*
X378400Y-454699D01*
X379499Y-459200D01*
X381799Y-461500D01*
X385199Y-462600D01*
X386300Y-462600D01*
X389699Y-461500D01*
X391999Y-459200D01*
X393099Y-455799D01*
X393099Y-454699D01*
X391999Y-451300D01*
X389699Y-449000D01*
X386300Y-447899D01*
X385199Y-447899D01*
X381799Y-449000D01*
X379499Y-451300D01*
X378400Y-454699D01*
X170999Y-438800D02*
G01*
X170999Y-462600D01*
X170999Y-438800D02*
G01*
X181199Y-438800D01*
X184600Y-439899D01*
X185799Y-440999D01*
X186900Y-443299D01*
X186900Y-445599D01*
X185799Y-447899D01*
X184600Y-449000D01*
X181199Y-450100D01*
X170999Y-450100D01*
X179000Y-450100D02*
G01*
X186900Y-462600D01*
X210300Y-442199D02*
G01*
X208000Y-439899D01*
X204600Y-438800D01*
X200100Y-438800D01*
X196700Y-439899D01*
X194400Y-442199D01*
X194400Y-444499D01*
X195500Y-446700D01*
X196700Y-447899D01*
X199000Y-449000D01*
X205799Y-451300D01*
X208000Y-452399D01*
X209200Y-453499D01*
X210300Y-455799D01*
X210300Y-459200D01*
X208000Y-461500D01*
X204600Y-462600D01*
X200100Y-462600D01*
X196700Y-461500D01*
X194400Y-459200D01*
X225799Y-438800D02*
G01*
X225799Y-462600D01*
X217800Y-438800D02*
G01*
X233699Y-438800D01*
G36*
X788880Y-393900D02*
G01*
X788880Y-411900D01*
X797220Y-411900D01*
X797220Y-393900D01*
G37*
G36*
X902780Y-393900D02*
G01*
X902780Y-411900D01*
X911120Y-411900D01*
X911120Y-393900D01*
G37*
G36*
X1600120Y-40080D02*
G01*
X1600120Y-63720D01*
X1604040Y-67640D01*
X1627680Y-67640D01*
G37*
D10*
X1268109Y-535475D02*
G01*
X1031890Y-535475D01*
X1031890Y-102406D02*
G01*
X1268109Y-102404D01*
X1248424Y-535475D02*
G01*
X1248424Y-653584D01*
X1248424Y-653584D02*
G01*
X1051575Y-653584D01*
X1051575Y-535475D02*
G01*
X1051575Y-653584D01*
X1031899Y-181174D02*
G01*
X1059399Y-181174D01*
X1059399Y-133874D01*
X1031899Y-133874D01*
X1031899Y-102375D01*
X1268109Y-535475D02*
G01*
X1268109Y-491424D01*
X1268109Y-414169D02*
G01*
X1268109Y-215835D01*
X1268109Y-138580D02*
G01*
X1268109Y-102404D01*
X1031890Y-535475D02*
G01*
X1031890Y-412685D01*
X1031890Y-335430D02*
G01*
X1031890Y-181174D01*
D43*
X642085Y-423625D02*
G01*
X666496Y-423625D01*
X627910Y-423625D02*
G01*
X603503Y-423625D01*
X627910Y-376379D02*
G01*
X603503Y-376379D01*
X597595Y-384252D02*
G01*
X597595Y-415747D01*
X642085Y-376379D02*
G01*
X666496Y-376379D01*
X672399Y-384252D02*
G01*
X672399Y-415747D01*
X597595Y-382287D02*
G01*
X597595Y-384252D01*
X597595Y-417716D02*
G01*
X597595Y-415747D01*
X672399Y-382283D02*
G01*
X672399Y-384252D01*
X672399Y-417721D02*
G01*
X672399Y-415747D01*
X1707084Y476374D02*
G01*
X1731495Y476374D01*
X1692910Y476374D02*
G01*
X1668504Y476374D01*
X1692910Y523620D02*
G01*
X1668504Y523620D01*
X1662595Y515747D02*
G01*
X1662595Y484252D01*
X1707084Y523620D02*
G01*
X1731495Y523620D01*
X1737399Y515747D02*
G01*
X1737399Y484252D01*
X1662595Y517712D02*
G01*
X1662595Y515747D01*
X1662595Y482283D02*
G01*
X1662595Y484252D01*
X1737399Y517716D02*
G01*
X1737399Y515747D01*
X1737399Y482278D02*
G01*
X1737399Y484252D01*
X942084Y1374D02*
G01*
X966495Y1374D01*
X927910Y1374D02*
G01*
X903504Y1374D01*
X927910Y48620D02*
G01*
X903504Y48620D01*
X897595Y40747D02*
G01*
X897595Y9252D01*
X942084Y48620D02*
G01*
X966495Y48620D01*
X972399Y40747D02*
G01*
X972399Y9252D01*
X897595Y42712D02*
G01*
X897595Y40747D01*
X897595Y7283D02*
G01*
X897595Y9252D01*
X972399Y42716D02*
G01*
X972399Y40747D01*
X972399Y7278D02*
G01*
X972399Y9252D01*
X2062084Y-228625D02*
G01*
X2086495Y-228625D01*
X2047910Y-228625D02*
G01*
X2023504Y-228625D01*
X2047910Y-181379D02*
G01*
X2023504Y-181379D01*
X2017595Y-189252D02*
G01*
X2017595Y-220747D01*
X2062084Y-181379D02*
G01*
X2086495Y-181379D01*
X2092399Y-189252D02*
G01*
X2092399Y-220747D01*
X2017595Y-187287D02*
G01*
X2017595Y-189252D01*
X2017595Y-222716D02*
G01*
X2017595Y-220747D01*
X2092399Y-187283D02*
G01*
X2092399Y-189252D01*
X2092399Y-222721D02*
G01*
X2092399Y-220747D01*
X2067084Y31374D02*
G01*
X2091495Y31374D01*
X2052910Y31374D02*
G01*
X2028504Y31374D01*
X2052910Y78620D02*
G01*
X2028504Y78620D01*
X2022595Y70747D02*
G01*
X2022595Y39252D01*
X2067084Y78620D02*
G01*
X2091495Y78620D01*
X2097399Y70747D02*
G01*
X2097399Y39252D01*
X2022595Y72712D02*
G01*
X2022595Y70747D01*
X2022595Y37283D02*
G01*
X2022595Y39252D01*
X2097399Y72716D02*
G01*
X2097399Y70747D01*
X2097399Y37278D02*
G01*
X2097399Y39252D01*
D10*
X771496Y-423899D02*
G01*
X708503Y-423899D01*
X771496Y-286100D02*
G01*
X708503Y-286102D01*
X699054Y-374684D02*
G01*
X699054Y-416023D01*
X780945Y-374684D02*
G01*
X780945Y-416023D01*
X699054Y-335315D02*
G01*
X699054Y-293976D01*
X780945Y-335315D02*
G01*
X780945Y-293976D01*
X772281Y-286100D02*
G01*
X771496Y-286100D01*
X773068Y-286100D02*
G01*
X771496Y-286100D01*
X706930Y-286102D02*
G01*
X708503Y-286102D01*
X773068Y-423899D02*
G01*
X771496Y-423899D01*
X706930Y-423899D02*
G01*
X708503Y-423899D01*
X986100Y28503D02*
G01*
X986100Y91496D01*
X1123899Y28503D02*
G01*
X1123897Y91496D01*
X1035315Y100945D02*
G01*
X993977Y100945D01*
X1035315Y19054D02*
G01*
X993977Y19054D01*
X1074684Y100945D02*
G01*
X1116022Y100945D01*
X1074684Y19054D02*
G01*
X1116022Y19054D01*
X1123899Y27719D02*
G01*
X1123899Y28503D01*
X1123899Y26930D02*
G01*
X1123899Y28503D01*
X1123897Y93069D02*
G01*
X1123897Y91496D01*
X986100Y26930D02*
G01*
X986100Y28503D01*
X986100Y93069D02*
G01*
X986100Y91496D01*
X2111100Y-256496D02*
G01*
X2111100Y-193503D01*
X2248899Y-256496D02*
G01*
X2248897Y-193503D01*
X2160315Y-184054D02*
G01*
X2118977Y-184054D01*
X2160315Y-265945D02*
G01*
X2118977Y-265945D01*
X2199684Y-184054D02*
G01*
X2241022Y-184054D01*
X2199684Y-265945D02*
G01*
X2241022Y-265945D01*
X2248899Y-257280D02*
G01*
X2248899Y-256496D01*
X2248899Y-258069D02*
G01*
X2248899Y-256496D01*
X2248897Y-191930D02*
G01*
X2248897Y-193503D01*
X2111100Y-258069D02*
G01*
X2111100Y-256496D01*
X2111100Y-191930D02*
G01*
X2111100Y-193503D01*
X2414503Y375898D02*
G01*
X2477496Y375898D01*
X2414503Y238101D02*
G01*
X2477497Y238101D01*
X2486944Y326685D02*
G01*
X2486944Y368022D01*
X2405055Y326685D02*
G01*
X2405055Y368022D01*
X2486944Y287314D02*
G01*
X2486944Y245976D01*
X2405055Y287314D02*
G01*
X2405055Y245976D01*
X2413719Y238101D02*
G01*
X2414503Y238101D01*
X2412930Y238101D02*
G01*
X2414503Y238101D01*
X2479070Y238101D02*
G01*
X2477497Y238101D01*
X2412930Y375898D02*
G01*
X2414503Y375898D01*
X2479068Y375898D02*
G01*
X2477496Y375898D01*
D44*
X908118Y-352728D02*
G01*
X791881Y-352728D01*
X908118Y-253103D02*
G01*
X908118Y-396896D01*
X791881Y-253103D02*
G01*
X791881Y-396896D01*
X908118Y-253103D02*
G01*
X904772Y-253103D01*
X791881Y-253103D02*
G01*
X795227Y-253103D01*
D10*
X1864260Y384724D02*
G01*
X1895757Y384724D01*
X1852061Y341033D02*
G01*
X1852061Y372528D01*
X1907953Y341033D02*
G01*
X1907953Y372528D01*
X1851832Y318360D02*
G01*
X1851832Y286864D01*
X1864031Y274666D02*
G01*
X1895525Y274666D01*
X1907722Y318360D02*
G01*
X1907722Y286864D01*
X2348261Y376725D02*
G01*
X2379758Y376725D01*
X2336062Y333033D02*
G01*
X2336062Y364529D01*
X2391953Y333033D02*
G01*
X2391953Y364529D01*
X2335833Y310360D02*
G01*
X2335833Y278865D01*
X2348031Y266667D02*
G01*
X2379525Y266667D01*
X2391723Y310360D02*
G01*
X2391723Y278865D01*
D43*
X1661602Y119376D02*
G01*
X1661602Y166622D01*
X1691917Y119376D02*
G01*
X1661602Y119376D01*
X1736406Y119376D02*
G01*
X1736406Y166622D01*
X1706091Y119376D02*
G01*
X1736406Y119376D01*
X1706091Y166622D02*
G01*
X1736406Y166622D01*
X1691917Y166622D02*
G01*
X1661602Y166622D01*
X2022602Y141377D02*
G01*
X2022602Y188622D01*
X2052917Y141377D02*
G01*
X2022602Y141377D01*
X2097407Y141377D02*
G01*
X2097407Y188622D01*
X2067092Y141377D02*
G01*
X2097407Y141377D01*
X2067092Y188622D02*
G01*
X2097407Y188622D01*
X2052917Y188622D02*
G01*
X2022602Y188622D01*
X267602Y-503622D02*
G01*
X267602Y-456377D01*
X297917Y-503622D02*
G01*
X267602Y-503622D01*
X342406Y-503622D02*
G01*
X342406Y-456377D01*
X312091Y-503622D02*
G01*
X342406Y-503622D01*
X312091Y-456377D02*
G01*
X342406Y-456377D01*
X297917Y-456377D02*
G01*
X267602Y-456377D01*
X267602Y-448622D02*
G01*
X267602Y-401377D01*
X297917Y-448622D02*
G01*
X267602Y-448622D01*
X342406Y-448622D02*
G01*
X342406Y-401377D01*
X312091Y-448622D02*
G01*
X342406Y-448622D01*
X312091Y-401377D02*
G01*
X342406Y-401377D01*
X297917Y-401377D02*
G01*
X267602Y-401377D01*
D45*
X1930000Y-540000D02*
G01*
X1930000Y-415000D01*
D46*
X1930000Y-540000D02*
G01*
X1830000Y-540000D01*
X1830000Y-340000D01*
X1930000Y-340000D01*
X1930000Y-415000D01*
X1550000Y275000D02*
G01*
X1550000Y350000D01*
X1450000Y350000D01*
X1450000Y-360000D01*
X1550000Y-360000D01*
X1550000Y-250000D01*
D45*
X1550000Y-250000D02*
G01*
X1550000Y275000D01*
D10*
X6156Y-314960D02*
G01*
X6156Y315001D01*
X-264765Y1D02*
G01*
X-264765Y315001D01*
X37157Y315001D02*
G01*
X-265001Y315001D01*
X115898Y315001D02*
G01*
X102602Y315001D01*
X194637Y315001D02*
G01*
X181341Y315001D01*
X273377Y315001D02*
G01*
X260082Y315001D01*
X352118Y315001D02*
G01*
X338822Y315001D01*
X430859Y315001D02*
G01*
X417563Y315001D01*
X509598Y315001D02*
G01*
X496302Y315001D01*
X588339Y315001D02*
G01*
X575043Y315001D01*
X679998Y229573D02*
G01*
X679998Y315001D01*
X653782Y315001D01*
X679998Y150832D02*
G01*
X679998Y164128D01*
X679998Y72092D02*
G01*
X679998Y85389D01*
X679998Y-6648D02*
G01*
X679998Y6649D01*
X679998Y-85387D02*
G01*
X679998Y-72091D01*
X679998Y-164128D02*
G01*
X679998Y-150832D01*
X653782Y-314960D02*
G01*
X679998Y-314960D01*
X679998Y-229571D01*
X575043Y-314960D02*
G01*
X588339Y-314960D01*
X496302Y-314960D02*
G01*
X509598Y-314960D01*
X417563Y-314960D02*
G01*
X430859Y-314960D01*
X338822Y-314960D02*
G01*
X352118Y-314960D01*
X260082Y-314960D02*
G01*
X273377Y-314960D01*
X181341Y-314960D02*
G01*
X194637Y-314960D01*
X102602Y-314960D02*
G01*
X115898Y-314960D01*
X-264765Y1D02*
G01*
X-264765Y-314960D01*
X37157Y-314960D01*
D46*
X850000Y535000D02*
G01*
X850000Y435000D01*
X650000Y435000D01*
X650000Y535000D01*
X725000Y535000D01*
D45*
X850000Y535000D02*
G01*
X725000Y535000D01*
D44*
X1953806Y130086D02*
G01*
X1886193Y130086D01*
X1886193Y89472D01*
X1953806Y9913D02*
G01*
X1886193Y9913D01*
X1886193Y50527D01*
X1953806Y87928D02*
G01*
X1953806Y52071D01*
X1953806Y86D02*
G01*
X1886193Y86D01*
X1886193Y-40527D01*
X1953806Y-120086D02*
G01*
X1886193Y-120086D01*
X1886193Y-79472D01*
X1953806Y-42071D02*
G01*
X1953806Y-77928D01*
X1858905Y209630D02*
G01*
X1887174Y209630D01*
X1887174Y170369D01*
X1858905Y170369D01*
X1841094Y209630D02*
G01*
X1812825Y209630D01*
X1812825Y170369D01*
X1841094Y170369D01*
X1858905Y254630D02*
G01*
X1887174Y254630D01*
X1887174Y215369D01*
X1858905Y215369D01*
X1841094Y254630D02*
G01*
X1812825Y254630D01*
X1812825Y215369D01*
X1841094Y215369D01*
X1707444Y-152899D02*
G01*
X1735713Y-152899D01*
X1735713Y-192159D01*
X1707444Y-192159D01*
X1689633Y-152899D02*
G01*
X1661364Y-152899D01*
X1661364Y-192159D01*
X1689633Y-192159D01*
D10*
X2253858Y-498611D02*
G01*
X2253858Y-465630D01*
X2122709Y-425630D02*
G01*
X2058625Y-425630D01*
X2176343Y-425630D02*
G01*
X2181764Y-425630D01*
X2176343Y-425630D01*
X2090473Y-425630D02*
G01*
X2122709Y-425630D01*
X1986141Y-498611D02*
G01*
X1986141Y-465630D01*
X2103001Y-537833D02*
G01*
X2005083Y-537833D01*
X2163306Y-537833D02*
G01*
X2234913Y-537833D01*
X2103001Y-596167D02*
G01*
X2103001Y-537833D01*
X2163306Y-596167D02*
G01*
X2163306Y-537833D01*
X2103001Y-596167D02*
G01*
X2163306Y-596167D01*
X1770900Y389400D02*
G01*
X1770900Y314600D01*
X1735399Y279099D01*
X1664600Y279099D01*
X1625200Y318499D01*
X1625200Y385399D01*
X1660699Y420900D01*
X1739399Y420900D01*
X1770900Y389400D01*
X1800399Y299800D02*
G01*
X1765160Y264560D01*
X1746000Y249600D02*
G01*
X1653999Y249600D01*
X1634839Y264560D02*
G01*
X1599600Y299800D01*
X1746000Y450399D02*
G01*
X1653999Y450399D01*
X1634839Y435439D02*
G01*
X1599600Y400199D01*
X1800399Y400199D02*
G01*
X1765160Y435439D01*
X1599600Y400199D02*
G01*
X1599600Y299800D01*
X1800399Y400199D02*
G01*
X1800399Y299800D01*
X1629099Y-389400D02*
G01*
X1629099Y-314600D01*
X1664600Y-279099D01*
X1735399Y-279099D01*
X1774799Y-318499D01*
X1774799Y-385399D01*
X1739300Y-420900D01*
X1660600Y-420900D01*
X1629099Y-389400D01*
X1599600Y-299800D02*
G01*
X1634839Y-264560D01*
X1653999Y-249600D02*
G01*
X1746000Y-249600D01*
X1765160Y-264560D02*
G01*
X1800399Y-299800D01*
X1653999Y-450399D02*
G01*
X1746000Y-450399D01*
X1765160Y-435439D02*
G01*
X1800399Y-400199D01*
X1599600Y-400199D02*
G01*
X1634839Y-435439D01*
X1800399Y-400199D02*
G01*
X1800399Y-299800D01*
X1599600Y-400199D02*
G01*
X1599600Y-299800D01*
D44*
X1925150Y290259D02*
G01*
X1925150Y429740D01*
X2324849Y429740D01*
X2324849Y290259D01*
X1925150Y290259D01*
X2155754Y-166577D02*
G01*
X2051331Y-166577D01*
X2051331Y-121347D01*
X2155754Y16586D02*
G01*
X2051331Y16586D01*
X2051331Y-28641D01*
D10*
X2497557Y-118110D02*
G01*
X2517242Y-118110D01*
X2518424Y121653D01*
X2497557Y122046D01*
X2377879Y-146957D02*
G01*
X2371006Y-146923D01*
X2497557Y-118110D02*
G01*
X2498344Y-135826D01*
X2518818Y-147638D01*
X2481819Y-147458D01*
X2377893Y-147046D02*
G01*
X2369714Y-146900D01*
X2497557Y-118110D02*
G01*
X2497557Y122046D01*
X2497557Y133858D01*
X2517242Y149605D01*
X2481388Y149605D01*
X2377893Y-147046D02*
G01*
X2300708Y-145668D01*
X2300591Y120306D02*
G01*
X2300708Y149605D01*
X2378391Y149605D01*
X2300384Y68155D02*
G01*
X2300394Y70826D01*
X2299831Y-71401D02*
G01*
X2299844Y-68153D01*
X2299526Y-148031D02*
G01*
X2299641Y-119340D01*
X1627673Y-67647D02*
G01*
X1600113Y-67647D01*
X1600113Y-67647D01*
X1600113Y-40086D01*
X1627682Y-67647D01*
X1796966Y85898D02*
G01*
X1796966Y-110952D01*
X1668240Y85898D02*
G01*
X1728841Y85898D01*
X1792251Y85898D02*
G01*
X1796966Y85898D01*
X1600115Y85898D02*
G01*
X1604830Y85898D01*
X1600115Y-110952D02*
G01*
X1600115Y85898D01*
X1604830Y-110952D02*
G01*
X1600115Y-110952D01*
X1796966Y-110952D02*
G01*
X1792251Y-110952D01*
X1728841Y-110952D02*
G01*
X1668240Y-110952D01*
D43*
X2022602Y86377D02*
G01*
X2022602Y133622D01*
X2052917Y86377D02*
G01*
X2022602Y86377D01*
X2097407Y86377D02*
G01*
X2097407Y133622D01*
X2067092Y86377D02*
G01*
X2097407Y86377D01*
X2067092Y133622D02*
G01*
X2097407Y133622D01*
X2052917Y133622D02*
G01*
X2022602Y133622D01*
D44*
X781890Y291630D02*
G01*
X810771Y291630D01*
X810771Y388368D01*
X781890Y388368D01*
X768110Y291630D02*
G01*
X739229Y291630D01*
X739229Y388368D01*
X768110Y388368D01*
D10*
X1550000Y546849D02*
G01*
X1550000Y-546849D01*
X5909Y-546849D01*
X5909Y546849D01*
X1550000Y546849D01*
D45*
X2285000Y-285000D02*
G01*
X2410000Y-285000D01*
D46*
X2285000Y-285000D02*
G01*
X2285000Y-185000D01*
X2485000Y-185000D01*
X2485000Y-285000D01*
X2410000Y-285000D01*
D43*
X942084Y56374D02*
G01*
X966495Y56374D01*
X927910Y56374D02*
G01*
X903504Y56374D01*
X927910Y103620D02*
G01*
X903504Y103620D01*
X897595Y95747D02*
G01*
X897595Y64252D01*
X942084Y103620D02*
G01*
X966495Y103620D01*
X972399Y95747D02*
G01*
X972399Y64252D01*
X897595Y97712D02*
G01*
X897595Y95747D01*
X897595Y62283D02*
G01*
X897595Y64252D01*
X972399Y97716D02*
G01*
X972399Y95747D01*
X972399Y62278D02*
G01*
X972399Y64252D01*
D47*
X915780Y521460D02*
G01*
X1348850Y521460D01*
X1348850Y112020D01*
X915780Y112020D01*
X915780Y521460D01*
D43*
G75*
G01*
X603504Y-376379D02*
G03*
X597595Y-382288I0J-5909D01*
G75*
G01*
X603504Y-423625D02*
G02*
X597595Y-417716I0J5909D01*
G75*
G01*
X666496Y-376379D02*
G02*
X672400Y-382283I0J-5904D01*
G75*
G01*
X666496Y-423625D02*
G03*
X672400Y-417721I0J5904D01*
G75*
G01*
X1668504Y523621D02*
G03*
X1662595Y517712I0J-5909D01*
G75*
G01*
X1668504Y476375D02*
G02*
X1662595Y482284I0J5909D01*
G75*
G01*
X1731496Y523621D02*
G02*
X1737400Y517717I0J-5904D01*
G75*
G01*
X1731496Y476375D02*
G03*
X1737400Y482279I0J5904D01*
G75*
G01*
X903504Y48621D02*
G03*
X897595Y42712I0J-5909D01*
G75*
G01*
X903504Y1375D02*
G02*
X897595Y7284I0J5909D01*
G75*
G01*
X966496Y48621D02*
G02*
X972400Y42717I0J-5904D01*
G75*
G01*
X966496Y1375D02*
G03*
X972400Y7279I0J5904D01*
G75*
G01*
X2023504Y-181379D02*
G03*
X2017595Y-187288I0J-5909D01*
G75*
G01*
X2023504Y-228625D02*
G02*
X2017595Y-222716I0J5909D01*
G75*
G01*
X2086496Y-181379D02*
G02*
X2092400Y-187283I0J-5904D01*
G75*
G01*
X2086496Y-228625D02*
G03*
X2092400Y-222721I0J5904D01*
G75*
G01*
X2028504Y78621D02*
G03*
X2022595Y72712I0J-5909D01*
G75*
G01*
X2028504Y31375D02*
G02*
X2022595Y37284I0J5909D01*
G75*
G01*
X2091496Y78621D02*
G02*
X2097400Y72717I0J-5904D01*
G75*
G01*
X2091496Y31375D02*
G03*
X2097400Y37279I0J5904D01*
D10*
G75*
G01*
X780945Y-293977D02*
G03*
X773069Y-286101I-7876J0D01*
G75*
G01*
X699055Y-293977D02*
G02*
X706930Y-286102I7875J0D01*
G75*
G01*
X780945Y-416023D02*
G02*
X773069Y-423899I-7876J0D01*
G75*
G01*
X699055Y-416023D02*
G03*
X706931Y-423899I7876J0D01*
G75*
G01*
X1116023Y19055D02*
G03*
X1123899Y26931I0J7876D01*
G75*
G01*
X1116023Y100945D02*
G02*
X1123898Y93070I0J-7875D01*
G75*
G01*
X993977Y19055D02*
G02*
X986101Y26931I0J7876D01*
G75*
G01*
X993977Y100945D02*
G03*
X986101Y93069I0J-7876D01*
G75*
G01*
X2241023Y-265945D02*
G03*
X2248899Y-258069I0J7876D01*
G75*
G01*
X2241023Y-184055D02*
G02*
X2248898Y-191930I0J-7875D01*
G75*
G01*
X2118977Y-265945D02*
G02*
X2111101Y-258069I0J7876D01*
G75*
G01*
X2118977Y-184055D02*
G03*
X2111101Y-191931I0J-7876D01*
G75*
G01*
X2405055Y245977D02*
G03*
X2412931Y238101I7876J0D01*
G75*
G01*
X2486945Y245977D02*
G02*
X2479070Y238102I-7875J0D01*
G75*
G01*
X2405055Y368023D02*
G02*
X2412931Y375899I7876J0D01*
G75*
G01*
X2486945Y368023D02*
G03*
X2479069Y375899I-7876J0D01*
G75*
G01*
X1864031Y274665D02*
G02*
X1851833Y286863I0J12198D01*
G75*
G01*
X1907725Y286863D02*
G02*
X1895526Y274665I-12198J0D01*
G75*
G01*
X1852062Y372527D02*
G02*
X1864261Y384725I12198J0D01*
G75*
G01*
X1895756Y384725D02*
G02*
X1907954Y372527I0J-12198D01*
G75*
G01*
X2348031Y266665D02*
G02*
X2335833Y278863I0J12198D01*
G75*
G01*
X2391725Y278863D02*
G02*
X2379526Y266665I-12198J0D01*
G75*
G01*
X2336062Y364527D02*
G02*
X2348261Y376725I12198J0D01*
G75*
G01*
X2379756Y376725D02*
G02*
X2391954Y364527I0J-12198D01*
D43*
G75*
G01*
X903504Y103621D02*
G03*
X897595Y97712I0J-5909D01*
G75*
G01*
X903504Y56375D02*
G02*
X897595Y62284I0J5909D01*
G75*
G01*
X966496Y103621D02*
G02*
X972400Y97717I0J-5904D01*
G75*
G01*
X966496Y56375D02*
G03*
X972400Y62279I0J5904D01*
D48*
G75*
G01
X2870Y-365000D02*
G03X2870Y-365000I-7870J0D01*
D10*
G75*
G01
X1750200Y350000D02*
G03X1750200Y350000I-50200J0D01*
G75*
G01
X1750200Y-350000D02*
G03X1750200Y-350000I-50200J0D01*
D49*
G75*
G01
X1955910Y319880D02*
G03X1955910Y319880I-5910J0D01*
G75*
G01
X1927080Y246910D02*
G03X1927080Y246910I-5910J0D01*
D10*
G75*
G01
X1757600Y-12550D02*
G03X1757600Y-12550I-59060J0D01*
G75*
G01
X1800900Y105580D02*
G03X1800900Y105580I-3940J0D01*
M02*
