G04 Layer: TopSolderMaskLayer*
G04 EasyEDA v6.5.5, 2022-06-30 21:59:10*
G04 844943e940ba41f192d5fd3784e3f5d8,9c416354eb984020824aaf9c885bead6,10*
G04 Gerber Generator version 0.2*
G04 Scale: 100 percent, Rotated: No, Reflected: No *
G04 Dimensions in inches *
G04 leading zeros omitted , absolute positions ,3 integer and 6 decimal *
%FSLAX36Y36*%
%MOIN*%

%ADD52C,0.0260*%
%ADD53C,0.0552*%
%ADD60C,0.0660*%
%ADD61C,0.0709*%
%ADD66C,0.0828*%
%ADD77C,0.0640*%
%ADD78C,0.1221*%
%ADD80C,0.0440*%

%LPD*%
D52*
X1950000Y270237D02*
G01*
X1950000Y223582D01*
X2000000Y270237D02*
G01*
X2000000Y223582D01*
X2050000Y270237D02*
G01*
X2050000Y223582D01*
X2100000Y270237D02*
G01*
X2100000Y223582D01*
X2150000Y270237D02*
G01*
X2150000Y223582D01*
X2200000Y270237D02*
G01*
X2200000Y223582D01*
X2250000Y270237D02*
G01*
X2250000Y223582D01*
X2300000Y270237D02*
G01*
X2300000Y223582D01*
X1950000Y496417D02*
G01*
X1950000Y449762D01*
X2000000Y496417D02*
G01*
X2000000Y449762D01*
X2050000Y496417D02*
G01*
X2050000Y449762D01*
X2100000Y496417D02*
G01*
X2100000Y449762D01*
X2150000Y496417D02*
G01*
X2150000Y449762D01*
X2200000Y496417D02*
G01*
X2200000Y449762D01*
X2250000Y496417D02*
G01*
X2250000Y449762D01*
X2300000Y496417D02*
G01*
X2300000Y449762D01*
D53*
X2412173Y141729D02*
G01*
X2447606Y141729D01*
X2412173Y-141729D02*
G01*
X2447606Y-141729D01*
G36*
X1246400Y-484299D02*
G01*
X1246400Y-421300D01*
X1368500Y-421300D01*
X1368500Y-484299D01*
G37*
G36*
X931499Y-405599D02*
G01*
X931499Y-342500D01*
X1053599Y-342500D01*
X1053599Y-405599D01*
G37*
G36*
X1246400Y-208699D02*
G01*
X1246400Y-145700D01*
X1368500Y-145700D01*
X1368500Y-208699D01*
G37*
G36*
X601500Y-419800D02*
G01*
X601500Y-380300D01*
X629200Y-380300D01*
X629200Y-419800D01*
G37*
G36*
X640799Y-419800D02*
G01*
X640799Y-380300D01*
X668499Y-380300D01*
X668499Y-419800D01*
G37*
G36*
X1666499Y480199D02*
G01*
X1666499Y519699D01*
X1694200Y519699D01*
X1694200Y480199D01*
G37*
G36*
X1705799Y480199D02*
G01*
X1705799Y519699D01*
X1733500Y519699D01*
X1733500Y480199D01*
G37*
G36*
X901499Y5199D02*
G01*
X901499Y44699D01*
X929200Y44699D01*
X929200Y5199D01*
G37*
G36*
X940799Y5199D02*
G01*
X940799Y44699D01*
X968500Y44699D01*
X968500Y5199D01*
G37*
G36*
X2021499Y-224800D02*
G01*
X2021499Y-185300D01*
X2049200Y-185300D01*
X2049200Y-224800D01*
G37*
G36*
X2060799Y-224800D02*
G01*
X2060799Y-185300D01*
X2088500Y-185300D01*
X2088500Y-224800D01*
G37*
G36*
X2026499Y35199D02*
G01*
X2026499Y74699D01*
X2054200Y74699D01*
X2054200Y35199D01*
G37*
G36*
X2065799Y35199D02*
G01*
X2065799Y74699D01*
X2093500Y74699D01*
X2093500Y35199D01*
G37*
G36*
X705500Y-339299D02*
G01*
X705500Y-291900D01*
X774499Y-291900D01*
X774499Y-339299D01*
G37*
G36*
X705500Y-418099D02*
G01*
X705500Y-370700D01*
X774499Y-370700D01*
X774499Y-418099D01*
G37*
G36*
X1070699Y25500D02*
G01*
X1070699Y94499D01*
X1118100Y94499D01*
X1118100Y25500D01*
G37*
G36*
X991899Y25500D02*
G01*
X991899Y94499D01*
X1039300Y94499D01*
X1039300Y25500D01*
G37*
G36*
X2195699Y-259499D02*
G01*
X2195699Y-190500D01*
X2243100Y-190500D01*
X2243100Y-259499D01*
G37*
G36*
X2116899Y-259499D02*
G01*
X2116899Y-190500D01*
X2164300Y-190500D01*
X2164300Y-259499D01*
G37*
G36*
X2411499Y243899D02*
G01*
X2411499Y291300D01*
X2480500Y291300D01*
X2480500Y243899D01*
G37*
G36*
X2411499Y322699D02*
G01*
X2411499Y370100D01*
X2480500Y370100D01*
X2480500Y322699D01*
G37*
G36*
X801199Y-287600D02*
G01*
X801199Y-220300D01*
X898800Y-220300D01*
X898800Y-287600D01*
G37*
G36*
X801199Y-429699D02*
G01*
X801199Y-362399D01*
X898800Y-362399D01*
X898800Y-429699D01*
G37*
G36*
X1860299Y339800D02*
G01*
X1860299Y375300D01*
X1899700Y375300D01*
X1899700Y339800D01*
G37*
G36*
X1860299Y284699D02*
G01*
X1860299Y320199D01*
X1899700Y320199D01*
X1899700Y284699D01*
G37*
G36*
X2344300Y331799D02*
G01*
X2344300Y367300D01*
X2383699Y367300D01*
X2383699Y331799D01*
G37*
G36*
X2344300Y276700D02*
G01*
X2344300Y312199D01*
X2383699Y312199D01*
X2383699Y276700D01*
G37*
G36*
X1665500Y123299D02*
G01*
X1665500Y162699D01*
X1693199Y162699D01*
X1693199Y123299D01*
G37*
G36*
X1704799Y123299D02*
G01*
X1704799Y162699D01*
X1732500Y162699D01*
X1732500Y123299D01*
G37*
G36*
X2026499Y145300D02*
G01*
X2026499Y184699D01*
X2054200Y184699D01*
X2054200Y145300D01*
G37*
G36*
X2065799Y145300D02*
G01*
X2065799Y184699D01*
X2093500Y184699D01*
X2093500Y145300D01*
G37*
G36*
X271500Y-499699D02*
G01*
X271500Y-460300D01*
X299200Y-460300D01*
X299200Y-499699D01*
G37*
G36*
X310799Y-499699D02*
G01*
X310799Y-460300D01*
X338499Y-460300D01*
X338499Y-499699D01*
G37*
G36*
X271500Y-444699D02*
G01*
X271500Y-405300D01*
X299200Y-405300D01*
X299200Y-444699D01*
G37*
G36*
X310799Y-444699D02*
G01*
X310799Y-405300D01*
X338499Y-405300D01*
X338499Y-444699D01*
G37*
D60*
G01*
X1880000Y-390000D03*
D61*
G01*
X1880000Y-490000D03*
D60*
G01*
X1500000Y-200000D03*
G01*
X1500000Y-100000D03*
G01*
X1500000Y0D03*
G01*
X1500000Y100000D03*
G01*
X1500000Y200000D03*
G36*
X1466999Y266999D02*
G01*
X1466999Y333000D01*
X1533000Y333000D01*
X1533000Y266999D01*
G37*
G01*
X1500000Y-300000D03*
G36*
X44299Y269699D02*
G01*
X44299Y360199D01*
X95500Y360199D01*
X95500Y269699D01*
G37*
G36*
X123000Y269699D02*
G01*
X123000Y360199D01*
X174200Y360199D01*
X174200Y269699D01*
G37*
G36*
X201799Y269699D02*
G01*
X201799Y360199D01*
X253000Y360199D01*
X253000Y269699D01*
G37*
G36*
X280500Y269699D02*
G01*
X280500Y360199D01*
X331700Y360199D01*
X331700Y269699D01*
G37*
G36*
X359200Y269699D02*
G01*
X359200Y360199D01*
X410399Y360199D01*
X410399Y269699D01*
G37*
G36*
X438000Y269699D02*
G01*
X438000Y360199D01*
X489200Y360199D01*
X489200Y269699D01*
G37*
G36*
X516700Y269699D02*
G01*
X516700Y360199D01*
X567899Y360199D01*
X567899Y269699D01*
G37*
G36*
X595500Y269699D02*
G01*
X595500Y360199D01*
X646700Y360199D01*
X646700Y269699D01*
G37*
G36*
X634800Y171300D02*
G01*
X634800Y222399D01*
X725399Y222399D01*
X725399Y171300D01*
G37*
G36*
X634800Y92500D02*
G01*
X634800Y143699D01*
X725399Y143699D01*
X725399Y92500D01*
G37*
G36*
X634800Y13800D02*
G01*
X634800Y65000D01*
X725399Y65000D01*
X725399Y13800D01*
G37*
G36*
X634800Y-65000D02*
G01*
X634800Y-13800D01*
X725399Y-13800D01*
X725399Y-65000D01*
G37*
G36*
X634800Y-143699D02*
G01*
X634800Y-92500D01*
X725399Y-92500D01*
X725399Y-143699D01*
G37*
G36*
X634800Y-222399D02*
G01*
X634800Y-171300D01*
X725399Y-171300D01*
X725399Y-222399D01*
G37*
G36*
X595500Y-360199D02*
G01*
X595500Y-269699D01*
X646700Y-269699D01*
X646700Y-360199D01*
G37*
G36*
X516700Y-360199D02*
G01*
X516700Y-269699D01*
X567899Y-269699D01*
X567899Y-360199D01*
G37*
G36*
X438000Y-360199D02*
G01*
X438000Y-269699D01*
X489200Y-269699D01*
X489200Y-360199D01*
G37*
G36*
X359200Y-360199D02*
G01*
X359200Y-269699D01*
X410399Y-269699D01*
X410399Y-360199D01*
G37*
G36*
X280500Y-360199D02*
G01*
X280500Y-269699D01*
X331700Y-269699D01*
X331700Y-360199D01*
G37*
G36*
X201799Y-360199D02*
G01*
X201799Y-269699D01*
X253000Y-269699D01*
X253000Y-360199D01*
G37*
G36*
X123000Y-360199D02*
G01*
X123000Y-269699D01*
X174200Y-269699D01*
X174200Y-360199D01*
G37*
G36*
X44299Y-360199D02*
G01*
X44299Y-269699D01*
X95500Y-269699D01*
X95500Y-360199D01*
G37*
G36*
X658600Y443600D02*
G01*
X658600Y526399D01*
X741399Y526399D01*
X741399Y443600D01*
G37*
D66*
G01*
X800000Y485000D03*
G36*
X1940900Y20100D02*
G01*
X1940900Y45100D01*
X1985799Y45100D01*
X1985799Y20100D01*
G37*
G36*
X1940900Y94899D02*
G01*
X1940900Y119899D01*
X1985799Y119899D01*
X1985799Y94899D01*
G37*
G36*
X1854200Y57500D02*
G01*
X1854200Y82500D01*
X1899099Y82500D01*
X1899099Y57500D01*
G37*
G36*
X1940900Y-109899D02*
G01*
X1940900Y-84899D01*
X1985799Y-84899D01*
X1985799Y-109899D01*
G37*
G36*
X1940900Y-35100D02*
G01*
X1940900Y-10100D01*
X1985799Y-10100D01*
X1985799Y-35100D01*
G37*
G36*
X1854200Y-72500D02*
G01*
X1854200Y-47500D01*
X1899099Y-47500D01*
X1899099Y-72500D01*
G37*
G36*
X1819799Y177399D02*
G01*
X1819799Y202600D01*
X1846099Y202600D01*
X1846099Y177399D01*
G37*
G36*
X1853900Y177399D02*
G01*
X1853900Y202600D01*
X1880200Y202600D01*
X1880200Y177399D01*
G37*
G36*
X1819799Y222399D02*
G01*
X1819799Y247600D01*
X1846099Y247600D01*
X1846099Y222399D01*
G37*
G36*
X1853900Y222399D02*
G01*
X1853900Y247600D01*
X1880200Y247600D01*
X1880200Y222399D01*
G37*
G36*
X1668400Y-185199D02*
G01*
X1668400Y-159899D01*
X1694600Y-159899D01*
X1694600Y-185199D01*
G37*
G36*
X1702399Y-185199D02*
G01*
X1702399Y-159899D01*
X1728699Y-159899D01*
X1728699Y-185199D01*
G37*
G36*
X2012100Y-432199D02*
G01*
X2012100Y-376999D01*
X2051499Y-376999D01*
X2051499Y-432199D01*
G37*
G36*
X2129799Y-432199D02*
G01*
X2129799Y-376999D01*
X2169200Y-376999D01*
X2169200Y-432199D01*
G37*
G36*
X2188900Y-432199D02*
G01*
X2188900Y-376999D01*
X2228299Y-376999D01*
X2228299Y-432199D01*
G37*
G36*
X2241999Y-545100D02*
G01*
X2241999Y-505700D01*
X2297200Y-505700D01*
X2297200Y-545100D01*
G37*
G36*
X2241999Y-458499D02*
G01*
X2241999Y-419099D01*
X2297200Y-419099D01*
X2297200Y-458499D01*
G37*
G36*
X1942799Y-545100D02*
G01*
X1942799Y-505700D01*
X1998000Y-505700D01*
X1998000Y-545100D01*
G37*
G36*
X1942799Y-458499D02*
G01*
X1942799Y-419099D01*
X1998000Y-419099D01*
X1998000Y-458499D01*
G37*
G36*
X1751099Y444499D02*
G01*
X1751099Y515399D01*
X1794499Y515399D01*
X1794499Y444499D01*
G37*
G36*
X1751199Y184600D02*
G01*
X1751199Y255500D01*
X1794499Y255500D01*
X1794499Y184600D01*
G37*
G36*
X1605500Y444499D02*
G01*
X1605500Y515399D01*
X1648800Y515399D01*
X1648800Y444499D01*
G37*
G36*
X1605500Y184600D02*
G01*
X1605500Y255500D01*
X1648800Y255500D01*
X1648800Y184600D01*
G37*
G36*
X1605500Y-515399D02*
G01*
X1605500Y-444499D01*
X1648900Y-444499D01*
X1648900Y-515399D01*
G37*
G36*
X1605500Y-255500D02*
G01*
X1605500Y-184600D01*
X1648800Y-184600D01*
X1648800Y-255500D01*
G37*
G36*
X1751199Y-515399D02*
G01*
X1751199Y-444499D01*
X1794499Y-444499D01*
X1794499Y-515399D01*
G37*
G36*
X1751199Y-255500D02*
G01*
X1751199Y-184600D01*
X1794499Y-184600D01*
X1794499Y-255500D01*
G37*
G36*
X2033299Y-114000D02*
G01*
X2031400Y-113899D01*
X2027799Y-113299D01*
X2024200Y-112500D01*
X2022399Y-111900D01*
X2020699Y-111300D01*
X2018999Y-110599D01*
X2017299Y-109800D01*
X2014099Y-108000D01*
X2009600Y-104699D01*
X2008299Y-103499D01*
X2006899Y-102199D01*
X2004499Y-99400D01*
X2002299Y-96399D01*
X2001300Y-94899D01*
X2000399Y-93299D01*
X1998800Y-89899D01*
X1998100Y-88200D01*
X1997600Y-86500D01*
X1996999Y-84699D01*
X1996599Y-82899D01*
X1996000Y-79299D01*
X1995799Y-77399D01*
X1995699Y-75599D01*
X1995699Y-73699D01*
X1995799Y-71900D01*
X1996000Y-70000D01*
X1996599Y-66399D01*
X1996999Y-64600D01*
X1997600Y-62800D01*
X1998100Y-61100D01*
X1998800Y-59400D01*
X2000399Y-55999D01*
X2001300Y-54400D01*
X2002299Y-52899D01*
X2004499Y-49899D01*
X2006899Y-47100D01*
X2008299Y-45900D01*
X2009600Y-44600D01*
X2012600Y-42399D01*
X2014099Y-41399D01*
X2015699Y-40399D01*
X2017299Y-39499D01*
X2018999Y-38699D01*
X2020699Y-38000D01*
X2022399Y-37399D01*
X2024200Y-36799D01*
X2027799Y-35999D01*
X2029600Y-35700D01*
X2031400Y-35500D01*
X2033299Y-35300D01*
X2110000Y-35300D01*
X2113599Y-35700D01*
X2115500Y-35999D01*
X2117299Y-36399D01*
X2118999Y-36799D01*
X2120799Y-37399D01*
X2122500Y-38000D01*
X2124200Y-38699D01*
X2125900Y-39499D01*
X2127500Y-40399D01*
X2129099Y-41399D01*
X2130600Y-42399D01*
X2133599Y-44600D01*
X2135000Y-45900D01*
X2136300Y-47100D01*
X2138699Y-49899D01*
X2139899Y-51399D01*
X2141899Y-54400D01*
X2142799Y-55999D01*
X2143699Y-57899D01*
X2144099Y-59699D01*
X2211400Y-59699D01*
X2211400Y-89600D01*
X2144099Y-89600D01*
X2143699Y-91399D01*
X2142799Y-93299D01*
X2141899Y-94899D01*
X2139899Y-97899D01*
X2138699Y-99400D01*
X2136300Y-102199D01*
X2135000Y-103499D01*
X2133599Y-104699D01*
X2129099Y-108000D01*
X2125900Y-109800D01*
X2124200Y-110599D01*
X2122500Y-111300D01*
X2120799Y-111900D01*
X2118999Y-112500D01*
X2117299Y-112899D01*
X2115500Y-113299D01*
X2113599Y-113600D01*
X2111800Y-113899D01*
X2110000Y-114000D01*
G37*
G36*
X2145399Y-31199D02*
G01*
X2145399Y-700D01*
X2211400Y-700D01*
X2211400Y-31199D01*
G37*
G36*
X2145399Y-149299D02*
G01*
X2145399Y-118800D01*
X2211400Y-118800D01*
X2211400Y-149299D01*
G37*
G36*
X2280500Y41300D02*
G01*
X2280500Y61100D01*
X2339700Y61100D01*
X2339700Y41300D01*
G37*
G36*
X2280500Y15700D02*
G01*
X2280500Y35500D01*
X2339700Y35500D01*
X2339700Y15700D01*
G37*
G36*
X2280500Y-9899D02*
G01*
X2280500Y9899D01*
X2339700Y9899D01*
X2339700Y-9899D01*
G37*
G36*
X2280500Y-35500D02*
G01*
X2280500Y-15700D01*
X2339700Y-15700D01*
X2339700Y-35500D01*
G37*
G36*
X2280500Y-61100D02*
G01*
X2280500Y-41300D01*
X2339700Y-41300D01*
X2339700Y-61100D01*
G37*
D53*
G01*
X2324769Y-95470D03*
G01*
X2324769Y95470D03*
G36*
X1611899Y-140500D02*
G01*
X1611899Y-77500D01*
X1655200Y-77500D01*
X1655200Y-140500D01*
G37*
G36*
X1741899Y-140500D02*
G01*
X1741899Y-77500D01*
X1785200Y-77500D01*
X1785200Y-140500D01*
G37*
G36*
X1741899Y52399D02*
G01*
X1741899Y115500D01*
X1785200Y115500D01*
X1785200Y52399D01*
G37*
G36*
X1611899Y52399D02*
G01*
X1611899Y115500D01*
X1655200Y115500D01*
X1655200Y52399D01*
G37*
G36*
X2026499Y90300D02*
G01*
X2026499Y129699D01*
X2054200Y129699D01*
X2054200Y90300D01*
G37*
G36*
X2065799Y90300D02*
G01*
X2065799Y129699D01*
X2093500Y129699D01*
X2093500Y90300D01*
G37*
G36*
X746199Y302600D02*
G01*
X746199Y318400D01*
X770100Y318400D01*
X770100Y302600D01*
G37*
G36*
X746199Y322300D02*
G01*
X746199Y338099D01*
X770100Y338099D01*
X770100Y322300D01*
G37*
G36*
X746199Y341900D02*
G01*
X746199Y357699D01*
X770100Y357699D01*
X770100Y341900D01*
G37*
G36*
X746199Y361599D02*
G01*
X746199Y377399D01*
X770100Y377399D01*
X770100Y361599D01*
G37*
G36*
X779899Y302600D02*
G01*
X779899Y318400D01*
X803800Y318400D01*
X803800Y302600D01*
G37*
G36*
X779899Y322300D02*
G01*
X779899Y338099D01*
X803800Y338099D01*
X803800Y322300D01*
G37*
G36*
X779899Y341900D02*
G01*
X779899Y357699D01*
X803800Y357699D01*
X803800Y341900D01*
G37*
G36*
X779899Y361599D02*
G01*
X779899Y377399D01*
X803800Y377399D01*
X803800Y361599D01*
G37*
G36*
X1468000Y268000D02*
G01*
X1468000Y331999D01*
X1531999Y331999D01*
X1531999Y268000D01*
G37*
D77*
G01*
X1500000Y200000D03*
G01*
X1500000Y100000D03*
G01*
X1500000Y0D03*
G01*
X1500000Y-100000D03*
G01*
X1500000Y-200000D03*
G01*
X1500000Y-300000D03*
D78*
G01*
X1451570Y450000D03*
G01*
X1451570Y-450000D03*
G01*
X104329Y450000D03*
G01*
X104329Y-450000D03*
G36*
X2399499Y-268000D02*
G01*
X2399499Y-201999D01*
X2470500Y-201999D01*
X2470500Y-268000D01*
G37*
D61*
G01*
X2335000Y-235000D03*
G36*
X901499Y60199D02*
G01*
X901499Y99699D01*
X929200Y99699D01*
X929200Y60199D01*
G37*
G36*
X940799Y60199D02*
G01*
X940799Y99699D01*
X968500Y99699D01*
X968500Y60199D01*
G37*
D80*
G01*
X2358000Y214000D03*
G01*
X2156000Y-335999D03*
G01*
X2426000Y-334000D03*
G01*
X788000Y115999D03*
G01*
X788000Y-38000D03*
G01*
X788000Y38000D03*
G01*
X455999Y-428000D03*
G01*
X528000Y-428000D03*
G01*
X388000Y-428000D03*
G01*
X194000Y-490000D03*
G36*
X882299Y440700D02*
G01*
X882299Y507699D01*
X949300Y507699D01*
X949300Y440700D01*
G37*
G36*
X882299Y361999D02*
G01*
X882299Y429000D01*
X949300Y429000D01*
X949300Y361999D01*
G37*
G36*
X882299Y283200D02*
G01*
X882299Y350199D01*
X949300Y350199D01*
X949300Y283200D01*
G37*
G36*
X882299Y204499D02*
G01*
X882299Y271500D01*
X949300Y271500D01*
X949300Y204499D01*
G37*
G36*
X882299Y125799D02*
G01*
X882299Y192800D01*
X949300Y192800D01*
X949300Y125799D01*
G37*
G36*
X1315399Y125799D02*
G01*
X1315399Y192800D01*
X1382399Y192800D01*
X1382399Y125799D01*
G37*
G36*
X1315399Y204499D02*
G01*
X1315399Y271500D01*
X1382399Y271500D01*
X1382399Y204499D01*
G37*
G36*
X1315399Y283200D02*
G01*
X1315399Y350199D01*
X1382399Y350199D01*
X1382399Y283200D01*
G37*
G36*
X1315399Y361999D02*
G01*
X1315399Y429000D01*
X1382399Y429000D01*
X1382399Y361999D01*
G37*
G36*
X1315399Y440700D02*
G01*
X1315399Y507699D01*
X1382399Y507699D01*
X1382399Y440700D01*
G37*
D78*
G01*
X2400000Y450000D03*
G01*
X2400000Y-450000D03*
M02*
