G04 Layer: BottomSolderMaskLayer*
G04 EasyEDA v6.5.5, 2022-06-30 21:59:10*
G04 844943e940ba41f192d5fd3784e3f5d8,9c416354eb984020824aaf9c885bead6,10*
G04 Gerber Generator version 0.2*
G04 Scale: 100 percent, Rotated: No, Reflected: No *
G04 Dimensions in inches *
G04 leading zeros omitted , absolute positions ,3 integer and 6 decimal *
%FSLAX36Y36*%
%MOIN*%

%ADD53C,0.0552*%
%ADD60C,0.0660*%
%ADD61C,0.0709*%
%ADD66C,0.0828*%
%ADD77C,0.0640*%
%ADD78C,0.1221*%
%ADD80C,0.0440*%

%LPD*%
D53*
X2412173Y141729D02*
G01*
X2447606Y141729D01*
X2412173Y-141729D02*
G01*
X2447606Y-141729D01*
D80*
G01*
X615999Y464000D03*
G01*
X477330Y464000D03*
G01*
X546669Y464000D03*
G01*
X269329Y464000D03*
G01*
X338670Y464000D03*
G01*
X408000Y464000D03*
G01*
X200000Y464000D03*
G01*
X284000Y-490000D03*
D60*
G01*
X1880000Y-390000D03*
D61*
G01*
X1880000Y-490000D03*
D60*
G01*
X1500000Y-200000D03*
G01*
X1500000Y-100000D03*
G01*
X1500000Y0D03*
G01*
X1500000Y100000D03*
G01*
X1500000Y200000D03*
G36*
X1466999Y266999D02*
G01*
X1466999Y333000D01*
X1533000Y333000D01*
X1533000Y266999D01*
G37*
G01*
X1500000Y-300000D03*
G36*
X658600Y443600D02*
G01*
X658600Y526399D01*
X741399Y526399D01*
X741399Y443600D01*
G37*
D66*
G01*
X800000Y485000D03*
D53*
G01*
X2324769Y-95470D03*
G01*
X2324769Y95470D03*
G36*
X1468000Y268000D02*
G01*
X1468000Y331999D01*
X1531999Y331999D01*
X1531999Y268000D01*
G37*
D77*
G01*
X1500000Y200000D03*
G01*
X1500000Y100000D03*
G01*
X1500000Y0D03*
G01*
X1500000Y-100000D03*
G01*
X1500000Y-200000D03*
G01*
X1500000Y-300000D03*
D78*
G01*
X1451570Y450000D03*
G01*
X1451570Y-450000D03*
G01*
X104329Y450000D03*
G01*
X104329Y-450000D03*
G36*
X2399499Y-268000D02*
G01*
X2399499Y-201999D01*
X2470500Y-201999D01*
X2470500Y-268000D01*
G37*
D61*
G01*
X2335000Y-235000D03*
D80*
G01*
X203000Y-490000D03*
G01*
X364000Y-490000D03*
D78*
G01*
X2400000Y450000D03*
G01*
X2400000Y-450000D03*
M02*
