G04 Layer: BottomSilkscreenLayer*
G04 EasyEDA v6.5.5, 2022-06-30 21:59:10*
G04 844943e940ba41f192d5fd3784e3f5d8,9c416354eb984020824aaf9c885bead6,10*
G04 Gerber Generator version 0.2*
G04 Scale: 100 percent, Rotated: No, Reflected: No *
G04 Dimensions in inches *
G04 leading zeros omitted , absolute positions ,3 integer and 6 decimal *
%FSLAX36Y36*%
%MOIN*%

%ADD44C,0.0060*%
%ADD46C,0.0080*%
%ADD50C,0.0157*%

%LPD*%
G36*
X2121820Y274000D02*
G01*
X2121820Y178060D01*
X2073380Y177220D01*
X2066000Y176940D01*
X2060120Y176480D01*
X2057660Y176180D01*
X2055480Y175799D01*
X2053560Y175360D01*
X2051840Y174840D01*
X2050300Y174220D01*
X2048899Y173500D01*
X2047640Y172680D01*
X2046440Y171720D01*
X2045300Y170660D01*
X2043060Y168100D01*
X2040640Y164940D01*
X2039520Y163280D01*
X2038660Y161400D01*
X2038300Y160260D01*
X2037740Y157380D01*
X2037320Y153420D01*
X2037000Y148040D01*
X2036579Y131660D01*
X2035940Y92180D01*
X1940000Y92180D01*
X1940000Y71200D01*
X2036160Y71200D01*
X2036160Y53720D01*
X1940000Y53720D01*
X1940000Y32740D01*
X2036160Y32740D01*
X2036160Y15260D01*
X1940000Y15260D01*
X1940000Y5060D01*
X2055380Y5060D01*
X2055460Y96039D01*
X2055640Y123140D01*
X2056000Y140220D01*
X2056279Y145780D01*
X2056600Y149740D01*
X2057020Y152420D01*
X2057500Y154140D01*
X2058080Y155180D01*
X2058959Y156020D01*
X2060080Y156540D01*
X2061920Y157000D01*
X2064720Y157380D01*
X2068760Y157700D01*
X2074300Y157960D01*
X2090940Y158320D01*
X2116740Y158520D01*
X2171060Y158620D01*
X2262040Y158540D01*
X2289140Y158360D01*
X2306220Y158000D01*
X2311780Y157720D01*
X2315740Y157400D01*
X2318420Y156980D01*
X2320140Y156500D01*
X2320980Y156080D01*
X2321560Y155600D01*
X2322020Y155040D01*
X2322540Y153920D01*
X2323000Y152080D01*
X2323380Y149280D01*
X2323700Y145240D01*
X2323960Y139700D01*
X2324320Y123059D01*
X2324520Y97260D01*
X2324620Y48900D01*
X2324540Y-52060D01*
X2324320Y-77780D01*
X2324160Y-86840D01*
X2323940Y-93780D01*
X2323660Y-98900D01*
X2323300Y-102520D01*
X2322880Y-104940D01*
X2322360Y-106460D01*
X2321760Y-107380D01*
X2321240Y-107880D01*
X2320260Y-108420D01*
X2318620Y-108880D01*
X2316080Y-109280D01*
X2312380Y-109620D01*
X2307240Y-109900D01*
X2300400Y-110120D01*
X2280580Y-110399D01*
X2250800Y-110559D01*
X2141080Y-110600D01*
X2106460Y-110500D01*
X2083400Y-110239D01*
X2075440Y-110060D01*
X2069440Y-109800D01*
X2065120Y-109480D01*
X2062140Y-109100D01*
X2060220Y-108620D01*
X2059540Y-108360D01*
X2058620Y-107760D01*
X2058120Y-107240D01*
X2057580Y-106240D01*
X2057120Y-104620D01*
X2056720Y-102080D01*
X2056380Y-98379D01*
X2056100Y-93240D01*
X2055880Y-86400D01*
X2055600Y-66580D01*
X2055440Y-36800D01*
X2055380Y5060D01*
X1940000Y5060D01*
X1940000Y-5719D01*
X2036160Y-5719D01*
X2036160Y-23200D01*
X1940000Y-23200D01*
X1940000Y-44180D01*
X2035940Y-44180D01*
X2036780Y-92899D01*
X2037000Y-100040D01*
X2037320Y-105420D01*
X2037740Y-109380D01*
X2038300Y-112260D01*
X2039060Y-114380D01*
X2040040Y-116120D01*
X2041879Y-118600D01*
X2044199Y-121440D01*
X2045300Y-122660D01*
X2046440Y-123720D01*
X2047640Y-124660D01*
X2048899Y-125500D01*
X2050300Y-126220D01*
X2051840Y-126840D01*
X2053560Y-127360D01*
X2055480Y-127800D01*
X2057660Y-128180D01*
X2062900Y-128740D01*
X2069500Y-129100D01*
X2077720Y-129340D01*
X2121820Y-130060D01*
X2121820Y-226000D01*
X2142800Y-226000D01*
X2142800Y-129840D01*
X2160280Y-129840D01*
X2160280Y-226000D01*
X2181260Y-226000D01*
X2181260Y-129840D01*
X2198740Y-129840D01*
X2198740Y-226000D01*
X2219720Y-226000D01*
X2219720Y-129840D01*
X2237200Y-129840D01*
X2237200Y-226000D01*
X2258180Y-226000D01*
X2258180Y-129840D01*
X2305860Y-129800D01*
X2312900Y-129680D01*
X2318120Y-129460D01*
X2321960Y-129060D01*
X2324760Y-128480D01*
X2325920Y-128100D01*
X2327920Y-127160D01*
X2329880Y-125920D01*
X2333320Y-123500D01*
X2334780Y-122380D01*
X2336080Y-121260D01*
X2337240Y-120120D01*
X2338280Y-118940D01*
X2339180Y-117660D01*
X2339960Y-116240D01*
X2340620Y-114680D01*
X2341200Y-112940D01*
X2341680Y-110980D01*
X2342080Y-108780D01*
X2342420Y-106280D01*
X2342900Y-100300D01*
X2343220Y-92820D01*
X2344060Y-44180D01*
X2440000Y-44180D01*
X2440000Y-23200D01*
X2343840Y-23200D01*
X2343840Y-5719D01*
X2440000Y-5719D01*
X2440000Y15260D01*
X2343840Y15260D01*
X2343840Y32740D01*
X2440000Y32740D01*
X2440000Y53720D01*
X2343840Y53720D01*
X2343840Y71200D01*
X2440000Y71200D01*
X2440000Y92180D01*
X2343840Y92180D01*
X2343820Y134740D01*
X2343740Y142600D01*
X2343580Y148660D01*
X2343280Y153240D01*
X2342820Y156700D01*
X2342160Y159400D01*
X2341280Y161660D01*
X2340140Y163860D01*
X2338400Y166759D01*
X2336620Y169220D01*
X2335680Y170320D01*
X2333600Y172220D01*
X2332460Y173039D01*
X2331200Y173780D01*
X2329840Y174440D01*
X2326720Y175539D01*
X2322960Y176380D01*
X2318460Y177000D01*
X2313100Y177420D01*
X2306780Y177680D01*
X2299360Y177820D01*
X2258180Y177840D01*
X2258180Y274000D01*
X2237200Y274000D01*
X2237200Y177840D01*
X2219720Y177840D01*
X2219720Y274000D01*
X2198740Y274000D01*
X2198740Y177840D01*
X2181260Y177840D01*
X2181260Y274000D01*
X2160280Y274000D01*
X2160280Y177840D01*
X2142800Y177840D01*
X2142800Y274000D01*
G37*
G36*
X2226560Y142660D02*
G01*
X2116300Y142000D01*
X2104340Y128940D01*
X2104340Y-4500D01*
X2120060Y-4500D01*
X2120060Y64220D01*
X2136180Y64280D01*
X2139240Y64460D01*
X2141980Y64760D01*
X2144420Y65199D01*
X2146540Y65760D01*
X2148360Y66460D01*
X2149900Y67300D01*
X2151140Y68260D01*
X2152080Y69380D01*
X2152760Y70620D01*
X2153160Y72020D01*
X2153280Y73580D01*
X2153220Y75140D01*
X2152980Y76500D01*
X2152540Y77660D01*
X2151860Y78660D01*
X2150940Y79480D01*
X2149720Y80140D01*
X2148180Y80680D01*
X2146300Y81080D01*
X2144020Y81359D01*
X2141320Y81560D01*
X2134580Y81700D01*
X2120060Y81700D01*
X2120060Y95680D01*
X2136840Y95719D01*
X2139980Y95840D01*
X2142740Y96060D01*
X2145140Y96380D01*
X2147180Y96800D01*
X2148900Y97320D01*
X2150320Y97980D01*
X2151420Y98740D01*
X2152260Y99640D01*
X2152840Y100680D01*
X2153160Y101840D01*
X2153260Y103180D01*
X2153180Y104980D01*
X2152980Y106540D01*
X2152600Y107880D01*
X2152000Y109000D01*
X2151160Y109940D01*
X2150020Y110700D01*
X2148560Y111320D01*
X2146720Y111820D01*
X2144500Y112200D01*
X2141820Y112500D01*
X2126640Y113340D01*
X2124000Y113620D01*
X2122180Y114000D01*
X2121020Y114560D01*
X2120400Y115300D01*
X2120120Y116300D01*
X2120060Y117579D01*
X2120280Y119380D01*
X2120880Y121260D01*
X2121760Y123020D01*
X2122820Y124400D01*
X2123440Y124880D01*
X2124360Y125300D01*
X2125640Y125680D01*
X2127420Y126000D01*
X2132740Y126480D01*
X2141100Y126820D01*
X2153220Y127020D01*
X2169860Y127120D01*
X2257980Y127140D01*
X2260700Y123260D01*
X2261760Y121500D01*
X2262620Y119600D01*
X2263220Y117780D01*
X2263420Y116260D01*
X2263340Y115360D01*
X2262980Y114640D01*
X2262280Y114100D01*
X2261140Y113699D01*
X2259440Y113440D01*
X2257120Y113260D01*
X2243260Y113000D01*
X2240440Y112780D01*
X2238040Y112440D01*
X2236000Y112000D01*
X2234320Y111420D01*
X2232960Y110719D01*
X2231900Y109860D01*
X2231120Y108840D01*
X2230600Y107640D01*
X2230300Y106280D01*
X2230220Y104700D01*
X2230280Y102920D01*
X2230500Y101380D01*
X2230900Y100060D01*
X2231540Y98960D01*
X2232420Y98059D01*
X2233600Y97320D01*
X2235120Y96740D01*
X2237000Y96320D01*
X2239300Y96020D01*
X2242020Y95820D01*
X2248920Y95680D01*
X2263420Y95680D01*
X2263420Y81700D01*
X2245300Y81660D01*
X2242180Y81560D01*
X2239480Y81359D01*
X2237200Y81080D01*
X2235320Y80680D01*
X2233780Y80140D01*
X2232560Y79480D01*
X2231640Y78660D01*
X2230960Y77660D01*
X2230520Y76500D01*
X2230280Y75140D01*
X2230220Y73580D01*
X2230340Y72020D01*
X2230740Y70620D01*
X2231420Y69360D01*
X2232360Y68260D01*
X2233600Y67280D01*
X2235140Y66460D01*
X2236960Y65760D01*
X2239100Y65199D01*
X2241540Y64760D01*
X2244280Y64460D01*
X2247360Y64280D01*
X2263540Y64220D01*
X2262920Y-22300D01*
X2262700Y-40740D01*
X2262440Y-54400D01*
X2262080Y-64020D01*
X2261600Y-70260D01*
X2261300Y-72360D01*
X2260980Y-73860D01*
X2260600Y-74880D01*
X2260160Y-75500D01*
X2259600Y-75820D01*
X2258220Y-76080D01*
X2255980Y-76320D01*
X2249180Y-76720D01*
X2239740Y-77020D01*
X2228240Y-77260D01*
X2201260Y-77460D01*
X2169220Y-77300D01*
X2156020Y-77100D01*
X2144220Y-76820D01*
X2134400Y-76480D01*
X2127120Y-76060D01*
X2122920Y-75580D01*
X2122160Y-75300D01*
X2121840Y-74700D01*
X2121560Y-73560D01*
X2121060Y-69520D01*
X2120680Y-62859D01*
X2120400Y-53320D01*
X2120100Y-24420D01*
X2120060Y-4500D01*
X2104340Y-4500D01*
X2104340Y-79020D01*
X2109740Y-85180D01*
X2111040Y-86540D01*
X2112460Y-87840D01*
X2113980Y-89060D01*
X2115560Y-90160D01*
X2117200Y-91140D01*
X2118840Y-92000D01*
X2120480Y-92680D01*
X2122640Y-93320D01*
X2126500Y-93780D01*
X2132880Y-94140D01*
X2141740Y-94400D01*
X2152980Y-94580D01*
X2178280Y-94640D01*
X2217880Y-94360D01*
X2234980Y-94120D01*
X2247880Y-93740D01*
X2252960Y-93460D01*
X2257240Y-93100D01*
X2260840Y-92640D01*
X2263800Y-92080D01*
X2266240Y-91380D01*
X2268220Y-90580D01*
X2269860Y-89600D01*
X2271220Y-88480D01*
X2272420Y-87180D01*
X2273500Y-85700D01*
X2275740Y-82120D01*
X2276560Y-80600D01*
X2277240Y-78740D01*
X2277780Y-76080D01*
X2278220Y-72200D01*
X2278540Y-66680D01*
X2278780Y-59120D01*
X2278960Y-49060D01*
X2279120Y-19780D01*
X2279120Y76980D01*
X2279000Y92020D01*
X2278780Y104179D01*
X2278440Y113780D01*
X2277920Y121199D01*
X2277200Y126760D01*
X2276740Y128960D01*
X2276240Y130800D01*
X2275660Y132360D01*
X2275020Y133680D01*
X2274280Y134780D01*
X2273480Y135740D01*
X2272600Y136560D01*
X2271640Y137300D01*
X2266640Y140340D01*
X2265520Y140820D01*
X2264220Y141220D01*
X2262600Y141580D01*
X2260580Y141880D01*
X2258040Y142120D01*
X2251060Y142460D01*
X2240840Y142620D01*
G37*
G36*
X2191060Y112320D02*
G01*
X2189080Y112260D01*
X2187160Y112000D01*
X2185260Y111600D01*
X2183440Y111039D01*
X2181680Y110340D01*
X2180000Y109480D01*
X2178400Y108500D01*
X2176880Y107400D01*
X2175460Y106160D01*
X2174140Y104820D01*
X2172940Y103379D01*
X2171860Y101840D01*
X2170900Y100200D01*
X2170080Y98480D01*
X2169400Y96700D01*
X2168880Y94820D01*
X2168500Y92899D01*
X2168280Y90920D01*
X2168257Y88620D01*
X2185040Y88620D01*
X2185160Y90160D01*
X2185640Y91679D01*
X2186580Y93140D01*
X2187640Y94120D01*
X2188960Y94940D01*
X2190400Y95480D01*
X2191740Y95680D01*
X2194120Y95280D01*
X2196020Y94200D01*
X2197360Y92600D01*
X2198160Y90660D01*
X2198340Y88520D01*
X2197860Y86380D01*
X2196700Y84420D01*
X2194800Y82760D01*
X2193280Y82060D01*
X2191780Y81820D01*
X2190320Y81980D01*
X2188940Y82520D01*
X2187720Y83340D01*
X2186680Y84420D01*
X2185860Y85700D01*
X2185300Y87120D01*
X2185040Y88620D01*
X2168257Y88620D01*
X2168380Y86800D01*
X2168720Y84700D01*
X2169240Y82560D01*
X2169960Y80399D01*
X2170980Y78060D01*
X2172120Y75920D01*
X2173420Y74000D01*
X2174880Y72300D01*
X2176480Y70800D01*
X2178260Y69500D01*
X2180180Y68420D01*
X2182280Y67520D01*
X2184540Y66840D01*
X2186980Y66360D01*
X2189600Y66060D01*
X2192400Y65960D01*
X2194980Y66000D01*
X2197120Y66180D01*
X2198960Y66520D01*
X2200620Y67100D01*
X2202200Y67940D01*
X2203820Y69140D01*
X2205620Y70720D01*
X2209700Y74800D01*
X2211260Y76600D01*
X2212460Y78220D01*
X2213320Y79780D01*
X2213900Y81400D01*
X2214260Y83200D01*
X2214440Y85300D01*
X2214480Y87780D01*
X2214380Y90380D01*
X2214120Y92840D01*
X2213660Y95160D01*
X2213020Y97360D01*
X2212200Y99400D01*
X2211200Y101320D01*
X2210020Y103100D01*
X2208660Y104740D01*
X2207100Y106240D01*
X2205380Y107600D01*
X2203460Y108820D01*
X2201360Y109920D01*
X2199280Y110800D01*
X2197200Y111460D01*
X2195140Y111940D01*
X2193080Y112220D01*
G37*
G36*
X2191740Y44980D02*
G01*
X2186620Y44900D01*
X2182440Y44600D01*
X2180580Y44360D01*
X2177120Y43600D01*
X2175400Y43060D01*
X2171820Y41620D01*
X2167660Y39660D01*
X2163220Y37220D01*
X2159140Y34560D01*
X2157220Y33140D01*
X2155400Y31660D01*
X2152040Y28540D01*
X2150480Y26880D01*
X2149020Y25160D01*
X2146360Y21560D01*
X2144080Y17720D01*
X2143060Y15700D01*
X2142140Y13640D01*
X2140540Y9320D01*
X2139880Y7080D01*
X2138840Y2400D01*
X2138440Y-20D01*
X2138140Y-2520D01*
X2137800Y-8080D01*
X2137776Y-9760D01*
X2153740Y-9760D01*
X2153800Y-7500D01*
X2154020Y-5240D01*
X2154400Y-2960D01*
X2154940Y-680D01*
X2155620Y1580D01*
X2156420Y3820D01*
X2157360Y6040D01*
X2158440Y8220D01*
X2159620Y10340D01*
X2162340Y14360D01*
X2163860Y16259D01*
X2165480Y18040D01*
X2167180Y19720D01*
X2168980Y21280D01*
X2170840Y22719D01*
X2172780Y24020D01*
X2174800Y25139D01*
X2176780Y26040D01*
X2179020Y26800D01*
X2181440Y27440D01*
X2184040Y27919D01*
X2186720Y28300D01*
X2189480Y28520D01*
X2192240Y28600D01*
X2194980Y28540D01*
X2197620Y28320D01*
X2200140Y27960D01*
X2202500Y27460D01*
X2204620Y26780D01*
X2206660Y25960D01*
X2208620Y25019D01*
X2210500Y24000D01*
X2212280Y22879D01*
X2215580Y20360D01*
X2218520Y17540D01*
X2221080Y14440D01*
X2222240Y12780D01*
X2223300Y11080D01*
X2225140Y7540D01*
X2226580Y3820D01*
X2227180Y1920D01*
X2228060Y-1980D01*
X2228560Y-5940D01*
X2228660Y-9940D01*
X2228360Y-13919D01*
X2228060Y-15900D01*
X2227140Y-19800D01*
X2226540Y-21720D01*
X2225020Y-25460D01*
X2224100Y-27280D01*
X2223080Y-29040D01*
X2221940Y-30760D01*
X2220700Y-32440D01*
X2219360Y-34040D01*
X2217920Y-35580D01*
X2216360Y-37060D01*
X2214700Y-38460D01*
X2212920Y-39800D01*
X2210580Y-41380D01*
X2208500Y-42619D01*
X2206500Y-43560D01*
X2204440Y-44220D01*
X2202100Y-44640D01*
X2199340Y-44900D01*
X2191740Y-45060D01*
X2184160Y-44900D01*
X2181380Y-44640D01*
X2179040Y-44200D01*
X2176960Y-43540D01*
X2174960Y-42600D01*
X2172880Y-41360D01*
X2170500Y-39740D01*
X2168440Y-38180D01*
X2166480Y-36460D01*
X2164620Y-34620D01*
X2162860Y-32660D01*
X2161240Y-30580D01*
X2159760Y-28400D01*
X2158420Y-26140D01*
X2157220Y-23820D01*
X2156180Y-21440D01*
X2155320Y-19020D01*
X2154620Y-16580D01*
X2154100Y-14120D01*
X2153840Y-11960D01*
X2153740Y-9760D01*
X2137776Y-9760D01*
X2137840Y-13779D01*
X2138060Y-16480D01*
X2138380Y-19080D01*
X2138840Y-21620D01*
X2139440Y-24060D01*
X2140160Y-26440D01*
X2141000Y-28780D01*
X2142000Y-31060D01*
X2143140Y-33300D01*
X2144420Y-35500D01*
X2145840Y-37700D01*
X2147420Y-39880D01*
X2151040Y-44220D01*
X2154580Y-47960D01*
X2158100Y-51200D01*
X2161620Y-53980D01*
X2165220Y-56320D01*
X2167060Y-57340D01*
X2168940Y-58259D01*
X2170860Y-59080D01*
X2172820Y-59800D01*
X2176900Y-60960D01*
X2181240Y-61760D01*
X2185880Y-62260D01*
X2190880Y-62420D01*
X2193860Y-62400D01*
X2199400Y-62080D01*
X2201980Y-61760D01*
X2204460Y-61340D01*
X2206840Y-60820D01*
X2209140Y-60180D01*
X2211360Y-59420D01*
X2213540Y-58540D01*
X2215680Y-57520D01*
X2217780Y-56360D01*
X2219880Y-55080D01*
X2221980Y-53640D01*
X2224080Y-52060D01*
X2228380Y-48420D01*
X2231660Y-45180D01*
X2233180Y-43480D01*
X2235940Y-39960D01*
X2237200Y-38140D01*
X2239440Y-34360D01*
X2241320Y-30480D01*
X2242880Y-26460D01*
X2243540Y-24420D01*
X2244580Y-20299D01*
X2245300Y-16100D01*
X2245540Y-14000D01*
X2245760Y-9780D01*
X2245660Y-5540D01*
X2245220Y-1340D01*
X2244900Y760D01*
X2243980Y4880D01*
X2243420Y6919D01*
X2242040Y10940D01*
X2240360Y14840D01*
X2238360Y18620D01*
X2236060Y22240D01*
X2233460Y25680D01*
X2232060Y27340D01*
X2229000Y30480D01*
X2225660Y33400D01*
X2223900Y34760D01*
X2220120Y37300D01*
X2216060Y39540D01*
X2211820Y41560D01*
X2208160Y43019D01*
X2206440Y43580D01*
X2204720Y44020D01*
X2202960Y44360D01*
X2199100Y44780D01*
X2194460Y44960D01*
G37*
G36*
X2192060Y15060D02*
G01*
X2189760Y14940D01*
X2187420Y14540D01*
X2184980Y13839D01*
X2182380Y12840D01*
X2180080Y11760D01*
X2177980Y10480D01*
X2176060Y9040D01*
X2174340Y7460D01*
X2172820Y5719D01*
X2171500Y3860D01*
X2170400Y1880D01*
X2169500Y-200D01*
X2168820Y-2360D01*
X2168380Y-4600D01*
X2168160Y-6879D01*
X2168243Y-9780D01*
X2184880Y-9780D01*
X2185200Y-6939D01*
X2186860Y-4320D01*
X2188820Y-2920D01*
X2190940Y-2340D01*
X2193060Y-2460D01*
X2195020Y-3240D01*
X2196640Y-4540D01*
X2197780Y-6280D01*
X2198260Y-8360D01*
X2197940Y-10720D01*
X2196420Y-13480D01*
X2194120Y-15060D01*
X2191260Y-15400D01*
X2188120Y-14400D01*
X2185880Y-12400D01*
X2184880Y-9780D01*
X2168243Y-9780D01*
X2168440Y-11580D01*
X2168940Y-13939D01*
X2169700Y-16319D01*
X2170700Y-18680D01*
X2171960Y-21060D01*
X2173360Y-23200D01*
X2174860Y-25080D01*
X2176500Y-26740D01*
X2178260Y-28140D01*
X2180160Y-29320D01*
X2182180Y-30259D01*
X2184360Y-30960D01*
X2186660Y-31440D01*
X2189120Y-31680D01*
X2191720Y-31700D01*
X2194480Y-31500D01*
X2196880Y-31180D01*
X2198960Y-30760D01*
X2200800Y-30200D01*
X2202460Y-29500D01*
X2204000Y-28580D01*
X2205520Y-27440D01*
X2207080Y-26020D01*
X2208740Y-24280D01*
X2210360Y-22420D01*
X2211660Y-20760D01*
X2212660Y-19180D01*
X2213400Y-17620D01*
X2213920Y-15980D01*
X2214260Y-14160D01*
X2214420Y-12100D01*
X2214480Y-9680D01*
X2214360Y-7140D01*
X2214060Y-4680D01*
X2213580Y-2320D01*
X2212900Y-60D01*
X2212040Y2080D01*
X2211020Y4079D01*
X2209840Y5960D01*
X2208500Y7660D01*
X2207020Y9200D01*
X2205400Y10560D01*
X2203640Y11720D01*
X2201760Y12660D01*
X2199160Y13700D01*
X2196700Y14440D01*
X2194360Y14900D01*
G37*
G36*
X1578000Y543000D02*
G01*
X1578000Y508900D01*
X1591020Y508900D01*
X1591120Y509680D01*
X1591420Y510360D01*
X1591960Y510940D01*
X1592780Y511440D01*
X1593920Y511860D01*
X1595400Y512200D01*
X1597260Y512480D01*
X1602240Y512819D01*
X1609120Y512980D01*
X1619120Y512960D01*
X1623860Y512819D01*
X1627660Y512600D01*
X1630580Y512260D01*
X1632680Y511800D01*
X1634019Y511200D01*
X1634660Y510460D01*
X1634660Y509600D01*
X1633580Y508200D01*
X1631480Y506940D01*
X1628620Y505920D01*
X1625320Y505319D01*
X1617060Y504480D01*
X1617040Y475460D01*
X1616900Y467920D01*
X1616560Y462500D01*
X1616169Y459820D01*
X1640500Y459820D01*
X1640660Y460880D01*
X1641160Y461760D01*
X1642020Y462480D01*
X1643320Y463020D01*
X1645080Y463440D01*
X1647340Y463700D01*
X1650140Y463860D01*
X1666540Y463920D01*
X1666540Y483000D01*
X1653300Y483000D01*
X1650280Y483080D01*
X1647700Y483280D01*
X1645520Y483600D01*
X1643760Y484020D01*
X1642420Y484540D01*
X1641500Y485100D01*
X1640980Y485720D01*
X1640880Y486380D01*
X1641160Y487040D01*
X1641860Y487700D01*
X1642960Y488340D01*
X1644460Y488960D01*
X1646339Y489500D01*
X1648640Y489980D01*
X1651320Y490360D01*
X1658040Y490940D01*
X1660900Y491300D01*
X1663040Y491760D01*
X1664560Y492420D01*
X1665580Y493340D01*
X1666180Y494560D01*
X1666459Y496140D01*
X1666540Y498160D01*
X1666480Y500220D01*
X1666200Y501800D01*
X1665600Y502980D01*
X1664560Y503800D01*
X1662940Y504340D01*
X1660640Y504640D01*
X1657540Y504780D01*
X1650140Y504860D01*
X1647340Y505020D01*
X1645080Y505300D01*
X1643320Y505700D01*
X1642020Y506260D01*
X1641160Y506960D01*
X1640660Y507840D01*
X1640500Y508900D01*
X1640680Y510000D01*
X1641279Y510900D01*
X1642340Y511620D01*
X1643980Y512160D01*
X1646220Y512560D01*
X1649160Y512819D01*
X1652880Y512960D01*
X1674360Y513000D01*
X1674360Y472340D01*
X1684920Y472340D01*
X1684940Y474400D01*
X1685160Y476400D01*
X1685600Y478260D01*
X1686240Y479920D01*
X1687100Y481380D01*
X1688180Y482560D01*
X1689060Y483240D01*
X1691840Y484820D01*
X1695540Y486580D01*
X1699720Y488280D01*
X1704420Y490000D01*
X1706579Y490959D01*
X1708340Y491960D01*
X1709760Y493020D01*
X1710820Y494120D01*
X1711560Y495319D01*
X1711980Y496599D01*
X1712120Y498020D01*
X1712020Y499600D01*
X1711680Y500840D01*
X1711020Y501780D01*
X1709920Y502460D01*
X1708320Y502920D01*
X1706140Y503180D01*
X1703280Y503280D01*
X1696260Y503280D01*
X1693520Y503380D01*
X1691399Y503620D01*
X1689840Y504000D01*
X1688760Y504540D01*
X1688120Y505280D01*
X1687860Y506200D01*
X1687960Y507360D01*
X1688580Y508780D01*
X1689840Y509980D01*
X1691639Y510940D01*
X1693860Y511700D01*
X1696440Y512200D01*
X1699240Y512480D01*
X1702180Y512520D01*
X1705140Y512299D01*
X1708060Y511840D01*
X1710800Y511100D01*
X1713260Y510120D01*
X1715360Y508840D01*
X1716940Y507540D01*
X1718240Y506140D01*
X1719300Y504640D01*
X1720140Y503080D01*
X1720720Y501460D01*
X1721080Y499799D01*
X1721220Y498120D01*
X1721160Y496440D01*
X1720860Y494760D01*
X1720380Y493100D01*
X1719680Y491480D01*
X1718800Y489920D01*
X1717720Y488420D01*
X1716459Y487000D01*
X1715020Y485700D01*
X1713400Y484500D01*
X1711620Y483420D01*
X1709680Y482520D01*
X1707600Y481760D01*
X1702140Y480319D01*
X1699400Y479180D01*
X1697180Y477819D01*
X1695480Y476220D01*
X1694319Y474420D01*
X1693720Y472460D01*
X1693680Y470319D01*
X1694240Y468040D01*
X1694840Y466740D01*
X1695620Y465720D01*
X1696680Y464960D01*
X1698080Y464460D01*
X1699900Y464180D01*
X1702200Y464120D01*
X1705080Y464260D01*
X1711720Y464840D01*
X1714360Y464960D01*
X1716540Y464920D01*
X1718280Y464739D01*
X1719600Y464420D01*
X1720520Y463920D01*
X1721060Y463260D01*
X1721220Y462440D01*
X1720940Y461000D01*
X1720120Y459720D01*
X1718839Y458600D01*
X1718261Y458280D01*
X1729620Y458280D01*
X1729680Y459140D01*
X1731040Y460540D01*
X1733980Y461800D01*
X1738060Y462780D01*
X1742920Y463380D01*
X1746879Y463680D01*
X1749880Y464020D01*
X1752020Y464540D01*
X1753500Y465319D01*
X1754400Y466520D01*
X1754860Y468220D01*
X1755060Y470540D01*
X1755060Y476680D01*
X1754880Y479000D01*
X1754440Y480680D01*
X1753580Y481800D01*
X1752180Y482480D01*
X1750100Y482840D01*
X1747200Y482980D01*
X1743360Y483000D01*
X1737880Y483220D01*
X1734240Y483900D01*
X1732260Y485180D01*
X1731639Y487100D01*
X1732260Y489000D01*
X1734240Y490280D01*
X1737880Y490959D01*
X1743360Y491180D01*
X1746940Y491220D01*
X1749700Y491360D01*
X1751780Y491680D01*
X1753240Y492239D01*
X1754199Y493060D01*
X1754760Y494240D01*
X1755020Y495820D01*
X1755080Y497860D01*
X1755000Y499860D01*
X1754720Y501460D01*
X1754120Y502660D01*
X1753100Y503579D01*
X1751579Y504240D01*
X1749440Y504700D01*
X1746579Y505060D01*
X1742920Y505360D01*
X1738060Y505940D01*
X1733980Y506940D01*
X1731040Y508200D01*
X1729680Y509600D01*
X1729620Y510460D01*
X1730100Y511180D01*
X1731100Y511760D01*
X1732720Y512239D01*
X1734940Y512580D01*
X1737840Y512819D01*
X1741420Y512960D01*
X1762900Y513000D01*
X1762900Y457680D01*
X1772280Y457680D01*
X1772680Y459280D01*
X1773580Y461580D01*
X1774980Y464700D01*
X1778760Y472640D01*
X1780120Y475780D01*
X1781040Y478340D01*
X1781519Y480439D01*
X1781600Y482220D01*
X1781279Y483820D01*
X1780600Y485360D01*
X1777920Y489700D01*
X1776800Y492380D01*
X1776220Y495000D01*
X1776140Y497600D01*
X1776600Y500140D01*
X1777580Y502660D01*
X1779100Y505120D01*
X1781120Y507540D01*
X1782620Y508920D01*
X1784240Y510080D01*
X1786060Y511019D01*
X1788100Y511780D01*
X1790400Y512320D01*
X1793020Y512720D01*
X1795980Y512939D01*
X1812380Y513000D01*
X1812360Y478160D01*
X1812240Y468579D01*
X1811900Y462180D01*
X1811600Y459980D01*
X1811200Y458360D01*
X1810680Y457200D01*
X1810040Y456440D01*
X1809240Y455980D01*
X1808300Y455780D01*
X1807160Y455720D01*
X1805700Y455820D01*
X1804520Y456160D01*
X1803620Y456780D01*
X1802940Y457780D01*
X1802460Y459200D01*
X1802160Y461100D01*
X1802000Y463560D01*
X1801920Y469880D01*
X1801759Y472400D01*
X1801440Y474320D01*
X1800920Y475700D01*
X1800140Y476640D01*
X1799079Y477200D01*
X1797660Y477480D01*
X1795840Y477540D01*
X1794199Y477420D01*
X1792700Y477000D01*
X1791320Y476260D01*
X1790040Y475180D01*
X1788800Y473700D01*
X1787560Y471820D01*
X1786320Y469460D01*
X1783880Y464140D01*
X1782700Y461960D01*
X1781500Y460080D01*
X1780300Y458540D01*
X1779079Y457320D01*
X1777860Y456440D01*
X1776660Y455900D01*
X1775480Y455720D01*
X1774000Y455780D01*
X1772960Y456060D01*
X1772380Y456640D01*
X1772280Y457680D01*
X1762900Y457680D01*
X1762900Y455720D01*
X1741420Y455780D01*
X1737840Y455900D01*
X1734940Y456140D01*
X1732720Y456500D01*
X1731100Y456960D01*
X1730100Y457560D01*
X1729620Y458280D01*
X1718261Y458280D01*
X1717140Y457660D01*
X1715120Y456880D01*
X1712820Y456280D01*
X1710320Y455860D01*
X1707660Y455620D01*
X1704940Y455580D01*
X1702200Y455720D01*
X1699500Y456040D01*
X1696920Y456580D01*
X1694540Y457299D01*
X1692380Y458240D01*
X1690540Y459360D01*
X1689079Y460720D01*
X1687880Y462320D01*
X1686900Y464120D01*
X1686100Y466060D01*
X1685500Y468120D01*
X1685100Y470220D01*
X1684920Y472340D01*
X1674360Y472340D01*
X1674360Y455720D01*
X1652880Y455780D01*
X1649160Y455920D01*
X1646220Y456180D01*
X1643980Y456560D01*
X1642340Y457120D01*
X1641279Y457819D01*
X1640680Y458720D01*
X1640500Y459820D01*
X1616169Y459820D01*
X1615980Y458860D01*
X1615580Y457640D01*
X1615100Y456740D01*
X1614540Y456160D01*
X1613899Y455820D01*
X1613160Y455720D01*
X1612400Y455820D01*
X1611759Y456160D01*
X1611200Y456760D01*
X1610720Y457640D01*
X1610340Y458880D01*
X1610000Y460500D01*
X1609560Y465020D01*
X1609319Y471520D01*
X1609259Y475580D01*
X1609259Y504820D01*
X1600140Y504820D01*
X1596020Y505060D01*
X1593200Y505800D01*
X1591540Y507060D01*
X1591020Y508900D01*
X1578000Y508900D01*
X1578000Y423000D01*
X1828000Y423000D01*
X1828000Y543000D01*
G37*
G36*
X1797000Y504540D02*
G01*
X1794800Y504320D01*
X1791399Y503579D01*
X1789040Y502180D01*
X1787540Y500020D01*
X1786759Y496940D01*
X1786639Y494500D01*
X1786960Y492299D01*
X1787720Y490400D01*
X1788899Y488800D01*
X1790460Y487520D01*
X1792420Y486580D01*
X1794740Y485980D01*
X1797400Y485780D01*
X1799580Y486220D01*
X1801000Y487800D01*
X1801740Y490780D01*
X1801960Y495460D01*
X1801920Y498459D01*
X1801780Y500740D01*
X1801440Y502420D01*
X1800860Y503560D01*
X1799980Y504240D01*
X1798720Y504540D01*
G37*
G36*
X1574920Y-421000D02*
G01*
X1574920Y-450100D01*
X1600360Y-450100D01*
X1600360Y-475540D01*
X1622180Y-475540D01*
X1622180Y-450100D01*
X1629460Y-450100D01*
X1629460Y-492239D01*
X1636819Y-492239D01*
X1641759Y-484799D01*
X1642880Y-483280D01*
X1644220Y-481820D01*
X1645680Y-480420D01*
X1647240Y-479159D01*
X1648860Y-478060D01*
X1650480Y-477160D01*
X1652060Y-476480D01*
X1656519Y-475280D01*
X1659620Y-474120D01*
X1662480Y-472720D01*
X1664700Y-471260D01*
X1669019Y-467740D01*
X1665040Y-457360D01*
X1639940Y-457360D01*
X1642180Y-453720D01*
X1643880Y-452320D01*
X1646840Y-451160D01*
X1650640Y-450379D01*
X1654860Y-450100D01*
X1665300Y-450100D01*
X1671200Y-455980D01*
X1673400Y-458740D01*
X1675040Y-461880D01*
X1675960Y-465040D01*
X1676000Y-467800D01*
X1674920Y-473720D01*
X1647640Y-487060D01*
X1647640Y-501560D01*
X1663440Y-500720D01*
X1669680Y-500540D01*
X1671980Y-500580D01*
X1673740Y-500720D01*
X1675000Y-500940D01*
X1675780Y-501260D01*
X1676080Y-501700D01*
X1675960Y-502260D01*
X1675400Y-502920D01*
X1674440Y-503720D01*
X1673100Y-504640D01*
X1671800Y-505340D01*
X1670200Y-506000D01*
X1668360Y-506620D01*
X1666360Y-507140D01*
X1664240Y-507580D01*
X1662080Y-507920D01*
X1659920Y-508140D01*
X1657840Y-508220D01*
X1648060Y-508280D01*
X1683160Y-508280D01*
X1699740Y-450100D01*
X1706540Y-450140D01*
X1707320Y-450280D01*
X1708020Y-450540D01*
X1708700Y-451000D01*
X1709360Y-451700D01*
X1710020Y-452680D01*
X1711440Y-455720D01*
X1713200Y-460500D01*
X1715440Y-467420D01*
X1721100Y-485840D01*
X1722820Y-491900D01*
X1724240Y-497280D01*
X1725280Y-501800D01*
X1725900Y-505160D01*
X1726040Y-506340D01*
X1726040Y-507160D01*
X1725920Y-507580D01*
X1724740Y-508200D01*
X1723340Y-508100D01*
X1721819Y-507420D01*
X1720300Y-506240D01*
X1718920Y-504700D01*
X1717780Y-502900D01*
X1717020Y-500959D01*
X1716720Y-498960D01*
X1716720Y-493720D01*
X1695400Y-493720D01*
X1693100Y-501000D01*
X1691900Y-503820D01*
X1690340Y-506140D01*
X1688640Y-507700D01*
X1686960Y-508280D01*
X1731279Y-508280D01*
X1731279Y-501000D01*
X1760360Y-501000D01*
X1760360Y-450100D01*
X1767640Y-450100D01*
X1767640Y-475540D01*
X1807640Y-475540D01*
X1807640Y-457360D01*
X1782180Y-457360D01*
X1782180Y-450100D01*
X1814920Y-450100D01*
X1814920Y-508280D01*
X1807640Y-508280D01*
X1807640Y-482819D01*
X1796940Y-482819D01*
X1792620Y-482540D01*
X1788720Y-481740D01*
X1785720Y-480600D01*
X1784000Y-479180D01*
X1781759Y-475540D01*
X1767640Y-475540D01*
X1767640Y-508280D01*
X1648060Y-508280D01*
X1636819Y-492239D01*
X1629460Y-492239D01*
X1629460Y-508280D01*
X1622180Y-508280D01*
X1622180Y-482819D01*
X1600360Y-482819D01*
X1600360Y-508280D01*
X1589460Y-508280D01*
X1589460Y-450100D01*
X1574920Y-450100D01*
X1574920Y-541000D01*
X1833100Y-541000D01*
X1833100Y-421000D01*
G37*
G36*
X1705020Y-462819D02*
G01*
X1702040Y-470100D01*
X1700860Y-473280D01*
X1699860Y-476560D01*
X1699139Y-479580D01*
X1698800Y-481900D01*
X1698540Y-486460D01*
X1708620Y-486420D01*
X1710640Y-486240D01*
X1711960Y-485740D01*
X1712600Y-484760D01*
X1712580Y-483160D01*
X1711960Y-480780D01*
X1710780Y-477460D01*
G37*
G36*
X229740Y545040D02*
G01*
X229740Y538500D01*
X920400Y538500D01*
X920400Y253720D01*
X841840Y253720D01*
X841840Y538500D01*
X832020Y538500D01*
X832020Y253720D01*
X753460Y253720D01*
X753460Y538500D01*
X746919Y538500D01*
X746919Y253720D01*
X668360Y253720D01*
X668360Y538500D01*
X661680Y538500D01*
X660939Y253720D01*
X583260Y253720D01*
X583260Y538500D01*
X573440Y538500D01*
X573440Y253720D01*
X494880Y253720D01*
X494880Y538500D01*
X488340Y538500D01*
X488340Y253720D01*
X409780Y253720D01*
X409780Y538500D01*
X399960Y538500D01*
X399960Y253720D01*
X324660Y253720D01*
X324660Y538500D01*
X314840Y538500D01*
X314840Y253720D01*
X236280Y253720D01*
X236280Y538500D01*
X229740Y538500D01*
X229740Y257000D01*
X56260Y257000D01*
X56260Y250560D01*
X62800Y250560D01*
X228100Y248820D01*
X228138Y239000D01*
X337960Y239000D01*
X344640Y227540D01*
X376719Y227540D01*
X383380Y239000D01*
X383348Y237360D01*
X429420Y237360D01*
X429420Y227540D01*
X465420Y227540D01*
X465420Y237360D01*
X471960Y237360D01*
X471960Y214840D01*
X507980Y214840D01*
X507980Y237360D01*
X514520Y237360D01*
X514520Y227540D01*
X550200Y227540D01*
X556860Y239000D01*
X770040Y239000D01*
X776700Y227540D01*
X808780Y227540D01*
X815460Y239000D01*
X815143Y222320D01*
X854940Y222320D01*
X854940Y229800D01*
X860660Y234840D01*
X863439Y236940D01*
X866740Y239000D01*
X870180Y240760D01*
X873319Y241960D01*
X880260Y244080D01*
X897099Y237680D01*
X904400Y224020D01*
X900320Y211180D01*
X877840Y211180D01*
X878600Y225900D01*
X881680Y214060D01*
X895860Y216080D01*
X895860Y232160D01*
X879479Y236180D01*
X863120Y232020D01*
X861060Y211060D01*
X858000Y212940D01*
X856800Y214259D01*
X855840Y216480D01*
X855180Y219259D01*
X854940Y222320D01*
X815143Y222320D01*
X814900Y209540D01*
X811900Y221000D01*
X773580Y221000D01*
X770600Y209540D01*
X770040Y239000D01*
X596540Y239000D01*
X603220Y227540D01*
X638900Y227540D01*
X638900Y237360D01*
X688000Y237360D01*
X688000Y227540D01*
X724000Y227540D01*
X724000Y237360D01*
X730560Y237360D01*
X730340Y209540D01*
X721640Y221000D01*
X688000Y221000D01*
X688000Y211180D01*
X681460Y211180D01*
X681460Y237360D01*
X645440Y237360D01*
X645440Y214840D01*
X638900Y210780D01*
X638900Y221000D01*
X600100Y221000D01*
X597100Y209540D01*
X596540Y239000D01*
X556860Y239000D01*
X556300Y209540D01*
X553320Y221000D01*
X514520Y221000D01*
X514520Y210780D01*
X507980Y214840D01*
X471960Y214840D01*
X471960Y211180D01*
X465420Y211180D01*
X465420Y221000D01*
X431780Y221000D01*
X423080Y209540D01*
X422860Y237360D01*
X383348Y237360D01*
X382819Y209540D01*
X379840Y221000D01*
X341520Y221000D01*
X338519Y209540D01*
X337960Y239000D01*
X228138Y239000D01*
X228144Y237360D01*
X255920Y237360D01*
X255920Y227540D01*
X291940Y227540D01*
X291940Y237360D01*
X298480Y237360D01*
X298280Y209540D01*
X289580Y221000D01*
X255920Y221000D01*
X255920Y211180D01*
X249380Y211180D01*
X249380Y237360D01*
X228144Y237360D01*
X228373Y178820D01*
X249380Y178820D01*
X249380Y191160D01*
X263940Y201360D01*
X287640Y201360D01*
X293060Y195360D01*
X293811Y194380D01*
X337380Y194380D01*
X343900Y197860D01*
X345439Y198560D01*
X347299Y199220D01*
X349440Y199820D01*
X354180Y200760D01*
X356659Y201080D01*
X359120Y201280D01*
X361460Y201360D01*
X372520Y201360D01*
X384140Y192840D01*
X382531Y178820D01*
X422860Y178820D01*
X422860Y190520D01*
X434840Y201360D01*
X457420Y201360D01*
X471960Y191160D01*
X471960Y184920D01*
X508380Y184920D01*
X508519Y186360D01*
X509020Y187840D01*
X509880Y189400D01*
X511079Y191040D01*
X512620Y192840D01*
X521060Y201360D01*
X546780Y201360D01*
X551920Y196220D01*
X553820Y193980D01*
X555280Y191560D01*
X556260Y189000D01*
X556780Y186360D01*
X556840Y183640D01*
X596580Y183640D01*
X596620Y186360D01*
X597160Y189000D01*
X598140Y191560D01*
X599580Y193980D01*
X601500Y196220D01*
X606640Y201360D01*
X632360Y201360D01*
X640800Y192840D01*
X642340Y191040D01*
X643540Y189400D01*
X644400Y187840D01*
X644880Y186360D01*
X645040Y184920D01*
X644840Y183460D01*
X644280Y181960D01*
X643360Y180380D01*
X642203Y178820D01*
X681460Y178820D01*
X681460Y191160D01*
X696000Y201360D01*
X719720Y201360D01*
X725140Y195360D01*
X725891Y194380D01*
X769440Y194380D01*
X775980Y197860D01*
X777500Y198560D01*
X779380Y199220D01*
X781500Y199820D01*
X786260Y200760D01*
X788740Y201080D01*
X791180Y201280D01*
X793540Y201360D01*
X904040Y201360D01*
X904040Y194800D01*
X866400Y194200D01*
X904220Y177360D01*
X901880Y170260D01*
X854940Y168340D01*
X854940Y175159D01*
X892580Y175780D01*
X854940Y192540D01*
X854940Y201360D01*
X804580Y201360D01*
X816220Y192840D01*
X814020Y173540D01*
X789280Y167420D01*
X771460Y173640D01*
X769440Y194380D01*
X725891Y194380D01*
X727240Y192620D01*
X728960Y189579D01*
X730120Y186620D01*
X730560Y184100D01*
X730560Y178820D01*
X716000Y168619D01*
X696000Y168619D01*
X681460Y178820D01*
X642203Y178820D01*
X640480Y176820D01*
X631580Y167860D01*
X602080Y171180D01*
X599260Y175640D01*
X597880Y178240D01*
X597000Y180920D01*
X596580Y183640D01*
X556840Y183640D01*
X556420Y180920D01*
X555540Y178240D01*
X554160Y175640D01*
X551340Y171180D01*
X521820Y167860D01*
X512920Y176820D01*
X511320Y178680D01*
X510040Y180380D01*
X509140Y181960D01*
X508579Y183460D01*
X508380Y184920D01*
X471960Y184920D01*
X471960Y178820D01*
X457420Y168619D01*
X437420Y168619D01*
X422860Y178820D01*
X382531Y178820D01*
X381940Y173660D01*
X364120Y167420D01*
X339400Y173540D01*
X337380Y194380D01*
X293811Y194380D01*
X295160Y192620D01*
X296880Y189579D01*
X298060Y186620D01*
X298480Y184100D01*
X298480Y178820D01*
X283940Y168619D01*
X263940Y168619D01*
X249380Y178820D01*
X228373Y178820D01*
X228449Y159220D01*
X422860Y159220D01*
X444120Y157160D01*
X447480Y137520D01*
X463780Y137520D01*
X465840Y158920D01*
X468900Y157040D01*
X470100Y155700D01*
X471060Y153500D01*
X471719Y150720D01*
X471960Y147660D01*
X471960Y140180D01*
X469015Y137520D01*
X506340Y137520D01*
X520700Y148240D01*
X526480Y152260D01*
X532040Y155800D01*
X537060Y158700D01*
X541260Y160799D01*
X542960Y161500D01*
X544360Y161920D01*
X545400Y162079D01*
X546120Y161200D01*
X546700Y158780D01*
X547100Y155220D01*
X547240Y150860D01*
X547240Y139640D01*
X558700Y136640D01*
X550865Y136120D01*
X596340Y136120D01*
X596340Y150940D01*
X604200Y158800D01*
X622920Y158700D01*
X626300Y158540D01*
X629260Y158280D01*
X631840Y157900D01*
X634080Y157360D01*
X636000Y156680D01*
X637660Y155840D01*
X639060Y154800D01*
X640260Y153580D01*
X641300Y152120D01*
X642200Y150460D01*
X644960Y143180D01*
X642853Y140180D01*
X681460Y140180D01*
X681720Y145400D01*
X681960Y148060D01*
X682400Y150560D01*
X683000Y152840D01*
X683760Y154820D01*
X684640Y156480D01*
X685600Y157720D01*
X686640Y158520D01*
X687700Y158800D01*
X690140Y158800D01*
X687400Y140100D01*
X697380Y136260D01*
X714400Y149760D01*
X719820Y153780D01*
X724300Y156820D01*
X726020Y157880D01*
X727320Y158540D01*
X728100Y158760D01*
X904040Y158800D01*
X904040Y143900D01*
X893840Y129340D01*
X865120Y129340D01*
X854940Y143900D01*
X854940Y158800D01*
X730560Y158800D01*
X730560Y139160D01*
X769840Y139160D01*
X769840Y155520D01*
X777080Y155520D01*
X773319Y145700D01*
X811900Y145700D01*
X814900Y157160D01*
X814900Y127700D01*
X811900Y139160D01*
X730560Y139160D01*
X730560Y128960D01*
X724000Y133000D01*
X724000Y149380D01*
X694599Y128280D01*
X681460Y140180D01*
X642853Y140180D01*
X635260Y129340D01*
X609020Y129340D01*
X596340Y136120D01*
X550865Y136120D01*
X547240Y135880D01*
X547040Y124440D01*
X538640Y135480D01*
X506340Y137520D01*
X469015Y137520D01*
X459140Y128560D01*
X442299Y132800D01*
X438420Y152260D01*
X429420Y152260D01*
X429420Y136280D01*
X422860Y132220D01*
X422860Y159220D01*
X228449Y159220D01*
X228451Y158800D01*
X343400Y158800D01*
X340500Y143680D01*
X350740Y135180D01*
X358320Y153900D01*
X362580Y137520D01*
X376800Y135460D01*
X380920Y151880D01*
X376659Y158800D01*
X383980Y158800D01*
X381940Y134920D01*
X370520Y127760D01*
X358600Y135180D01*
X347239Y128820D01*
X337760Y136700D01*
X337760Y158800D01*
X228451Y158800D01*
X228528Y139160D01*
X249380Y139160D01*
X249640Y143260D01*
X249920Y145700D01*
X250400Y148000D01*
X251060Y150080D01*
X251860Y151900D01*
X252800Y153400D01*
X253840Y154560D01*
X254940Y155280D01*
X256100Y155520D01*
X259000Y155520D01*
X255219Y145700D01*
X289580Y145700D01*
X298280Y157160D01*
X298480Y129340D01*
X291940Y129340D01*
X291940Y139160D01*
X228528Y139160D01*
X228617Y116260D01*
X789040Y116260D01*
X791100Y98240D01*
X806740Y96039D01*
X812440Y104800D01*
X808980Y119520D01*
X815660Y119520D01*
X815660Y97920D01*
X811720Y94000D01*
X809640Y92460D01*
X806860Y91220D01*
X803760Y90380D01*
X800680Y90060D01*
X793540Y90060D01*
X790220Y94160D01*
X788840Y96260D01*
X787520Y98960D01*
X786420Y101920D01*
X785680Y104800D01*
X784479Y111340D01*
X774800Y111340D01*
X770600Y91700D01*
X769840Y116260D01*
X228617Y116260D01*
X229228Y-40300D01*
X337760Y-40300D01*
X337760Y-32240D01*
X367780Y-22740D01*
X378280Y-19260D01*
X383579Y-17260D01*
X383579Y-20660D01*
X383060Y-22140D01*
X381659Y-23680D01*
X379580Y-25059D01*
X377040Y-26140D01*
X370500Y-28220D01*
X370500Y-44760D01*
X377040Y-46460D01*
X378620Y-47020D01*
X507980Y-47020D01*
X507980Y-24500D01*
X514520Y-24500D01*
X514520Y-34320D01*
X550200Y-34320D01*
X556860Y-22860D01*
X770600Y-22860D01*
X773580Y-34320D01*
X808780Y-34320D01*
X815460Y-22860D01*
X814900Y-52320D01*
X811900Y-40860D01*
X773580Y-40860D01*
X770600Y-52320D01*
X770600Y-22860D01*
X596540Y-22860D01*
X603220Y-34320D01*
X638900Y-34320D01*
X638900Y-24500D01*
X688000Y-24500D01*
X688000Y-34320D01*
X724000Y-34320D01*
X724000Y-24500D01*
X730560Y-24500D01*
X730340Y-52320D01*
X721640Y-40860D01*
X688000Y-40860D01*
X688000Y-50679D01*
X681460Y-50679D01*
X681460Y-24500D01*
X645440Y-24500D01*
X645440Y-47020D01*
X638900Y-51080D01*
X638900Y-40860D01*
X600100Y-40860D01*
X597100Y-52320D01*
X596540Y-22860D01*
X556860Y-22860D01*
X556300Y-52320D01*
X553320Y-40860D01*
X514520Y-40860D01*
X514520Y-51080D01*
X507980Y-47020D01*
X378620Y-47020D01*
X379580Y-47360D01*
X381659Y-48520D01*
X383060Y-49820D01*
X383579Y-51060D01*
X383560Y-51960D01*
X383420Y-52680D01*
X383120Y-53200D01*
X382540Y-53520D01*
X381620Y-53620D01*
X380280Y-53500D01*
X378420Y-53120D01*
X372920Y-51580D01*
X364440Y-48920D01*
X337760Y-40300D01*
X229228Y-40300D01*
X229348Y-71000D01*
X248340Y-71000D01*
X248400Y-69660D01*
X248619Y-68420D01*
X249040Y-67300D01*
X249640Y-66280D01*
X250440Y-65340D01*
X251439Y-64500D01*
X252620Y-63760D01*
X254000Y-63099D01*
X255600Y-62520D01*
X257399Y-62020D01*
X261640Y-61240D01*
X266760Y-60759D01*
X272760Y-60540D01*
X383579Y-60500D01*
X383579Y-76800D01*
X508380Y-76800D01*
X508579Y-75340D01*
X509140Y-73840D01*
X510040Y-72260D01*
X511320Y-70560D01*
X512920Y-68720D01*
X521820Y-59740D01*
X551340Y-63060D01*
X554160Y-67520D01*
X555540Y-70120D01*
X556420Y-72820D01*
X556840Y-75540D01*
X596580Y-75540D01*
X597000Y-72820D01*
X597880Y-70120D01*
X599260Y-67520D01*
X602080Y-63060D01*
X631580Y-59740D01*
X640480Y-68720D01*
X642099Y-70560D01*
X643360Y-72260D01*
X644280Y-73840D01*
X644840Y-75340D01*
X645040Y-76800D01*
X644880Y-78260D01*
X644400Y-79740D01*
X643540Y-81280D01*
X642253Y-83040D01*
X681460Y-83040D01*
X681460Y-70700D01*
X696000Y-60500D01*
X716000Y-60500D01*
X730560Y-70700D01*
X730560Y-83040D01*
X725678Y-86460D01*
X769840Y-86460D01*
X769840Y-67280D01*
X776160Y-63900D01*
X777640Y-63220D01*
X779440Y-62580D01*
X781460Y-62000D01*
X783640Y-61500D01*
X785939Y-61080D01*
X790560Y-60580D01*
X792740Y-60500D01*
X794940Y-60580D01*
X799560Y-61080D01*
X804040Y-62000D01*
X806060Y-62580D01*
X807840Y-63220D01*
X809320Y-63900D01*
X815660Y-67280D01*
X815660Y-82620D01*
X854940Y-82620D01*
X854940Y-67440D01*
X861480Y-63400D01*
X861480Y-83420D01*
X871520Y-83420D01*
X877440Y-68700D01*
X877640Y-74020D01*
X878100Y-76400D01*
X879240Y-78980D01*
X880840Y-81420D01*
X882760Y-83420D01*
X887660Y-87500D01*
X897480Y-79340D01*
X897600Y-58880D01*
X900759Y-63780D01*
X902000Y-66140D01*
X903020Y-68940D01*
X903720Y-71800D01*
X903980Y-74420D01*
X904040Y-80140D01*
X890800Y-93379D01*
X878900Y-87020D01*
X864720Y-90740D01*
X854940Y-82620D01*
X815660Y-82620D01*
X815660Y-86460D01*
X809320Y-89860D01*
X807840Y-90540D01*
X806060Y-91160D01*
X804040Y-91740D01*
X799560Y-92660D01*
X797220Y-92980D01*
X794940Y-93180D01*
X792740Y-93240D01*
X790560Y-93180D01*
X788259Y-92980D01*
X785939Y-92660D01*
X783640Y-92240D01*
X781460Y-91740D01*
X779440Y-91160D01*
X777640Y-90540D01*
X776160Y-89860D01*
X769840Y-86460D01*
X725678Y-86460D01*
X716000Y-93240D01*
X696000Y-93240D01*
X681460Y-83040D01*
X642253Y-83040D01*
X640800Y-84720D01*
X632360Y-93240D01*
X606640Y-93240D01*
X601500Y-88100D01*
X599580Y-85860D01*
X598140Y-83440D01*
X597160Y-80879D01*
X596620Y-78240D01*
X596580Y-75540D01*
X556840Y-75540D01*
X556780Y-78240D01*
X556260Y-80879D01*
X555280Y-83440D01*
X553820Y-85860D01*
X551920Y-88100D01*
X546780Y-93240D01*
X521060Y-93240D01*
X512620Y-84720D01*
X511079Y-82940D01*
X509880Y-81280D01*
X509020Y-79740D01*
X508519Y-78260D01*
X508380Y-76800D01*
X383579Y-76800D01*
X383579Y-83040D01*
X369040Y-93240D01*
X352320Y-93240D01*
X337760Y-83040D01*
X337760Y-60500D01*
X298480Y-60500D01*
X298480Y-66640D01*
X277200Y-68700D01*
X277200Y-78380D01*
X287720Y-84980D01*
X291800Y-87780D01*
X295180Y-90480D01*
X297480Y-92780D01*
X298360Y-94380D01*
X298480Y-97160D01*
X275760Y-83740D01*
X271900Y-89960D01*
X256160Y-89960D01*
X251640Y-81460D01*
X249880Y-77480D01*
X249240Y-75680D01*
X248760Y-74020D01*
X248460Y-72440D01*
X248340Y-71000D01*
X229348Y-71000D01*
X229457Y-99080D01*
X854940Y-99080D01*
X859960Y-101000D01*
X866040Y-102920D01*
X875540Y-105719D01*
X904040Y-113740D01*
X904020Y-121060D01*
X877280Y-128960D01*
X867900Y-131880D01*
X860540Y-134340D01*
X854940Y-136500D01*
X854940Y-129500D01*
X871780Y-125220D01*
X877740Y-123539D01*
X883259Y-121820D01*
X887700Y-120300D01*
X895860Y-116860D01*
X854940Y-105260D01*
X854940Y-99080D01*
X229457Y-99080D01*
X229531Y-118059D01*
X249660Y-118059D01*
X249680Y-116440D01*
X250000Y-114840D01*
X250640Y-113100D01*
X251600Y-111120D01*
X256260Y-103059D01*
X271780Y-103059D01*
X279340Y-125980D01*
X291940Y-125980D01*
X291940Y-102680D01*
X298480Y-106720D01*
X298480Y-125180D01*
X289629Y-132520D01*
X337760Y-132520D01*
X337760Y-113340D01*
X348040Y-103059D01*
X471960Y-103059D01*
X471960Y-116300D01*
X509720Y-116300D01*
X510000Y-114000D01*
X510600Y-111720D01*
X511480Y-109640D01*
X512560Y-107920D01*
X513800Y-106760D01*
X515100Y-106340D01*
X518500Y-106340D01*
X514720Y-116160D01*
X553320Y-116160D01*
X556300Y-104700D01*
X556300Y-122700D01*
X596340Y-122700D01*
X596340Y-116340D01*
X596600Y-113720D01*
X597300Y-111260D01*
X598360Y-109260D01*
X599620Y-107980D01*
X602900Y-105940D01*
X602900Y-116160D01*
X638900Y-116160D01*
X638900Y-105940D01*
X645440Y-110000D01*
X645440Y-122700D01*
X681460Y-122700D01*
X681500Y-118600D01*
X681780Y-116640D01*
X682480Y-114280D01*
X683500Y-111840D01*
X684720Y-109600D01*
X687900Y-104700D01*
X688000Y-116160D01*
X724000Y-116160D01*
X724000Y-106340D01*
X730560Y-106340D01*
X730560Y-122700D01*
X769840Y-122700D01*
X769840Y-106340D01*
X777080Y-106340D01*
X773319Y-116160D01*
X811900Y-116160D01*
X814900Y-104700D01*
X814900Y-134160D01*
X811900Y-122700D01*
X730560Y-122700D01*
X730560Y-132520D01*
X724000Y-132520D01*
X724000Y-122700D01*
X645440Y-122700D01*
X645440Y-132520D01*
X638900Y-132520D01*
X638900Y-122700D01*
X556300Y-122700D01*
X556300Y-134160D01*
X553320Y-122700D01*
X511640Y-122700D01*
X510379Y-120239D01*
X509820Y-118440D01*
X509720Y-116300D01*
X471960Y-116300D01*
X471960Y-132520D01*
X465420Y-132520D01*
X465420Y-109179D01*
X447420Y-111240D01*
X443360Y-134160D01*
X442500Y-109600D01*
X429420Y-109600D01*
X429420Y-132520D01*
X422860Y-132520D01*
X422860Y-103059D01*
X359480Y-103059D01*
X361920Y-103120D01*
X364420Y-103320D01*
X366960Y-103640D01*
X369420Y-104060D01*
X371760Y-104560D01*
X373900Y-105140D01*
X375740Y-105760D01*
X377260Y-106440D01*
X383579Y-109840D01*
X383579Y-132520D01*
X377660Y-132520D01*
X381079Y-119400D01*
X372960Y-109600D01*
X348380Y-109600D01*
X340260Y-119400D01*
X343700Y-132520D01*
X289629Y-132520D01*
X288980Y-133060D01*
X277220Y-130800D01*
X265780Y-106519D01*
X255320Y-110540D01*
X258060Y-129240D01*
X255720Y-129240D01*
X254640Y-128840D01*
X253460Y-127720D01*
X252320Y-126080D01*
X251360Y-124060D01*
X250520Y-121740D01*
X249960Y-119780D01*
X249660Y-118059D01*
X229531Y-118059D01*
X229613Y-139060D01*
X255920Y-139060D01*
X255920Y-155440D01*
X298480Y-155440D01*
X298480Y-161980D01*
X255920Y-161980D01*
X255920Y-164460D01*
X337760Y-164460D01*
X337760Y-149120D01*
X344099Y-145720D01*
X345580Y-145040D01*
X347360Y-144420D01*
X349380Y-143840D01*
X353860Y-142920D01*
X356200Y-142600D01*
X358480Y-142400D01*
X360680Y-142340D01*
X471960Y-142340D01*
X471960Y-148880D01*
X434320Y-149320D01*
X458928Y-160280D01*
X509860Y-160280D01*
X510060Y-157780D01*
X510660Y-155300D01*
X511700Y-152900D01*
X513140Y-150580D01*
X514960Y-148420D01*
X517160Y-146440D01*
X522320Y-142340D01*
X546780Y-142340D01*
X551920Y-147480D01*
X553840Y-149720D01*
X555280Y-152140D01*
X556260Y-154700D01*
X556800Y-157360D01*
X556840Y-160060D01*
X556420Y-162800D01*
X555500Y-165479D01*
X553865Y-168520D01*
X596340Y-168520D01*
X596340Y-159660D01*
X629080Y-162820D01*
X629080Y-148880D01*
X625700Y-148880D01*
X623740Y-149300D01*
X620900Y-150460D01*
X617580Y-152160D01*
X610820Y-156180D01*
X607880Y-157520D01*
X605580Y-158140D01*
X604300Y-157920D01*
X604300Y-157220D01*
X605160Y-156120D01*
X606720Y-154700D01*
X608860Y-153060D01*
X611420Y-151260D01*
X614260Y-149420D01*
X620220Y-145960D01*
X623060Y-144520D01*
X625600Y-143360D01*
X627720Y-142600D01*
X629260Y-142340D01*
X632360Y-142340D01*
X632360Y-152880D01*
X682080Y-152880D01*
X682280Y-150480D01*
X682700Y-148260D01*
X683340Y-146300D01*
X684200Y-144680D01*
X685260Y-143420D01*
X686500Y-142620D01*
X687940Y-142340D01*
X690600Y-142340D01*
X689640Y-163619D01*
X702840Y-165500D01*
X716380Y-151600D01*
X718620Y-149420D01*
X722760Y-145740D01*
X724520Y-144320D01*
X726020Y-143260D01*
X727159Y-142580D01*
X727920Y-142340D01*
X730560Y-142340D01*
X730560Y-164460D01*
X769840Y-164460D01*
X769840Y-145620D01*
X775000Y-145620D01*
X774740Y-163440D01*
X786200Y-165740D01*
X786200Y-152160D01*
X789479Y-152160D01*
X790740Y-152500D01*
X791780Y-153400D01*
X792480Y-154760D01*
X793040Y-158360D01*
X793860Y-160520D01*
X795060Y-162640D01*
X796520Y-164440D01*
X800300Y-168220D01*
X813080Y-161380D01*
X809280Y-142340D01*
X815660Y-142340D01*
X815660Y-151900D01*
X815500Y-156000D01*
X815080Y-160159D01*
X814440Y-163860D01*
X814274Y-164460D01*
X854940Y-164460D01*
X854940Y-145620D01*
X861480Y-145620D01*
X861480Y-165260D01*
X871520Y-165260D01*
X877440Y-150520D01*
X877840Y-161740D01*
X890260Y-168380D01*
X898259Y-158740D01*
X895120Y-142340D01*
X897880Y-142340D01*
X899100Y-142960D01*
X900400Y-144660D01*
X901620Y-147160D01*
X902620Y-150220D01*
X904599Y-158100D01*
X897260Y-171800D01*
X881500Y-171800D01*
X877540Y-165380D01*
X865280Y-173039D01*
X854940Y-164460D01*
X814274Y-164460D01*
X813680Y-166620D01*
X811680Y-171800D01*
X796400Y-171800D01*
X792440Y-165380D01*
X780180Y-173039D01*
X769840Y-164460D01*
X730560Y-164460D01*
X730560Y-171800D01*
X724000Y-171800D01*
X724000Y-151480D01*
X700860Y-171800D01*
X688220Y-171800D01*
X684840Y-165460D01*
X683760Y-163100D01*
X682960Y-160580D01*
X682400Y-158000D01*
X682120Y-155420D01*
X682080Y-152880D01*
X632360Y-152880D01*
X632360Y-161980D01*
X642180Y-161980D01*
X642180Y-168520D01*
X637540Y-168520D01*
X635600Y-168840D01*
X633780Y-169720D01*
X632260Y-171020D01*
X631240Y-172620D01*
X629600Y-176700D01*
X629080Y-168520D01*
X553865Y-168520D01*
X551260Y-172620D01*
X533020Y-172620D01*
X524300Y-160680D01*
X528060Y-148880D01*
X524960Y-148880D01*
X523300Y-149200D01*
X521640Y-150100D01*
X519980Y-151500D01*
X518400Y-153340D01*
X516960Y-155540D01*
X515700Y-158020D01*
X514680Y-160740D01*
X513960Y-163619D01*
X512680Y-170159D01*
X510820Y-165260D01*
X510120Y-162780D01*
X509860Y-160280D01*
X458928Y-160280D01*
X472200Y-166180D01*
X469799Y-173440D01*
X422860Y-175360D01*
X422860Y-168520D01*
X460500Y-167880D01*
X422860Y-150680D01*
X422860Y-142340D01*
X360680Y-142340D01*
X362860Y-142400D01*
X365160Y-142600D01*
X367480Y-142920D01*
X369780Y-143340D01*
X371960Y-143840D01*
X373980Y-144420D01*
X375780Y-145040D01*
X377260Y-145720D01*
X383579Y-149120D01*
X383579Y-164460D01*
X373660Y-172700D01*
X347680Y-172700D01*
X337760Y-164460D01*
X255920Y-164460D01*
X255920Y-175080D01*
X249380Y-175080D01*
X249380Y-139060D01*
X229613Y-139060D01*
X229780Y-181620D01*
X62800Y-181620D01*
X62800Y250560D01*
X56260Y250560D01*
X56260Y-184680D01*
X841840Y-184680D01*
X918760Y-186520D01*
X920460Y-538400D01*
X841840Y-538400D01*
X841840Y-184680D01*
X583260Y-184680D01*
X592456Y-184899D01*
X746320Y-184899D01*
X746324Y-189320D01*
X753400Y-189320D01*
X757820Y-184899D01*
X831500Y-184899D01*
X831840Y-538620D01*
X755100Y-536760D01*
X753400Y-189320D01*
X746324Y-189320D01*
X746700Y-538400D01*
X668360Y-538400D01*
X668360Y-184899D01*
X592456Y-184899D01*
X660180Y-186520D01*
X660180Y-536760D01*
X583260Y-538620D01*
X583260Y-184680D01*
X409780Y-184680D01*
X486700Y-186520D01*
X488380Y-538400D01*
X494880Y-538400D01*
X494880Y-189259D01*
X499240Y-184899D01*
X572840Y-184899D01*
X573220Y-538400D01*
X409780Y-538400D01*
X409780Y-184680D01*
X56260Y-184680D01*
X56260Y-184899D01*
X399960Y-184899D01*
X399960Y-538400D01*
X324660Y-538400D01*
X324660Y-184899D01*
X314840Y-184899D01*
X314840Y-538400D01*
X236280Y-538400D01*
X236280Y-184899D01*
X56260Y-184899D01*
X56260Y-188160D01*
X229740Y-188160D01*
X229740Y-544960D01*
X926940Y-544960D01*
X926940Y545040D01*
G37*
G36*
X597000Y504140D02*
G01*
X597000Y461580D01*
X601540Y477939D01*
X645440Y479880D01*
X645440Y485840D01*
X601540Y487760D01*
G37*
G36*
X596340Y453400D02*
G01*
X597220Y422299D01*
X601260Y445140D01*
X612720Y447340D01*
X612720Y430860D01*
X619260Y426820D01*
X619260Y446840D01*
X641780Y446840D01*
X645840Y453400D01*
G37*
G36*
X597000Y422299D02*
G01*
X597000Y379739D01*
X601540Y396120D01*
X645440Y398040D01*
X645440Y404000D01*
X601540Y405940D01*
G37*
G36*
X463720Y374860D02*
G01*
X463780Y353720D01*
X452960Y351560D01*
X445280Y374840D01*
X426680Y374840D01*
X425040Y370740D01*
X424380Y368440D01*
X423800Y365220D01*
X423360Y361480D01*
X423120Y357660D01*
X422860Y348660D01*
X429420Y348660D01*
X429420Y368300D01*
X441560Y368300D01*
X447620Y347020D01*
X464340Y345040D01*
X472440Y354799D01*
X470319Y372700D01*
G37*
G36*
X514840Y374840D02*
G01*
X510180Y366780D01*
X509219Y364799D01*
X508579Y363060D01*
X508260Y361440D01*
X508260Y359840D01*
X508540Y358120D01*
X509120Y356160D01*
X509960Y353820D01*
X511120Y351260D01*
X512280Y349620D01*
X513360Y348860D01*
X514340Y348980D01*
X515160Y349940D01*
X515780Y351700D01*
X516180Y354260D01*
X516280Y357560D01*
X516160Y366480D01*
X526320Y368519D01*
X535800Y347020D01*
X551420Y344799D01*
X554200Y349180D01*
X554760Y350280D01*
X555280Y351719D01*
X555760Y353459D01*
X556520Y357520D01*
X556960Y361980D01*
X557060Y374840D01*
X549760Y374840D01*
X551560Y367980D01*
X552120Y364940D01*
X552300Y361780D01*
X552120Y358840D01*
X551580Y356520D01*
X549820Y351920D01*
X540800Y351920D01*
X531220Y374840D01*
G37*
G36*
X681460Y374840D02*
G01*
X681460Y368300D01*
X724000Y368300D01*
X724000Y345760D01*
X730560Y341719D01*
X730560Y374840D01*
G37*
G36*
X770920Y374840D02*
G01*
X766220Y370120D01*
X766673Y368300D01*
X789479Y368300D01*
X789479Y355900D01*
X780440Y352440D01*
X776780Y356100D01*
X775360Y357879D01*
X774180Y359960D01*
X773400Y362100D01*
X773100Y364040D01*
X773100Y368300D01*
X766673Y368300D01*
X768280Y361860D01*
X769100Y359080D01*
X770060Y356520D01*
X771160Y354200D01*
X772380Y352140D01*
X773720Y350300D01*
X775160Y348740D01*
X776680Y347440D01*
X778259Y346420D01*
X779920Y345680D01*
X781600Y345240D01*
X783319Y345080D01*
X785040Y345220D01*
X786780Y345680D01*
X788480Y346480D01*
X790180Y347580D01*
X791820Y349040D01*
X795460Y352680D01*
X803020Y347400D01*
X806040Y345379D01*
X808620Y343880D01*
X810800Y342860D01*
X812560Y342360D01*
X813940Y342340D01*
X814900Y342840D01*
X815460Y343820D01*
X815660Y345300D01*
X814880Y346940D01*
X812780Y349040D01*
X809659Y351340D01*
X805840Y353560D01*
X796020Y358640D01*
X796020Y368300D01*
X815660Y368300D01*
X815660Y374840D01*
G37*
G36*
X249380Y338840D02*
G01*
X249380Y303220D01*
X255920Y299160D01*
X255920Y315920D01*
X298480Y315920D01*
X298480Y322460D01*
X255920Y322460D01*
X255920Y338840D01*
G37*
G36*
X780480Y337040D02*
G01*
X769840Y328220D01*
X769840Y306100D01*
X776820Y306100D01*
X772560Y319500D01*
X780460Y329020D01*
X805040Y329020D01*
X813120Y319280D01*
X809320Y309380D01*
X796020Y309380D01*
X796020Y319200D01*
X789479Y319200D01*
X789479Y302440D01*
X814020Y304460D01*
X815980Y327939D01*
X805020Y337040D01*
G37*
G36*
X337380Y335560D02*
G01*
X337849Y329020D01*
X357860Y329020D01*
X355760Y314280D01*
X342660Y314280D01*
X340580Y329020D01*
X337849Y329020D01*
X339400Y307740D01*
X354480Y305600D01*
X362660Y312380D01*
X383579Y299640D01*
X383540Y307740D01*
X363940Y318880D01*
X363940Y329020D01*
X383579Y329020D01*
X383579Y335560D01*
G37*
G36*
X437420Y335560D02*
G01*
X422860Y325360D01*
X422860Y306100D01*
X429420Y306100D01*
X429420Y322600D01*
X446040Y330180D01*
X463780Y323840D01*
X463519Y306020D01*
X466920Y307140D01*
X468320Y308100D01*
X469620Y309940D01*
X470680Y312380D01*
X471340Y315160D01*
X472360Y322060D01*
X458880Y335560D01*
G37*
G36*
X507980Y335560D02*
G01*
X507980Y329020D01*
X531980Y329020D01*
X538920Y328840D01*
X542080Y328660D01*
X547360Y328100D01*
X549320Y327740D01*
X550720Y327360D01*
X551500Y326940D01*
X553560Y324880D01*
X547020Y312640D01*
X522380Y312640D01*
X518440Y316580D01*
X516920Y318440D01*
X515680Y320600D01*
X514820Y322800D01*
X514520Y324760D01*
X514520Y329020D01*
X507980Y329020D01*
X507980Y319920D01*
X520360Y304620D01*
X546420Y304620D01*
X557060Y313440D01*
X557060Y335560D01*
G37*
G36*
X596340Y335560D02*
G01*
X596340Y324880D01*
X599860Y324880D01*
X601920Y326940D01*
X602700Y327360D01*
X604100Y327740D01*
X606060Y328100D01*
X611340Y328660D01*
X617900Y328960D01*
X638900Y329020D01*
X638900Y324760D01*
X638600Y322800D01*
X637740Y320600D01*
X636500Y318440D01*
X634980Y316580D01*
X631040Y312640D01*
X606400Y312640D01*
X599860Y324880D01*
X596340Y324880D01*
X596340Y313440D01*
X607000Y304620D01*
X633060Y304620D01*
X645440Y319920D01*
X645440Y335560D01*
G37*
G36*
X681460Y335560D02*
G01*
X681460Y306100D01*
X688000Y306100D01*
X688000Y325740D01*
X701100Y325740D01*
X701100Y306100D01*
X707640Y306100D01*
X707640Y325740D01*
X724000Y325740D01*
X724000Y306480D01*
X730560Y302440D01*
X730560Y335560D01*
G37*
G36*
X298480Y299640D02*
G01*
X272600Y282520D01*
X262940Y289400D01*
X259040Y292080D01*
X255539Y294260D01*
X252860Y295740D01*
X251340Y296280D01*
X249899Y296000D01*
X249220Y295220D01*
X249240Y294020D01*
X249920Y292480D01*
X251180Y290700D01*
X253000Y288780D01*
X255300Y286780D01*
X258060Y284800D01*
X266740Y279120D01*
X258060Y273840D01*
X254700Y271600D01*
X251940Y269380D01*
X250060Y267460D01*
X249380Y266060D01*
X249520Y264860D01*
X250000Y264080D01*
X250859Y263760D01*
X252180Y263880D01*
X253980Y264480D01*
X256340Y265580D01*
X259300Y267160D01*
X272620Y274960D01*
X298480Y260080D01*
X298480Y263380D01*
X297840Y265080D01*
X296080Y267280D01*
X293480Y269680D01*
X287120Y274300D01*
X284520Y276500D01*
X282760Y278400D01*
X282120Y279740D01*
X282760Y281000D01*
X284520Y282680D01*
X287120Y284580D01*
X290300Y286460D01*
X298480Y290840D01*
G37*
G36*
X557060Y298860D02*
G01*
X518840Y287060D01*
X512800Y285120D01*
X510680Y284320D01*
X509520Y283780D01*
X508560Y283200D01*
X507819Y282620D01*
X507280Y282020D01*
X506980Y281400D01*
X506880Y280760D01*
X507000Y280100D01*
X507340Y279420D01*
X508030Y278580D01*
X520780Y278580D01*
X521300Y279760D01*
X522500Y281020D01*
X524280Y282220D01*
X526560Y283260D01*
X529240Y283980D01*
X537420Y285560D01*
X537420Y272660D01*
X532260Y274660D01*
X530000Y275420D01*
X527720Y276060D01*
X525640Y276480D01*
X522080Y276900D01*
X521000Y277580D01*
X520780Y278580D01*
X508030Y278580D01*
X508680Y277980D01*
X510940Y276420D01*
X514120Y274780D01*
X518240Y273000D01*
X523280Y271080D01*
X529300Y269020D01*
X536280Y266820D01*
X557060Y260620D01*
X557060Y267440D01*
X543980Y270860D01*
X543980Y289740D01*
X557060Y289740D01*
G37*
G36*
X337760Y296820D02*
G01*
X337760Y293460D01*
X338340Y291740D01*
X339920Y289560D01*
X342260Y287180D01*
X345120Y284880D01*
X352480Y279660D01*
X336220Y267260D01*
X340660Y262840D01*
X359600Y276320D01*
X383579Y260040D01*
X383579Y269040D01*
X375400Y272780D01*
X372220Y274440D01*
X369620Y276240D01*
X367860Y277920D01*
X367220Y279320D01*
X367860Y280700D01*
X369620Y282400D01*
X372220Y284200D01*
X378579Y287580D01*
X381180Y289480D01*
X382939Y291340D01*
X383579Y292940D01*
X383400Y294500D01*
X382840Y295520D01*
X381840Y296000D01*
X380379Y295920D01*
X378400Y295280D01*
X375880Y294060D01*
X372760Y292260D01*
X359320Y283480D01*
G37*
G36*
X610900Y296280D02*
G01*
X596340Y286080D01*
X596340Y267200D01*
X603920Y262520D01*
X600480Y275700D01*
X606080Y285720D01*
X623220Y290040D01*
X639480Y279380D01*
X635500Y263540D01*
X638620Y263540D01*
X639980Y264060D01*
X641420Y265440D01*
X642740Y267480D01*
X643780Y269960D01*
X645819Y276400D01*
X642280Y282980D01*
X641100Y284960D01*
X639720Y286800D01*
X638160Y288500D01*
X636460Y290040D01*
X634600Y291440D01*
X632600Y292680D01*
X630480Y293740D01*
X628260Y294640D01*
X625940Y295340D01*
X623540Y295860D01*
X621080Y296180D01*
X618560Y296280D01*
G37*
G36*
X681460Y296280D02*
G01*
X681460Y289740D01*
X724460Y289740D01*
X722360Y275140D01*
X704640Y268920D01*
X688000Y276500D01*
X688000Y289740D01*
X681460Y289740D01*
X681460Y276640D01*
X694539Y263540D01*
X720360Y263540D01*
X730560Y278100D01*
X730560Y296280D01*
G37*
G36*
X770380Y296280D02*
G01*
X768700Y292180D01*
X768360Y290940D01*
X768180Y289220D01*
X768156Y286460D01*
X812840Y286460D01*
X810740Y271720D01*
X794380Y271720D01*
X792280Y286460D01*
X786660Y286460D01*
X784560Y271720D01*
X774740Y271720D01*
X772660Y286460D01*
X768156Y286460D01*
X768199Y284740D01*
X768680Y279480D01*
X769500Y274160D01*
X770020Y271720D01*
X770600Y269520D01*
X771200Y267700D01*
X771860Y266320D01*
X773100Y264180D01*
X814020Y265180D01*
X816020Y296280D01*
G37*
G36*
X422860Y293000D02*
G01*
X422860Y286460D01*
X465420Y286460D01*
X465420Y263540D01*
X471960Y263540D01*
X471960Y293000D01*
G37*
G36*
X348880Y194800D02*
G01*
X344960Y190880D01*
X343440Y189200D01*
X342180Y187520D01*
X341340Y186060D01*
X341040Y184980D01*
X341340Y183920D01*
X342180Y182440D01*
X343440Y180780D01*
X344960Y179100D01*
X348880Y175159D01*
X372960Y175159D01*
X381120Y184980D01*
X372960Y194800D01*
G37*
G36*
X535660Y194800D02*
G01*
X531060Y194660D01*
X526520Y194220D01*
X522560Y193600D01*
X520959Y193220D01*
X519700Y192820D01*
X517640Y191780D01*
X516140Y190440D01*
X515160Y188880D01*
X514720Y187120D01*
X514820Y185200D01*
X515480Y183200D01*
X516680Y181160D01*
X518440Y179100D01*
X522380Y175159D01*
X546440Y175159D01*
X554600Y184980D01*
X546440Y194800D01*
G37*
G36*
X607480Y194800D02*
G01*
X603560Y190880D01*
X601880Y189080D01*
X600720Y187480D01*
X600040Y186020D01*
X599880Y184620D01*
X600220Y183240D01*
X601060Y181820D01*
X602420Y180300D01*
X604300Y178640D01*
X608980Y174740D01*
X633320Y176800D01*
X640540Y188440D01*
X635620Y191580D01*
X634400Y192200D01*
X632800Y192800D01*
X630900Y193340D01*
X626420Y194200D01*
X624000Y194500D01*
X619100Y194760D01*
G37*
G36*
X780960Y194800D02*
G01*
X777039Y190880D01*
X775500Y189200D01*
X774260Y187520D01*
X773420Y186060D01*
X773100Y184980D01*
X773420Y183920D01*
X774260Y182440D01*
X775500Y180780D01*
X777039Y179100D01*
X780960Y175159D01*
X805040Y175159D01*
X813180Y184980D01*
X805040Y194800D01*
G37*
G36*
X444340Y194740D02*
G01*
X441420Y194660D01*
X438700Y194480D01*
X436240Y194180D01*
X434180Y193780D01*
X432600Y193260D01*
X431599Y192620D01*
X430740Y191340D01*
X430060Y189420D01*
X429580Y187160D01*
X429420Y184800D01*
X429420Y179140D01*
X434580Y177160D01*
X436360Y176580D01*
X438340Y176100D01*
X440460Y175720D01*
X442720Y175460D01*
X445040Y175300D01*
X447420Y175240D01*
X449780Y175300D01*
X452120Y175460D01*
X454360Y175720D01*
X456500Y176100D01*
X458459Y176580D01*
X460240Y177160D01*
X465420Y179140D01*
X465420Y190840D01*
X460240Y192820D01*
X458280Y193420D01*
X455900Y193920D01*
X453220Y194300D01*
X450340Y194560D01*
G37*
G36*
X274320Y194500D02*
G01*
X269680Y194280D01*
X265480Y193740D01*
X255920Y191420D01*
X255920Y178560D01*
X265480Y176240D01*
X269680Y175700D01*
X274320Y175460D01*
X276640Y175460D01*
X280900Y175740D01*
X290300Y176800D01*
X290300Y193180D01*
X278860Y194420D01*
G37*
G36*
X706380Y194500D02*
G01*
X701740Y194280D01*
X697540Y193740D01*
X688000Y191420D01*
X688000Y179140D01*
X693180Y177160D01*
X695180Y176520D01*
X697400Y176000D01*
X699820Y175640D01*
X702340Y175400D01*
X704940Y175300D01*
X707560Y175320D01*
X710120Y175460D01*
X712580Y175740D01*
X714880Y176140D01*
X716960Y176660D01*
X718760Y177300D01*
X720240Y178060D01*
X724659Y180859D01*
X722320Y193180D01*
X710900Y194420D01*
G37*
G36*
X617620Y156000D02*
G01*
X608620Y152580D01*
X605260Y151140D01*
X602740Y149700D01*
X601000Y148220D01*
X600100Y146680D01*
X600015Y145700D01*
X615980Y145700D01*
X616240Y146980D01*
X616940Y148020D01*
X618000Y148720D01*
X619260Y148980D01*
X620540Y148720D01*
X621580Y148020D01*
X622280Y146980D01*
X622540Y145700D01*
X622280Y144440D01*
X621580Y143400D01*
X620540Y142700D01*
X619260Y142440D01*
X618000Y142700D01*
X616940Y143400D01*
X616240Y144440D01*
X615980Y145700D01*
X600015Y145700D01*
X599960Y145060D01*
X600640Y143320D01*
X602080Y141420D01*
X604300Y139360D01*
X608960Y135480D01*
X637260Y137520D01*
X637260Y150380D01*
G37*
G36*
X540700Y155900D02*
G01*
X530880Y150100D01*
X527080Y147640D01*
X523940Y145240D01*
X521840Y143180D01*
X521060Y141720D01*
X521060Y139160D01*
X540700Y139160D01*
G37*
G36*
X861040Y155520D02*
G01*
X863120Y137520D01*
X888120Y135460D01*
X897480Y143240D01*
X897480Y155520D01*
G37*
G36*
X367220Y-31040D02*
G01*
X363120Y-31100D01*
X360920Y-31280D01*
X357960Y-31740D01*
X354620Y-32400D01*
X351300Y-33200D01*
X343560Y-35280D01*
X348020Y-37680D01*
X350340Y-38780D01*
X353340Y-40039D01*
X356640Y-41260D01*
X367220Y-44580D01*
G37*
G36*
X613020Y-66660D02*
G01*
X606320Y-70240D01*
X603760Y-71740D01*
X601860Y-73160D01*
X600600Y-74560D01*
X599980Y-75960D01*
X599960Y-77460D01*
X600560Y-79040D01*
X601760Y-80800D01*
X603560Y-82760D01*
X607480Y-86700D01*
X619100Y-86640D01*
X624000Y-86380D01*
X626420Y-86080D01*
X630900Y-85220D01*
X632800Y-84680D01*
X634400Y-84100D01*
X635620Y-83460D01*
X640540Y-80340D01*
X633340Y-68700D01*
G37*
G36*
X255920Y-67060D02*
G01*
X255920Y-83880D01*
X270660Y-81780D01*
X272760Y-67060D01*
G37*
G36*
X341040Y-67060D02*
G01*
X341040Y-71720D01*
X341440Y-73960D01*
X342540Y-76540D01*
X344180Y-79180D01*
X346180Y-81560D01*
X351320Y-86700D01*
X359480Y-86700D01*
X361260Y-86620D01*
X365120Y-86120D01*
X369040Y-85200D01*
X370880Y-84620D01*
X372540Y-83980D01*
X373980Y-83300D01*
X380319Y-79920D01*
X380319Y-67060D01*
G37*
G36*
X522380Y-67060D02*
G01*
X518440Y-70980D01*
X516920Y-72660D01*
X515680Y-74340D01*
X514820Y-75800D01*
X514520Y-76880D01*
X514820Y-77940D01*
X515680Y-79420D01*
X516920Y-81080D01*
X518440Y-82760D01*
X522380Y-86700D01*
X546440Y-86700D01*
X554600Y-76880D01*
X546440Y-67060D01*
G37*
G36*
X780960Y-67060D02*
G01*
X777039Y-70980D01*
X775500Y-72660D01*
X774260Y-74340D01*
X773420Y-75800D01*
X773100Y-76880D01*
X773420Y-77940D01*
X774260Y-79420D01*
X775500Y-81080D01*
X777039Y-82760D01*
X780960Y-86700D01*
X805040Y-86700D01*
X813180Y-76880D01*
X805040Y-67060D01*
G37*
G36*
X704940Y-67180D02*
G01*
X702340Y-67280D01*
X699820Y-67520D01*
X697400Y-67900D01*
X695180Y-68400D01*
X693180Y-69040D01*
X688000Y-71020D01*
X688000Y-83300D01*
X695780Y-85260D01*
X697540Y-85620D01*
X701740Y-86160D01*
X706380Y-86400D01*
X708700Y-86400D01*
X712940Y-86140D01*
X722320Y-85060D01*
X724659Y-72740D01*
X720240Y-69960D01*
X718760Y-69200D01*
X716960Y-68560D01*
X714880Y-68020D01*
X712580Y-67620D01*
X710120Y-67360D01*
X707560Y-67200D01*
G37*
G36*
X348880Y-148880D02*
G01*
X344960Y-152820D01*
X343720Y-154240D01*
X342986Y-155440D01*
X363940Y-155440D01*
X363940Y-158700D01*
X363700Y-159980D01*
X363040Y-161020D01*
X362060Y-161720D01*
X360860Y-161980D01*
X359520Y-161720D01*
X358100Y-161020D01*
X356800Y-159980D01*
X355760Y-158700D01*
X353740Y-155440D01*
X342986Y-155440D01*
X342320Y-157100D01*
X342120Y-158480D01*
X342260Y-159840D01*
X342700Y-161140D01*
X343459Y-162380D01*
X344480Y-163520D01*
X345800Y-164600D01*
X347360Y-165560D01*
X349180Y-166420D01*
X351220Y-167140D01*
X353480Y-167719D01*
X355959Y-168160D01*
X358620Y-168440D01*
X361460Y-168520D01*
X369240Y-168520D01*
X381700Y-159420D01*
X372960Y-148880D01*
G37*
G36*
X540840Y-148880D02*
G01*
X538500Y-149060D01*
X536260Y-149520D01*
X534360Y-150220D01*
X533060Y-151060D01*
X532220Y-152380D01*
X531520Y-154300D01*
X531060Y-156620D01*
X530880Y-159020D01*
X530880Y-164820D01*
X544700Y-169200D01*
X554880Y-159040D01*
X546440Y-148880D01*
G37*
G36*
X507980Y-194720D02*
G01*
X507980Y-230720D01*
X514060Y-230720D01*
X516160Y-215980D01*
X557060Y-214040D01*
X557060Y-207800D01*
X514520Y-207800D01*
X514520Y-194720D01*
G37*
G36*
X690920Y-197480D02*
G01*
X681120Y-205600D01*
X683100Y-222020D01*
X689900Y-224259D01*
X689640Y-206340D01*
X700460Y-204180D01*
X708139Y-227440D01*
X723199Y-227440D01*
X731020Y-218020D01*
X728920Y-200120D01*
X722300Y-197960D01*
X722360Y-219100D01*
X711220Y-221320D01*
X705620Y-199620D01*
G37*
G36*
X608520Y-197979D02*
G01*
X605320Y-198160D01*
X602360Y-198619D01*
X600000Y-199320D01*
X598540Y-200159D01*
X597680Y-201880D01*
X596980Y-204920D01*
X596520Y-208860D01*
X596340Y-213260D01*
X596340Y-224180D01*
X603660Y-224180D01*
X600480Y-212000D01*
X606580Y-201119D01*
X609700Y-203039D01*
X610420Y-203660D01*
X611280Y-204680D01*
X613280Y-207719D01*
X615440Y-211700D01*
X617500Y-216220D01*
X622200Y-227440D01*
X638680Y-227440D01*
X646000Y-213740D01*
X644020Y-205859D01*
X643040Y-202800D01*
X641780Y-200300D01*
X640440Y-198600D01*
X639180Y-197979D01*
X636300Y-197979D01*
X637260Y-219020D01*
X626080Y-221320D01*
X616320Y-197979D01*
G37*
G36*
X782000Y-197979D02*
G01*
X778800Y-198160D01*
X775840Y-198619D01*
X773480Y-199320D01*
X772020Y-200159D01*
X771160Y-201880D01*
X770480Y-204920D01*
X770000Y-208860D01*
X769840Y-213260D01*
X769840Y-224180D01*
X775980Y-224180D01*
X774740Y-206160D01*
X787840Y-206160D01*
X788860Y-213299D01*
X789599Y-216360D01*
X790900Y-219440D01*
X792560Y-222160D01*
X794400Y-224180D01*
X798940Y-227940D01*
X814020Y-225799D01*
X816040Y-197979D01*
X808680Y-197979D01*
X812540Y-210159D01*
X808420Y-220900D01*
X799380Y-220900D01*
X789800Y-197979D01*
G37*
G36*
X596340Y-236980D02*
G01*
X596340Y-247079D01*
X619260Y-247079D01*
X619260Y-259480D01*
X607980Y-263800D01*
X603800Y-258100D01*
X602180Y-255660D01*
X600840Y-253280D01*
X599960Y-251220D01*
X599620Y-249740D01*
X599620Y-247079D01*
X596340Y-247079D01*
X596340Y-262640D01*
X605800Y-270500D01*
X620900Y-268360D01*
X627080Y-247399D01*
X642380Y-245440D01*
X643820Y-238900D01*
G37*
G36*
X681460Y-237260D02*
G01*
X681460Y-247079D01*
X707640Y-247079D01*
X707640Y-249740D01*
X707320Y-251220D01*
X706420Y-253280D01*
X705080Y-255660D01*
X703460Y-258100D01*
X699280Y-263800D01*
X688000Y-259480D01*
X688000Y-247079D01*
X681460Y-247079D01*
X681520Y-249440D01*
X681720Y-251700D01*
X682440Y-256240D01*
X683520Y-260420D01*
X684160Y-262180D01*
X684840Y-263660D01*
X688220Y-270000D01*
X703060Y-270000D01*
X710920Y-262140D01*
X710920Y-247079D01*
X730560Y-247079D01*
X730560Y-237260D01*
G37*
G36*
X770920Y-237260D02*
G01*
X766060Y-242120D01*
X767051Y-247079D01*
X792740Y-247079D01*
X792740Y-251600D01*
X792360Y-253660D01*
X791300Y-255980D01*
X789740Y-258240D01*
X787840Y-260180D01*
X782920Y-264260D01*
X778020Y-260180D01*
X776100Y-258240D01*
X774539Y-255980D01*
X773500Y-253660D01*
X773100Y-251600D01*
X773100Y-247079D01*
X767051Y-247079D01*
X768500Y-253980D01*
X769140Y-256100D01*
X769900Y-258180D01*
X770740Y-260180D01*
X771660Y-262060D01*
X772620Y-263740D01*
X773580Y-265160D01*
X774539Y-266280D01*
X779100Y-270840D01*
X796220Y-266540D01*
X800120Y-247079D01*
X815660Y-247079D01*
X815660Y-237260D01*
G37*
G36*
X507980Y-240539D02*
G01*
X507980Y-266340D01*
X514520Y-270380D01*
X514520Y-247079D01*
X527600Y-247079D01*
X527600Y-266720D01*
X534160Y-266720D01*
X534160Y-247079D01*
X557060Y-247079D01*
X557060Y-240539D01*
G37*
G36*
X514520Y-272880D02*
G01*
X507980Y-276920D01*
X507980Y-312540D01*
X514520Y-312540D01*
X514520Y-296180D01*
X557060Y-296180D01*
X557060Y-289640D01*
X514520Y-289640D01*
G37*
G36*
X596540Y-278180D02*
G01*
X596540Y-307640D01*
X603220Y-296180D01*
X638900Y-296180D01*
X638900Y-306000D01*
X645440Y-306000D01*
X645440Y-279820D01*
X638900Y-279820D01*
X638900Y-289640D01*
X603220Y-289640D01*
G37*
G36*
X814900Y-278180D02*
G01*
X811900Y-289640D01*
X773100Y-289640D01*
X773100Y-279440D01*
X766560Y-283480D01*
X766560Y-302340D01*
X773100Y-306380D01*
X773100Y-296180D01*
X811900Y-296180D01*
X814900Y-307640D01*
G37*
G36*
X681460Y-279820D02*
G01*
X681460Y-306000D01*
X688000Y-306000D01*
X688000Y-296180D01*
X724000Y-296180D01*
X724000Y-306000D01*
X730560Y-306000D01*
X730560Y-279820D01*
X724000Y-279820D01*
X724000Y-289640D01*
X688000Y-289640D01*
X688000Y-279820D01*
G37*
G36*
X681460Y-355100D02*
G01*
X681460Y-365240D01*
X702740Y-374440D01*
X681460Y-382720D01*
X681460Y-391100D01*
X730560Y-391100D01*
X730560Y-384560D01*
X696180Y-383860D01*
X707860Y-379200D01*
X710020Y-378140D01*
X711700Y-377140D01*
X712840Y-376180D01*
X713500Y-375240D01*
X713620Y-374300D01*
X713240Y-373340D01*
X712340Y-372360D01*
X710920Y-371320D01*
X709000Y-370240D01*
X706540Y-369060D01*
X692920Y-363500D01*
X730560Y-361320D01*
X730560Y-355100D01*
G37*
G36*
X770380Y-355100D02*
G01*
X768920Y-359200D01*
X768360Y-361040D01*
X768220Y-362580D01*
X768540Y-363920D01*
X769460Y-365100D01*
X771040Y-366240D01*
X773379Y-367420D01*
X776580Y-368700D01*
X791100Y-373820D01*
X766080Y-384420D01*
X770220Y-391100D01*
X815660Y-391100D01*
X815660Y-384560D01*
X781280Y-384040D01*
X790300Y-380760D01*
X793000Y-379680D01*
X795180Y-378620D01*
X796860Y-377560D01*
X798020Y-376500D01*
X798660Y-375420D01*
X798780Y-374300D01*
X798400Y-373180D01*
X797480Y-372020D01*
X796060Y-370800D01*
X794120Y-369540D01*
X791640Y-368220D01*
X788660Y-366840D01*
X778020Y-362180D01*
X815660Y-361640D01*
X815660Y-355100D01*
G37*
G36*
X507980Y-358380D02*
G01*
X507980Y-364920D01*
X531340Y-364920D01*
X529240Y-379660D01*
X516160Y-379660D01*
X514060Y-364920D01*
X507980Y-364920D01*
X508040Y-368579D01*
X508240Y-370540D01*
X508960Y-374560D01*
X509460Y-376540D01*
X510040Y-378380D01*
X510680Y-380060D01*
X511360Y-381500D01*
X514739Y-387840D01*
X530500Y-387840D01*
X534340Y-381620D01*
X557060Y-395020D01*
X557060Y-386000D01*
X537420Y-378579D01*
X537420Y-364920D01*
X557060Y-364920D01*
X557060Y-358380D01*
G37*
G36*
X610900Y-358380D02*
G01*
X596340Y-368560D01*
X596340Y-387840D01*
X603600Y-387840D01*
X599760Y-377860D01*
X608020Y-369700D01*
X609740Y-368280D01*
X611400Y-367140D01*
X613080Y-366260D01*
X614800Y-365640D01*
X616580Y-365280D01*
X618480Y-365180D01*
X620520Y-365319D01*
X622760Y-365700D01*
X625200Y-366320D01*
X627880Y-367180D01*
X639640Y-371580D01*
X636480Y-388100D01*
X640140Y-386880D01*
X641660Y-385880D01*
X643040Y-384000D01*
X644140Y-381560D01*
X644840Y-378780D01*
X645860Y-371880D01*
X632360Y-358380D01*
G37*
G36*
X790620Y-397800D02*
G01*
X787940Y-397900D01*
X785340Y-398180D01*
X782840Y-398640D01*
X780480Y-399260D01*
X778240Y-400060D01*
X776160Y-401040D01*
X769840Y-404440D01*
X769840Y-414260D01*
X773400Y-414260D01*
X773600Y-412720D01*
X774539Y-411300D01*
X776200Y-409940D01*
X778640Y-408600D01*
X781860Y-407260D01*
X790600Y-403940D01*
X799820Y-405959D01*
X803560Y-406980D01*
X806900Y-408320D01*
X809500Y-409760D01*
X811000Y-411140D01*
X812940Y-414300D01*
X805040Y-423840D01*
X780960Y-423840D01*
X777039Y-419920D01*
X775140Y-417800D01*
X773920Y-415940D01*
X773400Y-414260D01*
X769840Y-414260D01*
X769840Y-422540D01*
X777680Y-430379D01*
X807800Y-430379D01*
X815660Y-422540D01*
X815660Y-404040D01*
X807260Y-400840D01*
X804520Y-399900D01*
X801740Y-399120D01*
X798920Y-398540D01*
X796120Y-398120D01*
X793360Y-397860D01*
G37*
G36*
X507980Y-400920D02*
G01*
X507980Y-430379D01*
X514520Y-430379D01*
X514520Y-407480D01*
X527600Y-407480D01*
X527600Y-430379D01*
X534160Y-430379D01*
X534160Y-407040D01*
X552160Y-409120D01*
X556200Y-432020D01*
X557060Y-400920D01*
G37*
G36*
X596340Y-400920D02*
G01*
X596340Y-407480D01*
X638900Y-407480D01*
X638900Y-434040D01*
X645440Y-430000D01*
X645440Y-400920D01*
G37*
G36*
X681460Y-400920D02*
G01*
X681460Y-430780D01*
X684720Y-428740D01*
X686000Y-427600D01*
X687039Y-425940D01*
X687740Y-424000D01*
X688000Y-422020D01*
X688000Y-417299D01*
X724000Y-417299D01*
X724000Y-422020D01*
X724260Y-424000D01*
X724960Y-425940D01*
X726000Y-427600D01*
X727280Y-428740D01*
X730560Y-430780D01*
X730560Y-400920D01*
X724000Y-400920D01*
X724000Y-410740D01*
X688000Y-410740D01*
X688000Y-400920D01*
G37*
G36*
X516520Y-439580D02*
G01*
X512239Y-445439D01*
X510900Y-447620D01*
X509860Y-450060D01*
X509120Y-452660D01*
X508680Y-455360D01*
X508500Y-458020D01*
X508620Y-460620D01*
X508980Y-463040D01*
X509600Y-465200D01*
X510480Y-467040D01*
X511599Y-468440D01*
X512960Y-469340D01*
X514540Y-469660D01*
X517120Y-469660D01*
X516160Y-448620D01*
X526980Y-446400D01*
X534440Y-468980D01*
X546320Y-472080D01*
X557060Y-466060D01*
X557060Y-440200D01*
X549760Y-440200D01*
X551560Y-447060D01*
X552120Y-450100D01*
X552300Y-453260D01*
X552120Y-456200D01*
X551580Y-458519D01*
X549820Y-463120D01*
X538380Y-463120D01*
X532300Y-441840D01*
G37*
G36*
X722039Y-440100D02*
G01*
X724720Y-463120D01*
X711420Y-463120D01*
X703860Y-440200D01*
X689300Y-440200D01*
X681160Y-448360D01*
X683100Y-468020D01*
X689400Y-468020D01*
X689640Y-448519D01*
X700500Y-446380D01*
X704880Y-466360D01*
X715120Y-472080D01*
X727360Y-468880D01*
X729240Y-461360D01*
X729940Y-457819D01*
X730280Y-454400D01*
X730280Y-451180D01*
X729920Y-448280D01*
X729260Y-445740D01*
X728280Y-443660D01*
X727020Y-442140D01*
X725480Y-441240D01*
G37*
G36*
X596340Y-440200D02*
G01*
X596340Y-446760D01*
X612720Y-446760D01*
X612720Y-449660D01*
X612060Y-451200D01*
X610320Y-453280D01*
X607700Y-455600D01*
X604540Y-457900D01*
X596340Y-463280D01*
X596340Y-474159D01*
X615380Y-455920D01*
X631040Y-466540D01*
X636260Y-469780D01*
X638360Y-470959D01*
X640160Y-471820D01*
X641660Y-472400D01*
X642880Y-472680D01*
X643860Y-472680D01*
X644580Y-472400D01*
X645080Y-471840D01*
X645360Y-471019D01*
X645440Y-469940D01*
X645220Y-469180D01*
X644539Y-468200D01*
X643480Y-467040D01*
X642080Y-465740D01*
X640380Y-464320D01*
X636300Y-461320D01*
X631680Y-458360D01*
X629540Y-456860D01*
X627600Y-455379D01*
X625900Y-453960D01*
X624500Y-452660D01*
X623440Y-451480D01*
X622760Y-450500D01*
X622540Y-449760D01*
X622540Y-446760D01*
X645440Y-446760D01*
X645440Y-440200D01*
G37*
G36*
X782000Y-440200D02*
G01*
X778800Y-440379D01*
X775840Y-440840D01*
X773480Y-441540D01*
X772020Y-442380D01*
X771160Y-444080D01*
X770480Y-447080D01*
X770000Y-450959D01*
X769840Y-455280D01*
X769840Y-466000D01*
X775699Y-469640D01*
X774740Y-448620D01*
X785960Y-446320D01*
X790220Y-463280D01*
X803580Y-472620D01*
X815660Y-466160D01*
X815660Y-440200D01*
X809080Y-440200D01*
X810740Y-461220D01*
X799560Y-463540D01*
X789800Y-440200D01*
G37*
G36*
X693420Y-479480D02*
G01*
X687440Y-484900D01*
X685740Y-486580D01*
X684320Y-488280D01*
X683220Y-489980D01*
X682420Y-491700D01*
X681919Y-493420D01*
X681720Y-495180D01*
X681840Y-496940D01*
X682071Y-497980D01*
X688199Y-497980D01*
X688300Y-496079D01*
X688960Y-494080D01*
X690160Y-492020D01*
X691919Y-489960D01*
X695860Y-486040D01*
X704760Y-486040D01*
X708620Y-486180D01*
X712560Y-486620D01*
X716120Y-487239D01*
X718820Y-488020D01*
X724000Y-490000D01*
X724000Y-501700D01*
X718820Y-503680D01*
X716220Y-504460D01*
X712920Y-505080D01*
X709380Y-505520D01*
X706000Y-505680D01*
X702620Y-505520D01*
X699080Y-505080D01*
X695800Y-504460D01*
X693180Y-503680D01*
X691140Y-502640D01*
X689620Y-501300D01*
X688640Y-499739D01*
X688199Y-497980D01*
X682071Y-497980D01*
X682240Y-498740D01*
X682940Y-500560D01*
X683960Y-502420D01*
X685260Y-504300D01*
X686880Y-506240D01*
X692280Y-512220D01*
X720260Y-512220D01*
X730560Y-501940D01*
X730560Y-489780D01*
X720260Y-479480D01*
G37*
G36*
X814900Y-481120D02*
G01*
X811900Y-492580D01*
X773100Y-492580D01*
X773100Y-482380D01*
X766560Y-486420D01*
X766560Y-505280D01*
X773100Y-509340D01*
X773100Y-499120D01*
X811900Y-499120D01*
X814900Y-510580D01*
G37*
D50*
X1910883Y202078D02*
G01*
X1910883Y89335D01*
X1910883Y202078D02*
G01*
X1841090Y202078D01*
X1910883Y148391D02*
G01*
X1867933Y148391D01*
X1910883Y89335D02*
G01*
X1841090Y89335D01*
X1730496Y185972D02*
G01*
X1741234Y196709D01*
X1757340Y202078D01*
X1778815Y202078D01*
X1794921Y196709D01*
X1805658Y185972D01*
X1805658Y175234D01*
X1800289Y164497D01*
X1794921Y159128D01*
X1784183Y153760D01*
X1751971Y143022D01*
X1741234Y137654D01*
X1735865Y132285D01*
X1730496Y121547D01*
X1730496Y105441D01*
X1741234Y94704D01*
X1757340Y89335D01*
X1778815Y89335D01*
X1794921Y94704D01*
X1805658Y105441D01*
X1695064Y202078D02*
G01*
X1695064Y89335D01*
X1695064Y202078D02*
G01*
X1646746Y202078D01*
X1630640Y196709D01*
X1625272Y191340D01*
X1619903Y180603D01*
X1619903Y164497D01*
X1625272Y153760D01*
X1630640Y148391D01*
X1646746Y143022D01*
X1695064Y143022D01*
X1914822Y56368D02*
G01*
X1914822Y-56374D01*
X1914822Y56368D02*
G01*
X1866505Y56368D01*
X1850399Y50999D01*
X1845030Y45630D01*
X1839661Y34893D01*
X1839661Y24155D01*
X1845030Y13418D01*
X1850399Y8049D01*
X1866505Y2680D01*
X1914822Y2680D01*
X1877242Y2680D02*
G01*
X1839661Y-56374D01*
X1761279Y56368D02*
G01*
X1804228Y-56374D01*
X1761279Y56368D02*
G01*
X1718330Y-56374D01*
X1788122Y-18793D02*
G01*
X1734436Y-18793D01*
X1682897Y56368D02*
G01*
X1682897Y-56374D01*
X1682897Y56368D02*
G01*
X1645317Y56368D01*
X1629211Y50999D01*
X1618474Y40261D01*
X1613105Y29524D01*
X1607736Y13418D01*
X1607736Y-13425D01*
X1613105Y-29531D01*
X1618474Y-40268D01*
X1629211Y-51005D01*
X1645317Y-56374D01*
X1682897Y-56374D01*
X1572304Y56368D02*
G01*
X1572304Y-56374D01*
X1504659Y56368D02*
G01*
X1515397Y50999D01*
X1526134Y40261D01*
X1531503Y29524D01*
X1536871Y13418D01*
X1536871Y-13425D01*
X1531503Y-29531D01*
X1526134Y-40268D01*
X1515397Y-51005D01*
X1504659Y-56374D01*
X1483185Y-56374D01*
X1472448Y-51005D01*
X1461710Y-40268D01*
X1456342Y-29531D01*
X1450973Y-13425D01*
X1450973Y13418D01*
X1456342Y29524D01*
X1461710Y40261D01*
X1472448Y50999D01*
X1483185Y56368D01*
X1504659Y56368D01*
X1415540Y56368D02*
G01*
X1415540Y-56374D01*
X1415540Y56368D02*
G01*
X1367222Y56368D01*
X1351116Y50999D01*
X1345748Y45630D01*
X1340379Y34893D01*
X1340379Y24155D01*
X1345748Y13418D01*
X1351116Y8049D01*
X1367222Y2680D01*
X1415540Y2680D02*
G01*
X1367222Y2680D01*
X1351116Y-2687D01*
X1345748Y-8056D01*
X1340379Y-18793D01*
X1340379Y-34899D01*
X1345748Y-45637D01*
X1351116Y-51005D01*
X1367222Y-56374D01*
X1415540Y-56374D01*
X1272734Y56368D02*
G01*
X1283472Y50999D01*
X1294209Y40261D01*
X1299578Y29524D01*
X1304946Y13418D01*
X1304946Y-13425D01*
X1299578Y-29531D01*
X1294209Y-40268D01*
X1283472Y-51005D01*
X1272734Y-56374D01*
X1251260Y-56374D01*
X1240523Y-51005D01*
X1229785Y-40268D01*
X1224417Y-29531D01*
X1219048Y-13425D01*
X1219048Y13418D01*
X1224417Y29524D01*
X1229785Y40261D01*
X1240523Y50999D01*
X1251260Y56368D01*
X1272734Y56368D01*
X1183614Y56368D02*
G01*
X1108454Y-56374D01*
X1108454Y56368D02*
G01*
X1183614Y-56374D01*
X1914822Y-107042D02*
G01*
X1914822Y-188180D01*
X1914822Y-107042D02*
G01*
X1880050Y-107042D01*
X1868459Y-110907D01*
X1864596Y-114771D01*
X1860731Y-122498D01*
X1860731Y-130225D01*
X1864596Y-137952D01*
X1868459Y-141815D01*
X1880050Y-145680D01*
X1914822Y-145680D01*
X1887777Y-145680D02*
G01*
X1860731Y-188180D01*
X1835231Y-107042D02*
G01*
X1835231Y-188180D01*
X1835231Y-107042D02*
G01*
X1785005Y-107042D01*
X1835231Y-145680D02*
G01*
X1804323Y-145680D01*
X1835231Y-188180D02*
G01*
X1785005Y-188180D01*
X1759504Y-107042D02*
G01*
X1728595Y-188180D01*
X1697686Y-107042D02*
G01*
X1728595Y-188180D01*
X1612686Y-107042D02*
G01*
X1612686Y-188180D01*
X1612686Y-107042D02*
G01*
X1577914Y-107042D01*
X1566323Y-110907D01*
X1562458Y-114771D01*
X1558595Y-122498D01*
X1558595Y-130225D01*
X1562458Y-137952D01*
X1566323Y-141815D01*
X1577914Y-145680D01*
X1612686Y-145680D02*
G01*
X1577914Y-145680D01*
X1566323Y-149542D01*
X1562458Y-153407D01*
X1558595Y-161134D01*
X1558595Y-172725D01*
X1562458Y-180452D01*
X1566323Y-184315D01*
X1577914Y-188180D01*
X1612686Y-188180D01*
D46*
X2257091Y-253497D02*
G01*
X2257091Y-305997D01*
X2257091Y-253497D02*
G01*
X2239591Y-253497D01*
X2232091Y-255997D01*
X2227091Y-260997D01*
X2224591Y-265997D01*
X2222091Y-273497D01*
X2222091Y-285997D01*
X2224591Y-293497D01*
X2227091Y-298497D01*
X2232091Y-303497D01*
X2239591Y-305997D01*
X2257091Y-305997D01*
X2205591Y-285997D02*
G01*
X2175591Y-285997D01*
X2175591Y-280997D01*
X2178091Y-275997D01*
X2180591Y-273497D01*
X2185591Y-270997D01*
X2193091Y-270997D01*
X2198091Y-273497D01*
X2203091Y-278497D01*
X2205591Y-285997D01*
X2205591Y-290997D01*
X2203091Y-298497D01*
X2198091Y-303497D01*
X2193091Y-305997D01*
X2185591Y-305997D01*
X2180591Y-303497D01*
X2175591Y-298497D01*
X2131590Y-278497D02*
G01*
X2134090Y-273497D01*
X2141590Y-270997D01*
X2149090Y-270997D01*
X2156590Y-273497D01*
X2159090Y-278497D01*
X2156590Y-283497D01*
X2151590Y-285997D01*
X2139090Y-288497D01*
X2134090Y-290997D01*
X2131590Y-295997D01*
X2131590Y-298497D01*
X2134090Y-303497D01*
X2141590Y-305997D01*
X2149090Y-305997D01*
X2156590Y-303497D01*
X2159090Y-298497D01*
X2115091Y-253497D02*
G01*
X2112591Y-255997D01*
X2110091Y-253497D01*
X2112591Y-250997D01*
X2115091Y-253497D01*
X2112591Y-270997D02*
G01*
X2112591Y-305997D01*
X2063590Y-270997D02*
G01*
X2063590Y-310997D01*
X2066090Y-318497D01*
X2068590Y-320997D01*
X2073590Y-323497D01*
X2081090Y-323497D01*
X2086090Y-320997D01*
X2063590Y-278497D02*
G01*
X2068590Y-273497D01*
X2073590Y-270997D01*
X2081090Y-270997D01*
X2086090Y-273497D01*
X2091090Y-278497D01*
X2093590Y-285997D01*
X2093590Y-290997D01*
X2091090Y-298497D01*
X2086090Y-303497D01*
X2081090Y-305997D01*
X2073590Y-305997D01*
X2068590Y-303497D01*
X2063590Y-298497D01*
X2047091Y-270997D02*
G01*
X2047091Y-305997D01*
X2047091Y-280997D02*
G01*
X2039591Y-273497D01*
X2034591Y-270997D01*
X2027091Y-270997D01*
X2022091Y-273497D01*
X2019591Y-280997D01*
X2019591Y-305997D01*
X2003091Y-285997D02*
G01*
X1973091Y-285997D01*
X1973091Y-280997D01*
X1975591Y-275997D01*
X1978091Y-273497D01*
X1983091Y-270997D01*
X1990591Y-270997D01*
X1995591Y-273497D01*
X2000591Y-278497D01*
X2003091Y-285997D01*
X2003091Y-290997D01*
X2000591Y-298497D01*
X1995591Y-303497D01*
X1990591Y-305997D01*
X1983091Y-305997D01*
X1978091Y-303497D01*
X1973091Y-298497D01*
X1926590Y-253497D02*
G01*
X1926590Y-305997D01*
X1926590Y-278497D02*
G01*
X1931590Y-273497D01*
X1936590Y-270997D01*
X1944090Y-270997D01*
X1949090Y-273497D01*
X1954090Y-278497D01*
X1956590Y-285997D01*
X1956590Y-290997D01*
X1954090Y-298497D01*
X1949090Y-303497D01*
X1944090Y-305997D01*
X1936590Y-305997D01*
X1931590Y-303497D01*
X1926590Y-298497D01*
X1871590Y-253497D02*
G01*
X1869090Y-255997D01*
X1866590Y-253497D01*
X1869090Y-250997D01*
X1871590Y-253497D01*
X1869090Y-270997D02*
G01*
X1869090Y-305997D01*
X1850091Y-270997D02*
G01*
X1850091Y-305997D01*
X1850091Y-280997D02*
G01*
X1842591Y-273497D01*
X1837591Y-270997D01*
X1830091Y-270997D01*
X1825091Y-273497D01*
X1822591Y-280997D01*
X1822591Y-305997D01*
X1767591Y-253497D02*
G01*
X1767591Y-305997D01*
X1767591Y-253497D02*
G01*
X1745091Y-253497D01*
X1737591Y-255997D01*
X1735091Y-258497D01*
X1732591Y-263497D01*
X1732591Y-270997D01*
X1735091Y-275997D01*
X1737591Y-278497D01*
X1745091Y-280997D01*
X1767591Y-280997D01*
X1703590Y-270997D02*
G01*
X1708590Y-273497D01*
X1713590Y-278497D01*
X1716090Y-285997D01*
X1716090Y-290997D01*
X1713590Y-298497D01*
X1708590Y-303497D01*
X1703590Y-305997D01*
X1696090Y-305997D01*
X1691090Y-303497D01*
X1686090Y-298497D01*
X1683590Y-290997D01*
X1683590Y-285997D01*
X1686090Y-278497D01*
X1691090Y-273497D01*
X1696090Y-270997D01*
X1703590Y-270997D01*
X1667091Y-253497D02*
G01*
X1667091Y-305997D01*
X1620591Y-270997D02*
G01*
X1620591Y-305997D01*
X1620591Y-278497D02*
G01*
X1625591Y-273497D01*
X1630591Y-270997D01*
X1638091Y-270997D01*
X1643091Y-273497D01*
X1648091Y-278497D01*
X1650591Y-285997D01*
X1650591Y-290997D01*
X1648091Y-298497D01*
X1643091Y-303497D01*
X1638091Y-305997D01*
X1630591Y-305997D01*
X1625591Y-303497D01*
X1620591Y-298497D01*
X1604090Y-270997D02*
G01*
X1604090Y-305997D01*
X1604090Y-280997D02*
G01*
X1596590Y-273497D01*
X1591590Y-270997D01*
X1584090Y-270997D01*
X1579090Y-273497D01*
X1576590Y-280997D01*
X1576590Y-305997D01*
X1530091Y-253497D02*
G01*
X1530091Y-305997D01*
X1530091Y-278497D02*
G01*
X1535091Y-273497D01*
X1540091Y-270997D01*
X1547591Y-270997D01*
X1552591Y-273497D01*
X1557591Y-278497D01*
X1560091Y-285997D01*
X1560091Y-290997D01*
X1557591Y-298497D01*
X1552591Y-303497D01*
X1547591Y-305997D01*
X1540091Y-305997D01*
X1535091Y-303497D01*
X1530091Y-298497D01*
X2233499Y-346498D02*
G01*
X2235999Y-341498D01*
X2243499Y-338998D01*
X2250999Y-338998D01*
X2258499Y-341498D01*
X2260999Y-346498D01*
X2258499Y-351498D01*
X2253499Y-353998D01*
X2240999Y-356498D01*
X2235999Y-358998D01*
X2233499Y-363998D01*
X2233499Y-366498D01*
X2235999Y-371498D01*
X2243499Y-373998D01*
X2250999Y-373998D01*
X2258499Y-371498D01*
X2260999Y-366498D01*
X2204498Y-338998D02*
G01*
X2209498Y-341498D01*
X2214498Y-346498D01*
X2216998Y-353998D01*
X2216998Y-358998D01*
X2214498Y-366498D01*
X2209498Y-371498D01*
X2204498Y-373998D01*
X2196998Y-373998D01*
X2191998Y-371498D01*
X2186998Y-366498D01*
X2184498Y-358998D01*
X2184498Y-353998D01*
X2186998Y-346498D01*
X2191998Y-341498D01*
X2196998Y-338998D01*
X2204498Y-338998D01*
X2167999Y-338998D02*
G01*
X2167999Y-373998D01*
X2167999Y-348998D02*
G01*
X2160499Y-341498D01*
X2155499Y-338998D01*
X2147999Y-338998D01*
X2142999Y-341498D01*
X2140499Y-348998D01*
X2140499Y-373998D01*
X2111499Y-338998D02*
G01*
X2116499Y-341498D01*
X2121499Y-346498D01*
X2123999Y-353998D01*
X2123999Y-358998D01*
X2121499Y-366498D01*
X2116499Y-371498D01*
X2111499Y-373998D01*
X2103999Y-373998D01*
X2098999Y-371498D01*
X2093999Y-366498D01*
X2091499Y-358998D01*
X2091499Y-353998D01*
X2093999Y-346498D01*
X2098999Y-341498D01*
X2103999Y-338998D01*
X2111499Y-338998D01*
X2044998Y-346498D02*
G01*
X2049998Y-341498D01*
X2054998Y-338998D01*
X2062498Y-338998D01*
X2067498Y-341498D01*
X2072498Y-346498D01*
X2074998Y-353998D01*
X2074998Y-358998D01*
X2072498Y-366498D01*
X2067498Y-371498D01*
X2062498Y-373998D01*
X2054998Y-373998D01*
X2049998Y-371498D01*
X2044998Y-366498D01*
X2015999Y-338998D02*
G01*
X2020999Y-341498D01*
X2025999Y-346498D01*
X2028499Y-353998D01*
X2028499Y-358998D01*
X2025999Y-366498D01*
X2020999Y-371498D01*
X2015999Y-373998D01*
X2008499Y-373998D01*
X2003499Y-371498D01*
X1998499Y-366498D01*
X1995999Y-358998D01*
X1995999Y-353998D01*
X1998499Y-346498D01*
X2003499Y-341498D01*
X2008499Y-338998D01*
X2015999Y-338998D01*
X1971998Y-321498D02*
G01*
X1971998Y-363998D01*
X1969498Y-371498D01*
X1964498Y-373998D01*
X1959498Y-373998D01*
X1979498Y-338998D02*
G01*
X1961998Y-338998D01*
X1935498Y-321498D02*
G01*
X1935498Y-363998D01*
X1932998Y-371498D01*
X1927998Y-373998D01*
X1922998Y-373998D01*
X1942998Y-338998D02*
G01*
X1925498Y-338998D01*
X1876499Y-338998D02*
G01*
X1876499Y-373998D01*
X1876499Y-346498D02*
G01*
X1881499Y-341498D01*
X1886499Y-338998D01*
X1893999Y-338998D01*
X1898999Y-341498D01*
X1903999Y-346498D01*
X1906499Y-353998D01*
X1906499Y-358998D01*
X1903999Y-366498D01*
X1898999Y-371498D01*
X1893999Y-373998D01*
X1886499Y-373998D01*
X1881499Y-371498D01*
X1876499Y-366498D01*
X1857498Y-361498D02*
G01*
X1859998Y-363998D01*
X1857498Y-366498D01*
X1854998Y-363998D01*
X1857498Y-361498D01*
X1808499Y-346498D02*
G01*
X1813499Y-341498D01*
X1818499Y-338998D01*
X1825999Y-338998D01*
X1830999Y-341498D01*
X1835999Y-346498D01*
X1838499Y-353998D01*
X1838499Y-358998D01*
X1835999Y-366498D01*
X1830999Y-371498D01*
X1825999Y-373998D01*
X1818499Y-373998D01*
X1813499Y-371498D01*
X1808499Y-366498D01*
X1779498Y-338998D02*
G01*
X1784498Y-341498D01*
X1789498Y-346498D01*
X1791998Y-353998D01*
X1791998Y-358998D01*
X1789498Y-366498D01*
X1784498Y-371498D01*
X1779498Y-373998D01*
X1771998Y-373998D01*
X1766998Y-371498D01*
X1761998Y-366498D01*
X1759498Y-358998D01*
X1759498Y-353998D01*
X1761998Y-346498D01*
X1766998Y-341498D01*
X1771998Y-338998D01*
X1779498Y-338998D01*
X1742998Y-338998D02*
G01*
X1742998Y-373998D01*
X1742998Y-348998D02*
G01*
X1735498Y-341498D01*
X1730498Y-338998D01*
X1722998Y-338998D01*
X1717998Y-341498D01*
X1715498Y-348998D01*
X1715498Y-373998D01*
X1715498Y-348998D02*
G01*
X1707998Y-341498D01*
X1702998Y-338998D01*
X1695498Y-338998D01*
X1690498Y-341498D01*
X1687998Y-348998D01*
X1687998Y-373998D01*
D44*
X630000Y515199D02*
G01*
X630000Y491399D01*
X615700Y515199D02*
G01*
X618000Y514099D01*
X620199Y511799D01*
X621399Y509499D01*
X622500Y506100D01*
X622500Y500500D01*
X621399Y496999D01*
X620199Y494800D01*
X618000Y492500D01*
X615700Y491399D01*
X611100Y491399D01*
X608899Y492500D01*
X606599Y494800D01*
X605500Y496999D01*
X604299Y500500D01*
X604299Y506100D01*
X605500Y509499D01*
X606599Y511799D01*
X608899Y514099D01*
X611100Y515199D01*
X615700Y515199D01*
X590000Y515199D02*
G01*
X593400Y514099D01*
X595700Y510700D01*
X596799Y505000D01*
X596799Y501599D01*
X595700Y495900D01*
X593400Y492500D01*
X590000Y491399D01*
X587699Y491399D01*
X584299Y492500D01*
X581999Y495900D01*
X580900Y501599D01*
X580900Y505000D01*
X581999Y510700D01*
X584299Y514099D01*
X587699Y515199D01*
X590000Y515199D01*
X496001Y515199D02*
G01*
X496001Y491399D01*
X481700Y515199D02*
G01*
X484000Y514099D01*
X486201Y511799D01*
X487400Y509499D01*
X488501Y506100D01*
X488501Y500500D01*
X487400Y496999D01*
X486201Y494800D01*
X484000Y492500D01*
X481700Y491399D01*
X477100Y491399D01*
X474900Y492500D01*
X472600Y494800D01*
X471500Y496999D01*
X470300Y500500D01*
X470300Y506100D01*
X471500Y509499D01*
X472600Y511799D01*
X474900Y514099D01*
X477100Y515199D01*
X481700Y515199D01*
X461700Y509499D02*
G01*
X461700Y510700D01*
X460500Y513000D01*
X459400Y514099D01*
X457100Y515199D01*
X452600Y515199D01*
X450300Y514099D01*
X449200Y513000D01*
X448000Y510700D01*
X448000Y508400D01*
X449200Y506100D01*
X451500Y502699D01*
X462800Y491399D01*
X446900Y491399D01*
X565000Y515199D02*
G01*
X565000Y491399D01*
X550700Y515199D02*
G01*
X553000Y514099D01*
X555199Y511799D01*
X556399Y509499D01*
X557500Y506100D01*
X557500Y500500D01*
X556399Y496999D01*
X555199Y494800D01*
X553000Y492500D01*
X550700Y491399D01*
X546100Y491399D01*
X543899Y492500D01*
X541599Y494800D01*
X540500Y496999D01*
X539299Y500500D01*
X539299Y506100D01*
X540500Y509499D01*
X541599Y511799D01*
X543899Y514099D01*
X546100Y515199D01*
X550700Y515199D01*
X531799Y510700D02*
G01*
X529499Y511799D01*
X526100Y515199D01*
X526100Y491399D01*
X505000Y515199D02*
G01*
X516399Y515199D01*
X517500Y505000D01*
X516399Y506100D01*
X513000Y507300D01*
X509499Y507300D01*
X506100Y506100D01*
X503899Y503899D01*
X502699Y500500D01*
X502699Y498200D01*
X503899Y494800D01*
X506100Y492500D01*
X509499Y491399D01*
X513000Y491399D01*
X516399Y492500D01*
X517500Y493600D01*
X518600Y495900D01*
X286999Y515199D02*
G01*
X286999Y491399D01*
X286999Y515199D02*
G01*
X276799Y515199D01*
X273400Y514099D01*
X272199Y513000D01*
X271100Y510700D01*
X271100Y508400D01*
X272199Y506100D01*
X273400Y505000D01*
X276799Y503899D01*
X286999Y503899D01*
X279000Y503899D02*
G01*
X271100Y491399D01*
X263600Y515199D02*
G01*
X247699Y491399D01*
X247699Y515199D02*
G01*
X263600Y491399D01*
X348099Y511801D02*
G01*
X350399Y514101D01*
X353800Y515201D01*
X358299Y515201D01*
X361700Y514101D01*
X364000Y511801D01*
X364000Y509502D01*
X362899Y507301D01*
X361700Y506102D01*
X359499Y505001D01*
X352600Y502701D01*
X350399Y501601D01*
X349200Y500502D01*
X348099Y498202D01*
X348099Y494801D01*
X350399Y492501D01*
X353800Y491401D01*
X358299Y491401D01*
X361700Y492501D01*
X364000Y494801D01*
X323499Y509502D02*
G01*
X324699Y511801D01*
X326999Y514101D01*
X329200Y515201D01*
X333800Y515201D01*
X335999Y514101D01*
X338299Y511801D01*
X339499Y509502D01*
X340599Y506102D01*
X340599Y500502D01*
X339499Y497002D01*
X338299Y494801D01*
X335999Y492501D01*
X333800Y491401D01*
X329200Y491401D01*
X326999Y492501D01*
X324699Y494801D01*
X323499Y497002D01*
X315999Y515201D02*
G01*
X315999Y491401D01*
X315999Y491401D02*
G01*
X302399Y491401D01*
X423099Y511801D02*
G01*
X425399Y514101D01*
X428798Y515201D01*
X433299Y515201D01*
X436698Y514101D01*
X438998Y511801D01*
X438998Y509502D01*
X437899Y507301D01*
X436698Y506102D01*
X434499Y505001D01*
X427599Y502701D01*
X425399Y501601D01*
X424198Y500502D01*
X423099Y498202D01*
X423099Y494801D01*
X425399Y492501D01*
X428798Y491401D01*
X433299Y491401D01*
X436698Y492501D01*
X438998Y494801D01*
X415599Y515201D02*
G01*
X415599Y491401D01*
X415599Y515201D02*
G01*
X407599Y515201D01*
X404198Y514101D01*
X401999Y511801D01*
X400799Y509502D01*
X399699Y506102D01*
X399699Y500502D01*
X400799Y497002D01*
X401999Y494801D01*
X404198Y492501D01*
X407599Y491401D01*
X415599Y491401D01*
X383099Y515201D02*
G01*
X392199Y491401D01*
X383099Y515201D02*
G01*
X373998Y491401D01*
X388798Y499301D02*
G01*
X377399Y499301D01*
X214000Y515199D02*
G01*
X214000Y491399D01*
X221999Y515199D02*
G01*
X206100Y515199D01*
X198600Y515199D02*
G01*
X182699Y491399D01*
X182699Y515199D02*
G01*
X198600Y491399D01*
X300000Y-438800D02*
G01*
X300000Y-462600D01*
X300000Y-438800D02*
G01*
X285199Y-438800D01*
X300000Y-450100D02*
G01*
X290900Y-450100D01*
X300000Y-462600D02*
G01*
X285199Y-462600D01*
X277699Y-438800D02*
G01*
X277699Y-462600D01*
X277699Y-438800D02*
G01*
X261799Y-462600D01*
X261799Y-438800D02*
G01*
X261799Y-462600D01*
X225900Y-433800D02*
G01*
X235000Y-457600D01*
X225900Y-433800D02*
G01*
X216799Y-457600D01*
X231599Y-449699D02*
G01*
X220199Y-449699D01*
X209299Y-433800D02*
G01*
X209299Y-457600D01*
X209299Y-433800D02*
G01*
X201399Y-433800D01*
X198000Y-434899D01*
X195700Y-437199D01*
X194499Y-439499D01*
X193400Y-442899D01*
X193400Y-448499D01*
X194499Y-451999D01*
X195700Y-454200D01*
X198000Y-456500D01*
X201399Y-457600D01*
X209299Y-457600D01*
X168899Y-439499D02*
G01*
X170000Y-437199D01*
X172300Y-434899D01*
X174499Y-433800D01*
X179099Y-433800D01*
X181399Y-434899D01*
X183600Y-437199D01*
X184800Y-439499D01*
X185900Y-442899D01*
X185900Y-448499D01*
X184800Y-451999D01*
X183600Y-454200D01*
X181399Y-456500D01*
X179099Y-457600D01*
X174499Y-457600D01*
X172300Y-456500D01*
X170000Y-454200D01*
X168899Y-451999D01*
M02*
