G04 Layer: TopLayer*
G04 EasyEDA v6.5.5, 2022-06-30 21:59:10*
G04 844943e940ba41f192d5fd3784e3f5d8,9c416354eb984020824aaf9c885bead6,10*
G04 Gerber Generator version 0.2*
G04 Scale: 100 percent, Rotated: No, Reflected: No *
G04 Dimensions in inches *
G04 leading zeros omitted , absolute positions ,3 integer and 6 decimal *
%FSLAX36Y36*%
%MOIN*%

%ADD10C,0.0100*%
%ADD11C,0.0120*%
%ADD12C,0.0220*%
%ADD13C,0.0240*%
%ADD14R,0.1181X0.0591*%
%ADD15R,0.0197X0.0315*%
%ADD16R,0.0610X0.0394*%
%ADD17R,0.0394X0.0610*%
%ADD18R,0.0935X0.0633*%
%ADD19R,0.0354X0.0315*%
%ADD20R,0.0472X0.0866*%
%ADD21R,0.0866X0.0472*%
%ADD24R,0.0354X0.0512*%
%ADD25R,0.0512X0.0354*%
%ADD26R,0.0394X0.0669*%
%ADD30R,0.0199X0.0118*%
%ADD31C,0.0400*%
%ADD33C,0.0620*%
%ADD34C,0.0669*%
%ADD35R,0.0620X0.0620*%
%ADD37C,0.0748*%
%ADD38C,0.0512*%
%ADD39R,0.0600X0.0600*%
%ADD40C,0.0600*%
%ADD41C,0.1181*%
%ADD42R,0.0669X0.0620*%

%LPD*%
G36*
X649760Y429200D02*
G01*
X648220Y429500D01*
X646919Y430379D01*
X626680Y450600D01*
X624240Y452620D01*
X621600Y454020D01*
X618760Y454880D01*
X615600Y455200D01*
X596360Y455200D01*
X594820Y455500D01*
X593520Y456380D01*
X592660Y457660D01*
X592360Y459200D01*
X592660Y460740D01*
X593520Y462020D01*
X616920Y485439D01*
X618420Y486380D01*
X622820Y487939D01*
X627580Y489159D01*
X631100Y490780D01*
X634260Y493000D01*
X637000Y495740D01*
X639220Y498900D01*
X640840Y502420D01*
X641840Y506140D01*
X642180Y510000D01*
X641840Y513860D01*
X640840Y517580D01*
X639220Y521100D01*
X637000Y524260D01*
X634260Y527000D01*
X631100Y529220D01*
X627580Y530840D01*
X623520Y531940D01*
X622060Y532680D01*
X621020Y533940D01*
X620560Y535500D01*
X620780Y537120D01*
X621620Y538520D01*
X622960Y539460D01*
X624560Y539800D01*
X658160Y539800D01*
X659720Y539480D01*
X661040Y538580D01*
X661900Y537240D01*
X662159Y535680D01*
X661800Y534120D01*
X660860Y532840D01*
X659479Y532020D01*
X658180Y531560D01*
X656260Y530360D01*
X654640Y528740D01*
X653439Y526820D01*
X652680Y524660D01*
X652400Y522180D01*
X652400Y506200D01*
X678800Y506200D01*
X678800Y535800D01*
X679100Y537340D01*
X679980Y538620D01*
X681260Y539500D01*
X682800Y539800D01*
X717200Y539800D01*
X718740Y539500D01*
X720020Y538620D01*
X720900Y537340D01*
X721200Y535800D01*
X721200Y506200D01*
X747600Y506200D01*
X747600Y522180D01*
X747320Y524660D01*
X746560Y526820D01*
X745360Y528740D01*
X743740Y530360D01*
X741820Y531560D01*
X740520Y532020D01*
X739140Y532840D01*
X738199Y534120D01*
X737840Y535680D01*
X738100Y537240D01*
X738960Y538580D01*
X740280Y539480D01*
X741840Y539800D01*
X791220Y539800D01*
X792840Y539460D01*
X794180Y538480D01*
X795020Y537040D01*
X795200Y535400D01*
X794680Y533820D01*
X793580Y532580D01*
X792060Y531900D01*
X786979Y530780D01*
X781440Y528820D01*
X776200Y526220D01*
X771320Y522980D01*
X766860Y519159D01*
X762920Y514840D01*
X759539Y510060D01*
X756760Y504900D01*
X754640Y499420D01*
X753220Y493740D01*
X752500Y487920D01*
X752500Y482080D01*
X753220Y476260D01*
X754640Y470580D01*
X756760Y465100D01*
X759539Y459940D01*
X762920Y455160D01*
X766860Y450840D01*
X771320Y447020D01*
X776200Y443780D01*
X781440Y441180D01*
X786979Y439219D01*
X792700Y437960D01*
X798540Y437420D01*
X804400Y437600D01*
X810180Y438500D01*
X815819Y440120D01*
X821220Y442400D01*
X826280Y445319D01*
X830960Y448860D01*
X835180Y452939D01*
X838840Y457500D01*
X841940Y462480D01*
X844380Y467800D01*
X846160Y473400D01*
X847240Y479159D01*
X847520Y482239D01*
X848860Y503220D01*
X849220Y504660D01*
X850100Y505880D01*
X851380Y506680D01*
X852840Y506960D01*
X870100Y506960D01*
X871640Y506659D01*
X872940Y505780D01*
X873800Y504500D01*
X874100Y502960D01*
X874100Y469460D01*
X873900Y468220D01*
X873319Y467080D01*
X861320Y450820D01*
X840879Y430379D01*
X839580Y429500D01*
X838040Y429200D01*
G37*

%LPC*%
G36*
X662820Y437400D02*
G01*
X678800Y437400D01*
X678800Y463800D01*
X652400Y463800D01*
X652400Y447819D01*
X652680Y445340D01*
X653439Y443180D01*
X654640Y441260D01*
X656260Y439640D01*
X658180Y438440D01*
X660340Y437680D01*
G37*
G36*
X721200Y437400D02*
G01*
X737180Y437400D01*
X739659Y437680D01*
X741820Y438440D01*
X743740Y439640D01*
X745360Y441260D01*
X746560Y443180D01*
X747320Y445340D01*
X747600Y447819D01*
X747600Y463800D01*
X721200Y463800D01*
G37*

%LPD*%
G36*
X1911920Y359560D02*
G01*
X1910380Y359880D01*
X1909079Y360740D01*
X1908220Y362040D01*
X1907920Y363560D01*
X1907920Y373080D01*
X1907640Y375560D01*
X1906879Y377720D01*
X1905680Y379640D01*
X1904060Y381260D01*
X1902140Y382480D01*
X1898360Y383660D01*
X1897220Y384560D01*
X1896459Y385800D01*
X1896200Y387220D01*
X1896200Y394720D01*
X1896500Y396260D01*
X1897380Y397560D01*
X1932220Y432400D01*
X1933360Y433180D01*
X1934700Y433540D01*
X1936080Y433420D01*
X1937340Y432840D01*
X1939400Y431400D01*
X1942740Y429840D01*
X1946320Y428880D01*
X1950000Y428560D01*
X1953680Y428880D01*
X1954760Y429159D01*
X1956220Y429280D01*
X1957620Y428860D01*
X1958779Y427980D01*
X1959540Y426740D01*
X1959800Y425300D01*
X1959800Y407460D01*
X1959500Y405920D01*
X1958620Y404620D01*
X1914740Y360740D01*
X1913440Y359880D01*
G37*

%LPD*%
G36*
X2094199Y308760D02*
G01*
X2092660Y309080D01*
X2091380Y309940D01*
X2090500Y311240D01*
X2090200Y312760D01*
X2090200Y425300D01*
X2090460Y426740D01*
X2091220Y427980D01*
X2092380Y428860D01*
X2093779Y429280D01*
X2095240Y429159D01*
X2096320Y428880D01*
X2100000Y428560D01*
X2105220Y429020D01*
X2106620Y428600D01*
X2107780Y427720D01*
X2108540Y426460D01*
X2108800Y424540D01*
X2108420Y422819D01*
X2106240Y418260D01*
X2104780Y416100D01*
X2103160Y412580D01*
X2102160Y408860D01*
X2101820Y405000D01*
X2102160Y401140D01*
X2103160Y397420D01*
X2104780Y393900D01*
X2107000Y390740D01*
X2109740Y388000D01*
X2112900Y385780D01*
X2116420Y384159D01*
X2120140Y383160D01*
X2124000Y382819D01*
X2127860Y383160D01*
X2131580Y384159D01*
X2135100Y385780D01*
X2138260Y388000D01*
X2141000Y390740D01*
X2143220Y393900D01*
X2144840Y397420D01*
X2145840Y401140D01*
X2146180Y405000D01*
X2145840Y408860D01*
X2144840Y412580D01*
X2143220Y416100D01*
X2141760Y418260D01*
X2139580Y422819D01*
X2139200Y424540D01*
X2139200Y425580D01*
X2139460Y427000D01*
X2140220Y428240D01*
X2141380Y429140D01*
X2142780Y429560D01*
X2144240Y429440D01*
X2146320Y428880D01*
X2150000Y428560D01*
X2153680Y428880D01*
X2157260Y429840D01*
X2160600Y431400D01*
X2163640Y433519D01*
X2166240Y436140D01*
X2168360Y439159D01*
X2169920Y442520D01*
X2170880Y446079D01*
X2171020Y447560D01*
X2171520Y449159D01*
X2172620Y450420D01*
X2174160Y451120D01*
X2175840Y451120D01*
X2177380Y450420D01*
X2178480Y449159D01*
X2178980Y447560D01*
X2179120Y446079D01*
X2180080Y442520D01*
X2181640Y439159D01*
X2183760Y436140D01*
X2186360Y433519D01*
X2189400Y431400D01*
X2192740Y429840D01*
X2196320Y428880D01*
X2200000Y428560D01*
X2203680Y428880D01*
X2207260Y429840D01*
X2210600Y431400D01*
X2213640Y433519D01*
X2216240Y436140D01*
X2218360Y439159D01*
X2219920Y442520D01*
X2220880Y446079D01*
X2221020Y447560D01*
X2221520Y449159D01*
X2222620Y450420D01*
X2224160Y451120D01*
X2225840Y451120D01*
X2227380Y450420D01*
X2228480Y449159D01*
X2228980Y447560D01*
X2229120Y446079D01*
X2230080Y442520D01*
X2231640Y439159D01*
X2233760Y436140D01*
X2236360Y433519D01*
X2239400Y431400D01*
X2242740Y429840D01*
X2246320Y428880D01*
X2250000Y428560D01*
X2253680Y428880D01*
X2257260Y429840D01*
X2260600Y431400D01*
X2263640Y433519D01*
X2266240Y436140D01*
X2268360Y439159D01*
X2269920Y442520D01*
X2270880Y446079D01*
X2271020Y447560D01*
X2271520Y449159D01*
X2272620Y450420D01*
X2274160Y451120D01*
X2275840Y451120D01*
X2277380Y450420D01*
X2278480Y449159D01*
X2278980Y447560D01*
X2279120Y446079D01*
X2280080Y442520D01*
X2281640Y439159D01*
X2283760Y436140D01*
X2286360Y433519D01*
X2289400Y431400D01*
X2292740Y429840D01*
X2296320Y428880D01*
X2300000Y428560D01*
X2303680Y428880D01*
X2307260Y429840D01*
X2310600Y431400D01*
X2313640Y433519D01*
X2316240Y436140D01*
X2318360Y439159D01*
X2319920Y442520D01*
X2320880Y446079D01*
X2321220Y449940D01*
X2321220Y496240D01*
X2320880Y500100D01*
X2319920Y503680D01*
X2318360Y507020D01*
X2316240Y510060D01*
X2313640Y512660D01*
X2310600Y514780D01*
X2307260Y516340D01*
X2303680Y517299D01*
X2300000Y517620D01*
X2296320Y517299D01*
X2292740Y516340D01*
X2289400Y514780D01*
X2286360Y512660D01*
X2283760Y510060D01*
X2281640Y507020D01*
X2280080Y503680D01*
X2279120Y500100D01*
X2278980Y498620D01*
X2278480Y497020D01*
X2277380Y495760D01*
X2275840Y495060D01*
X2274160Y495060D01*
X2272620Y495760D01*
X2271520Y497020D01*
X2271020Y498620D01*
X2270880Y500100D01*
X2269920Y503680D01*
X2268360Y507020D01*
X2266240Y510060D01*
X2263640Y512660D01*
X2260600Y514780D01*
X2257260Y516340D01*
X2253680Y517299D01*
X2250000Y517620D01*
X2246320Y517299D01*
X2242740Y516340D01*
X2239400Y514780D01*
X2236360Y512660D01*
X2233760Y510060D01*
X2231640Y507020D01*
X2230080Y503680D01*
X2229120Y500100D01*
X2228980Y498620D01*
X2228480Y497020D01*
X2227380Y495760D01*
X2225840Y495060D01*
X2224160Y495060D01*
X2222620Y495760D01*
X2221520Y497020D01*
X2221020Y498620D01*
X2220880Y500100D01*
X2219920Y503680D01*
X2218360Y507020D01*
X2216240Y510060D01*
X2213640Y512660D01*
X2210600Y514780D01*
X2207260Y516340D01*
X2203680Y517299D01*
X2200000Y517620D01*
X2196320Y517299D01*
X2192740Y516340D01*
X2189400Y514780D01*
X2186360Y512660D01*
X2183760Y510060D01*
X2181640Y507020D01*
X2180080Y503680D01*
X2179120Y500100D01*
X2178980Y498620D01*
X2178480Y497020D01*
X2177380Y495760D01*
X2175840Y495060D01*
X2174160Y495060D01*
X2172620Y495760D01*
X2171520Y497020D01*
X2171020Y498620D01*
X2170880Y500100D01*
X2169920Y503680D01*
X2168360Y507020D01*
X2166240Y510060D01*
X2163640Y512660D01*
X2160600Y514780D01*
X2157260Y516340D01*
X2153680Y517299D01*
X2150000Y517620D01*
X2146320Y517299D01*
X2142740Y516340D01*
X2139400Y514780D01*
X2136360Y512660D01*
X2133760Y510060D01*
X2131640Y507020D01*
X2130080Y503680D01*
X2129120Y500100D01*
X2128980Y498620D01*
X2128480Y497020D01*
X2127380Y495760D01*
X2125840Y495060D01*
X2124160Y495060D01*
X2122620Y495760D01*
X2121520Y497020D01*
X2121020Y498620D01*
X2120880Y500100D01*
X2119920Y503680D01*
X2118360Y507020D01*
X2116240Y510060D01*
X2113640Y512660D01*
X2110600Y514780D01*
X2107260Y516340D01*
X2103680Y517299D01*
X2100000Y517620D01*
X2096320Y517299D01*
X2092740Y516340D01*
X2089400Y514780D01*
X2086360Y512660D01*
X2083760Y510060D01*
X2081639Y507020D01*
X2080080Y503680D01*
X2079120Y500100D01*
X2078980Y498620D01*
X2078480Y497020D01*
X2077380Y495760D01*
X2075840Y495060D01*
X2074160Y495060D01*
X2072620Y495760D01*
X2071519Y497020D01*
X2071020Y498620D01*
X2070880Y500100D01*
X2069920Y503680D01*
X2068360Y507020D01*
X2066240Y510060D01*
X2063640Y512660D01*
X2060600Y514780D01*
X2057260Y516340D01*
X2053680Y517299D01*
X2050000Y517620D01*
X2046320Y517299D01*
X2042740Y516340D01*
X2039400Y514780D01*
X2036360Y512660D01*
X2033760Y510060D01*
X2031639Y507020D01*
X2030080Y503680D01*
X2029120Y500100D01*
X2028980Y498620D01*
X2028480Y497020D01*
X2027380Y495760D01*
X2025840Y495060D01*
X2024160Y495060D01*
X2022620Y495760D01*
X2021519Y497020D01*
X2021020Y498620D01*
X2020880Y500100D01*
X2019920Y503680D01*
X2018360Y507020D01*
X2016240Y510060D01*
X2013640Y512660D01*
X2010600Y514780D01*
X2007260Y516340D01*
X2003680Y517299D01*
X2000000Y517620D01*
X1996320Y517299D01*
X1992740Y516340D01*
X1988100Y514180D01*
X1986720Y514060D01*
X1985380Y514420D01*
X1984240Y515220D01*
X1966480Y532980D01*
X1965620Y534260D01*
X1965320Y535800D01*
X1965620Y537340D01*
X1966480Y538620D01*
X1967780Y539500D01*
X1969319Y539800D01*
X2485800Y539800D01*
X2487340Y539500D01*
X2488620Y538620D01*
X2489500Y537340D01*
X2489800Y535800D01*
X2489800Y376719D01*
X2489500Y375200D01*
X2488620Y373900D01*
X2487340Y373020D01*
X2485800Y372720D01*
X2484260Y373020D01*
X2480920Y375220D01*
X2478780Y375980D01*
X2476280Y376260D01*
X2422380Y376260D01*
X2420820Y376560D01*
X2419520Y377460D01*
X2418660Y378780D01*
X2418380Y380319D01*
X2418720Y381880D01*
X2419620Y383160D01*
X2420960Y384000D01*
X2427740Y386560D01*
X2434120Y389739D01*
X2440120Y393560D01*
X2445720Y397980D01*
X2450820Y402960D01*
X2455400Y408440D01*
X2459380Y414360D01*
X2462720Y420640D01*
X2465420Y427260D01*
X2467400Y434099D01*
X2468680Y441120D01*
X2469240Y448220D01*
X2469040Y455340D01*
X2468140Y462420D01*
X2466500Y469360D01*
X2464160Y476100D01*
X2461140Y482560D01*
X2457460Y488660D01*
X2453180Y494360D01*
X2448340Y499600D01*
X2442980Y504300D01*
X2437180Y508440D01*
X2430960Y511940D01*
X2424440Y514799D01*
X2417640Y516980D01*
X2410660Y518420D01*
X2403560Y519159D01*
X2396440Y519159D01*
X2389340Y518420D01*
X2382360Y516980D01*
X2375580Y514799D01*
X2369040Y511940D01*
X2362840Y508440D01*
X2357020Y504300D01*
X2351680Y499600D01*
X2346820Y494360D01*
X2342560Y488660D01*
X2338880Y482560D01*
X2335860Y476100D01*
X2333520Y469360D01*
X2331880Y462420D01*
X2330960Y455340D01*
X2330780Y448220D01*
X2331320Y441120D01*
X2332600Y434099D01*
X2334600Y427260D01*
X2337280Y420640D01*
X2340640Y414360D01*
X2344620Y408440D01*
X2349180Y402960D01*
X2354280Y397980D01*
X2359880Y393560D01*
X2365900Y389739D01*
X2372280Y386560D01*
X2378940Y384040D01*
X2381460Y383380D01*
X2382940Y382640D01*
X2383980Y381380D01*
X2384440Y379820D01*
X2384220Y378180D01*
X2383380Y376780D01*
X2382060Y375840D01*
X2380440Y375500D01*
X2346500Y375500D01*
X2344020Y375220D01*
X2341860Y374480D01*
X2339940Y373260D01*
X2338420Y372040D01*
X2326800Y366220D01*
X2325020Y365800D01*
X2322800Y365800D01*
X2319440Y365460D01*
X2316400Y364540D01*
X2313620Y363060D01*
X2311000Y360920D01*
X2289460Y339380D01*
X2288160Y338500D01*
X2286640Y338200D01*
X2132200Y338200D01*
X2128840Y337860D01*
X2125800Y336940D01*
X2123020Y335460D01*
X2120400Y333320D01*
X2097020Y309940D01*
X2095740Y309080D01*
G37*

%LPD*%
G36*
X580460Y268420D02*
G01*
X578840Y268620D01*
X577420Y269460D01*
X576480Y270800D01*
X576140Y272400D01*
X576140Y358040D01*
X575860Y360540D01*
X575120Y362680D01*
X574240Y364060D01*
X573700Y365460D01*
X573700Y366940D01*
X574240Y368320D01*
X575260Y369420D01*
X576600Y370060D01*
X580700Y371160D01*
X584200Y372780D01*
X587380Y375000D01*
X588000Y375620D01*
X589300Y376500D01*
X590820Y376800D01*
X598360Y376800D01*
X599900Y376500D01*
X601520Y375300D01*
X602400Y374000D01*
X602700Y372460D01*
X602400Y370940D01*
X601520Y369640D01*
X600220Y368780D01*
X598700Y368459D01*
X597660Y368459D01*
X595180Y368180D01*
X593020Y367440D01*
X591100Y366220D01*
X589480Y364620D01*
X588280Y362680D01*
X587520Y360540D01*
X587240Y358040D01*
X587240Y339120D01*
X606760Y339120D01*
X606760Y360420D01*
X607060Y361940D01*
X607920Y363240D01*
X609220Y364120D01*
X610760Y364420D01*
X612280Y364120D01*
X613580Y363240D01*
X617900Y358920D01*
X620360Y356900D01*
X622980Y355500D01*
X625820Y354640D01*
X628980Y354320D01*
X631380Y354320D01*
X632900Y354020D01*
X634200Y353160D01*
X635060Y351860D01*
X635380Y350319D01*
X635380Y339120D01*
X654880Y339120D01*
X654880Y350319D01*
X655180Y351860D01*
X656060Y353160D01*
X657360Y354020D01*
X658880Y354320D01*
X703400Y354320D01*
X704880Y354060D01*
X706140Y353240D01*
X707020Y352040D01*
X707400Y350600D01*
X707200Y349099D01*
X706500Y347800D01*
X705380Y346440D01*
X703980Y343800D01*
X703120Y340959D01*
X702800Y337800D01*
X702800Y328160D01*
X702500Y326620D01*
X701620Y325319D01*
X661720Y285400D01*
X660420Y284540D01*
X658880Y284240D01*
X657360Y284540D01*
X656060Y285400D01*
X655180Y286700D01*
X654880Y288240D01*
X654880Y290800D01*
X635380Y290800D01*
X635380Y274360D01*
X635060Y272840D01*
X634200Y271540D01*
X632900Y270680D01*
X631380Y270360D01*
X610760Y270340D01*
X609220Y270640D01*
X607920Y271500D01*
X607060Y272800D01*
X606760Y274340D01*
X606760Y290800D01*
X587240Y290800D01*
X587240Y273540D01*
X586880Y271880D01*
X585880Y270520D01*
X584400Y269700D01*
X582500Y269120D01*
X582020Y268880D01*
G37*

%LPD*%
G36*
X1917960Y213200D02*
G01*
X1916420Y213500D01*
X1915120Y214380D01*
X1898740Y230760D01*
X1898100Y231580D01*
X1887080Y250620D01*
X1886180Y251920D01*
X1884520Y253580D01*
X1882580Y254800D01*
X1880440Y255539D01*
X1877960Y255820D01*
X1856120Y255820D01*
X1854180Y255600D01*
X1852480Y255780D01*
X1851000Y256660D01*
X1850020Y258080D01*
X1848460Y261900D01*
X1848160Y263420D01*
X1848160Y265900D01*
X1847840Y269060D01*
X1846980Y271900D01*
X1845580Y274540D01*
X1843560Y276980D01*
X1815080Y305480D01*
X1813260Y306980D01*
X1812240Y308240D01*
X1811800Y309800D01*
X1812020Y311420D01*
X1812860Y312800D01*
X1814199Y313740D01*
X1815780Y314060D01*
X1848080Y314060D01*
X1849660Y313740D01*
X1850980Y312820D01*
X1869740Y312820D01*
X1871060Y313740D01*
X1872640Y314060D01*
X1887360Y314060D01*
X1888940Y313740D01*
X1890260Y312820D01*
X1908160Y312820D01*
X1908899Y314100D01*
X1910060Y315020D01*
X1913220Y316660D01*
X1915660Y318660D01*
X1985600Y388620D01*
X1987620Y391060D01*
X1989019Y393700D01*
X1989880Y396540D01*
X1990200Y399700D01*
X1990200Y425300D01*
X1990460Y426740D01*
X1991220Y427980D01*
X1992380Y428860D01*
X1993779Y429280D01*
X1995240Y429159D01*
X1996320Y428880D01*
X2000000Y428560D01*
X2003680Y428880D01*
X2007260Y429840D01*
X2010600Y431400D01*
X2013640Y433519D01*
X2016240Y436140D01*
X2018360Y439159D01*
X2019920Y442520D01*
X2020880Y446079D01*
X2021020Y447560D01*
X2021519Y449159D01*
X2022620Y450420D01*
X2024160Y451120D01*
X2025840Y451120D01*
X2027380Y450420D01*
X2028480Y449159D01*
X2028980Y447560D01*
X2029120Y446079D01*
X2030080Y442520D01*
X2031639Y439159D01*
X2033760Y436140D01*
X2036360Y433519D01*
X2039400Y431400D01*
X2042740Y429840D01*
X2046320Y428880D01*
X2050000Y428560D01*
X2053680Y428880D01*
X2054760Y429159D01*
X2056220Y429280D01*
X2057620Y428860D01*
X2058779Y427980D01*
X2059540Y426740D01*
X2059800Y425300D01*
X2059800Y294700D01*
X2059540Y293260D01*
X2058779Y292020D01*
X2057620Y291140D01*
X2056220Y290720D01*
X2054760Y290840D01*
X2053680Y291120D01*
X2050000Y291440D01*
X2046320Y291120D01*
X2042740Y290160D01*
X2039400Y288600D01*
X2036360Y286480D01*
X2033760Y283860D01*
X2031639Y280840D01*
X2030080Y277480D01*
X2029120Y273920D01*
X2028980Y272440D01*
X2028480Y270840D01*
X2027380Y269580D01*
X2025840Y268880D01*
X2024160Y268880D01*
X2022620Y269580D01*
X2021519Y270840D01*
X2021020Y272440D01*
X2020880Y273920D01*
X2019920Y277480D01*
X2018360Y280840D01*
X2016240Y283860D01*
X2013640Y286480D01*
X2010600Y288600D01*
X2007260Y290160D01*
X2003680Y291120D01*
X2000000Y291440D01*
X1996320Y291120D01*
X1992740Y290160D01*
X1989400Y288600D01*
X1986360Y286480D01*
X1983760Y283860D01*
X1981639Y280840D01*
X1980080Y277480D01*
X1979120Y273920D01*
X1978980Y272440D01*
X1978480Y270840D01*
X1977380Y269580D01*
X1975840Y268880D01*
X1974160Y268880D01*
X1972620Y269580D01*
X1971519Y270840D01*
X1971020Y272440D01*
X1970880Y273920D01*
X1969920Y277480D01*
X1968360Y280840D01*
X1966240Y283860D01*
X1963640Y286480D01*
X1960600Y288600D01*
X1958020Y289820D01*
X1958020Y266580D01*
X1974780Y266580D01*
X1976300Y266280D01*
X1977600Y265420D01*
X1978480Y264120D01*
X1978779Y262580D01*
X1978779Y231240D01*
X1978480Y229700D01*
X1977600Y228400D01*
X1976300Y227540D01*
X1974780Y227240D01*
X1958020Y227240D01*
X1958020Y217200D01*
X1957700Y215660D01*
X1956840Y214380D01*
X1955540Y213500D01*
X1954019Y213200D01*
X1945980Y213200D01*
X1944460Y213500D01*
X1943160Y214380D01*
X1942300Y215660D01*
X1941980Y217200D01*
X1941980Y227240D01*
X1928779Y227240D01*
X1928779Y223760D01*
X1929120Y219899D01*
X1929560Y218240D01*
X1929680Y216780D01*
X1929259Y215380D01*
X1928380Y214220D01*
X1927120Y213460D01*
X1925700Y213200D01*
G37*

%LPC*%
G36*
X1928779Y266580D02*
G01*
X1941980Y266580D01*
X1941980Y289820D01*
X1939400Y288600D01*
X1936360Y286480D01*
X1933760Y283860D01*
X1931639Y280840D01*
X1930080Y277480D01*
X1929120Y273920D01*
X1928779Y270060D01*
G37*
G36*
X1862500Y276500D02*
G01*
X1868640Y276500D01*
X1868640Y292080D01*
X1852080Y292080D01*
X1852080Y286920D01*
X1852360Y284440D01*
X1853120Y282280D01*
X1854319Y280360D01*
X1855940Y278740D01*
X1857860Y277520D01*
X1860020Y276780D01*
G37*
G36*
X1891360Y276500D02*
G01*
X1897500Y276500D01*
X1899980Y276780D01*
X1902140Y277520D01*
X1904060Y278740D01*
X1905680Y280360D01*
X1906879Y282280D01*
X1907640Y284440D01*
X1907920Y286920D01*
X1907920Y292080D01*
X1891360Y292080D01*
G37*

%LPD*%
G36*
X1455940Y204080D02*
G01*
X1454240Y204320D01*
X1452800Y205240D01*
X1436080Y221940D01*
X1435200Y223220D01*
X1434900Y224760D01*
X1434900Y293800D01*
X1434580Y296960D01*
X1433720Y299800D01*
X1432320Y302440D01*
X1430300Y304880D01*
X1407880Y327299D01*
X1405440Y329320D01*
X1402800Y330720D01*
X1399960Y331580D01*
X1398779Y331700D01*
X1397400Y332100D01*
X1392800Y334400D01*
X1391639Y335280D01*
X1390860Y336540D01*
X1390600Y337980D01*
X1390600Y347980D01*
X1390320Y350460D01*
X1389560Y352620D01*
X1388700Y353980D01*
X1388160Y355360D01*
X1388160Y356840D01*
X1388700Y358220D01*
X1389560Y359580D01*
X1390320Y361740D01*
X1390600Y364219D01*
X1390600Y404099D01*
X1390920Y405680D01*
X1391860Y407020D01*
X1393240Y407860D01*
X1394840Y408100D01*
X1396399Y407680D01*
X1397660Y406659D01*
X1400760Y402960D01*
X1405860Y397980D01*
X1411459Y393560D01*
X1417460Y389739D01*
X1423839Y386560D01*
X1430520Y384040D01*
X1437400Y382220D01*
X1444460Y381120D01*
X1451579Y380760D01*
X1458700Y381120D01*
X1465740Y382220D01*
X1472640Y384040D01*
X1479300Y386560D01*
X1485680Y389739D01*
X1491699Y393560D01*
X1497300Y397980D01*
X1502400Y402960D01*
X1506960Y408440D01*
X1510940Y414360D01*
X1514300Y420640D01*
X1516980Y427260D01*
X1518980Y434099D01*
X1520260Y441120D01*
X1520800Y448220D01*
X1520620Y455340D01*
X1519700Y462420D01*
X1518060Y469360D01*
X1515720Y476100D01*
X1512700Y482560D01*
X1509019Y488660D01*
X1504760Y494360D01*
X1499900Y499600D01*
X1494560Y504300D01*
X1488740Y508440D01*
X1482540Y511940D01*
X1476000Y514799D01*
X1469220Y516980D01*
X1462240Y518420D01*
X1455140Y519159D01*
X1448020Y519159D01*
X1440920Y518420D01*
X1433940Y516980D01*
X1427140Y514799D01*
X1420620Y511940D01*
X1414400Y508440D01*
X1408600Y504300D01*
X1403240Y499600D01*
X1398400Y494360D01*
X1397800Y493560D01*
X1396560Y492480D01*
X1394980Y491980D01*
X1393340Y492160D01*
X1391900Y493000D01*
X1390940Y494340D01*
X1390600Y495959D01*
X1390600Y505480D01*
X1390320Y507960D01*
X1389560Y510120D01*
X1388360Y512040D01*
X1386740Y513660D01*
X1384820Y514860D01*
X1382660Y515620D01*
X1380180Y515900D01*
X1337380Y515900D01*
X1336120Y516100D01*
X1325580Y519620D01*
X1324019Y520580D01*
X1311620Y532960D01*
X1310740Y534260D01*
X1310440Y535800D01*
X1310740Y537320D01*
X1311620Y538620D01*
X1312900Y539500D01*
X1314440Y539800D01*
X1663480Y539800D01*
X1665080Y539460D01*
X1666420Y538520D01*
X1667260Y537120D01*
X1667480Y535480D01*
X1667020Y533920D01*
X1666300Y532560D01*
X1665440Y529740D01*
X1665100Y526000D01*
X1664740Y524660D01*
X1663940Y523519D01*
X1662520Y522080D01*
X1661300Y520140D01*
X1660320Y519080D01*
X1659060Y518440D01*
X1657640Y518280D01*
X1656260Y518620D01*
X1655080Y519440D01*
X1653180Y521340D01*
X1651240Y522560D01*
X1649100Y523300D01*
X1646620Y523579D01*
X1607680Y523579D01*
X1605200Y523300D01*
X1603060Y522560D01*
X1601120Y521340D01*
X1599520Y519720D01*
X1598300Y517800D01*
X1597540Y515640D01*
X1597260Y513160D01*
X1597260Y446680D01*
X1597540Y444200D01*
X1598300Y442040D01*
X1599520Y440120D01*
X1601120Y438500D01*
X1603060Y437280D01*
X1605200Y436540D01*
X1608260Y436260D01*
X1609700Y435980D01*
X1610960Y435220D01*
X1611840Y434060D01*
X1613120Y429640D01*
X1614520Y427020D01*
X1616420Y424720D01*
X1618720Y422819D01*
X1621339Y421420D01*
X1624180Y420560D01*
X1627340Y420240D01*
X1651780Y420240D01*
X1654940Y420560D01*
X1657780Y421420D01*
X1660400Y422819D01*
X1662860Y424840D01*
X1690920Y452920D01*
X1692940Y455360D01*
X1694340Y458000D01*
X1695200Y460840D01*
X1695520Y464000D01*
X1695520Y473660D01*
X1695820Y475180D01*
X1696699Y476480D01*
X1697160Y476960D01*
X1698460Y477840D01*
X1700000Y478140D01*
X1701519Y477840D01*
X1702820Y476960D01*
X1703500Y476300D01*
X1705420Y475080D01*
X1707580Y474320D01*
X1710060Y474040D01*
X1712260Y474040D01*
X1712260Y489620D01*
X1704360Y489620D01*
X1702820Y489920D01*
X1701519Y490800D01*
X1700660Y492100D01*
X1700360Y493620D01*
X1700360Y506380D01*
X1700660Y507900D01*
X1701519Y509200D01*
X1702820Y510060D01*
X1704360Y510379D01*
X1713340Y510379D01*
X1714680Y511300D01*
X1716260Y511620D01*
X1723100Y511620D01*
X1724700Y511300D01*
X1726020Y510379D01*
X1743720Y510379D01*
X1745260Y510060D01*
X1746560Y509200D01*
X1747420Y507900D01*
X1747720Y506380D01*
X1747720Y499159D01*
X1760460Y499159D01*
X1760460Y507620D01*
X1760760Y509159D01*
X1761620Y510460D01*
X1762920Y511320D01*
X1764460Y511620D01*
X1781140Y511620D01*
X1782680Y511320D01*
X1783980Y510460D01*
X1784840Y509159D01*
X1785140Y507620D01*
X1785140Y499159D01*
X1802680Y499159D01*
X1802680Y507620D01*
X1802980Y509159D01*
X1803860Y510460D01*
X1805160Y511320D01*
X1806680Y511620D01*
X1927500Y511620D01*
X1929060Y511320D01*
X1930380Y510400D01*
X1931240Y509060D01*
X1931500Y507500D01*
X1931120Y505940D01*
X1930080Y503680D01*
X1929120Y500100D01*
X1928779Y496240D01*
X1928779Y476440D01*
X1928480Y474900D01*
X1927600Y473600D01*
X1868680Y414680D01*
X1866540Y412080D01*
X1865060Y409280D01*
X1864139Y406240D01*
X1863800Y402900D01*
X1863800Y387220D01*
X1863540Y385800D01*
X1862780Y384560D01*
X1861639Y383660D01*
X1860020Y383220D01*
X1857860Y382480D01*
X1855940Y381260D01*
X1854319Y379640D01*
X1853120Y377720D01*
X1852660Y376440D01*
X1851819Y375040D01*
X1850500Y374099D01*
X1848899Y373760D01*
X1657760Y373760D01*
X1654400Y373420D01*
X1651360Y372500D01*
X1648580Y371019D01*
X1645960Y368880D01*
X1548020Y270940D01*
X1546740Y270080D01*
X1545200Y269760D01*
X1543660Y270080D01*
X1542380Y270940D01*
X1541500Y272240D01*
X1541200Y273760D01*
X1541200Y282000D01*
X1518000Y282000D01*
X1518000Y258800D01*
X1526240Y258800D01*
X1527760Y258500D01*
X1529060Y257620D01*
X1529920Y256340D01*
X1530240Y254800D01*
X1529920Y253260D01*
X1529060Y251980D01*
X1517060Y239980D01*
X1515840Y239140D01*
X1514400Y238800D01*
X1512940Y239020D01*
X1510660Y239780D01*
X1505380Y240840D01*
X1500000Y241200D01*
X1494620Y240840D01*
X1489340Y239780D01*
X1484240Y238060D01*
X1479400Y235680D01*
X1474920Y232680D01*
X1470880Y229120D01*
X1467320Y225080D01*
X1464319Y220600D01*
X1461940Y215760D01*
X1460220Y210660D01*
X1459540Y207280D01*
X1458860Y205720D01*
X1457580Y204579D01*
G37*

%LPC*%
G36*
X1469220Y258800D02*
G01*
X1482000Y258800D01*
X1482000Y282000D01*
X1458800Y282000D01*
X1458800Y269220D01*
X1459079Y266740D01*
X1459840Y264580D01*
X1461040Y262660D01*
X1462660Y261040D01*
X1464580Y259840D01*
X1466740Y259080D01*
G37*
G36*
X1458800Y318000D02*
G01*
X1482000Y318000D01*
X1482000Y341200D01*
X1469220Y341200D01*
X1466740Y340920D01*
X1464580Y340160D01*
X1462660Y338960D01*
X1461040Y337340D01*
X1459840Y335420D01*
X1459079Y333260D01*
X1458800Y330780D01*
G37*
G36*
X1518000Y318000D02*
G01*
X1541200Y318000D01*
X1541200Y330780D01*
X1540920Y333260D01*
X1540160Y335420D01*
X1538959Y337340D01*
X1537340Y338960D01*
X1535420Y340160D01*
X1533260Y340920D01*
X1530780Y341200D01*
X1518000Y341200D01*
G37*
G36*
X1785140Y436260D02*
G01*
X1792260Y436260D01*
X1794740Y436540D01*
X1796900Y437280D01*
X1798820Y438500D01*
X1800440Y440120D01*
X1801660Y442040D01*
X1802400Y444200D01*
X1802680Y446680D01*
X1802680Y460680D01*
X1785140Y460680D01*
G37*
G36*
X1753340Y436260D02*
G01*
X1760460Y436260D01*
X1760460Y460680D01*
X1742920Y460680D01*
X1742920Y446680D01*
X1743200Y444200D01*
X1743940Y442040D01*
X1745160Y440120D01*
X1746780Y438500D01*
X1748700Y437280D01*
X1750860Y436540D01*
G37*
G36*
X1727100Y474040D02*
G01*
X1729300Y474040D01*
X1731780Y474320D01*
X1733940Y475080D01*
X1734920Y475700D01*
X1734920Y489620D01*
X1727100Y489620D01*
G37*

%LPD*%
G36*
X2268340Y26220D02*
G01*
X2266820Y26520D01*
X2265520Y27400D01*
X2237380Y55540D01*
X2236500Y56840D01*
X2236200Y58360D01*
X2236200Y155840D01*
X2236460Y157520D01*
X2237420Y158960D01*
X2238880Y159860D01*
X2240580Y160060D01*
X2243200Y159800D01*
X2321640Y159800D01*
X2323160Y159500D01*
X2324460Y158620D01*
X2349620Y133460D01*
X2350500Y132160D01*
X2350800Y130640D01*
X2350800Y128520D01*
X2350420Y126820D01*
X2349340Y125440D01*
X2347800Y124660D01*
X2346060Y124600D01*
X2344440Y125300D01*
X2343740Y125820D01*
X2340060Y127760D01*
X2340060Y110760D01*
X2346800Y110760D01*
X2348340Y110460D01*
X2349620Y109600D01*
X2350500Y108300D01*
X2350800Y106760D01*
X2350800Y84179D01*
X2350500Y82640D01*
X2349620Y81340D01*
X2348340Y80480D01*
X2346800Y80180D01*
X2340060Y80180D01*
X2340060Y57619D01*
X2346800Y57619D01*
X2348340Y57320D01*
X2349620Y56440D01*
X2350500Y55140D01*
X2350800Y53620D01*
X2350800Y48740D01*
X2350500Y47220D01*
X2349620Y45920D01*
X2348340Y45039D01*
X2346800Y44740D01*
X2325120Y44740D01*
X2323860Y43940D01*
X2322380Y43660D01*
X2297820Y43660D01*
X2296360Y43940D01*
X2295100Y44740D01*
X2272340Y44740D01*
X2272340Y43520D01*
X2272620Y41040D01*
X2273100Y39700D01*
X2273320Y38380D01*
X2273100Y37060D01*
X2272620Y35720D01*
X2272340Y33240D01*
X2272340Y30219D01*
X2272040Y28700D01*
X2271180Y27400D01*
X2269880Y26520D01*
G37*

%LPC*%
G36*
X2272340Y57619D02*
G01*
X2293820Y57619D01*
X2293820Y69820D01*
X2293560Y69620D01*
X2291880Y69260D01*
X2282760Y69260D01*
X2280280Y68980D01*
X2278140Y68220D01*
X2276200Y67000D01*
X2274600Y65400D01*
X2273380Y63460D01*
X2272620Y61320D01*
X2272340Y58820D01*
G37*
G36*
X2294900Y75940D02*
G01*
X2296300Y76940D01*
X2297820Y77260D01*
X2309480Y77260D01*
X2309480Y80180D01*
X2292520Y80180D01*
X2293780Y77580D01*
G37*
G36*
X2292460Y110760D02*
G01*
X2309480Y110760D01*
X2309480Y127760D01*
X2305820Y125820D01*
X2301780Y122880D01*
X2298180Y119420D01*
X2295100Y115480D01*
X2292620Y111160D01*
G37*

%LPD*%
G36*
X2014600Y-31200D02*
G01*
X2012900Y-30660D01*
X2011600Y-29460D01*
X2010960Y-27820D01*
X2011080Y-26040D01*
X2011900Y-23340D01*
X2012220Y-20179D01*
X2012220Y49920D01*
X2012520Y51460D01*
X2013380Y52760D01*
X2024820Y64200D01*
X2026120Y65060D01*
X2027660Y65380D01*
X2033140Y65380D01*
X2034000Y66740D01*
X2035320Y67660D01*
X2036900Y67980D01*
X2043740Y67980D01*
X2045320Y67660D01*
X2046639Y66740D01*
X2047480Y65380D01*
X2055640Y65380D01*
X2057180Y65060D01*
X2058460Y64200D01*
X2059340Y62900D01*
X2059640Y61380D01*
X2059640Y48620D01*
X2059340Y47100D01*
X2058460Y45800D01*
X2057180Y44920D01*
X2055640Y44620D01*
X2047740Y44620D01*
X2047740Y29040D01*
X2049940Y29040D01*
X2052420Y29320D01*
X2054580Y30080D01*
X2057960Y32320D01*
X2059500Y32620D01*
X2061020Y32320D01*
X2062320Y31460D01*
X2063180Y30160D01*
X2063500Y28620D01*
X2063500Y26800D01*
X2063340Y25740D01*
X2062920Y24760D01*
X2061339Y22100D01*
X2060740Y21320D01*
X2059319Y19900D01*
X2057100Y16740D01*
X2055480Y13240D01*
X2054480Y9500D01*
X2054139Y5639D01*
X2054480Y1800D01*
X2055480Y-1940D01*
X2057100Y-5440D01*
X2059319Y-8620D01*
X2062060Y-11339D01*
X2065220Y-13560D01*
X2068740Y-15200D01*
X2072460Y-16200D01*
X2076320Y-16540D01*
X2080180Y-16200D01*
X2083899Y-15200D01*
X2087420Y-13560D01*
X2090680Y-11279D01*
X2091780Y-10740D01*
X2092980Y-10560D01*
X2115200Y-10560D01*
X2116720Y-10860D01*
X2118020Y-11720D01*
X2118880Y-13020D01*
X2119200Y-14560D01*
X2119200Y-15740D01*
X2119520Y-19080D01*
X2120640Y-22639D01*
X2120800Y-24280D01*
X2120280Y-25840D01*
X2119180Y-27060D01*
X2117680Y-27740D01*
X2116040Y-27759D01*
X2115080Y-27580D01*
X2110600Y-27120D01*
X2108060Y-27060D01*
X2033240Y-27100D01*
X2028740Y-27480D01*
X2024340Y-28300D01*
X2020060Y-29500D01*
X2016339Y-30940D01*
G37*

%LPC*%
G36*
X2030700Y29040D02*
G01*
X2032900Y29040D01*
X2032900Y44620D01*
X2020280Y44620D01*
X2020280Y39480D01*
X2020560Y36980D01*
X2021300Y34840D01*
X2022520Y32900D01*
X2024120Y31300D01*
X2026060Y30080D01*
X2028200Y29320D01*
G37*

%LPD*%
G36*
X1155860Y-57880D02*
G01*
X1154260Y-57539D01*
X1152920Y-56580D01*
X1152080Y-55160D01*
X1151880Y-53540D01*
X1152180Y-50020D01*
X1151840Y-46160D01*
X1150840Y-42420D01*
X1149220Y-38920D01*
X1147760Y-36760D01*
X1145580Y-32180D01*
X1145200Y-30460D01*
X1145200Y54040D01*
X1145500Y55580D01*
X1146380Y56880D01*
X1300380Y210880D01*
X1301680Y211740D01*
X1303200Y212060D01*
X1304740Y211740D01*
X1306040Y210880D01*
X1306900Y209579D01*
X1307200Y208060D01*
X1307200Y206720D01*
X1307480Y204240D01*
X1308240Y202079D01*
X1309060Y200780D01*
X1309600Y199400D01*
X1309600Y197900D01*
X1309060Y196520D01*
X1308240Y195219D01*
X1307480Y193060D01*
X1307200Y190580D01*
X1307200Y177540D01*
X1330660Y177540D01*
X1330660Y192300D01*
X1330960Y193840D01*
X1331819Y195140D01*
X1333120Y196000D01*
X1334660Y196300D01*
X1363140Y196300D01*
X1364680Y196000D01*
X1365980Y195140D01*
X1366840Y193840D01*
X1367140Y192300D01*
X1367140Y177540D01*
X1390600Y177540D01*
X1390600Y190580D01*
X1390320Y193060D01*
X1389560Y195219D01*
X1388740Y196520D01*
X1388200Y197900D01*
X1388200Y199400D01*
X1388740Y200780D01*
X1389560Y202079D01*
X1390320Y204240D01*
X1390600Y206720D01*
X1390600Y269280D01*
X1390320Y271760D01*
X1389560Y273920D01*
X1388740Y275220D01*
X1388200Y276600D01*
X1388200Y278100D01*
X1388740Y279480D01*
X1389560Y280780D01*
X1390320Y282940D01*
X1390600Y285420D01*
X1390600Y291960D01*
X1390900Y293480D01*
X1391759Y294780D01*
X1393060Y295640D01*
X1394600Y295960D01*
X1396120Y295640D01*
X1397420Y294780D01*
X1403320Y288880D01*
X1404199Y287580D01*
X1404500Y286040D01*
X1404500Y217000D01*
X1404820Y213840D01*
X1405680Y211000D01*
X1407080Y208359D01*
X1409079Y205920D01*
X1472220Y142880D01*
X1474660Y140880D01*
X1475740Y140300D01*
X1477000Y139260D01*
X1477720Y137780D01*
X1477800Y136140D01*
X1477220Y134620D01*
X1476080Y133440D01*
X1474920Y132680D01*
X1470880Y129120D01*
X1467320Y125079D01*
X1464319Y120600D01*
X1461940Y115760D01*
X1460220Y110660D01*
X1459160Y105380D01*
X1458800Y100000D01*
X1459160Y94620D01*
X1460220Y89340D01*
X1461339Y86000D01*
X1461560Y84540D01*
X1461220Y83100D01*
X1460380Y81880D01*
X1321800Y-56700D01*
X1320500Y-57580D01*
X1318959Y-57880D01*
G37*

%LPC*%
G36*
X1317620Y117600D02*
G01*
X1330660Y117600D01*
X1330660Y141060D01*
X1307200Y141060D01*
X1307200Y128020D01*
X1307480Y125540D01*
X1308240Y123379D01*
X1309440Y121460D01*
X1311060Y119840D01*
X1312980Y118640D01*
X1315140Y117880D01*
G37*
G36*
X1367140Y117600D02*
G01*
X1380180Y117600D01*
X1382660Y117880D01*
X1384820Y118640D01*
X1386740Y119840D01*
X1388360Y121460D01*
X1389560Y123379D01*
X1390320Y125540D01*
X1390600Y128020D01*
X1390600Y141060D01*
X1367140Y141060D01*
G37*

%LPD*%
G36*
X817640Y-58880D02*
G01*
X816020Y-58520D01*
X814659Y-57539D01*
X813840Y-56100D01*
X813660Y-54460D01*
X814180Y-52880D01*
X815200Y-51100D01*
X816840Y-46900D01*
X817860Y-42500D01*
X818180Y-38000D01*
X817860Y-33500D01*
X816840Y-29120D01*
X815020Y-24500D01*
X814740Y-22980D01*
X815060Y-21460D01*
X815920Y-20179D01*
X817220Y-19340D01*
X818740Y-19040D01*
X949940Y-19040D01*
X953300Y-18700D01*
X956340Y-17780D01*
X959120Y-16279D01*
X961740Y-14140D01*
X978000Y2120D01*
X979419Y3040D01*
X981100Y3280D01*
X982720Y2819D01*
X983259Y2540D01*
X986300Y1620D01*
X989640Y1280D01*
X1015440Y1280D01*
X1018780Y1620D01*
X1021820Y2540D01*
X1024620Y4020D01*
X1027080Y6040D01*
X1029080Y8500D01*
X1030580Y11279D01*
X1031500Y14320D01*
X1031640Y15720D01*
X1032000Y17020D01*
X1032760Y18140D01*
X1033860Y18920D01*
X1035160Y19300D01*
X1037580Y19560D01*
X1039720Y20320D01*
X1041660Y21540D01*
X1043259Y23140D01*
X1044479Y25080D01*
X1045240Y27220D01*
X1045520Y29720D01*
X1045520Y90280D01*
X1045240Y92780D01*
X1044479Y94920D01*
X1043259Y96860D01*
X1041660Y98460D01*
X1039720Y99680D01*
X1037580Y100440D01*
X1035100Y100719D01*
X996160Y100719D01*
X993680Y100440D01*
X991540Y99680D01*
X989599Y98460D01*
X988000Y96860D01*
X986780Y94920D01*
X986020Y92780D01*
X985740Y90280D01*
X985740Y53760D01*
X985440Y52220D01*
X984580Y50920D01*
X983280Y50060D01*
X981740Y49760D01*
X980220Y50060D01*
X978920Y50920D01*
X974520Y55320D01*
X973680Y56560D01*
X973340Y58000D01*
X973560Y59480D01*
X974440Y61980D01*
X974720Y64480D01*
X974720Y95540D01*
X974460Y98080D01*
X970980Y114400D01*
X970900Y115239D01*
X970900Y120220D01*
X970560Y123560D01*
X969640Y126600D01*
X968139Y129400D01*
X966000Y132000D01*
X963240Y134760D01*
X962280Y136320D01*
X957700Y150060D01*
X957500Y151320D01*
X957500Y190580D01*
X957220Y193060D01*
X956460Y195219D01*
X955639Y196520D01*
X955100Y197900D01*
X955100Y199400D01*
X955639Y200780D01*
X956460Y202079D01*
X957220Y204240D01*
X957500Y206720D01*
X957500Y269280D01*
X957220Y271760D01*
X956460Y273920D01*
X955639Y275220D01*
X955100Y276600D01*
X955100Y278100D01*
X955639Y279480D01*
X956460Y280780D01*
X957220Y282940D01*
X957500Y285420D01*
X957500Y298460D01*
X934040Y298460D01*
X934040Y283700D01*
X933740Y282160D01*
X932880Y280860D01*
X931580Y280000D01*
X930040Y279700D01*
X901560Y279700D01*
X900020Y280000D01*
X898720Y280860D01*
X897860Y282160D01*
X897560Y283700D01*
X897560Y298460D01*
X874100Y298460D01*
X874100Y285420D01*
X874380Y282940D01*
X875140Y280780D01*
X875960Y279480D01*
X876500Y278100D01*
X876500Y276600D01*
X875960Y275220D01*
X875140Y273920D01*
X874380Y271760D01*
X874100Y269280D01*
X874100Y206720D01*
X874380Y204240D01*
X875140Y202079D01*
X875960Y200780D01*
X876500Y199400D01*
X876500Y197900D01*
X875960Y196520D01*
X875140Y195219D01*
X874380Y193060D01*
X874240Y191840D01*
X873800Y190420D01*
X872880Y189259D01*
X871600Y188520D01*
X870120Y188299D01*
X868680Y188619D01*
X867440Y189460D01*
X823980Y232940D01*
X823100Y234240D01*
X822800Y235760D01*
X822800Y310300D01*
X822460Y313660D01*
X821540Y316700D01*
X820060Y319480D01*
X817720Y322220D01*
X813139Y326800D01*
X812280Y328100D01*
X811979Y329640D01*
X811979Y335840D01*
X811380Y339780D01*
X811680Y341540D01*
X811979Y344159D01*
X811979Y355520D01*
X811700Y358020D01*
X811340Y359680D01*
X811700Y361360D01*
X811979Y364080D01*
X808680Y364080D01*
X807560Y364240D01*
X806180Y364920D01*
X804040Y365660D01*
X801540Y365940D01*
X782320Y365940D01*
X780780Y366260D01*
X779479Y367120D01*
X778620Y368420D01*
X778319Y369940D01*
X778319Y370800D01*
X778620Y372340D01*
X779479Y373620D01*
X780780Y374500D01*
X782320Y374799D01*
X865939Y374799D01*
X867740Y374380D01*
X871900Y372299D01*
X873060Y371420D01*
X873840Y370160D01*
X874100Y368720D01*
X874100Y364219D01*
X874380Y361740D01*
X875140Y359580D01*
X876000Y358220D01*
X876540Y356840D01*
X876540Y355360D01*
X876000Y353980D01*
X875140Y352620D01*
X874380Y350460D01*
X874100Y347980D01*
X874100Y334940D01*
X897560Y334940D01*
X897560Y349799D01*
X897860Y351340D01*
X898720Y352640D01*
X900020Y353500D01*
X901560Y353800D01*
X930040Y353800D01*
X931580Y353500D01*
X932880Y352640D01*
X933740Y351340D01*
X934040Y349799D01*
X934040Y334940D01*
X957500Y334940D01*
X957500Y347980D01*
X957220Y350460D01*
X956460Y352620D01*
X955600Y353980D01*
X955060Y355360D01*
X955060Y356840D01*
X955600Y358220D01*
X956460Y359580D01*
X957220Y361740D01*
X957500Y364219D01*
X957500Y426780D01*
X957220Y429260D01*
X956460Y431420D01*
X955639Y432720D01*
X955100Y434099D01*
X955100Y435600D01*
X955639Y436980D01*
X956460Y438280D01*
X957220Y440439D01*
X957500Y442920D01*
X957500Y502960D01*
X957800Y504500D01*
X958660Y505780D01*
X959960Y506659D01*
X961500Y506960D01*
X1292980Y506960D01*
X1294520Y506659D01*
X1295820Y505780D01*
X1302520Y499080D01*
X1303480Y497520D01*
X1307000Y486960D01*
X1307200Y485700D01*
X1307200Y442920D01*
X1307480Y440439D01*
X1308240Y438280D01*
X1309060Y436980D01*
X1309600Y435600D01*
X1309600Y434099D01*
X1309060Y432720D01*
X1308240Y431420D01*
X1307480Y429260D01*
X1307200Y426780D01*
X1307200Y364219D01*
X1307480Y361740D01*
X1308240Y359580D01*
X1309100Y358220D01*
X1309640Y356840D01*
X1309640Y355360D01*
X1309100Y353980D01*
X1308240Y352620D01*
X1307480Y350460D01*
X1307200Y347980D01*
X1307200Y285420D01*
X1307480Y282940D01*
X1308240Y280780D01*
X1309060Y279480D01*
X1309600Y278100D01*
X1309600Y276600D01*
X1309060Y275220D01*
X1308240Y273920D01*
X1307480Y271760D01*
X1307200Y269280D01*
X1307200Y258160D01*
X1306980Y256860D01*
X1306360Y255700D01*
X1305400Y254820D01*
X1302480Y252880D01*
X1301440Y252399D01*
X1300200Y252020D01*
X1297560Y250620D01*
X1295120Y248600D01*
X1131080Y84580D01*
X1129780Y83720D01*
X1128260Y83400D01*
X1126720Y83720D01*
X1125420Y84580D01*
X1124560Y85879D01*
X1124260Y87400D01*
X1124260Y90280D01*
X1123980Y92780D01*
X1123220Y94920D01*
X1122000Y96860D01*
X1120400Y98460D01*
X1118460Y99680D01*
X1116320Y100440D01*
X1113840Y100719D01*
X1106720Y100719D01*
X1106720Y77760D01*
X1114920Y77760D01*
X1116400Y77480D01*
X1117660Y76680D01*
X1118540Y75460D01*
X1118920Y74020D01*
X1118740Y72540D01*
X1118020Y71220D01*
X1117380Y70440D01*
X1115980Y67800D01*
X1115120Y64960D01*
X1114800Y61800D01*
X1114800Y46240D01*
X1114500Y44720D01*
X1113620Y43420D01*
X1112340Y42539D01*
X1110800Y42240D01*
X1106720Y42240D01*
X1106720Y19280D01*
X1110800Y19280D01*
X1112340Y18980D01*
X1113620Y18120D01*
X1114500Y16820D01*
X1114800Y15280D01*
X1114800Y-30460D01*
X1114420Y-32180D01*
X1112240Y-36760D01*
X1110780Y-38920D01*
X1109160Y-42420D01*
X1108160Y-46160D01*
X1107820Y-50020D01*
X1108120Y-53540D01*
X1107920Y-55160D01*
X1107080Y-56580D01*
X1105740Y-57539D01*
X1104140Y-57880D01*
X957500Y-57880D01*
X954340Y-58200D01*
X952660Y-58700D01*
X951500Y-58880D01*
G37*

%LPC*%
G36*
X1074900Y19280D02*
G01*
X1082020Y19280D01*
X1082020Y42240D01*
X1064480Y42240D01*
X1064480Y29720D01*
X1064760Y27220D01*
X1065520Y25080D01*
X1066740Y23140D01*
X1068340Y21540D01*
X1070280Y20320D01*
X1072420Y19560D01*
G37*
G36*
X1064480Y77760D02*
G01*
X1082020Y77760D01*
X1082020Y100719D01*
X1074900Y100719D01*
X1072420Y100440D01*
X1070280Y99680D01*
X1068340Y98460D01*
X1066740Y96860D01*
X1065520Y94920D01*
X1064760Y92780D01*
X1064480Y90280D01*
G37*

%LPD*%
G36*
X737620Y-139580D02*
G01*
X736100Y-139260D01*
X734800Y-138400D01*
X733920Y-137100D01*
X733620Y-135580D01*
X733620Y-94720D01*
X733520Y-93720D01*
X733680Y-92060D01*
X734500Y-90600D01*
X735860Y-89620D01*
X737480Y-89280D01*
X932680Y-89280D01*
X934220Y-89580D01*
X935520Y-90440D01*
X936380Y-91740D01*
X936680Y-93280D01*
X936380Y-94800D01*
X935520Y-96100D01*
X893220Y-138400D01*
X891919Y-139260D01*
X890380Y-139580D01*
G37*

%LPD*%
G36*
X1894520Y-351280D02*
G01*
X1893200Y-351079D01*
X1890660Y-350220D01*
X1887100Y-349500D01*
X1885540Y-348820D01*
X1884400Y-347540D01*
X1883899Y-345900D01*
X1884139Y-344200D01*
X1885060Y-342760D01*
X1908680Y-319140D01*
X1909800Y-318340D01*
X1914060Y-317100D01*
X1916680Y-315700D01*
X1919139Y-313680D01*
X1933959Y-298860D01*
X1935980Y-296400D01*
X1937380Y-293780D01*
X1938240Y-290940D01*
X1938560Y-287780D01*
X1938560Y-266160D01*
X1938240Y-263000D01*
X1937380Y-260159D01*
X1935980Y-257540D01*
X1933959Y-255080D01*
X1866120Y-187240D01*
X1863660Y-185219D01*
X1861040Y-183820D01*
X1858200Y-182960D01*
X1855040Y-182640D01*
X1804180Y-182640D01*
X1802860Y-182420D01*
X1801699Y-181759D01*
X1800480Y-180280D01*
X1798880Y-178660D01*
X1797400Y-177440D01*
X1796759Y-176160D01*
X1796600Y-174740D01*
X1796940Y-173359D01*
X1797760Y-172180D01*
X1855820Y-114120D01*
X1857840Y-111679D01*
X1859240Y-109040D01*
X1860100Y-106199D01*
X1860420Y-103040D01*
X1860420Y-84680D01*
X1860720Y-83140D01*
X1861579Y-81840D01*
X1862880Y-80980D01*
X1864420Y-80680D01*
X1896840Y-80680D01*
X1899340Y-80399D01*
X1901480Y-79640D01*
X1903420Y-78420D01*
X1905020Y-76820D01*
X1906240Y-74880D01*
X1906980Y-72740D01*
X1907260Y-70240D01*
X1907260Y-49760D01*
X1906980Y-47260D01*
X1906240Y-45119D01*
X1905020Y-43179D01*
X1903420Y-41580D01*
X1901480Y-40359D01*
X1899340Y-39600D01*
X1896840Y-39320D01*
X1856440Y-39320D01*
X1853959Y-39600D01*
X1851800Y-40359D01*
X1849900Y-41560D01*
X1847900Y-43600D01*
X1846579Y-44480D01*
X1845040Y-44800D01*
X1747860Y-44800D01*
X1744700Y-45119D01*
X1741860Y-45980D01*
X1739240Y-47380D01*
X1736780Y-49400D01*
X1661100Y-125079D01*
X1659800Y-125940D01*
X1658260Y-126240D01*
X1645920Y-126240D01*
X1645920Y-130360D01*
X1645620Y-131880D01*
X1644760Y-133180D01*
X1643460Y-134040D01*
X1641920Y-134360D01*
X1625240Y-134360D01*
X1623700Y-134040D01*
X1622400Y-133180D01*
X1621540Y-131880D01*
X1621240Y-130360D01*
X1621240Y-126240D01*
X1603700Y-126240D01*
X1603700Y-130360D01*
X1603400Y-131880D01*
X1602520Y-133180D01*
X1601220Y-134040D01*
X1599700Y-134360D01*
X1544160Y-134360D01*
X1541000Y-134660D01*
X1538160Y-135520D01*
X1535540Y-136920D01*
X1533080Y-138940D01*
X1513140Y-158900D01*
X1512080Y-159660D01*
X1510820Y-160020D01*
X1509520Y-159980D01*
X1505380Y-159160D01*
X1500000Y-158800D01*
X1494620Y-159160D01*
X1489340Y-160219D01*
X1484240Y-161940D01*
X1479400Y-164320D01*
X1474920Y-167320D01*
X1470880Y-170880D01*
X1467320Y-174920D01*
X1466240Y-176540D01*
X1465340Y-177500D01*
X1464199Y-178100D01*
X1462920Y-178320D01*
X1430040Y-178320D01*
X1428500Y-178020D01*
X1427200Y-177140D01*
X1426579Y-176520D01*
X1423420Y-174300D01*
X1419900Y-172680D01*
X1416180Y-171680D01*
X1412320Y-171340D01*
X1408460Y-171680D01*
X1404740Y-172680D01*
X1401220Y-174300D01*
X1399000Y-175880D01*
X1397400Y-176540D01*
X1395660Y-176460D01*
X1394120Y-175660D01*
X1393080Y-174280D01*
X1392700Y-172600D01*
X1392700Y-169560D01*
X1393000Y-168020D01*
X1393880Y-166720D01*
X1453220Y-107420D01*
X1454680Y-106500D01*
X1456360Y-106280D01*
X1458000Y-106760D01*
X1459280Y-107899D01*
X1459980Y-109480D01*
X1460220Y-110660D01*
X1461940Y-115760D01*
X1464319Y-120600D01*
X1467320Y-125079D01*
X1470880Y-129120D01*
X1474920Y-132680D01*
X1479400Y-135680D01*
X1484240Y-138060D01*
X1489340Y-139780D01*
X1494620Y-140840D01*
X1500000Y-141200D01*
X1505380Y-140840D01*
X1510660Y-139780D01*
X1515760Y-138060D01*
X1520600Y-135680D01*
X1525080Y-132680D01*
X1529120Y-129120D01*
X1532680Y-125079D01*
X1535680Y-120600D01*
X1538060Y-115760D01*
X1539780Y-110660D01*
X1540840Y-105380D01*
X1541200Y-100000D01*
X1540840Y-94620D01*
X1539780Y-89340D01*
X1538060Y-84240D01*
X1535680Y-79400D01*
X1532680Y-74920D01*
X1529120Y-70880D01*
X1525740Y-67900D01*
X1524720Y-66520D01*
X1524379Y-64820D01*
X1524780Y-63160D01*
X1525840Y-61800D01*
X1527280Y-60599D01*
X1552800Y-35080D01*
X1554820Y-32639D01*
X1556220Y-30000D01*
X1557080Y-27160D01*
X1557400Y-24000D01*
X1557400Y40700D01*
X1557660Y41840D01*
X1557400Y43000D01*
X1557400Y121100D01*
X1557100Y124240D01*
X1556240Y127080D01*
X1555880Y127760D01*
X1555420Y129340D01*
X1555620Y130960D01*
X1556480Y132360D01*
X1557800Y133300D01*
X1559400Y133640D01*
X1600380Y133640D01*
X1603740Y133980D01*
X1606780Y134900D01*
X1609580Y136380D01*
X1612180Y138520D01*
X1628280Y154620D01*
X1629580Y155500D01*
X1631120Y155800D01*
X1655280Y155800D01*
X1656800Y155500D01*
X1658080Y154660D01*
X1658959Y153380D01*
X1672220Y153380D01*
X1673100Y154660D01*
X1674379Y155500D01*
X1675900Y155800D01*
X1682740Y155800D01*
X1684259Y155500D01*
X1685540Y154660D01*
X1686420Y153380D01*
X1694640Y153380D01*
X1696180Y153060D01*
X1697480Y152200D01*
X1698340Y150900D01*
X1698640Y149380D01*
X1698640Y136620D01*
X1698340Y135100D01*
X1697480Y133800D01*
X1696180Y132940D01*
X1694640Y132620D01*
X1686740Y132620D01*
X1686740Y117060D01*
X1688940Y117060D01*
X1691420Y117340D01*
X1693580Y118080D01*
X1695500Y119300D01*
X1696180Y119960D01*
X1697480Y120840D01*
X1699000Y121140D01*
X1700540Y120840D01*
X1701840Y119960D01*
X1702500Y119300D01*
X1704440Y118080D01*
X1706579Y117340D01*
X1709079Y117060D01*
X1728300Y117060D01*
X1729160Y117140D01*
X1730840Y116980D01*
X1732280Y116160D01*
X1733260Y114800D01*
X1733620Y113180D01*
X1733620Y61040D01*
X1733320Y59520D01*
X1732440Y58220D01*
X1731140Y57360D01*
X1729620Y57040D01*
X1667460Y57040D01*
X1665940Y57360D01*
X1664640Y58220D01*
X1663760Y59520D01*
X1663460Y61040D01*
X1663460Y113280D01*
X1663820Y114920D01*
X1664800Y116260D01*
X1666260Y117080D01*
X1667920Y117260D01*
X1669700Y117060D01*
X1671900Y117060D01*
X1671900Y132620D01*
X1659280Y132620D01*
X1659280Y127440D01*
X1658920Y125800D01*
X1657940Y124440D01*
X1656500Y123620D01*
X1654820Y123460D01*
X1653040Y123660D01*
X1614120Y123660D01*
X1611639Y123379D01*
X1609480Y122620D01*
X1607560Y121420D01*
X1605940Y119800D01*
X1604720Y117880D01*
X1603980Y115719D01*
X1603700Y113240D01*
X1603700Y64960D01*
X1603380Y63400D01*
X1602480Y62080D01*
X1601120Y61220D01*
X1599560Y60960D01*
X1598000Y61340D01*
X1595080Y62699D01*
X1591360Y63700D01*
X1587500Y64040D01*
X1583640Y63700D01*
X1579920Y62699D01*
X1576399Y61060D01*
X1573240Y58840D01*
X1570500Y56120D01*
X1568280Y52939D01*
X1566660Y49440D01*
X1565660Y45700D01*
X1565380Y42640D01*
X1565140Y41840D01*
X1565380Y41060D01*
X1565660Y38000D01*
X1566660Y34260D01*
X1568280Y30760D01*
X1570500Y27580D01*
X1573240Y24860D01*
X1576399Y22639D01*
X1579920Y21000D01*
X1583640Y20000D01*
X1587500Y19660D01*
X1591360Y20000D01*
X1595080Y21000D01*
X1598600Y22639D01*
X1601759Y24860D01*
X1602380Y25480D01*
X1603680Y26340D01*
X1605220Y26640D01*
X1832580Y26640D01*
X1835740Y26960D01*
X1838580Y27820D01*
X1841220Y29220D01*
X1843660Y31240D01*
X1860580Y48160D01*
X1861879Y49020D01*
X1863420Y49320D01*
X1896840Y49320D01*
X1899340Y49600D01*
X1901480Y50359D01*
X1903420Y51580D01*
X1905020Y53179D01*
X1906240Y55119D01*
X1906980Y57260D01*
X1907260Y59760D01*
X1907260Y80239D01*
X1906980Y82739D01*
X1906240Y84880D01*
X1905020Y86820D01*
X1903420Y88420D01*
X1901480Y89640D01*
X1899340Y90399D01*
X1896840Y90680D01*
X1856440Y90680D01*
X1853959Y90399D01*
X1850360Y89000D01*
X1849019Y88920D01*
X1847740Y89300D01*
X1846639Y90060D01*
X1761680Y175020D01*
X1760820Y176320D01*
X1760500Y177860D01*
X1760500Y200840D01*
X1742040Y200840D01*
X1740760Y199820D01*
X1739160Y199400D01*
X1737520Y199660D01*
X1736140Y200560D01*
X1706020Y230680D01*
X1703560Y232700D01*
X1700940Y234100D01*
X1698100Y234960D01*
X1694940Y235280D01*
X1684139Y235280D01*
X1682540Y235620D01*
X1681200Y236560D01*
X1680360Y237960D01*
X1680140Y239579D01*
X1680600Y241140D01*
X1681639Y242399D01*
X1683100Y243140D01*
X1685400Y243760D01*
X1688920Y245400D01*
X1692080Y247620D01*
X1692700Y248240D01*
X1694000Y249100D01*
X1695540Y249400D01*
X1738959Y249400D01*
X1740500Y249100D01*
X1741800Y248240D01*
X1742660Y246940D01*
X1742960Y245400D01*
X1742960Y239320D01*
X1760500Y239320D01*
X1760500Y245400D01*
X1760820Y246940D01*
X1761680Y248240D01*
X1762980Y249100D01*
X1764500Y249400D01*
X1781200Y249400D01*
X1782720Y249100D01*
X1784019Y248240D01*
X1784880Y246940D01*
X1785200Y245400D01*
X1785200Y239300D01*
X1786660Y238960D01*
X1787900Y238080D01*
X1788740Y236800D01*
X1789019Y235320D01*
X1789019Y218939D01*
X1789340Y215780D01*
X1790200Y212940D01*
X1791579Y210320D01*
X1794019Y207420D01*
X1794760Y206100D01*
X1794960Y204620D01*
X1794580Y203160D01*
X1793700Y201940D01*
X1792440Y201119D01*
X1790960Y200840D01*
X1785200Y200840D01*
X1785200Y176420D01*
X1792320Y176420D01*
X1794800Y176700D01*
X1796940Y177440D01*
X1798880Y178660D01*
X1800480Y180280D01*
X1801699Y182200D01*
X1802460Y184360D01*
X1802740Y186840D01*
X1802740Y189080D01*
X1803040Y190600D01*
X1803899Y191900D01*
X1805200Y192760D01*
X1806740Y193080D01*
X1808260Y192760D01*
X1809560Y191900D01*
X1810460Y191020D01*
X1811320Y189720D01*
X1811620Y188180D01*
X1811620Y179600D01*
X1811900Y177100D01*
X1812660Y174960D01*
X1813880Y173020D01*
X1815480Y171420D01*
X1817420Y170200D01*
X1819560Y169460D01*
X1822040Y169160D01*
X1843880Y169160D01*
X1846360Y169460D01*
X1848680Y170260D01*
X1850000Y170479D01*
X1851320Y170260D01*
X1853640Y169460D01*
X1856120Y169160D01*
X1857960Y169160D01*
X1858920Y169060D01*
X1861200Y167979D01*
X1864040Y167120D01*
X1867200Y166800D01*
X1938640Y166800D01*
X1940180Y166500D01*
X1941480Y165620D01*
X1942340Y164340D01*
X1942640Y162800D01*
X1942340Y161260D01*
X1941480Y159980D01*
X1920000Y138480D01*
X1917980Y136040D01*
X1916579Y133400D01*
X1915720Y130559D01*
X1915400Y127400D01*
X1915400Y-95900D01*
X1915720Y-99060D01*
X1916579Y-101900D01*
X1917980Y-104540D01*
X1920000Y-106980D01*
X1921020Y-108000D01*
X1923460Y-110020D01*
X1926100Y-111420D01*
X1928940Y-112280D01*
X1932140Y-112600D01*
X1933480Y-112980D01*
X1934600Y-113780D01*
X1936600Y-115840D01*
X1938520Y-117040D01*
X1940660Y-117800D01*
X1943160Y-118080D01*
X1983560Y-118080D01*
X1986040Y-117800D01*
X1988200Y-117040D01*
X1990120Y-115820D01*
X1991740Y-114220D01*
X1992940Y-112280D01*
X1993700Y-110140D01*
X1994199Y-108260D01*
X1995140Y-107080D01*
X1996440Y-106340D01*
X1997920Y-106140D01*
X1999379Y-106500D01*
X2000600Y-107360D01*
X2002440Y-109260D01*
X2005820Y-112160D01*
X2009460Y-114740D01*
X2013320Y-116980D01*
X2017380Y-118820D01*
X2021600Y-120300D01*
X2025920Y-121359D01*
X2030340Y-122000D01*
X2034880Y-122260D01*
X2051420Y-122260D01*
X2052940Y-122560D01*
X2054240Y-123420D01*
X2055100Y-124720D01*
X2055420Y-126260D01*
X2055420Y-173960D01*
X2055640Y-176280D01*
X2055420Y-178020D01*
X2054480Y-179520D01*
X2052980Y-180440D01*
X2051240Y-180660D01*
X2047420Y-179340D01*
X2044940Y-179060D01*
X2042740Y-179060D01*
X2042740Y-194620D01*
X2050640Y-194620D01*
X2052180Y-194940D01*
X2053460Y-195799D01*
X2054340Y-197100D01*
X2054640Y-198619D01*
X2054640Y-211380D01*
X2054340Y-212900D01*
X2053460Y-214200D01*
X2052180Y-215080D01*
X2050640Y-215380D01*
X2042740Y-215380D01*
X2042740Y-230960D01*
X2044940Y-230960D01*
X2047420Y-230680D01*
X2049580Y-229920D01*
X2051500Y-228700D01*
X2052160Y-228039D01*
X2053460Y-227160D01*
X2055000Y-226860D01*
X2056519Y-227160D01*
X2057820Y-228039D01*
X2058500Y-228700D01*
X2060420Y-229920D01*
X2062580Y-230680D01*
X2065060Y-230960D01*
X2080860Y-230960D01*
X2082380Y-231260D01*
X2083680Y-232120D01*
X2084540Y-233420D01*
X2084860Y-234960D01*
X2084540Y-236480D01*
X2083680Y-237780D01*
X2067020Y-254440D01*
X2064880Y-257060D01*
X2063380Y-259840D01*
X2062460Y-262880D01*
X2062140Y-266240D01*
X2062140Y-342900D01*
X2061819Y-344440D01*
X2060960Y-345720D01*
X2059660Y-346599D01*
X2058140Y-346900D01*
X1907100Y-346900D01*
X1903740Y-347239D01*
X1900700Y-348160D01*
X1897920Y-349640D01*
X1897020Y-350379D01*
X1895860Y-351040D01*
G37*

%LPC*%
G36*
X2025700Y-230960D02*
G01*
X2027900Y-230960D01*
X2027900Y-215380D01*
X2015280Y-215380D01*
X2015280Y-220520D01*
X2015560Y-223020D01*
X2016300Y-225159D01*
X2017520Y-227100D01*
X2019120Y-228700D01*
X2021060Y-229920D01*
X2023200Y-230680D01*
G37*
G36*
X2015280Y-194620D02*
G01*
X2027900Y-194620D01*
X2027900Y-179060D01*
X2025700Y-179060D01*
X2023200Y-179340D01*
X2021060Y-180080D01*
X2019120Y-181300D01*
X2017520Y-182920D01*
X2016300Y-184840D01*
X2015560Y-187000D01*
X2015280Y-189480D01*
G37*
G36*
X1603700Y-91720D02*
G01*
X1621240Y-91720D01*
X1621240Y-69260D01*
X1614120Y-69260D01*
X1611639Y-69540D01*
X1609480Y-70280D01*
X1607560Y-71500D01*
X1605940Y-73120D01*
X1604720Y-75040D01*
X1603980Y-77200D01*
X1603700Y-79680D01*
G37*
G36*
X1645920Y-91720D02*
G01*
X1663460Y-91720D01*
X1663460Y-79680D01*
X1663180Y-77200D01*
X1662440Y-75040D01*
X1661220Y-73120D01*
X1659600Y-71500D01*
X1657680Y-70280D01*
X1655520Y-69540D01*
X1653040Y-69260D01*
X1645920Y-69260D01*
G37*

%LPD*%
G36*
X2118480Y-378600D02*
G01*
X2116900Y-378320D01*
X2115560Y-377420D01*
X2095700Y-357560D01*
X2094840Y-356260D01*
X2094540Y-354739D01*
X2094540Y-274400D01*
X2094840Y-272880D01*
X2095700Y-271580D01*
X2106520Y-260760D01*
X2107700Y-259940D01*
X2109080Y-259600D01*
X2110500Y-259760D01*
X2111780Y-260400D01*
X2113000Y-261860D01*
X2114600Y-263460D01*
X2116540Y-264680D01*
X2118680Y-265440D01*
X2121160Y-265720D01*
X2160100Y-265720D01*
X2162580Y-265440D01*
X2164720Y-264680D01*
X2166660Y-263460D01*
X2168260Y-261860D01*
X2169480Y-259920D01*
X2170240Y-257780D01*
X2170520Y-255280D01*
X2170520Y-194720D01*
X2170240Y-192220D01*
X2169480Y-190080D01*
X2168260Y-188140D01*
X2166660Y-186540D01*
X2164720Y-185320D01*
X2162580Y-184560D01*
X2160160Y-184300D01*
X2158860Y-183920D01*
X2157760Y-183140D01*
X2157000Y-182020D01*
X2156640Y-180720D01*
X2156500Y-179320D01*
X2155580Y-176280D01*
X2154080Y-173500D01*
X2151940Y-170880D01*
X2146980Y-165920D01*
X2145340Y-164579D01*
X2144320Y-163299D01*
X2143880Y-161740D01*
X2144100Y-160140D01*
X2144960Y-158740D01*
X2146280Y-157800D01*
X2147880Y-157480D01*
X2160400Y-157480D01*
X2160400Y-143160D01*
X2137200Y-143160D01*
X2137200Y-147060D01*
X2137480Y-149540D01*
X2138220Y-151700D01*
X2139440Y-153620D01*
X2140220Y-154400D01*
X2141120Y-155760D01*
X2141400Y-157360D01*
X2141020Y-158940D01*
X2140040Y-160240D01*
X2138620Y-161040D01*
X2137000Y-161220D01*
X2135200Y-161040D01*
X2091819Y-161040D01*
X2090280Y-160740D01*
X2088980Y-159860D01*
X2088120Y-158580D01*
X2087820Y-157040D01*
X2087820Y-126260D01*
X2088120Y-124720D01*
X2088980Y-123420D01*
X2090280Y-122560D01*
X2091819Y-122260D01*
X2108020Y-122260D01*
X2112260Y-122060D01*
X2116680Y-121460D01*
X2121020Y-120460D01*
X2125260Y-119040D01*
X2129340Y-117260D01*
X2131380Y-116120D01*
X2133040Y-115620D01*
X2134760Y-115860D01*
X2136220Y-116840D01*
X2137120Y-118320D01*
X2137300Y-120060D01*
X2137200Y-121039D01*
X2137200Y-124940D01*
X2160400Y-124940D01*
X2160400Y-110620D01*
X2148540Y-110620D01*
X2147080Y-110340D01*
X2145820Y-109540D01*
X2144940Y-108340D01*
X2144560Y-106880D01*
X2144740Y-105399D01*
X2145460Y-104080D01*
X2146300Y-103040D01*
X2148640Y-99600D01*
X2149540Y-98660D01*
X2150680Y-98059D01*
X2151960Y-97840D01*
X2209180Y-97840D01*
X2211660Y-97560D01*
X2213820Y-96820D01*
X2215740Y-95600D01*
X2217360Y-93980D01*
X2218580Y-92060D01*
X2219320Y-89900D01*
X2219600Y-87420D01*
X2219600Y-61880D01*
X2219320Y-59400D01*
X2218580Y-57240D01*
X2217360Y-55320D01*
X2215740Y-53700D01*
X2213820Y-52500D01*
X2211660Y-51740D01*
X2209180Y-51460D01*
X2151960Y-51460D01*
X2150640Y-51240D01*
X2149460Y-50580D01*
X2148560Y-49600D01*
X2147960Y-48640D01*
X2145860Y-45720D01*
X2145160Y-44120D01*
X2145220Y-42360D01*
X2146020Y-40820D01*
X2147400Y-39740D01*
X2149100Y-39360D01*
X2209180Y-39360D01*
X2211660Y-39080D01*
X2213820Y-38340D01*
X2215740Y-37120D01*
X2217360Y-35520D01*
X2218560Y-33580D01*
X2219320Y-31440D01*
X2219600Y-28940D01*
X2219600Y-2940D01*
X2219320Y-440D01*
X2218560Y1700D01*
X2217360Y3640D01*
X2215740Y5240D01*
X2213820Y6460D01*
X2211660Y7200D01*
X2209180Y7480D01*
X2169800Y7480D01*
X2168260Y7800D01*
X2166960Y8660D01*
X2166100Y9960D01*
X2165800Y11480D01*
X2166100Y13020D01*
X2166960Y14320D01*
X2168320Y15660D01*
X2170460Y18280D01*
X2171940Y21060D01*
X2172860Y24100D01*
X2173200Y27460D01*
X2173200Y159800D01*
X2172860Y163160D01*
X2171940Y166200D01*
X2170460Y168980D01*
X2168320Y171600D01*
X2147580Y192340D01*
X2146700Y193680D01*
X2146400Y195260D01*
X2146760Y196820D01*
X2147720Y198120D01*
X2149100Y198939D01*
X2150680Y199160D01*
X2152240Y198720D01*
X2156080Y196740D01*
X2157080Y196020D01*
X2202620Y150460D01*
X2203500Y149160D01*
X2203800Y147640D01*
X2203800Y50199D01*
X2204140Y46840D01*
X2205060Y43800D01*
X2206540Y41020D01*
X2208680Y38400D01*
X2258400Y-11319D01*
X2261020Y-13460D01*
X2263800Y-14940D01*
X2266900Y-15880D01*
X2268860Y-16140D01*
X2270220Y-16580D01*
X2271360Y-17480D01*
X2272080Y-18700D01*
X2272340Y-20120D01*
X2272340Y-31200D01*
X2272080Y-32639D01*
X2271300Y-33880D01*
X2270140Y-34760D01*
X2268740Y-35180D01*
X2267380Y-35320D01*
X2264340Y-36240D01*
X2261540Y-37720D01*
X2259080Y-39740D01*
X2257080Y-42200D01*
X2255580Y-44980D01*
X2254660Y-48019D01*
X2254340Y-51380D01*
X2254340Y-170340D01*
X2254660Y-173680D01*
X2255580Y-176720D01*
X2257080Y-179520D01*
X2259220Y-182120D01*
X2293080Y-216000D01*
X2293920Y-217200D01*
X2294240Y-218619D01*
X2294040Y-220080D01*
X2292780Y-223920D01*
X2291700Y-229420D01*
X2291340Y-235000D01*
X2291700Y-240580D01*
X2292780Y-246080D01*
X2294040Y-249920D01*
X2294240Y-251380D01*
X2293920Y-252800D01*
X2293080Y-254000D01*
X2197260Y-349820D01*
X2195120Y-352440D01*
X2193640Y-355220D01*
X2192720Y-358260D01*
X2192380Y-361620D01*
X2192380Y-365060D01*
X2192120Y-366480D01*
X2191360Y-367720D01*
X2190220Y-368620D01*
X2188600Y-369060D01*
X2186460Y-369820D01*
X2184520Y-371019D01*
X2182920Y-372640D01*
X2182440Y-373380D01*
X2181340Y-374540D01*
X2179860Y-375160D01*
X2178260Y-375160D01*
X2176780Y-374540D01*
X2175680Y-373380D01*
X2175200Y-372640D01*
X2173600Y-371019D01*
X2172160Y-370120D01*
X2171320Y-369420D01*
X2170300Y-367720D01*
X2169880Y-366100D01*
X2170160Y-364440D01*
X2171100Y-363060D01*
X2174060Y-360200D01*
X2174820Y-359600D01*
X2178120Y-356540D01*
X2180940Y-353000D01*
X2183200Y-349099D01*
X2184840Y-344900D01*
X2185860Y-340500D01*
X2186180Y-336000D01*
X2185860Y-331500D01*
X2184840Y-327100D01*
X2183200Y-322900D01*
X2180940Y-319000D01*
X2178120Y-315460D01*
X2174820Y-312400D01*
X2171100Y-309860D01*
X2167020Y-307900D01*
X2162720Y-306560D01*
X2158260Y-305900D01*
X2153740Y-305900D01*
X2149280Y-306560D01*
X2144980Y-307900D01*
X2140900Y-309860D01*
X2137180Y-312400D01*
X2133880Y-315460D01*
X2131060Y-319000D01*
X2128800Y-322900D01*
X2127160Y-327100D01*
X2126140Y-331500D01*
X2125820Y-336000D01*
X2126140Y-340500D01*
X2127160Y-344900D01*
X2128880Y-349300D01*
X2131980Y-358620D01*
X2132180Y-360180D01*
X2131780Y-361680D01*
X2128360Y-368519D01*
X2127740Y-369420D01*
X2126900Y-370120D01*
X2125480Y-371019D01*
X2123860Y-372640D01*
X2122640Y-374560D01*
X2122180Y-375920D01*
X2121360Y-377299D01*
X2120060Y-378240D01*
G37*

%LPC*%
G36*
X2199900Y-265720D02*
G01*
X2207020Y-265720D01*
X2207020Y-242760D01*
X2189480Y-242760D01*
X2189480Y-255280D01*
X2189760Y-257780D01*
X2190520Y-259920D01*
X2191740Y-261860D01*
X2193340Y-263460D01*
X2195280Y-264680D01*
X2197420Y-265440D01*
G37*
G36*
X2231720Y-265720D02*
G01*
X2238840Y-265720D01*
X2241320Y-265440D01*
X2243460Y-264680D01*
X2245400Y-263460D01*
X2247000Y-261860D01*
X2248220Y-259920D01*
X2248980Y-257780D01*
X2249260Y-255280D01*
X2249260Y-242760D01*
X2231720Y-242760D01*
G37*
G36*
X2189480Y-207240D02*
G01*
X2207020Y-207240D01*
X2207020Y-184280D01*
X2199900Y-184280D01*
X2197420Y-184560D01*
X2195280Y-185320D01*
X2193340Y-186540D01*
X2191740Y-188140D01*
X2190520Y-190080D01*
X2189760Y-192220D01*
X2189480Y-194720D01*
G37*
G36*
X2231720Y-207240D02*
G01*
X2249260Y-207240D01*
X2249260Y-194720D01*
X2248980Y-192220D01*
X2248220Y-190080D01*
X2247000Y-188140D01*
X2245400Y-186540D01*
X2243460Y-185320D01*
X2241320Y-184560D01*
X2238840Y-184280D01*
X2231720Y-184280D01*
G37*
G36*
X2196400Y-157480D02*
G01*
X2209180Y-157480D01*
X2211660Y-157200D01*
X2213820Y-156440D01*
X2215740Y-155240D01*
X2217360Y-153620D01*
X2218560Y-151700D01*
X2219320Y-149540D01*
X2219600Y-147060D01*
X2219600Y-143160D01*
X2196400Y-143160D01*
G37*
G36*
X2196400Y-124940D02*
G01*
X2219600Y-124940D01*
X2219600Y-121039D01*
X2219320Y-118560D01*
X2218560Y-116400D01*
X2217360Y-114480D01*
X2215740Y-112860D01*
X2213820Y-111660D01*
X2211660Y-110900D01*
X2209180Y-110620D01*
X2196400Y-110620D01*
G37*

%LPD*%
G36*
X558260Y-447800D02*
G01*
X556640Y-447460D01*
X555280Y-446480D01*
X554460Y-445040D01*
X554280Y-443380D01*
X554800Y-441800D01*
X555200Y-441100D01*
X556840Y-436900D01*
X557860Y-432440D01*
X558140Y-429720D01*
X558200Y-428100D01*
X557860Y-423500D01*
X556920Y-419420D01*
X556820Y-418380D01*
X557200Y-416640D01*
X557520Y-413480D01*
X557520Y-376620D01*
X557940Y-374820D01*
X560020Y-370680D01*
X560900Y-369500D01*
X562160Y-368740D01*
X563600Y-368459D01*
X565720Y-368459D01*
X568200Y-368180D01*
X570360Y-367440D01*
X572280Y-366220D01*
X573900Y-364620D01*
X575120Y-362680D01*
X575860Y-360540D01*
X576140Y-358040D01*
X576140Y-271880D01*
X575860Y-269380D01*
X575120Y-267240D01*
X573900Y-265300D01*
X572280Y-263700D01*
X570360Y-262480D01*
X568200Y-261740D01*
X565720Y-261460D01*
X563380Y-261460D01*
X561840Y-261140D01*
X560560Y-260280D01*
X559680Y-258980D01*
X559380Y-257460D01*
X559680Y-255920D01*
X560560Y-254620D01*
X619780Y-195400D01*
X621080Y-194520D01*
X622600Y-194220D01*
X624140Y-194520D01*
X625440Y-195400D01*
X626300Y-196700D01*
X626600Y-198220D01*
X626600Y-220240D01*
X626880Y-222740D01*
X627640Y-224880D01*
X628860Y-226820D01*
X630460Y-228420D01*
X632400Y-229640D01*
X634540Y-230400D01*
X637040Y-230680D01*
X723199Y-230680D01*
X725680Y-230400D01*
X727840Y-229640D01*
X729760Y-228420D01*
X731380Y-226820D01*
X732600Y-224880D01*
X733340Y-222740D01*
X733620Y-220240D01*
X733620Y-173980D01*
X733920Y-172440D01*
X734800Y-171140D01*
X736100Y-170280D01*
X737620Y-169980D01*
X898139Y-169980D01*
X901300Y-169660D01*
X904140Y-168800D01*
X906780Y-167399D01*
X909220Y-165380D01*
X969080Y-105520D01*
X970380Y-104660D01*
X971919Y-104360D01*
X1403640Y-104360D01*
X1405160Y-104660D01*
X1406459Y-105520D01*
X1407320Y-106820D01*
X1407640Y-108360D01*
X1407320Y-109880D01*
X1406459Y-111180D01*
X1378220Y-139400D01*
X1377120Y-140180D01*
X1375840Y-140540D01*
X1374500Y-140480D01*
X1373260Y-139960D01*
X1370940Y-138520D01*
X1368800Y-137760D01*
X1366320Y-137480D01*
X1248640Y-137480D01*
X1246160Y-137760D01*
X1244020Y-138520D01*
X1242080Y-139720D01*
X1240480Y-141340D01*
X1239260Y-143260D01*
X1238500Y-145420D01*
X1238220Y-147900D01*
X1238220Y-206500D01*
X1238500Y-209000D01*
X1239260Y-211140D01*
X1240480Y-213080D01*
X1242080Y-214680D01*
X1244020Y-215900D01*
X1246160Y-216660D01*
X1248640Y-216940D01*
X1366320Y-216940D01*
X1368800Y-216660D01*
X1370940Y-215900D01*
X1372880Y-214680D01*
X1374480Y-213080D01*
X1375700Y-211140D01*
X1376459Y-209000D01*
X1376740Y-206500D01*
X1376740Y-196080D01*
X1377000Y-194640D01*
X1377780Y-193400D01*
X1378940Y-192520D01*
X1383360Y-191220D01*
X1384300Y-190720D01*
X1385800Y-190260D01*
X1387360Y-190420D01*
X1388740Y-191180D01*
X1389720Y-192399D01*
X1390160Y-193900D01*
X1390480Y-197380D01*
X1391480Y-201100D01*
X1393100Y-204620D01*
X1395320Y-207780D01*
X1398060Y-210520D01*
X1401220Y-212740D01*
X1404740Y-214360D01*
X1408460Y-215360D01*
X1412320Y-215700D01*
X1416180Y-215360D01*
X1419900Y-214360D01*
X1423420Y-212740D01*
X1426579Y-210520D01*
X1427200Y-209899D01*
X1428500Y-209020D01*
X1430040Y-208720D01*
X1456680Y-208720D01*
X1458300Y-209060D01*
X1459640Y-210020D01*
X1460480Y-211439D01*
X1461940Y-215760D01*
X1464319Y-220600D01*
X1467320Y-225080D01*
X1470880Y-229120D01*
X1474920Y-232680D01*
X1479400Y-235680D01*
X1484240Y-238060D01*
X1489340Y-239780D01*
X1494620Y-240840D01*
X1500000Y-241200D01*
X1505380Y-240840D01*
X1510660Y-239780D01*
X1515760Y-238060D01*
X1520600Y-235680D01*
X1525080Y-232680D01*
X1529120Y-229120D01*
X1532680Y-225080D01*
X1535680Y-220600D01*
X1538060Y-215760D01*
X1539780Y-210660D01*
X1540840Y-205380D01*
X1541200Y-200000D01*
X1540840Y-194620D01*
X1539780Y-189340D01*
X1538060Y-184240D01*
X1536920Y-181940D01*
X1536519Y-180340D01*
X1536780Y-178720D01*
X1537680Y-177340D01*
X1549100Y-165920D01*
X1550400Y-165060D01*
X1551920Y-164760D01*
X1656160Y-164760D01*
X1657700Y-165060D01*
X1659000Y-165920D01*
X1659860Y-167220D01*
X1660160Y-168760D01*
X1660160Y-175980D01*
X1659860Y-177520D01*
X1659000Y-178820D01*
X1657700Y-179680D01*
X1656160Y-179980D01*
X1654640Y-179680D01*
X1651240Y-177440D01*
X1649100Y-176700D01*
X1646620Y-176420D01*
X1639500Y-176420D01*
X1639500Y-200840D01*
X1657040Y-200840D01*
X1657040Y-193780D01*
X1657420Y-192060D01*
X1658520Y-190680D01*
X1660100Y-189899D01*
X1661860Y-189880D01*
X1663460Y-190600D01*
X1664780Y-191620D01*
X1665860Y-192840D01*
X1666339Y-194400D01*
X1666620Y-197140D01*
X1667480Y-199980D01*
X1669060Y-202960D01*
X1670640Y-208820D01*
X1672260Y-212320D01*
X1674480Y-215500D01*
X1677220Y-218220D01*
X1680380Y-220440D01*
X1683899Y-222079D01*
X1687620Y-223080D01*
X1691480Y-223420D01*
X1695340Y-223080D01*
X1699060Y-222079D01*
X1702580Y-220440D01*
X1705740Y-218220D01*
X1708480Y-215500D01*
X1710700Y-212320D01*
X1712320Y-208820D01*
X1713320Y-205080D01*
X1713660Y-201240D01*
X1713360Y-197700D01*
X1713560Y-196080D01*
X1714400Y-194660D01*
X1715740Y-193700D01*
X1717340Y-193359D01*
X1726480Y-193359D01*
X1728980Y-193080D01*
X1731120Y-192320D01*
X1733060Y-191119D01*
X1734660Y-189500D01*
X1735580Y-188060D01*
X1736780Y-186840D01*
X1738360Y-186220D01*
X1740080Y-186340D01*
X1741579Y-187160D01*
X1742600Y-188520D01*
X1742960Y-190180D01*
X1742960Y-253320D01*
X1743240Y-255799D01*
X1744000Y-257960D01*
X1745220Y-259880D01*
X1746819Y-261500D01*
X1748760Y-262720D01*
X1750900Y-263460D01*
X1753380Y-263740D01*
X1792320Y-263740D01*
X1794800Y-263460D01*
X1796940Y-262720D01*
X1798880Y-261500D01*
X1800480Y-259880D01*
X1801699Y-257960D01*
X1802460Y-255799D01*
X1802740Y-253320D01*
X1802740Y-217040D01*
X1803040Y-215500D01*
X1803899Y-214220D01*
X1805200Y-213340D01*
X1806740Y-213039D01*
X1847280Y-213039D01*
X1848800Y-213340D01*
X1850100Y-214220D01*
X1889540Y-253640D01*
X1890380Y-254899D01*
X1890700Y-256400D01*
X1890440Y-257900D01*
X1889640Y-259200D01*
X1888400Y-260100D01*
X1886900Y-260780D01*
X1883740Y-263000D01*
X1881000Y-265740D01*
X1878779Y-268900D01*
X1877160Y-272420D01*
X1876160Y-276140D01*
X1876020Y-277760D01*
X1875660Y-279100D01*
X1874860Y-280240D01*
X1828800Y-326280D01*
X1827500Y-327160D01*
X1825980Y-327460D01*
X1538560Y-327460D01*
X1536900Y-327100D01*
X1535520Y-326060D01*
X1534720Y-324540D01*
X1534620Y-322840D01*
X1535240Y-321240D01*
X1535680Y-320600D01*
X1538060Y-315760D01*
X1539780Y-310660D01*
X1540840Y-305380D01*
X1541200Y-300000D01*
X1540840Y-294620D01*
X1539780Y-289340D01*
X1538060Y-284240D01*
X1535680Y-279400D01*
X1532680Y-274920D01*
X1529120Y-270880D01*
X1525080Y-267320D01*
X1520600Y-264320D01*
X1515760Y-261940D01*
X1510660Y-260219D01*
X1505380Y-259160D01*
X1500000Y-258800D01*
X1494620Y-259160D01*
X1489340Y-260219D01*
X1484240Y-261940D01*
X1479400Y-264320D01*
X1474920Y-267320D01*
X1470880Y-270880D01*
X1467320Y-274920D01*
X1464319Y-279400D01*
X1461940Y-284240D01*
X1460220Y-289340D01*
X1459160Y-294620D01*
X1458800Y-300000D01*
X1459160Y-305380D01*
X1460520Y-312440D01*
X1460160Y-313920D01*
X1459280Y-315140D01*
X1458000Y-315960D01*
X1456519Y-316240D01*
X870120Y-316240D01*
X866760Y-316580D01*
X863720Y-317500D01*
X860939Y-318980D01*
X858319Y-321120D01*
X838680Y-340760D01*
X836540Y-343380D01*
X835060Y-346160D01*
X834140Y-349200D01*
X834000Y-350560D01*
X833580Y-351960D01*
X832700Y-353140D01*
X831460Y-353900D01*
X830020Y-354180D01*
X803460Y-354180D01*
X800960Y-354460D01*
X798820Y-355200D01*
X796880Y-356420D01*
X795280Y-358020D01*
X794060Y-359960D01*
X793300Y-362100D01*
X793020Y-364600D01*
X793020Y-375340D01*
X792760Y-376800D01*
X791960Y-378060D01*
X790780Y-378940D01*
X789340Y-379320D01*
X787860Y-379159D01*
X785680Y-378500D01*
X784280Y-378360D01*
X782980Y-378000D01*
X781860Y-377239D01*
X781080Y-376140D01*
X780699Y-374840D01*
X780440Y-372420D01*
X779680Y-370280D01*
X778460Y-368340D01*
X776860Y-366740D01*
X774920Y-365520D01*
X772780Y-364760D01*
X770280Y-364480D01*
X709720Y-364480D01*
X707220Y-364760D01*
X705080Y-365520D01*
X703139Y-366740D01*
X701540Y-368340D01*
X700320Y-370280D01*
X699560Y-372420D01*
X699320Y-374620D01*
X698900Y-376000D01*
X698020Y-377160D01*
X696780Y-377900D01*
X695340Y-378180D01*
X674900Y-378180D01*
X673360Y-377860D01*
X672060Y-377000D01*
X671200Y-375700D01*
X670900Y-374180D01*
X670900Y-372440D01*
X670560Y-369080D01*
X669640Y-366040D01*
X668139Y-363260D01*
X666000Y-360640D01*
X664320Y-358960D01*
X661720Y-356820D01*
X658920Y-355340D01*
X657720Y-354960D01*
X656240Y-354140D01*
X655240Y-352800D01*
X654880Y-351140D01*
X654880Y-271880D01*
X654599Y-269380D01*
X653860Y-267240D01*
X652640Y-265300D01*
X651020Y-263700D01*
X649100Y-262480D01*
X646940Y-261740D01*
X644460Y-261460D01*
X597660Y-261460D01*
X595180Y-261740D01*
X593020Y-262480D01*
X591100Y-263700D01*
X589480Y-265300D01*
X588280Y-267240D01*
X587520Y-269380D01*
X587240Y-271880D01*
X587240Y-358040D01*
X587520Y-360540D01*
X588280Y-362680D01*
X589480Y-364620D01*
X591100Y-366220D01*
X593020Y-367440D01*
X595160Y-368180D01*
X598120Y-368480D01*
X599680Y-368980D01*
X600920Y-370080D01*
X601600Y-371560D01*
X601640Y-373200D01*
X601020Y-374720D01*
X599840Y-375860D01*
X599120Y-376300D01*
X597520Y-377920D01*
X596300Y-379840D01*
X595560Y-382000D01*
X595280Y-384480D01*
X595280Y-389620D01*
X607900Y-389620D01*
X607900Y-388180D01*
X608220Y-386580D01*
X609180Y-385240D01*
X610580Y-384400D01*
X612200Y-384180D01*
X613780Y-384640D01*
X614860Y-385220D01*
X617900Y-386140D01*
X619120Y-386280D01*
X620780Y-386820D01*
X622040Y-388000D01*
X622680Y-389620D01*
X630640Y-389620D01*
X632180Y-389940D01*
X633460Y-390800D01*
X634340Y-392100D01*
X634640Y-393620D01*
X634640Y-406380D01*
X634340Y-407900D01*
X633460Y-409200D01*
X632180Y-410080D01*
X630640Y-410379D01*
X622740Y-410379D01*
X622740Y-425959D01*
X624940Y-425959D01*
X627420Y-425680D01*
X629580Y-424920D01*
X630720Y-424200D01*
X632140Y-423640D01*
X633680Y-423660D01*
X635080Y-424260D01*
X636160Y-425340D01*
X636760Y-426740D01*
X638420Y-434460D01*
X638500Y-435300D01*
X638500Y-438540D01*
X638200Y-440040D01*
X637380Y-441320D01*
X632300Y-446580D01*
X630980Y-447480D01*
X629420Y-447800D01*
G37*

%LPC*%
G36*
X605700Y-425959D02*
G01*
X607900Y-425959D01*
X607900Y-410379D01*
X595280Y-410379D01*
X595280Y-415520D01*
X595560Y-418020D01*
X596300Y-420160D01*
X597520Y-422100D01*
X599120Y-423700D01*
X601060Y-424920D01*
X603200Y-425680D01*
G37*
G36*
X709720Y-345520D02*
G01*
X722240Y-345520D01*
X722240Y-327980D01*
X699280Y-327980D01*
X699280Y-335100D01*
X699560Y-337580D01*
X700320Y-339720D01*
X701540Y-341659D01*
X703139Y-343260D01*
X705080Y-344480D01*
X707220Y-345240D01*
G37*
G36*
X757760Y-345520D02*
G01*
X770280Y-345520D01*
X772780Y-345240D01*
X774920Y-344480D01*
X776860Y-343260D01*
X778460Y-341659D01*
X779680Y-339720D01*
X780440Y-337580D01*
X780720Y-335100D01*
X780720Y-327980D01*
X757760Y-327980D01*
G37*
G36*
X699280Y-303280D02*
G01*
X722240Y-303280D01*
X722240Y-285740D01*
X709720Y-285740D01*
X707220Y-286020D01*
X705080Y-286780D01*
X703139Y-288000D01*
X701540Y-289600D01*
X700320Y-291540D01*
X699560Y-293680D01*
X699280Y-296160D01*
G37*
G36*
X757760Y-303280D02*
G01*
X780720Y-303280D01*
X780720Y-296160D01*
X780440Y-293680D01*
X779680Y-291540D01*
X778460Y-289600D01*
X776860Y-288000D01*
X774920Y-286780D01*
X772780Y-286020D01*
X770280Y-285740D01*
X757760Y-285740D01*
G37*
G36*
X803460Y-295820D02*
G01*
X824120Y-295820D01*
X824120Y-272300D01*
X793020Y-272300D01*
X793020Y-285400D01*
X793300Y-287900D01*
X794060Y-290040D01*
X795280Y-291980D01*
X796880Y-293580D01*
X798820Y-294800D01*
X800960Y-295540D01*
G37*
G36*
X875879Y-295820D02*
G01*
X896540Y-295820D01*
X899040Y-295540D01*
X901180Y-294800D01*
X903120Y-293580D01*
X904720Y-291980D01*
X905939Y-290040D01*
X906700Y-287900D01*
X906979Y-285400D01*
X906979Y-272300D01*
X875879Y-272300D01*
G37*
G36*
X1639500Y-263740D02*
G01*
X1646620Y-263740D01*
X1649100Y-263460D01*
X1651240Y-262720D01*
X1653180Y-261500D01*
X1654780Y-259880D01*
X1656000Y-257960D01*
X1656759Y-255799D01*
X1657040Y-253320D01*
X1657040Y-239320D01*
X1639500Y-239320D01*
G37*
G36*
X1607680Y-263740D02*
G01*
X1614800Y-263740D01*
X1614800Y-239320D01*
X1597260Y-239320D01*
X1597260Y-253320D01*
X1597540Y-255799D01*
X1598300Y-257960D01*
X1599520Y-259880D01*
X1601120Y-261500D01*
X1603060Y-262720D01*
X1605200Y-263460D01*
G37*
G36*
X1151240Y-256280D02*
G01*
X1156220Y-255760D01*
X1161060Y-254560D01*
X1165680Y-252680D01*
X1170000Y-250180D01*
X1173940Y-247120D01*
X1177420Y-243520D01*
X1180340Y-239480D01*
X1182680Y-235080D01*
X1184400Y-230380D01*
X1185440Y-225500D01*
X1185780Y-220520D01*
X1185440Y-215539D01*
X1184400Y-210660D01*
X1182680Y-205960D01*
X1180340Y-201560D01*
X1177420Y-197520D01*
X1173940Y-193920D01*
X1170000Y-190859D01*
X1165680Y-188359D01*
X1161060Y-186500D01*
X1156220Y-185280D01*
X1151240Y-184760D01*
X1146260Y-184940D01*
X1141340Y-185799D01*
X1136600Y-187340D01*
X1132100Y-189540D01*
X1127980Y-192320D01*
X1124260Y-195660D01*
X1121060Y-199480D01*
X1118400Y-203720D01*
X1116380Y-208280D01*
X1115000Y-213080D01*
X1114300Y-218020D01*
X1114300Y-223020D01*
X1115000Y-227960D01*
X1116380Y-232760D01*
X1118400Y-237320D01*
X1121060Y-241560D01*
X1124260Y-245380D01*
X1127980Y-248720D01*
X1132100Y-251500D01*
X1136600Y-253700D01*
X1141340Y-255240D01*
X1146260Y-256100D01*
G37*
G36*
X793020Y-235660D02*
G01*
X824120Y-235660D01*
X824120Y-212140D01*
X803460Y-212140D01*
X800960Y-212420D01*
X798820Y-213180D01*
X796880Y-214380D01*
X795280Y-216000D01*
X794060Y-217920D01*
X793300Y-220080D01*
X793020Y-222560D01*
G37*
G36*
X875879Y-235660D02*
G01*
X906979Y-235660D01*
X906979Y-222560D01*
X906700Y-220080D01*
X905939Y-217920D01*
X904720Y-216000D01*
X903120Y-214380D01*
X901180Y-213180D01*
X899040Y-212420D01*
X896540Y-212140D01*
X875879Y-212140D01*
G37*
G36*
X1597260Y-200840D02*
G01*
X1614800Y-200840D01*
X1614800Y-176420D01*
X1607680Y-176420D01*
X1605200Y-176700D01*
X1603060Y-177440D01*
X1601120Y-178660D01*
X1599520Y-180280D01*
X1598300Y-182200D01*
X1597540Y-184360D01*
X1597260Y-186840D01*
G37*

%LPD*%
G36*
X418260Y-447800D02*
G01*
X416640Y-447460D01*
X415280Y-446480D01*
X414460Y-445040D01*
X414280Y-443380D01*
X414799Y-441800D01*
X415200Y-441100D01*
X416840Y-436900D01*
X417860Y-432500D01*
X418020Y-430360D01*
X418500Y-428740D01*
X419140Y-428000D01*
X418500Y-427260D01*
X418020Y-425640D01*
X417860Y-423500D01*
X416840Y-419099D01*
X415200Y-414900D01*
X412939Y-411000D01*
X410100Y-407420D01*
X408920Y-406280D01*
X401079Y-397580D01*
X400300Y-396340D01*
X400040Y-394900D01*
X400040Y-376620D01*
X400460Y-374820D01*
X402540Y-370680D01*
X403420Y-369500D01*
X404680Y-368740D01*
X406120Y-368459D01*
X408240Y-368459D01*
X410720Y-368180D01*
X412879Y-367440D01*
X414799Y-366220D01*
X416420Y-364620D01*
X417640Y-362680D01*
X418380Y-360540D01*
X418660Y-358040D01*
X418660Y-271880D01*
X418380Y-269380D01*
X417640Y-267240D01*
X416420Y-265300D01*
X414799Y-263700D01*
X411300Y-261600D01*
X410360Y-260300D01*
X410000Y-258720D01*
X410280Y-257140D01*
X411160Y-255820D01*
X576540Y-90440D01*
X577840Y-89580D01*
X579360Y-89280D01*
X622740Y-89280D01*
X624380Y-89620D01*
X625720Y-90600D01*
X626560Y-92060D01*
X626720Y-93720D01*
X626600Y-94720D01*
X626600Y-141500D01*
X626800Y-143240D01*
X626760Y-144440D01*
X626360Y-145560D01*
X625660Y-146520D01*
X531720Y-240479D01*
X529700Y-242920D01*
X528300Y-245560D01*
X527440Y-248400D01*
X527120Y-251560D01*
X527120Y-257460D01*
X526820Y-258980D01*
X525940Y-260280D01*
X524660Y-261140D01*
X523120Y-261460D01*
X518920Y-261460D01*
X516440Y-261740D01*
X514280Y-262480D01*
X512360Y-263700D01*
X510740Y-265300D01*
X509540Y-267240D01*
X508780Y-269380D01*
X508500Y-271880D01*
X508500Y-358040D01*
X508780Y-360540D01*
X509540Y-362680D01*
X510740Y-364620D01*
X512360Y-366220D01*
X514280Y-367440D01*
X516440Y-368180D01*
X518920Y-368459D01*
X521040Y-368459D01*
X522480Y-368740D01*
X523740Y-369500D01*
X524620Y-370680D01*
X526700Y-374840D01*
X527120Y-376620D01*
X527120Y-394240D01*
X526880Y-395640D01*
X526160Y-396860D01*
X525060Y-397740D01*
X523720Y-398200D01*
X521280Y-398560D01*
X516980Y-399900D01*
X512900Y-401860D01*
X509180Y-404400D01*
X505880Y-407460D01*
X503060Y-411000D01*
X500800Y-414900D01*
X499159Y-419099D01*
X498140Y-423500D01*
X497819Y-428000D01*
X498140Y-432500D01*
X499159Y-436900D01*
X500800Y-441100D01*
X501200Y-441800D01*
X501719Y-443380D01*
X501540Y-445040D01*
X500720Y-446480D01*
X499360Y-447460D01*
X497740Y-447800D01*
X486260Y-447800D01*
X484640Y-447460D01*
X483280Y-446480D01*
X482460Y-445040D01*
X482280Y-443380D01*
X482800Y-441800D01*
X483200Y-441100D01*
X484840Y-436900D01*
X485860Y-432500D01*
X486180Y-428000D01*
X485860Y-423500D01*
X484840Y-419080D01*
X483740Y-416180D01*
X479000Y-402239D01*
X478780Y-400940D01*
X478780Y-376620D01*
X479200Y-374820D01*
X481280Y-370680D01*
X482160Y-369500D01*
X483420Y-368740D01*
X484860Y-368459D01*
X486980Y-368459D01*
X489460Y-368180D01*
X491620Y-367440D01*
X493540Y-366220D01*
X495160Y-364620D01*
X496380Y-362680D01*
X497120Y-360540D01*
X497400Y-358040D01*
X497400Y-271880D01*
X497120Y-269380D01*
X496380Y-267240D01*
X495160Y-265300D01*
X493540Y-263700D01*
X491620Y-262480D01*
X489460Y-261740D01*
X486980Y-261460D01*
X440180Y-261460D01*
X437700Y-261740D01*
X435540Y-262480D01*
X433620Y-263700D01*
X432000Y-265300D01*
X430800Y-267240D01*
X430040Y-269380D01*
X429760Y-271880D01*
X429760Y-358040D01*
X430040Y-360540D01*
X430800Y-362680D01*
X432000Y-364620D01*
X433620Y-366220D01*
X435540Y-367440D01*
X437700Y-368180D01*
X440180Y-368459D01*
X442299Y-368459D01*
X443740Y-368740D01*
X445000Y-369500D01*
X445880Y-370680D01*
X447960Y-374840D01*
X448380Y-376620D01*
X448380Y-393600D01*
X447980Y-395340D01*
X446880Y-396719D01*
X438680Y-403320D01*
X437200Y-404380D01*
X433880Y-407460D01*
X431060Y-411000D01*
X428800Y-414900D01*
X427160Y-419099D01*
X426140Y-423500D01*
X425980Y-425640D01*
X425500Y-427260D01*
X424860Y-428000D01*
X425500Y-428740D01*
X425980Y-430360D01*
X426140Y-432500D01*
X427160Y-436900D01*
X428800Y-441100D01*
X429200Y-441800D01*
X429720Y-443380D01*
X429540Y-445040D01*
X428720Y-446480D01*
X427360Y-447460D01*
X425740Y-447800D01*
G37*

%LPD*%
G36*
X14200Y-539800D02*
G01*
X12660Y-539500D01*
X11379Y-538620D01*
X10500Y-537340D01*
X10200Y-535800D01*
X10200Y535800D01*
X10500Y537340D01*
X11379Y538620D01*
X12660Y539500D01*
X14200Y539800D01*
X615440Y539800D01*
X617040Y539460D01*
X618380Y538520D01*
X619220Y537120D01*
X619440Y535500D01*
X618980Y533940D01*
X617940Y532680D01*
X616480Y531940D01*
X612420Y530840D01*
X608900Y529220D01*
X605740Y527000D01*
X603000Y524260D01*
X600780Y521100D01*
X599160Y517580D01*
X597940Y512819D01*
X596380Y508420D01*
X595440Y506920D01*
X566880Y478380D01*
X565580Y477500D01*
X564040Y477200D01*
X510200Y477200D01*
X507040Y476880D01*
X504200Y476019D01*
X501560Y474620D01*
X499120Y472600D01*
X482879Y456380D01*
X481580Y455500D01*
X480040Y455200D01*
X319720Y455200D01*
X318180Y455500D01*
X316880Y456380D01*
X316260Y457000D01*
X313100Y459219D01*
X309580Y460840D01*
X305860Y461840D01*
X302000Y462180D01*
X298140Y461840D01*
X294420Y460840D01*
X290900Y459219D01*
X288740Y457760D01*
X284180Y455580D01*
X282460Y455200D01*
X219540Y455200D01*
X216380Y454880D01*
X213540Y454020D01*
X210900Y452620D01*
X208460Y450600D01*
X172979Y415140D01*
X171640Y414240D01*
X170040Y413960D01*
X168480Y414340D01*
X167180Y415300D01*
X166360Y416700D01*
X166160Y418300D01*
X166620Y419840D01*
X167060Y420640D01*
X169740Y427260D01*
X171720Y434099D01*
X173000Y441120D01*
X173560Y448220D01*
X173380Y455340D01*
X172460Y462420D01*
X170820Y469360D01*
X168480Y476100D01*
X165460Y482560D01*
X161780Y488660D01*
X157500Y494360D01*
X152660Y499600D01*
X147300Y504300D01*
X141500Y508440D01*
X135300Y511940D01*
X128760Y514799D01*
X121960Y516980D01*
X114980Y518420D01*
X107899Y519159D01*
X100760Y519159D01*
X93680Y518420D01*
X86700Y516980D01*
X79900Y514799D01*
X73360Y511940D01*
X67160Y508440D01*
X61360Y504300D01*
X56000Y499600D01*
X51160Y494360D01*
X46880Y488660D01*
X43200Y482560D01*
X40180Y476100D01*
X37840Y469360D01*
X36200Y462420D01*
X35280Y455340D01*
X35100Y448220D01*
X35660Y441120D01*
X36940Y434099D01*
X38920Y427260D01*
X41620Y420640D01*
X44960Y414360D01*
X48940Y408440D01*
X53500Y402960D01*
X58620Y397980D01*
X64200Y393560D01*
X70220Y389739D01*
X76600Y386560D01*
X83280Y384040D01*
X90160Y382220D01*
X97220Y381120D01*
X104340Y380760D01*
X111460Y381120D01*
X118500Y382220D01*
X125399Y384040D01*
X132060Y386560D01*
X134680Y387860D01*
X136220Y388280D01*
X137820Y388040D01*
X139180Y387220D01*
X140120Y385920D01*
X140460Y384360D01*
X140180Y382780D01*
X139300Y381460D01*
X138020Y380180D01*
X136000Y377720D01*
X134600Y375080D01*
X133300Y370680D01*
X132420Y369500D01*
X131180Y368740D01*
X129740Y368459D01*
X125220Y368459D01*
X122739Y368180D01*
X120580Y367440D01*
X118660Y366220D01*
X117040Y364620D01*
X115840Y362680D01*
X115079Y360540D01*
X114800Y358040D01*
X114800Y271880D01*
X114880Y271140D01*
X114720Y269480D01*
X113880Y268020D01*
X112540Y267040D01*
X110900Y266680D01*
X107600Y266680D01*
X105960Y267040D01*
X104620Y268020D01*
X103780Y269480D01*
X103620Y271140D01*
X103699Y271880D01*
X103699Y358040D01*
X103420Y360540D01*
X102660Y362680D01*
X101460Y364620D01*
X99840Y366220D01*
X97920Y367440D01*
X95760Y368180D01*
X93280Y368459D01*
X46480Y368459D01*
X44000Y368180D01*
X41840Y367440D01*
X39920Y366220D01*
X38300Y364620D01*
X37100Y362680D01*
X36340Y360540D01*
X36060Y358040D01*
X36060Y271880D01*
X36340Y269400D01*
X37100Y267240D01*
X38300Y265320D01*
X39920Y263700D01*
X41840Y262480D01*
X44000Y261740D01*
X46480Y261460D01*
X51000Y261460D01*
X52440Y261180D01*
X53680Y260420D01*
X54560Y259259D01*
X55860Y254840D01*
X57260Y252200D01*
X59280Y249760D01*
X68140Y240880D01*
X70600Y238860D01*
X73220Y237460D01*
X76060Y236600D01*
X79220Y236280D01*
X151980Y236280D01*
X153520Y235980D01*
X154820Y235120D01*
X155440Y234500D01*
X158600Y232280D01*
X162120Y230640D01*
X165840Y229640D01*
X169700Y229300D01*
X173560Y229640D01*
X177280Y230640D01*
X180799Y232280D01*
X183960Y234500D01*
X186700Y237220D01*
X188580Y239920D01*
X189800Y241060D01*
X191380Y241600D01*
X193039Y241439D01*
X195020Y240840D01*
X198299Y240500D01*
X301000Y240500D01*
X304160Y240820D01*
X307000Y241680D01*
X309640Y243080D01*
X312080Y245100D01*
X316700Y249720D01*
X318720Y252160D01*
X320120Y254800D01*
X321420Y259259D01*
X322299Y260420D01*
X323560Y261180D01*
X325000Y261460D01*
X329500Y261460D01*
X331980Y261740D01*
X334140Y262480D01*
X336060Y263700D01*
X337680Y265320D01*
X338880Y267240D01*
X339640Y269400D01*
X339920Y271880D01*
X339920Y358040D01*
X339640Y360500D01*
X338660Y363220D01*
X338440Y364840D01*
X338880Y366420D01*
X339920Y367700D01*
X341380Y368440D01*
X344040Y369159D01*
X347580Y370800D01*
X349580Y372140D01*
X351140Y372740D01*
X352800Y372660D01*
X354300Y371920D01*
X355340Y370620D01*
X355780Y369020D01*
X355520Y367380D01*
X354620Y365980D01*
X353260Y364620D01*
X352060Y362680D01*
X351300Y360540D01*
X351019Y358040D01*
X351019Y271880D01*
X351300Y269400D01*
X352060Y267240D01*
X353260Y265320D01*
X354880Y263700D01*
X356800Y262480D01*
X358960Y261740D01*
X361440Y261460D01*
X365640Y261460D01*
X367160Y261160D01*
X368459Y260280D01*
X369340Y258980D01*
X369640Y257460D01*
X369640Y237360D01*
X369960Y234200D01*
X370820Y231360D01*
X372200Y228619D01*
X373960Y223240D01*
X374159Y222140D01*
X375160Y218420D01*
X376780Y214899D01*
X379000Y211740D01*
X381740Y209000D01*
X384900Y206780D01*
X388420Y205159D01*
X392140Y204160D01*
X396000Y203820D01*
X397340Y203939D01*
X398840Y203780D01*
X401040Y203120D01*
X404200Y202800D01*
X585800Y202800D01*
X588960Y203120D01*
X591800Y203980D01*
X594440Y205380D01*
X597260Y207760D01*
X598400Y208560D01*
X599740Y208920D01*
X602900Y209200D01*
X606640Y210200D01*
X610140Y211840D01*
X613320Y214060D01*
X616040Y216780D01*
X617140Y218160D01*
X618960Y219780D01*
X620200Y220539D01*
X621620Y220799D01*
X622600Y220799D01*
X624140Y220500D01*
X625440Y219620D01*
X626300Y218340D01*
X626600Y216800D01*
X626600Y173460D01*
X626880Y170960D01*
X627640Y168820D01*
X628860Y166880D01*
X630460Y165280D01*
X632400Y164060D01*
X634540Y163299D01*
X637040Y163020D01*
X723199Y163020D01*
X725680Y163299D01*
X727840Y164060D01*
X729760Y165280D01*
X731380Y166880D01*
X732600Y168820D01*
X733340Y170960D01*
X733620Y173460D01*
X733620Y220240D01*
X733340Y222740D01*
X732600Y224880D01*
X731380Y226820D01*
X729760Y228420D01*
X727840Y229640D01*
X725680Y230400D01*
X723199Y230680D01*
X688820Y230680D01*
X687300Y230980D01*
X686000Y231840D01*
X685140Y233140D01*
X684820Y234680D01*
X685140Y236200D01*
X686000Y237500D01*
X742099Y293600D01*
X743060Y294320D01*
X744200Y294700D01*
X745420Y294740D01*
X748480Y294360D01*
X767880Y294360D01*
X770380Y294640D01*
X772520Y295400D01*
X774260Y296160D01*
X775740Y296160D01*
X777480Y295400D01*
X779620Y294640D01*
X782120Y294360D01*
X786400Y294360D01*
X787940Y294060D01*
X789220Y293200D01*
X790100Y291900D01*
X790400Y290360D01*
X790400Y227600D01*
X790740Y224240D01*
X791660Y221200D01*
X793139Y218420D01*
X795280Y215799D01*
X863100Y147980D01*
X865720Y145840D01*
X868500Y144360D01*
X869680Y143880D01*
X870400Y143340D01*
X872840Y141060D01*
X873780Y139740D01*
X874100Y138140D01*
X874100Y128020D01*
X874380Y125540D01*
X875140Y123379D01*
X876340Y121460D01*
X877960Y119840D01*
X879880Y118640D01*
X882039Y117880D01*
X884520Y117600D01*
X923780Y117600D01*
X925040Y117400D01*
X934720Y114179D01*
X935980Y113480D01*
X936919Y112360D01*
X937400Y111000D01*
X937360Y109540D01*
X936760Y106740D01*
X936160Y105340D01*
X935080Y104260D01*
X933680Y103660D01*
X932140Y103640D01*
X930720Y104179D01*
X929580Y104920D01*
X927420Y105660D01*
X924940Y105940D01*
X922740Y105940D01*
X922740Y90380D01*
X930639Y90380D01*
X932180Y90060D01*
X933460Y89200D01*
X934340Y87899D01*
X934640Y86380D01*
X934640Y73620D01*
X934340Y72100D01*
X933460Y70800D01*
X932180Y69920D01*
X930639Y69620D01*
X922740Y69620D01*
X922740Y35380D01*
X930639Y35380D01*
X932180Y35060D01*
X933460Y34200D01*
X934340Y32900D01*
X934640Y31380D01*
X934640Y18620D01*
X934340Y17100D01*
X933460Y15800D01*
X932180Y14920D01*
X930639Y14620D01*
X921640Y14620D01*
X920320Y13700D01*
X918740Y13360D01*
X911900Y13360D01*
X910300Y13700D01*
X908980Y14620D01*
X894180Y14620D01*
X892860Y13700D01*
X891280Y13360D01*
X815160Y13360D01*
X813700Y13640D01*
X812440Y14440D01*
X811560Y15640D01*
X811180Y17080D01*
X811340Y18540D01*
X812039Y19860D01*
X812940Y21000D01*
X815200Y24900D01*
X816840Y29100D01*
X817860Y33500D01*
X818180Y38000D01*
X817860Y42500D01*
X816840Y46900D01*
X815200Y51100D01*
X812940Y55000D01*
X810120Y58540D01*
X806820Y61600D01*
X803100Y64140D01*
X799020Y66100D01*
X794720Y67440D01*
X790260Y68100D01*
X785740Y68100D01*
X781280Y67440D01*
X776979Y66100D01*
X772900Y64140D01*
X770460Y62500D01*
X759320Y56100D01*
X758360Y55700D01*
X757320Y55560D01*
X744780Y55560D01*
X743000Y56000D01*
X735819Y59580D01*
X734740Y60359D01*
X734000Y61440D01*
X733620Y62699D01*
X733340Y65260D01*
X732600Y67400D01*
X731380Y69340D01*
X729760Y70940D01*
X727840Y72160D01*
X725680Y72920D01*
X723199Y73200D01*
X637040Y73200D01*
X634540Y72920D01*
X632400Y72160D01*
X630460Y70940D01*
X628860Y69340D01*
X627640Y67400D01*
X626880Y65260D01*
X626600Y62760D01*
X626600Y17360D01*
X626300Y15840D01*
X625440Y14540D01*
X624140Y13680D01*
X622600Y13360D01*
X609100Y13360D01*
X605760Y13040D01*
X602720Y12120D01*
X599920Y10620D01*
X597320Y8480D01*
X337819Y-251000D01*
X334580Y-254920D01*
X333040Y-255640D01*
X331340Y-255660D01*
X329799Y-254980D01*
X328660Y-253720D01*
X328160Y-252100D01*
X327939Y-249620D01*
X326940Y-245880D01*
X325319Y-242380D01*
X323100Y-239200D01*
X320360Y-236480D01*
X317200Y-234259D01*
X313680Y-232620D01*
X309960Y-231620D01*
X306100Y-231280D01*
X302240Y-231620D01*
X298520Y-232620D01*
X295000Y-234259D01*
X291840Y-236480D01*
X289100Y-239200D01*
X286880Y-242380D01*
X285260Y-245880D01*
X284260Y-249620D01*
X283920Y-253480D01*
X284260Y-257360D01*
X284100Y-258880D01*
X283360Y-260240D01*
X282180Y-261220D01*
X280220Y-261740D01*
X278060Y-262480D01*
X276140Y-263700D01*
X274520Y-265300D01*
X273320Y-267240D01*
X272560Y-269380D01*
X272280Y-271880D01*
X272280Y-357920D01*
X272000Y-359380D01*
X271220Y-360620D01*
X270040Y-361500D01*
X266160Y-362560D01*
X264620Y-362660D01*
X263160Y-362180D01*
X261980Y-361160D01*
X261280Y-359780D01*
X261180Y-358040D01*
X261180Y-271880D01*
X260900Y-269380D01*
X260140Y-267240D01*
X258939Y-265300D01*
X257320Y-263700D01*
X255400Y-262480D01*
X253240Y-261740D01*
X250760Y-261460D01*
X247280Y-261460D01*
X245840Y-261180D01*
X244579Y-260420D01*
X243700Y-259240D01*
X242659Y-257160D01*
X242280Y-256020D01*
X242280Y-254800D01*
X242620Y-253660D01*
X244100Y-250680D01*
X245219Y-249100D01*
X246840Y-245580D01*
X247840Y-241860D01*
X248180Y-238000D01*
X247840Y-234140D01*
X246840Y-230420D01*
X245219Y-226900D01*
X243000Y-223740D01*
X240260Y-221000D01*
X237100Y-218780D01*
X233580Y-217160D01*
X229860Y-216160D01*
X226000Y-215820D01*
X222140Y-216160D01*
X218420Y-217160D01*
X214899Y-218780D01*
X211740Y-221000D01*
X209000Y-223740D01*
X206780Y-226900D01*
X205159Y-230420D01*
X204160Y-234140D01*
X203820Y-238000D01*
X204160Y-241860D01*
X205159Y-245580D01*
X206780Y-249100D01*
X208240Y-251260D01*
X209380Y-253660D01*
X209720Y-254800D01*
X209720Y-256020D01*
X209340Y-257160D01*
X208299Y-259240D01*
X207420Y-260420D01*
X206160Y-261180D01*
X204720Y-261460D01*
X203960Y-261460D01*
X201480Y-261740D01*
X199320Y-262480D01*
X197399Y-263700D01*
X195780Y-265300D01*
X194579Y-267240D01*
X193820Y-269380D01*
X193540Y-271880D01*
X193540Y-357060D01*
X193240Y-358600D01*
X192360Y-359900D01*
X191060Y-360760D01*
X189540Y-361060D01*
X188000Y-360760D01*
X186700Y-359900D01*
X185560Y-358740D01*
X183900Y-357380D01*
X182820Y-356000D01*
X182440Y-354300D01*
X182440Y-271880D01*
X182160Y-269380D01*
X181400Y-267240D01*
X180200Y-265300D01*
X178580Y-263700D01*
X176660Y-262480D01*
X174500Y-261740D01*
X171960Y-261439D01*
X170680Y-261080D01*
X169600Y-260320D01*
X168820Y-259259D01*
X166400Y-254400D01*
X165980Y-252920D01*
X166160Y-251400D01*
X168840Y-245580D01*
X169840Y-241860D01*
X170180Y-238000D01*
X169840Y-234140D01*
X168840Y-230420D01*
X167220Y-226900D01*
X165000Y-223740D01*
X162260Y-221000D01*
X159100Y-218780D01*
X155580Y-217160D01*
X151860Y-216160D01*
X148000Y-215820D01*
X144140Y-216160D01*
X140420Y-217160D01*
X136900Y-218780D01*
X133740Y-221000D01*
X131000Y-223740D01*
X128780Y-226900D01*
X127160Y-230420D01*
X126160Y-234140D01*
X125820Y-238000D01*
X126160Y-241860D01*
X127160Y-245580D01*
X128800Y-249120D01*
X130180Y-251160D01*
X130760Y-252460D01*
X130840Y-253860D01*
X130440Y-255200D01*
X128420Y-259259D01*
X127640Y-260320D01*
X126560Y-261080D01*
X125280Y-261439D01*
X122739Y-261740D01*
X120580Y-262480D01*
X118660Y-263700D01*
X117040Y-265300D01*
X115840Y-267240D01*
X115079Y-269380D01*
X114800Y-271880D01*
X114800Y-350160D01*
X114500Y-351680D01*
X113620Y-352980D01*
X112320Y-353840D01*
X110800Y-354159D01*
X107700Y-354159D01*
X106180Y-353840D01*
X104880Y-352980D01*
X104000Y-351680D01*
X103699Y-350160D01*
X103699Y-271880D01*
X103420Y-269380D01*
X102660Y-267240D01*
X101460Y-265300D01*
X99840Y-263700D01*
X97920Y-262480D01*
X95760Y-261740D01*
X93280Y-261460D01*
X46480Y-261460D01*
X44000Y-261740D01*
X41840Y-262480D01*
X39920Y-263700D01*
X38300Y-265300D01*
X37100Y-267240D01*
X36340Y-269380D01*
X36060Y-271880D01*
X36060Y-358040D01*
X36340Y-360540D01*
X37100Y-362680D01*
X38300Y-364620D01*
X39920Y-366220D01*
X41840Y-367440D01*
X44000Y-368180D01*
X46480Y-368459D01*
X51000Y-368459D01*
X52440Y-368740D01*
X53680Y-369500D01*
X54560Y-370660D01*
X55860Y-375080D01*
X57260Y-377720D01*
X59140Y-380020D01*
X61520Y-381980D01*
X64140Y-383380D01*
X66600Y-384120D01*
X67960Y-384840D01*
X68940Y-386040D01*
X69420Y-387500D01*
X69280Y-389040D01*
X68580Y-390420D01*
X67160Y-391560D01*
X61360Y-395700D01*
X56000Y-400400D01*
X51160Y-405640D01*
X46880Y-411340D01*
X43200Y-417460D01*
X40180Y-423900D01*
X37840Y-430640D01*
X36200Y-437580D01*
X35280Y-444660D01*
X35100Y-451780D01*
X35660Y-458880D01*
X36940Y-465900D01*
X38920Y-472740D01*
X41620Y-479360D01*
X44960Y-485640D01*
X48940Y-491560D01*
X53500Y-497040D01*
X58620Y-502020D01*
X64200Y-506440D01*
X70220Y-510260D01*
X76600Y-513459D01*
X83280Y-515959D01*
X90160Y-517780D01*
X97220Y-518880D01*
X104340Y-519240D01*
X111460Y-518880D01*
X118500Y-517780D01*
X125399Y-515959D01*
X132060Y-513459D01*
X138440Y-510260D01*
X144460Y-506440D01*
X150040Y-502020D01*
X155160Y-497040D01*
X157500Y-494219D01*
X158900Y-493160D01*
X160620Y-492780D01*
X162340Y-493200D01*
X163700Y-494300D01*
X164460Y-495900D01*
X165159Y-498900D01*
X166800Y-503100D01*
X169060Y-507000D01*
X171880Y-510540D01*
X175180Y-513600D01*
X178900Y-516140D01*
X182979Y-518100D01*
X187280Y-519440D01*
X191740Y-520100D01*
X196260Y-520100D01*
X200720Y-519440D01*
X205020Y-518100D01*
X209100Y-516140D01*
X212820Y-513600D01*
X216119Y-510540D01*
X218939Y-507000D01*
X221200Y-503100D01*
X222840Y-498900D01*
X223860Y-494500D01*
X224180Y-490000D01*
X223860Y-485480D01*
X223619Y-484340D01*
X222460Y-474180D01*
X222500Y-472980D01*
X222880Y-471860D01*
X223600Y-470900D01*
X236320Y-458160D01*
X237620Y-457299D01*
X239160Y-456980D01*
X240680Y-457299D01*
X241980Y-458160D01*
X247680Y-463840D01*
X250120Y-465860D01*
X252760Y-467260D01*
X255600Y-468120D01*
X258760Y-468440D01*
X261280Y-468440D01*
X262800Y-468740D01*
X264100Y-469620D01*
X264980Y-470900D01*
X265280Y-472440D01*
X265280Y-495520D01*
X265560Y-498020D01*
X266320Y-500160D01*
X267520Y-502100D01*
X269140Y-503700D01*
X271060Y-504920D01*
X273220Y-505660D01*
X275700Y-505940D01*
X294940Y-505940D01*
X297420Y-505660D01*
X299580Y-504920D01*
X301500Y-503700D01*
X302180Y-503040D01*
X303480Y-502160D01*
X305000Y-501860D01*
X306540Y-502160D01*
X307840Y-503040D01*
X308500Y-503700D01*
X310440Y-504920D01*
X312580Y-505660D01*
X315080Y-505940D01*
X334300Y-505940D01*
X336800Y-505660D01*
X338940Y-504920D01*
X340880Y-503700D01*
X342480Y-502100D01*
X343700Y-500160D01*
X344460Y-498020D01*
X344739Y-495520D01*
X344739Y-475300D01*
X345040Y-473760D01*
X345900Y-472480D01*
X347200Y-471599D01*
X348740Y-471300D01*
X350260Y-471599D01*
X351560Y-472480D01*
X354400Y-475319D01*
X357020Y-477460D01*
X359799Y-478940D01*
X362840Y-479860D01*
X366200Y-480200D01*
X637800Y-480200D01*
X641160Y-479860D01*
X644200Y-478940D01*
X646979Y-477460D01*
X649800Y-475100D01*
X666240Y-458080D01*
X668139Y-455700D01*
X669640Y-452900D01*
X670560Y-449860D01*
X670900Y-446500D01*
X670900Y-435200D01*
X670980Y-434360D01*
X674460Y-418100D01*
X674720Y-415500D01*
X674720Y-414580D01*
X675040Y-413040D01*
X675900Y-411740D01*
X677200Y-410880D01*
X678720Y-410580D01*
X695340Y-410580D01*
X696780Y-410840D01*
X698020Y-411580D01*
X698900Y-412740D01*
X699320Y-414120D01*
X699560Y-416320D01*
X700320Y-418459D01*
X701540Y-420400D01*
X703139Y-422000D01*
X705080Y-423220D01*
X707220Y-423980D01*
X709720Y-424260D01*
X770280Y-424260D01*
X772780Y-423980D01*
X774920Y-423220D01*
X776860Y-422000D01*
X778460Y-420400D01*
X779680Y-418459D01*
X780440Y-416320D01*
X780920Y-414380D01*
X781800Y-413220D01*
X783040Y-412480D01*
X784460Y-412220D01*
X789020Y-412220D01*
X790560Y-412520D01*
X791860Y-413380D01*
X792720Y-414680D01*
X793020Y-416220D01*
X793020Y-427440D01*
X793300Y-429920D01*
X794060Y-432080D01*
X795280Y-434000D01*
X796880Y-435620D01*
X798820Y-436820D01*
X800960Y-437580D01*
X803460Y-437860D01*
X896540Y-437860D01*
X899040Y-437580D01*
X901180Y-436820D01*
X903120Y-435620D01*
X904720Y-434000D01*
X905939Y-432080D01*
X906700Y-429920D01*
X906979Y-427440D01*
X906979Y-389340D01*
X907260Y-387860D01*
X908060Y-386599D01*
X909260Y-385720D01*
X910699Y-385340D01*
X912200Y-385540D01*
X914020Y-386680D01*
X916660Y-388080D01*
X921060Y-389360D01*
X922220Y-390240D01*
X923000Y-391500D01*
X923259Y-392939D01*
X923259Y-403360D01*
X923540Y-405840D01*
X924300Y-408000D01*
X925520Y-409920D01*
X927120Y-411540D01*
X929060Y-412740D01*
X931200Y-413500D01*
X933680Y-413780D01*
X1051360Y-413780D01*
X1053840Y-413500D01*
X1055980Y-412740D01*
X1057920Y-411540D01*
X1059520Y-409920D01*
X1060740Y-408000D01*
X1061500Y-405840D01*
X1061780Y-403360D01*
X1061780Y-352640D01*
X1062080Y-351100D01*
X1062940Y-349820D01*
X1064240Y-348940D01*
X1065780Y-348640D01*
X1448560Y-348640D01*
X1450080Y-348940D01*
X1451380Y-349820D01*
X1456540Y-354980D01*
X1459160Y-357120D01*
X1461940Y-358600D01*
X1464980Y-359520D01*
X1468340Y-359860D01*
X1815300Y-359860D01*
X1816840Y-360160D01*
X1818140Y-361040D01*
X1819000Y-362320D01*
X1819300Y-363860D01*
X1819000Y-365400D01*
X1818140Y-366680D01*
X1762240Y-422580D01*
X1760220Y-425040D01*
X1758820Y-427660D01*
X1757960Y-430500D01*
X1757760Y-432640D01*
X1757340Y-434060D01*
X1756459Y-435220D01*
X1755200Y-435980D01*
X1750900Y-436540D01*
X1748760Y-437280D01*
X1746819Y-438500D01*
X1745220Y-440120D01*
X1744000Y-442040D01*
X1743240Y-444200D01*
X1742960Y-446680D01*
X1742960Y-513160D01*
X1743240Y-515640D01*
X1744000Y-517800D01*
X1745220Y-519720D01*
X1746819Y-521340D01*
X1748760Y-522560D01*
X1750900Y-523300D01*
X1753380Y-523579D01*
X1792320Y-523579D01*
X1794800Y-523300D01*
X1796940Y-522560D01*
X1798880Y-521340D01*
X1800480Y-519720D01*
X1801699Y-517800D01*
X1802460Y-515640D01*
X1802740Y-513160D01*
X1802740Y-446680D01*
X1802460Y-444200D01*
X1801699Y-442040D01*
X1800480Y-440120D01*
X1798880Y-438500D01*
X1797260Y-437480D01*
X1796200Y-436520D01*
X1795540Y-435240D01*
X1795380Y-433820D01*
X1795740Y-432440D01*
X1796560Y-431260D01*
X1832760Y-395060D01*
X1834199Y-394140D01*
X1835900Y-393900D01*
X1837540Y-394400D01*
X1838820Y-395540D01*
X1839500Y-397100D01*
X1840220Y-400660D01*
X1841940Y-405760D01*
X1844319Y-410600D01*
X1847320Y-415080D01*
X1850880Y-419120D01*
X1854920Y-422680D01*
X1859400Y-425680D01*
X1864240Y-428060D01*
X1869340Y-429780D01*
X1874620Y-430840D01*
X1880000Y-431200D01*
X1885380Y-430840D01*
X1890660Y-429780D01*
X1895760Y-428060D01*
X1900600Y-425680D01*
X1905080Y-422680D01*
X1909120Y-419120D01*
X1912680Y-415080D01*
X1915680Y-410600D01*
X1918060Y-405760D01*
X1919780Y-400660D01*
X1920840Y-395379D01*
X1921200Y-390000D01*
X1920840Y-384620D01*
X1920740Y-384080D01*
X1920780Y-382320D01*
X1921560Y-380760D01*
X1922940Y-379680D01*
X1924660Y-379300D01*
X1999880Y-379300D01*
X2001420Y-379600D01*
X2002720Y-380480D01*
X2003580Y-381760D01*
X2003880Y-383300D01*
X2003880Y-407520D01*
X2003600Y-409000D01*
X2002780Y-410280D01*
X2001540Y-411160D01*
X2000060Y-411520D01*
X1998240Y-411180D01*
X1995760Y-410900D01*
X1985680Y-410900D01*
X1985680Y-427460D01*
X2000040Y-427460D01*
X2001459Y-427720D01*
X2002700Y-428480D01*
X2003580Y-429620D01*
X2004000Y-431000D01*
X2004160Y-432420D01*
X2004920Y-434580D01*
X2006140Y-436500D01*
X2007740Y-438120D01*
X2009680Y-439320D01*
X2011819Y-440080D01*
X2014319Y-440360D01*
X2017040Y-440360D01*
X2018560Y-440660D01*
X2019860Y-441540D01*
X2020720Y-442819D01*
X2021040Y-444360D01*
X2020720Y-445880D01*
X2019860Y-447180D01*
X2013000Y-454040D01*
X2011699Y-454900D01*
X2010180Y-455220D01*
X2008640Y-454900D01*
X2007360Y-454040D01*
X2006480Y-452740D01*
X2006180Y-451220D01*
X2006180Y-450180D01*
X1985680Y-450180D01*
X1985680Y-469799D01*
X1985380Y-471340D01*
X1984520Y-472620D01*
X1983220Y-473500D01*
X1981680Y-473800D01*
X1959100Y-473800D01*
X1957560Y-473500D01*
X1956260Y-472620D01*
X1955400Y-471340D01*
X1955100Y-469799D01*
X1955100Y-450180D01*
X1934600Y-450180D01*
X1934600Y-456300D01*
X1934880Y-458800D01*
X1935640Y-460940D01*
X1936840Y-462879D01*
X1938460Y-464480D01*
X1940380Y-465700D01*
X1941320Y-466019D01*
X1942680Y-466840D01*
X1943620Y-468120D01*
X1943980Y-469680D01*
X1943720Y-471240D01*
X1942860Y-472580D01*
X1941560Y-473480D01*
X1940000Y-473800D01*
X1923080Y-473800D01*
X1921579Y-473500D01*
X1920300Y-472680D01*
X1919420Y-471420D01*
X1918700Y-469799D01*
X1915800Y-465020D01*
X1912320Y-460640D01*
X1908300Y-456760D01*
X1903820Y-453420D01*
X1898940Y-450660D01*
X1893760Y-448560D01*
X1888340Y-447140D01*
X1882800Y-446440D01*
X1877200Y-446440D01*
X1871660Y-447140D01*
X1866240Y-448560D01*
X1861060Y-450660D01*
X1856180Y-453420D01*
X1851699Y-456760D01*
X1847680Y-460640D01*
X1844199Y-465020D01*
X1841300Y-469799D01*
X1839040Y-474920D01*
X1837440Y-480280D01*
X1836540Y-485800D01*
X1836360Y-491400D01*
X1836900Y-496960D01*
X1838140Y-502420D01*
X1840080Y-507680D01*
X1842660Y-512640D01*
X1845860Y-517220D01*
X1849620Y-521360D01*
X1853880Y-524980D01*
X1858580Y-528040D01*
X1863620Y-530460D01*
X1868240Y-532000D01*
X1869640Y-532800D01*
X1870600Y-534080D01*
X1870980Y-535640D01*
X1870740Y-537220D01*
X1869880Y-538560D01*
X1868560Y-539480D01*
X1866980Y-539800D01*
G37*

%LPC*%
G36*
X1639540Y-523579D02*
G01*
X1646660Y-523579D01*
X1649139Y-523300D01*
X1651300Y-522560D01*
X1653220Y-521340D01*
X1654840Y-519720D01*
X1656060Y-517800D01*
X1656800Y-515640D01*
X1657080Y-513160D01*
X1657080Y-499159D01*
X1639540Y-499159D01*
G37*
G36*
X1607740Y-523579D02*
G01*
X1614860Y-523579D01*
X1614860Y-499159D01*
X1597320Y-499159D01*
X1597320Y-513160D01*
X1597600Y-515640D01*
X1598340Y-517800D01*
X1599560Y-519720D01*
X1601180Y-521340D01*
X1603100Y-522560D01*
X1605260Y-523300D01*
G37*
G36*
X1451579Y-519240D02*
G01*
X1458700Y-518880D01*
X1465740Y-517780D01*
X1472640Y-515959D01*
X1479300Y-513459D01*
X1485680Y-510260D01*
X1491699Y-506440D01*
X1497300Y-502020D01*
X1502400Y-497040D01*
X1506960Y-491560D01*
X1510940Y-485640D01*
X1514300Y-479360D01*
X1516980Y-472740D01*
X1518980Y-465900D01*
X1520260Y-458880D01*
X1520800Y-451780D01*
X1520620Y-444660D01*
X1519700Y-437580D01*
X1518060Y-430640D01*
X1515720Y-423900D01*
X1512700Y-417460D01*
X1509019Y-411340D01*
X1504760Y-405640D01*
X1499900Y-400400D01*
X1494560Y-395700D01*
X1488740Y-391560D01*
X1482540Y-388060D01*
X1476000Y-385200D01*
X1469220Y-383020D01*
X1462240Y-381580D01*
X1455140Y-380840D01*
X1448020Y-380840D01*
X1440920Y-381580D01*
X1433940Y-383020D01*
X1427140Y-385200D01*
X1420620Y-388060D01*
X1414400Y-391560D01*
X1408600Y-395700D01*
X1403240Y-400400D01*
X1398400Y-405640D01*
X1394120Y-411340D01*
X1390440Y-417460D01*
X1387420Y-423900D01*
X1385080Y-430640D01*
X1384620Y-432580D01*
X1383920Y-434080D01*
X1382680Y-435160D01*
X1381100Y-435640D01*
X1379460Y-435460D01*
X1378040Y-434620D01*
X1377080Y-433280D01*
X1376740Y-431659D01*
X1376740Y-423500D01*
X1376459Y-421000D01*
X1375700Y-418860D01*
X1374480Y-416920D01*
X1372880Y-415319D01*
X1370940Y-414099D01*
X1368800Y-413340D01*
X1366320Y-413060D01*
X1339500Y-413060D01*
X1339500Y-435540D01*
X1379160Y-435540D01*
X1380820Y-435880D01*
X1382160Y-436900D01*
X1382980Y-438360D01*
X1383120Y-440040D01*
X1382540Y-444660D01*
X1382340Y-451780D01*
X1382900Y-458880D01*
X1384079Y-465340D01*
X1384040Y-466260D01*
X1384580Y-467280D01*
X1386160Y-472740D01*
X1388860Y-479360D01*
X1392200Y-485640D01*
X1396180Y-491560D01*
X1400760Y-497040D01*
X1405860Y-502020D01*
X1411459Y-506440D01*
X1417460Y-510260D01*
X1423839Y-513459D01*
X1430520Y-515959D01*
X1437400Y-517780D01*
X1444460Y-518880D01*
G37*
G36*
X1339500Y-492520D02*
G01*
X1366320Y-492520D01*
X1368800Y-492239D01*
X1370940Y-491480D01*
X1372880Y-490280D01*
X1374480Y-488660D01*
X1375700Y-486740D01*
X1376459Y-484580D01*
X1376740Y-482100D01*
X1376740Y-470060D01*
X1339500Y-470060D01*
G37*
G36*
X1248640Y-492520D02*
G01*
X1275460Y-492520D01*
X1275460Y-470060D01*
X1238220Y-470060D01*
X1238220Y-482100D01*
X1238500Y-484580D01*
X1239260Y-486740D01*
X1240480Y-488660D01*
X1242080Y-490280D01*
X1244020Y-491480D01*
X1246160Y-492239D01*
G37*
G36*
X1151240Y-492500D02*
G01*
X1156220Y-491980D01*
X1161060Y-490780D01*
X1165680Y-488900D01*
X1170000Y-486400D01*
X1173940Y-483340D01*
X1177420Y-479739D01*
X1180340Y-475700D01*
X1182680Y-471300D01*
X1184400Y-466599D01*
X1185440Y-461719D01*
X1185780Y-456740D01*
X1185440Y-451760D01*
X1184400Y-446880D01*
X1182680Y-442180D01*
X1180340Y-437780D01*
X1177420Y-433740D01*
X1173940Y-430140D01*
X1170000Y-427080D01*
X1165680Y-424580D01*
X1161060Y-422720D01*
X1156220Y-421500D01*
X1151240Y-420980D01*
X1146260Y-421160D01*
X1141340Y-422020D01*
X1136600Y-423560D01*
X1132100Y-425760D01*
X1127980Y-428540D01*
X1124260Y-431880D01*
X1121060Y-435700D01*
X1118400Y-439940D01*
X1116380Y-444500D01*
X1115000Y-449300D01*
X1114300Y-454240D01*
X1114300Y-459240D01*
X1115000Y-464180D01*
X1116380Y-468980D01*
X1118400Y-473540D01*
X1121060Y-477780D01*
X1124260Y-481599D01*
X1127980Y-484940D01*
X1132100Y-487720D01*
X1136600Y-489920D01*
X1141340Y-491460D01*
X1146260Y-492320D01*
G37*
G36*
X1597320Y-460680D02*
G01*
X1614860Y-460680D01*
X1614860Y-436260D01*
X1607740Y-436260D01*
X1605260Y-436540D01*
X1603100Y-437280D01*
X1601180Y-438500D01*
X1599560Y-440120D01*
X1598340Y-442040D01*
X1597600Y-444200D01*
X1597320Y-446680D01*
G37*
G36*
X1639540Y-460680D02*
G01*
X1657080Y-460680D01*
X1657080Y-446680D01*
X1656800Y-444200D01*
X1656060Y-442040D01*
X1654840Y-440120D01*
X1653220Y-438500D01*
X1651300Y-437280D01*
X1649139Y-436540D01*
X1646660Y-436260D01*
X1639540Y-436260D01*
G37*
G36*
X1238220Y-435540D02*
G01*
X1275460Y-435540D01*
X1275460Y-413060D01*
X1248640Y-413060D01*
X1246160Y-413340D01*
X1244020Y-414099D01*
X1242080Y-415319D01*
X1240480Y-416920D01*
X1239260Y-418860D01*
X1238500Y-421000D01*
X1238220Y-423500D01*
G37*
G36*
X1934600Y-427460D02*
G01*
X1955100Y-427460D01*
X1955100Y-410900D01*
X1945020Y-410900D01*
X1942540Y-411180D01*
X1940380Y-411940D01*
X1938460Y-413140D01*
X1936840Y-414760D01*
X1935640Y-416680D01*
X1934880Y-418840D01*
X1934600Y-421320D01*
G37*
G36*
X895280Y35380D02*
G01*
X907900Y35380D01*
X907900Y69620D01*
X895280Y69620D01*
X895280Y64480D01*
X895560Y61980D01*
X896300Y59840D01*
X897520Y57900D01*
X899120Y56300D01*
X899780Y55880D01*
X900939Y54780D01*
X901580Y53300D01*
X901580Y51700D01*
X900939Y50220D01*
X899780Y49120D01*
X899120Y48700D01*
X897520Y47080D01*
X896300Y45160D01*
X895560Y43000D01*
X895280Y40519D01*
G37*
G36*
X637040Y84280D02*
G01*
X723199Y84280D01*
X725680Y84560D01*
X727840Y85320D01*
X729760Y86540D01*
X731380Y88140D01*
X732600Y90079D01*
X733340Y92220D01*
X733620Y94780D01*
X734000Y96039D01*
X734740Y97120D01*
X735819Y97899D01*
X743000Y101480D01*
X744780Y101900D01*
X755620Y101900D01*
X756900Y101700D01*
X758040Y101100D01*
X767480Y93960D01*
X769180Y92400D01*
X772900Y89860D01*
X776979Y87899D01*
X781280Y86560D01*
X785740Y85900D01*
X790260Y85900D01*
X794720Y86560D01*
X799020Y87899D01*
X803100Y89860D01*
X806820Y92400D01*
X810120Y95460D01*
X812940Y99000D01*
X815200Y102899D01*
X816840Y107100D01*
X817860Y111500D01*
X818180Y116000D01*
X817860Y120500D01*
X816840Y124900D01*
X815200Y129100D01*
X812940Y133000D01*
X810120Y136540D01*
X806820Y139600D01*
X803100Y142140D01*
X799020Y144100D01*
X794720Y145440D01*
X790260Y146100D01*
X785740Y146100D01*
X781280Y145440D01*
X776979Y144100D01*
X772900Y142140D01*
X771120Y140960D01*
X759640Y134780D01*
X758720Y134440D01*
X757740Y134300D01*
X744780Y134300D01*
X743000Y134740D01*
X735819Y138320D01*
X734740Y139100D01*
X734000Y140180D01*
X733620Y141460D01*
X733340Y144000D01*
X732600Y146140D01*
X731380Y148080D01*
X729760Y149680D01*
X727840Y150900D01*
X725680Y151660D01*
X723199Y151940D01*
X637040Y151940D01*
X634540Y151660D01*
X632400Y150900D01*
X630460Y149680D01*
X628860Y148080D01*
X627640Y146140D01*
X626880Y144000D01*
X626600Y141500D01*
X626600Y94720D01*
X626880Y92220D01*
X627640Y90079D01*
X628860Y88140D01*
X630460Y86540D01*
X632400Y85320D01*
X634540Y84560D01*
G37*
G36*
X895280Y90380D02*
G01*
X907900Y90380D01*
X907900Y105940D01*
X905699Y105940D01*
X903199Y105660D01*
X901060Y104920D01*
X899120Y103699D01*
X897520Y102080D01*
X896300Y100160D01*
X895560Y98000D01*
X895280Y95520D01*
G37*

%LPD*%
G36*
X1893020Y-539800D02*
G01*
X1891440Y-539480D01*
X1890120Y-538560D01*
X1889259Y-537220D01*
X1889019Y-535640D01*
X1889400Y-534080D01*
X1890360Y-532800D01*
X1891759Y-532000D01*
X1896380Y-530460D01*
X1901420Y-528040D01*
X1906120Y-524980D01*
X1910380Y-521360D01*
X1914139Y-517220D01*
X1917340Y-512640D01*
X1919560Y-508340D01*
X1920460Y-507220D01*
X1921699Y-506460D01*
X1923120Y-506200D01*
X1930600Y-506200D01*
X1932120Y-506500D01*
X1933420Y-507380D01*
X1934300Y-508660D01*
X1934600Y-510200D01*
X1934600Y-514080D01*
X1955100Y-514080D01*
X1955100Y-510200D01*
X1955400Y-508660D01*
X1956260Y-507380D01*
X1957560Y-506500D01*
X1959100Y-506200D01*
X1981680Y-506200D01*
X1983220Y-506500D01*
X1984520Y-507380D01*
X1985380Y-508660D01*
X1985680Y-510200D01*
X1985680Y-514080D01*
X2006180Y-514080D01*
X2006160Y-507800D01*
X2006300Y-506220D01*
X2007040Y-504840D01*
X2008260Y-503820D01*
X2008940Y-503459D01*
X2011560Y-501320D01*
X2026980Y-485900D01*
X2028380Y-484980D01*
X2030060Y-484739D01*
X2031680Y-485180D01*
X2032960Y-486280D01*
X2033700Y-487800D01*
X2034400Y-490740D01*
X2036080Y-494780D01*
X2038360Y-498519D01*
X2041200Y-501860D01*
X2044540Y-504700D01*
X2048280Y-506980D01*
X2052320Y-508660D01*
X2056579Y-509680D01*
X2060940Y-510020D01*
X2065300Y-509680D01*
X2069560Y-508660D01*
X2073600Y-506980D01*
X2077340Y-504700D01*
X2080680Y-501860D01*
X2083520Y-498519D01*
X2085800Y-494780D01*
X2087480Y-490740D01*
X2088500Y-486480D01*
X2088839Y-482120D01*
X2088500Y-477760D01*
X2087480Y-473500D01*
X2085800Y-469460D01*
X2083520Y-465720D01*
X2082940Y-465040D01*
X2082180Y-463720D01*
X2081980Y-462239D01*
X2082340Y-460760D01*
X2083220Y-459540D01*
X2084500Y-458720D01*
X2085980Y-458440D01*
X2154020Y-458440D01*
X2155500Y-458720D01*
X2156760Y-459540D01*
X2157640Y-460760D01*
X2158000Y-462239D01*
X2157800Y-463720D01*
X2157060Y-465040D01*
X2156480Y-465720D01*
X2154180Y-469460D01*
X2152520Y-473500D01*
X2151480Y-477760D01*
X2151140Y-482120D01*
X2151480Y-486480D01*
X2152520Y-490740D01*
X2154180Y-494780D01*
X2156480Y-498519D01*
X2159320Y-501860D01*
X2162640Y-504700D01*
X2166380Y-506980D01*
X2170420Y-508660D01*
X2174680Y-509680D01*
X2179060Y-510020D01*
X2183420Y-509680D01*
X2187680Y-508660D01*
X2191720Y-506980D01*
X2195460Y-504700D01*
X2198780Y-501860D01*
X2201620Y-498519D01*
X2203920Y-494780D01*
X2205580Y-490740D01*
X2206620Y-486480D01*
X2206960Y-482120D01*
X2206620Y-477760D01*
X2205580Y-473500D01*
X2203920Y-469460D01*
X2201620Y-465720D01*
X2201040Y-465040D01*
X2200300Y-463720D01*
X2200100Y-462239D01*
X2200460Y-460760D01*
X2201340Y-459540D01*
X2202600Y-458720D01*
X2204080Y-458440D01*
X2208320Y-458440D01*
X2211660Y-458100D01*
X2214700Y-457180D01*
X2217500Y-455700D01*
X2219960Y-453680D01*
X2222040Y-451160D01*
X2223520Y-448360D01*
X2224440Y-445319D01*
X2224600Y-443700D01*
X2225140Y-442080D01*
X2226300Y-440820D01*
X2227880Y-440160D01*
X2228780Y-440000D01*
X2230720Y-439320D01*
X2232640Y-438120D01*
X2234260Y-436500D01*
X2235460Y-434580D01*
X2236220Y-432420D01*
X2236380Y-431000D01*
X2236800Y-429620D01*
X2237680Y-428480D01*
X2238920Y-427720D01*
X2240360Y-427460D01*
X2254300Y-427460D01*
X2254300Y-410900D01*
X2244240Y-410900D01*
X2240260Y-411380D01*
X2238800Y-411000D01*
X2237580Y-410120D01*
X2236780Y-408860D01*
X2236500Y-407380D01*
X2236500Y-379200D01*
X2236220Y-376719D01*
X2235460Y-374560D01*
X2234260Y-372640D01*
X2232640Y-371019D01*
X2230280Y-369560D01*
X2229220Y-368600D01*
X2228580Y-367320D01*
X2228420Y-365900D01*
X2228760Y-364520D01*
X2229580Y-363340D01*
X2316000Y-276900D01*
X2317260Y-276060D01*
X2318720Y-275740D01*
X2320220Y-275980D01*
X2322580Y-276860D01*
X2328040Y-278100D01*
X2333600Y-278640D01*
X2339200Y-278460D01*
X2344720Y-277560D01*
X2350080Y-275980D01*
X2355200Y-273700D01*
X2359980Y-270800D01*
X2364360Y-267320D01*
X2368240Y-263300D01*
X2371580Y-258820D01*
X2374340Y-253939D01*
X2376440Y-248760D01*
X2377860Y-243340D01*
X2378560Y-237800D01*
X2378560Y-232200D01*
X2377860Y-226660D01*
X2376440Y-221240D01*
X2374340Y-216060D01*
X2371580Y-211180D01*
X2368240Y-206700D01*
X2364360Y-202680D01*
X2359980Y-199200D01*
X2355200Y-196300D01*
X2350080Y-194040D01*
X2344720Y-192440D01*
X2339200Y-191540D01*
X2333600Y-191360D01*
X2328040Y-191900D01*
X2322580Y-193140D01*
X2320220Y-194020D01*
X2318720Y-194259D01*
X2317260Y-193939D01*
X2316000Y-193100D01*
X2287900Y-165000D01*
X2287040Y-163700D01*
X2286740Y-162160D01*
X2286740Y-115980D01*
X2287080Y-114340D01*
X2288080Y-112980D01*
X2289560Y-112160D01*
X2291240Y-112020D01*
X2292820Y-112579D01*
X2294040Y-113760D01*
X2296580Y-117500D01*
X2299920Y-121220D01*
X2303740Y-124420D01*
X2307980Y-127060D01*
X2309480Y-127739D01*
X2309480Y-110760D01*
X2290740Y-110760D01*
X2289200Y-110460D01*
X2287900Y-109600D01*
X2287040Y-108300D01*
X2286740Y-106760D01*
X2286740Y-84179D01*
X2287040Y-82640D01*
X2287900Y-81359D01*
X2289200Y-80480D01*
X2290740Y-80180D01*
X2309480Y-80180D01*
X2309480Y-73260D01*
X2309780Y-71720D01*
X2310640Y-70420D01*
X2311940Y-69560D01*
X2313480Y-69260D01*
X2336060Y-69260D01*
X2337600Y-69560D01*
X2338900Y-70420D01*
X2339760Y-71720D01*
X2340060Y-73260D01*
X2340060Y-80180D01*
X2357080Y-80180D01*
X2356940Y-79780D01*
X2354440Y-75460D01*
X2351360Y-71540D01*
X2347700Y-68000D01*
X2346840Y-66760D01*
X2346500Y-65300D01*
X2346720Y-63800D01*
X2347580Y-61320D01*
X2347860Y-58840D01*
X2347860Y-45439D01*
X2348140Y-44020D01*
X2348900Y-42760D01*
X2350060Y-41880D01*
X2354600Y-40540D01*
X2357400Y-39040D01*
X2360000Y-36900D01*
X2378320Y-18600D01*
X2380460Y-15980D01*
X2381940Y-13200D01*
X2382860Y-10160D01*
X2383200Y-6800D01*
X2383200Y110760D01*
X2383580Y112460D01*
X2384640Y113840D01*
X2386180Y114640D01*
X2387900Y114700D01*
X2389500Y114040D01*
X2393580Y111160D01*
X2397920Y108920D01*
X2402520Y107280D01*
X2405740Y106600D01*
X2405740Y126440D01*
X2387200Y126440D01*
X2385660Y126740D01*
X2384380Y127600D01*
X2383500Y128900D01*
X2383200Y130440D01*
X2383200Y138800D01*
X2382860Y142160D01*
X2381940Y145200D01*
X2380460Y147980D01*
X2378400Y150480D01*
X2377680Y151800D01*
X2377500Y153280D01*
X2378060Y154980D01*
X2377640Y154720D01*
X2376120Y154420D01*
X2374600Y154740D01*
X2373320Y155600D01*
X2351700Y177200D01*
X2350800Y178600D01*
X2350540Y180240D01*
X2350960Y181840D01*
X2352000Y183120D01*
X2353480Y183880D01*
X2355140Y183980D01*
X2355740Y183900D01*
X2360260Y183900D01*
X2364720Y184560D01*
X2369020Y185900D01*
X2373100Y187860D01*
X2376820Y190400D01*
X2380120Y193460D01*
X2382940Y197000D01*
X2385200Y200900D01*
X2386840Y205100D01*
X2387860Y209500D01*
X2388180Y214000D01*
X2387860Y218500D01*
X2386840Y222900D01*
X2385200Y227100D01*
X2382940Y231000D01*
X2380120Y234540D01*
X2376820Y237600D01*
X2373100Y240140D01*
X2369020Y242100D01*
X2364720Y243440D01*
X2361260Y243960D01*
X2349240Y246580D01*
X2348160Y246980D01*
X2347260Y247659D01*
X2345380Y249540D01*
X2344500Y250840D01*
X2344200Y252360D01*
X2344200Y264500D01*
X2344500Y266020D01*
X2345380Y267320D01*
X2346660Y268200D01*
X2348200Y268500D01*
X2352640Y268500D01*
X2352640Y284080D01*
X2348200Y284080D01*
X2346660Y284380D01*
X2345380Y285240D01*
X2344500Y286540D01*
X2344200Y288080D01*
X2344200Y291800D01*
X2343860Y295160D01*
X2342940Y298200D01*
X2342560Y298940D01*
X2342100Y300500D01*
X2342300Y302120D01*
X2343140Y303540D01*
X2344480Y304480D01*
X2346080Y304820D01*
X2352640Y304820D01*
X2352640Y319600D01*
X2352940Y321140D01*
X2353820Y322440D01*
X2355120Y323300D01*
X2356640Y323600D01*
X2371360Y323600D01*
X2372880Y323300D01*
X2374180Y322440D01*
X2375060Y321140D01*
X2375360Y319600D01*
X2375360Y304820D01*
X2391920Y304820D01*
X2391920Y309960D01*
X2391640Y312460D01*
X2390880Y314600D01*
X2389680Y316540D01*
X2386560Y319560D01*
X2385960Y321220D01*
X2386160Y322980D01*
X2387080Y324500D01*
X2388560Y325460D01*
X2396180Y328220D01*
X2397780Y328459D01*
X2399340Y328040D01*
X2403900Y325760D01*
X2405120Y324820D01*
X2405900Y323500D01*
X2406320Y322280D01*
X2407540Y320340D01*
X2409140Y318740D01*
X2411080Y317520D01*
X2413220Y316760D01*
X2415720Y316480D01*
X2476280Y316480D01*
X2478780Y316760D01*
X2480920Y317520D01*
X2484260Y319720D01*
X2485800Y320020D01*
X2487340Y319720D01*
X2488620Y318840D01*
X2489500Y317540D01*
X2489800Y316020D01*
X2489800Y297980D01*
X2489500Y296460D01*
X2488620Y295160D01*
X2487340Y294280D01*
X2485800Y293980D01*
X2484260Y294280D01*
X2480920Y296480D01*
X2478780Y297240D01*
X2476280Y297520D01*
X2463760Y297520D01*
X2463760Y279980D01*
X2485800Y279980D01*
X2487340Y279660D01*
X2488620Y278800D01*
X2489500Y277500D01*
X2489800Y275980D01*
X2489800Y259280D01*
X2489500Y257760D01*
X2488620Y256460D01*
X2487340Y255600D01*
X2485800Y255280D01*
X2463760Y255280D01*
X2463760Y237740D01*
X2476280Y237740D01*
X2478780Y238020D01*
X2480920Y238780D01*
X2484260Y240980D01*
X2485800Y241280D01*
X2487340Y240980D01*
X2488620Y240100D01*
X2489500Y238800D01*
X2489800Y237280D01*
X2489800Y-535800D01*
X2489500Y-537340D01*
X2488620Y-538620D01*
X2487340Y-539500D01*
X2485800Y-539800D01*
X2309400Y-539800D01*
X2307680Y-539420D01*
X2306300Y-538340D01*
X2305520Y-536780D01*
X2284780Y-536780D01*
X2283980Y-538340D01*
X2282600Y-539420D01*
X2280900Y-539800D01*
X2258300Y-539800D01*
X2256600Y-539420D01*
X2255220Y-538340D01*
X2254420Y-536780D01*
X2233680Y-536780D01*
X2232900Y-538340D01*
X2231520Y-539420D01*
X2229800Y-539800D01*
X2010180Y-539800D01*
X2008480Y-539420D01*
X2007100Y-538340D01*
X2006300Y-536780D01*
X1985560Y-536780D01*
X1984760Y-538340D01*
X1983380Y-539420D01*
X1981680Y-539800D01*
X1959100Y-539800D01*
X1957380Y-539420D01*
X1956000Y-538340D01*
X1955220Y-536780D01*
X1934480Y-536780D01*
X1934300Y-537340D01*
X1933420Y-538620D01*
X1932120Y-539500D01*
X1930600Y-539800D01*
G37*

%LPC*%
G36*
X2338000Y-525180D02*
G01*
X2341860Y-524840D01*
X2345580Y-523840D01*
X2349100Y-522220D01*
X2352260Y-520000D01*
X2355000Y-517260D01*
X2357220Y-514099D01*
X2358660Y-511000D01*
X2359680Y-509660D01*
X2361160Y-508860D01*
X2362840Y-508740D01*
X2364420Y-509320D01*
X2365900Y-510260D01*
X2372280Y-513440D01*
X2378940Y-515959D01*
X2385840Y-517780D01*
X2392880Y-518880D01*
X2400000Y-519240D01*
X2407120Y-518880D01*
X2414180Y-517780D01*
X2421060Y-515959D01*
X2427740Y-513440D01*
X2434120Y-510260D01*
X2440120Y-506440D01*
X2445720Y-502020D01*
X2450820Y-497040D01*
X2455400Y-491560D01*
X2459380Y-485640D01*
X2462720Y-479360D01*
X2465420Y-472740D01*
X2467400Y-465900D01*
X2468680Y-458880D01*
X2469240Y-451780D01*
X2469040Y-444660D01*
X2468140Y-437580D01*
X2466500Y-430640D01*
X2464160Y-423900D01*
X2461140Y-417440D01*
X2457460Y-411340D01*
X2453180Y-405640D01*
X2448340Y-400400D01*
X2442980Y-395700D01*
X2437180Y-391560D01*
X2430960Y-388060D01*
X2424440Y-385200D01*
X2417640Y-383020D01*
X2410660Y-381580D01*
X2403560Y-380840D01*
X2396440Y-380840D01*
X2389340Y-381580D01*
X2382360Y-383020D01*
X2375580Y-385200D01*
X2369040Y-388060D01*
X2362840Y-391560D01*
X2357020Y-395700D01*
X2351680Y-400400D01*
X2346820Y-405640D01*
X2342560Y-411340D01*
X2338880Y-417440D01*
X2335860Y-423900D01*
X2333520Y-430640D01*
X2331880Y-437580D01*
X2330960Y-444660D01*
X2330780Y-451780D01*
X2331320Y-458880D01*
X2332600Y-465900D01*
X2334600Y-472740D01*
X2335940Y-476019D01*
X2336220Y-477680D01*
X2335800Y-479300D01*
X2334760Y-480620D01*
X2333260Y-481400D01*
X2330420Y-482160D01*
X2326900Y-483780D01*
X2323740Y-486000D01*
X2321000Y-488740D01*
X2318780Y-491900D01*
X2317160Y-495420D01*
X2316160Y-499140D01*
X2315820Y-503000D01*
X2316160Y-506860D01*
X2317160Y-510580D01*
X2318780Y-514099D01*
X2321000Y-517260D01*
X2323740Y-520000D01*
X2326900Y-522220D01*
X2330420Y-523840D01*
X2334140Y-524840D01*
G37*
G36*
X2284900Y-514080D02*
G01*
X2305400Y-514080D01*
X2305400Y-507939D01*
X2305120Y-505460D01*
X2304360Y-503300D01*
X2303140Y-501380D01*
X2301540Y-499760D01*
X2299600Y-498540D01*
X2297460Y-497800D01*
X2294960Y-497520D01*
X2284900Y-497520D01*
G37*
G36*
X2233800Y-514080D02*
G01*
X2254300Y-514080D01*
X2254300Y-497520D01*
X2244240Y-497520D01*
X2241740Y-497800D01*
X2239600Y-498540D01*
X2237660Y-499760D01*
X2236060Y-501380D01*
X2234840Y-503300D01*
X2234080Y-505460D01*
X2233800Y-507939D01*
G37*
G36*
X2284900Y-466740D02*
G01*
X2294960Y-466740D01*
X2297460Y-466460D01*
X2299600Y-465700D01*
X2301540Y-464480D01*
X2303140Y-462879D01*
X2304360Y-460940D01*
X2305120Y-458800D01*
X2305400Y-456300D01*
X2305400Y-450180D01*
X2284900Y-450180D01*
G37*
G36*
X2244240Y-466740D02*
G01*
X2254300Y-466740D01*
X2254300Y-450180D01*
X2233800Y-450180D01*
X2233800Y-456300D01*
X2234080Y-458800D01*
X2234840Y-460940D01*
X2236060Y-462879D01*
X2237660Y-464480D01*
X2239600Y-465700D01*
X2241740Y-466460D01*
G37*
G36*
X2284900Y-427460D02*
G01*
X2305400Y-427460D01*
X2305400Y-421320D01*
X2305120Y-418840D01*
X2304360Y-416680D01*
X2303140Y-414760D01*
X2301540Y-413140D01*
X2299600Y-411940D01*
X2297460Y-411180D01*
X2294960Y-410900D01*
X2284900Y-410900D01*
G37*
G36*
X2413500Y-361400D02*
G01*
X2413500Y-346500D01*
X2398560Y-346500D01*
X2398800Y-347100D01*
X2401060Y-351000D01*
X2403880Y-354540D01*
X2407180Y-357600D01*
X2410900Y-360140D01*
G37*
G36*
X2438500Y-361400D02*
G01*
X2441100Y-360140D01*
X2444820Y-357600D01*
X2448120Y-354540D01*
X2450940Y-351000D01*
X2453200Y-347100D01*
X2453440Y-346500D01*
X2438500Y-346500D01*
G37*
G36*
X2438500Y-321500D02*
G01*
X2453440Y-321500D01*
X2453200Y-320900D01*
X2450940Y-317000D01*
X2448120Y-313460D01*
X2444820Y-310400D01*
X2441100Y-307860D01*
X2438500Y-306600D01*
G37*
G36*
X2398560Y-321500D02*
G01*
X2413500Y-321500D01*
X2413500Y-306600D01*
X2410900Y-307860D01*
X2407180Y-310400D01*
X2403880Y-313460D01*
X2401060Y-317000D01*
X2398800Y-320900D01*
G37*
G36*
X2401760Y-276200D02*
G01*
X2415760Y-276200D01*
X2415760Y-253000D01*
X2391340Y-253000D01*
X2391340Y-265780D01*
X2391620Y-268260D01*
X2392360Y-270420D01*
X2393580Y-272340D01*
X2395200Y-273960D01*
X2397120Y-275160D01*
X2399280Y-275920D01*
G37*
G36*
X2454240Y-276200D02*
G01*
X2468240Y-276200D01*
X2470720Y-275920D01*
X2472880Y-275160D01*
X2474800Y-273960D01*
X2476420Y-272340D01*
X2477640Y-270420D01*
X2478380Y-268260D01*
X2478660Y-265780D01*
X2478660Y-253000D01*
X2454240Y-253000D01*
G37*
G36*
X2454240Y-217000D02*
G01*
X2478660Y-217000D01*
X2478660Y-204220D01*
X2478380Y-201740D01*
X2477640Y-199579D01*
X2476420Y-197659D01*
X2474800Y-196040D01*
X2472880Y-194840D01*
X2470720Y-194080D01*
X2468240Y-193800D01*
X2454240Y-193800D01*
G37*
G36*
X2391340Y-217000D02*
G01*
X2415760Y-217000D01*
X2415760Y-193800D01*
X2401760Y-193800D01*
X2399280Y-194080D01*
X2397120Y-194840D01*
X2395200Y-196040D01*
X2393580Y-197659D01*
X2392360Y-199579D01*
X2391620Y-201740D01*
X2391340Y-204220D01*
G37*
G36*
X2454040Y-176860D02*
G01*
X2457260Y-176180D01*
X2461860Y-174560D01*
X2466200Y-172300D01*
X2470200Y-169480D01*
X2473760Y-166160D01*
X2476840Y-162360D01*
X2479380Y-158200D01*
X2479880Y-157020D01*
X2454040Y-157020D01*
G37*
G36*
X2405740Y-176860D02*
G01*
X2405740Y-157020D01*
X2379900Y-157020D01*
X2380400Y-158200D01*
X2382940Y-162360D01*
X2386020Y-166160D01*
X2389600Y-169480D01*
X2393580Y-172300D01*
X2397920Y-174560D01*
X2402520Y-176180D01*
G37*
G36*
X2340060Y-127739D02*
G01*
X2341580Y-127060D01*
X2345800Y-124420D01*
X2349620Y-121220D01*
X2352960Y-117500D01*
X2355760Y-113360D01*
X2357020Y-110760D01*
X2340060Y-110760D01*
G37*
G36*
X2379900Y-126440D02*
G01*
X2405740Y-126440D01*
X2405740Y-106620D01*
X2402520Y-107280D01*
X2397920Y-108920D01*
X2393580Y-111160D01*
X2389600Y-113980D01*
X2386020Y-117320D01*
X2382940Y-121100D01*
X2380400Y-125280D01*
G37*
G36*
X2454040Y-126440D02*
G01*
X2479880Y-126440D01*
X2479380Y-125280D01*
X2476840Y-121100D01*
X2473760Y-117320D01*
X2470200Y-113980D01*
X2466200Y-111160D01*
X2461860Y-108920D01*
X2457260Y-107280D01*
X2454040Y-106620D01*
G37*
G36*
X2454040Y106600D02*
G01*
X2457260Y107280D01*
X2461860Y108920D01*
X2466200Y111160D01*
X2470200Y113980D01*
X2473760Y117300D01*
X2476840Y121100D01*
X2479380Y125260D01*
X2479880Y126440D01*
X2454040Y126440D01*
G37*
G36*
X2379540Y156440D02*
G01*
X2380020Y156740D01*
X2381500Y157020D01*
X2405740Y157020D01*
X2405740Y176860D01*
X2402520Y176180D01*
X2397920Y174540D01*
X2393580Y172300D01*
X2389600Y169480D01*
X2386020Y166160D01*
X2382940Y162360D01*
X2380400Y158200D01*
G37*
G36*
X2454040Y157020D02*
G01*
X2479880Y157020D01*
X2479380Y158200D01*
X2476840Y162360D01*
X2473760Y166160D01*
X2470200Y169480D01*
X2466200Y172300D01*
X2461860Y174540D01*
X2457260Y176180D01*
X2454040Y176860D01*
G37*
G36*
X2415720Y237740D02*
G01*
X2428240Y237740D01*
X2428240Y255280D01*
X2405280Y255280D01*
X2405280Y248160D01*
X2405560Y245680D01*
X2406320Y243540D01*
X2407540Y241600D01*
X2409140Y240000D01*
X2411080Y238780D01*
X2413220Y238020D01*
G37*
G36*
X2375360Y268500D02*
G01*
X2381500Y268500D01*
X2383980Y268780D01*
X2386140Y269520D01*
X2388060Y270740D01*
X2389680Y272360D01*
X2390880Y274280D01*
X2391640Y276440D01*
X2391920Y278920D01*
X2391920Y284080D01*
X2375360Y284080D01*
G37*
G36*
X2405280Y279980D02*
G01*
X2428240Y279980D01*
X2428240Y297520D01*
X2415720Y297520D01*
X2413220Y297240D01*
X2411080Y296480D01*
X2409140Y295260D01*
X2407540Y293660D01*
X2406320Y291720D01*
X2405560Y289580D01*
X2405280Y287100D01*
G37*

%LPD*%
G36*
X608020Y510760D02*
G01*
X604920Y501980D01*
X611980Y494920D01*
X620760Y498020D01*
G37*
G36*
X884300Y464799D02*
G01*
X869300Y444380D01*
X869300Y430220D01*
X884300Y442700D01*
G37*
G36*
X412540Y423000D02*
G01*
X412540Y405000D01*
X420940Y409000D01*
X420940Y419000D01*
G37*
G36*
X884300Y402500D02*
G01*
X869300Y395000D01*
X869300Y385000D01*
X884300Y377500D01*
G37*
G36*
X344380Y399000D02*
G01*
X344380Y381000D01*
X352780Y385000D01*
X352780Y395000D01*
G37*
G36*
X1380400Y329200D02*
G01*
X1380400Y304200D01*
X1395400Y311700D01*
X1395400Y321700D01*
G37*
G36*
X1125000Y-33680D02*
G01*
X1121000Y-42080D01*
X1139000Y-42080D01*
X1135000Y-33680D01*
G37*
G36*
X1317400Y250500D02*
G01*
X1306000Y243000D01*
X1306000Y233000D01*
X1317400Y225500D01*
G37*
G36*
X884300Y174300D02*
G01*
X874700Y165300D01*
X874700Y153300D01*
X884300Y144300D01*
G37*
G36*
X832460Y524540D02*
G01*
X797660Y522320D01*
X837320Y482660D01*
X839539Y517480D01*
G37*
G36*
X1319160Y511000D02*
G01*
X1312100Y503920D01*
X1317400Y488020D01*
X1335080Y505700D01*
G37*
G36*
X947300Y149020D02*
G01*
X926080Y127800D01*
X945180Y121440D01*
X953660Y129920D01*
G37*
G36*
X948700Y113740D02*
G01*
X944840Y95740D01*
X964539Y95740D01*
X960699Y113740D01*
G37*
G36*
X1646840Y232580D02*
G01*
X1646840Y207580D01*
X1661840Y215080D01*
X1661840Y225080D01*
G37*
G36*
X2111020Y474560D02*
G01*
X2111020Y449560D01*
X2120460Y445560D01*
X2124000Y456160D01*
G37*
G36*
X2119000Y421340D02*
G01*
X2115000Y412939D01*
X2133000Y412939D01*
X2129000Y421340D01*
G37*
G36*
X2109540Y229100D02*
G01*
X2090460Y218080D01*
X2103620Y204899D01*
X2114380Y211100D01*
G37*
G36*
X2073700Y22900D02*
G01*
X2069160Y15280D01*
X2086759Y11560D01*
X2085700Y20360D01*
G37*
G36*
X2089520Y122500D02*
G01*
X2089520Y97500D01*
X2092000Y105000D01*
X2092000Y115000D01*
G37*
G36*
X2114020Y144760D02*
G01*
X2110920Y135980D01*
X2117980Y128920D01*
X2126760Y132020D01*
G37*
G36*
X2381720Y361360D02*
G01*
X2381720Y333820D01*
X2399720Y340360D01*
X2399720Y352360D01*
G37*
G36*
X2415480Y361360D02*
G01*
X2397480Y352360D01*
X2397480Y340360D01*
X2415480Y331360D01*
G37*
G36*
X2346280Y364560D02*
G01*
X2328280Y355560D01*
X2328280Y343560D01*
X2346280Y334560D01*
G37*
G36*
X2094000Y288240D02*
G01*
X2088980Y270240D01*
X2111020Y270240D01*
X2106000Y288240D01*
G37*
G36*
X2209080Y229840D02*
G01*
X2190920Y217320D01*
X2205200Y205300D01*
X2215240Y212240D01*
G37*
G36*
X2337660Y-17720D02*
G01*
X2337660Y-33460D01*
X2348400Y-31600D01*
X2348400Y-19600D01*
G37*
G36*
X2282540Y7880D02*
G01*
X2270000Y6000D01*
X2270000Y-6000D01*
X2282540Y-7880D01*
G37*
G36*
X2161020Y238780D02*
G01*
X2143520Y214660D01*
X2162720Y204800D01*
X2168780Y215700D01*
G37*
G36*
X1827960Y260620D02*
G01*
X1821819Y245620D01*
X1844100Y245620D01*
X1837960Y260620D01*
G37*
G36*
X1878180Y245620D02*
G01*
X1874980Y224380D01*
X1888360Y212560D01*
X1890220Y224860D01*
G37*
G36*
X1988980Y223580D02*
G01*
X1995000Y212000D01*
X2005000Y212000D01*
X2011020Y223580D01*
G37*
G36*
X2038980Y228720D02*
G01*
X2033580Y213640D01*
X2041220Y207160D01*
X2060000Y218939D01*
G37*
G36*
X2030480Y177500D02*
G01*
X2015480Y170000D01*
X2015480Y160000D01*
X2030480Y152500D01*
G37*
G36*
X334520Y-410760D02*
G01*
X334060Y-440740D01*
X351780Y-458260D01*
X352040Y-441560D01*
G37*
G36*
X644840Y-415760D02*
G01*
X648680Y-433760D01*
X660680Y-433760D01*
X664539Y-415760D01*
G37*
G36*
X2342980Y237500D02*
G01*
X2334500Y229000D01*
X2338040Y212740D01*
X2359260Y233960D01*
G37*
G36*
X2143540Y-360980D02*
G01*
X2134540Y-378980D01*
X2164540Y-378980D01*
X2155540Y-360980D01*
G37*
G36*
X2138280Y-345280D02*
G01*
X2143540Y-360980D01*
X2155540Y-363920D01*
X2167420Y-352420D01*
G37*
G36*
X142620Y-253660D02*
G01*
X133620Y-271660D01*
X163619Y-271660D01*
X154620Y-253660D01*
G37*
G36*
X157300Y-245600D02*
G01*
X139300Y-246280D01*
X142620Y-254560D01*
X154620Y-254100D01*
G37*
G36*
X723420Y54380D02*
G01*
X723420Y24380D01*
X741420Y33380D01*
X741420Y45380D01*
G37*
G36*
X775540Y53640D02*
G01*
X761100Y45380D01*
X760500Y33380D01*
X774040Y23680D01*
G37*
G36*
X723420Y133120D02*
G01*
X723420Y103120D01*
X741420Y112120D01*
X741420Y124120D01*
G37*
G36*
X775980Y131980D02*
G01*
X761320Y124120D01*
X760380Y112120D01*
X773640Y102080D01*
G37*
G36*
X723420Y-24380D02*
G01*
X723420Y-54380D01*
X741420Y-45380D01*
X741420Y-33380D01*
G37*
G36*
X774040Y-23680D02*
G01*
X760500Y-33380D01*
X761100Y-45380D01*
X775540Y-53640D01*
G37*
G36*
X388380Y240700D02*
G01*
X381300Y233619D01*
X384020Y225240D01*
X396760Y237979D01*
G37*
G36*
X430060Y265800D02*
G01*
X423000Y258740D01*
X426100Y249960D01*
X438840Y262700D01*
G37*
G36*
X389840Y-400379D02*
G01*
X379840Y-401540D01*
X371560Y-416599D01*
X401360Y-413120D01*
G37*
G36*
X372340Y-358260D02*
G01*
X379840Y-373260D01*
X389840Y-373260D01*
X397340Y-358260D01*
G37*
G36*
X458579Y-400400D02*
G01*
X445280Y-411120D01*
X474099Y-419460D01*
X468579Y-403300D01*
G37*
G36*
X451079Y-358260D02*
G01*
X458579Y-373260D01*
X468579Y-373260D01*
X476079Y-358260D01*
G37*
G36*
X526740Y-408040D02*
G01*
X547960Y-429260D01*
X545860Y-417220D01*
X538780Y-410140D01*
G37*
G36*
X529820Y-358260D02*
G01*
X537320Y-373260D01*
X547320Y-373260D01*
X554820Y-358260D01*
G37*
G36*
X202360Y-463560D02*
G01*
X187100Y-471220D01*
X213480Y-485500D01*
X211540Y-468519D01*
G37*
G36*
X221000Y-256660D02*
G01*
X213500Y-271660D01*
X238500Y-271660D01*
X231000Y-256660D01*
G37*
G36*
X217000Y-245940D02*
G01*
X221000Y-254340D01*
X231000Y-254340D01*
X235000Y-245940D01*
G37*
G36*
X294060Y449000D02*
G01*
X285660Y445000D01*
X285660Y435000D01*
X294060Y431000D01*
G37*
G36*
X552360Y251000D02*
G01*
X552360Y233000D01*
X560760Y237000D01*
X560760Y247000D01*
G37*
G36*
X748220Y336060D02*
G01*
X740160Y335160D01*
X740160Y325160D01*
X748220Y324260D01*
G37*
G36*
X603880Y242040D02*
G01*
X609340Y224880D01*
X616200Y231000D01*
X613020Y241000D01*
G37*
G36*
X781880Y343940D02*
G01*
X786840Y328940D01*
X796840Y328940D01*
X801780Y343940D01*
G37*
D11*
X791829Y349839D02*
G01*
X791829Y325210D01*
X806570Y310470D01*
D10*
X758200Y330199D02*
G01*
X740199Y330199D01*
X738099Y328099D01*
X736999Y326999D01*
X736999Y310000D01*
X663000Y235999D01*
X604000Y235999D01*
X599099Y230999D01*
X544400Y241999D02*
G01*
X575199Y241999D01*
X588299Y255100D01*
X653000Y255199D01*
X718000Y320199D01*
X718000Y338000D01*
X729800Y349800D01*
X737199Y349800D01*
X194000Y-490000D02*
G01*
X194000Y-478993D01*
X239157Y-433836D01*
X542300Y369400D02*
G01*
X424000Y369400D01*
X424000Y264800D01*
X438099Y250700D01*
X628789Y369529D02*
G01*
X628789Y369529D01*
X758170Y369529D01*
X502788Y369400D02*
G01*
X513400Y369400D01*
X535999Y391999D01*
X573105Y391999D01*
X573105Y391999D02*
G01*
X606318Y391999D01*
X628789Y369529D01*
X463580Y314960D02*
G01*
X463580Y258420D01*
X480000Y241999D01*
X544427Y241999D01*
X599050Y231051D02*
G01*
X585999Y218000D01*
X404000Y218000D01*
X395999Y225999D01*
X542319Y-314960D02*
G01*
X542319Y-413679D01*
X528000Y-428000D01*
X463580Y-314960D02*
G01*
X463580Y-420419D01*
X455999Y-428000D01*
X384839Y-314960D02*
G01*
X384839Y-424839D01*
X388000Y-428000D01*
X395999Y225999D02*
G01*
X397649Y227649D01*
D11*
X788000Y-38000D02*
G01*
X786629Y-39369D01*
X680120Y-39369D01*
X788000Y115999D02*
G01*
X785889Y118110D01*
X680120Y118110D01*
X788000Y38000D02*
G01*
X786629Y39369D01*
X680120Y39369D01*
D10*
X306100Y260599D02*
G01*
X301199Y255700D01*
X198099Y255700D01*
X191700Y262199D01*
X191700Y364899D01*
X240700Y414000D01*
X404601Y414000D01*
X227399Y369299D02*
G01*
X248099Y390000D01*
X336453Y390000D01*
D11*
X148000Y-238000D02*
G01*
X148600Y-315000D01*
X2156000Y-335999D02*
G01*
X2149530Y-342469D01*
X2149530Y-404569D01*
X2299426Y326426D02*
G01*
X2299426Y320574D01*
X2328000Y291999D01*
X2328000Y244000D01*
X2358000Y214000D01*
X324699Y-425000D02*
G01*
X326999Y-425000D01*
X365999Y-464000D01*
X638000Y-464000D01*
X654699Y-446700D01*
X654699Y-400000D01*
X349760Y-372170D02*
G01*
X324690Y-397240D01*
D10*
X992520Y-374050D02*
G01*
X922460Y-374050D01*
X915119Y-358600D02*
G01*
X922460Y-365940D01*
X922460Y-374050D01*
X1307479Y-177199D02*
G01*
X1377550Y-177199D01*
D11*
X850000Y-396010D02*
G01*
X850000Y-352359D01*
X1898000Y-280000D02*
G01*
X1834340Y-343659D01*
X1468140Y-343659D01*
X1456920Y-332440D01*
X869920Y-332440D01*
X850000Y-352359D01*
X2135389Y-15940D02*
G01*
X2135389Y5650D01*
X349760Y-372170D02*
G01*
X349140Y-371550D01*
X349140Y-262600D01*
X608910Y-2829D01*
X950140Y-2829D01*
X954690Y1720D01*
X324690Y-425000D02*
G01*
X324690Y-397240D01*
X782520Y-394369D02*
G01*
X784160Y-396010D01*
X850000Y-396010D01*
X915799Y159299D02*
G01*
X954700Y120399D01*
X954700Y80000D01*
X979949Y26979D02*
G01*
X989449Y17480D01*
X1015630Y17480D01*
X954690Y52240D02*
G01*
X979949Y26979D01*
X979949Y26979D02*
G01*
X954690Y1720D01*
X954690Y25000D02*
G01*
X954690Y1720D01*
X654690Y-394369D02*
G01*
X654690Y-372240D01*
X654690Y-400000D02*
G01*
X654690Y-394369D01*
X740000Y-394369D02*
G01*
X654690Y-394369D01*
X761260Y-394369D02*
G01*
X740000Y-394369D01*
X761260Y-394369D02*
G01*
X782520Y-394369D01*
X324690Y-425000D02*
G01*
X324690Y-480000D01*
X621060Y-314960D02*
G01*
X621060Y-370279D01*
X621060Y-370279D02*
G01*
X652730Y-370279D01*
X654690Y-372240D01*
X2079690Y55000D02*
G01*
X2079690Y27240D01*
X2178400Y-15940D02*
G01*
X2135389Y-15940D01*
X1015630Y60000D02*
G01*
X1015630Y17480D01*
X954690Y80000D02*
G01*
X954690Y52240D01*
D10*
X1860929Y70000D02*
G01*
X1832780Y41849D01*
X1587500Y41849D01*
X272420Y-383760D02*
G01*
X272420Y-385340D01*
X285320Y-398240D01*
X272420Y-383760D02*
G01*
X241840Y-383760D01*
X227359Y-369279D01*
X1860929Y70000D02*
G01*
X1845209Y70000D01*
X1876639Y70000D02*
G01*
X1860929Y70000D01*
X1627150Y435450D02*
G01*
X1651970Y435450D01*
X1680320Y463800D01*
X1680320Y500000D01*
X1627150Y220079D02*
G01*
X1627150Y264549D01*
X1627150Y264549D02*
G01*
X1691869Y329270D01*
X1904769Y329270D01*
X1975000Y399499D01*
X1975000Y502959D01*
X1951130Y526829D01*
X1680389Y526829D01*
X1680320Y526759D01*
X1627150Y197840D02*
G01*
X1627150Y220079D01*
X1680320Y500000D02*
G01*
X1680320Y526759D01*
X227361Y-338119D02*
G01*
X225999Y-336759D01*
X225999Y-238000D01*
X227359Y-338119D02*
G01*
X227359Y-369279D01*
X285320Y-425000D02*
G01*
X285320Y-398240D01*
X1627150Y479920D02*
G01*
X1627150Y435450D01*
D11*
X1500000Y200000D02*
G01*
X1657560Y357559D01*
X1880000Y357559D01*
X2078329Y-363099D02*
G01*
X1906899Y-363099D01*
X1880000Y-390000D01*
X2119799Y-404569D02*
G01*
X2078329Y-363099D01*
X2140630Y-203739D02*
G01*
X2078329Y-266039D01*
X2078329Y-363099D01*
X2140630Y-203739D02*
G01*
X2140630Y-182480D01*
X2140630Y-225000D02*
G01*
X2140630Y-203739D01*
X2140630Y-182480D02*
G01*
X2135389Y-177240D01*
X2074690Y-177240D01*
X2149530Y-404569D02*
G01*
X2119799Y-404569D01*
X1950000Y473090D02*
G01*
X1880000Y403090D01*
X1880000Y357559D01*
X2074690Y-205000D02*
G01*
X2074690Y-177240D01*
X2071610Y-74659D02*
G01*
X2071610Y-174160D01*
X2074690Y-177240D01*
X1763500Y83930D02*
G01*
X1763500Y125489D01*
X1718689Y143000D02*
G01*
X1718689Y146756D01*
X1719691Y147759D01*
D10*
X1963360Y-97399D02*
G01*
X1931920Y-97399D01*
X2079690Y165000D02*
G01*
X2079690Y138249D01*
X2079690Y138249D02*
G01*
X2078270Y136829D01*
X1992790Y136829D01*
X1963360Y107399D01*
X2079690Y178380D02*
G01*
X2079690Y165000D01*
X2079690Y178380D02*
G01*
X2079690Y191759D01*
X2050000Y473090D02*
G01*
X2075000Y448090D01*
X2075000Y196449D01*
X2079690Y191759D01*
X285320Y-480000D02*
G01*
X285320Y-453240D01*
X69879Y-314960D02*
G01*
X69879Y-369279D01*
X69879Y-369279D02*
G01*
X69949Y-369349D01*
X174670Y-369349D01*
X239157Y-433836D01*
X239157Y-433836D02*
G01*
X258560Y-453240D01*
X285320Y-453240D01*
D11*
X2208580Y-404569D02*
G01*
X2208580Y-442170D01*
X2335000Y-235000D02*
G01*
X2208580Y-361419D01*
X2208580Y-404569D01*
X2310100Y-51179D02*
G01*
X2270529Y-51179D01*
X2270529Y-51179D02*
G01*
X2270529Y-170529D01*
X2335000Y-235000D01*
D10*
X1500000Y-193519D02*
G01*
X1412319Y-193519D01*
X384839Y314960D02*
G01*
X384839Y260639D01*
X395999Y225999D02*
G01*
X384839Y237161D01*
X384839Y260639D01*
X1500000Y-193519D02*
G01*
X1543969Y-149549D01*
X1658119Y-149549D01*
X1747669Y-60000D01*
X1845209Y-60000D01*
X1500000Y-200000D02*
G01*
X1500000Y-193519D01*
X1772849Y-197840D02*
G01*
X1855230Y-197840D01*
X1923360Y-265970D01*
X1923360Y-287970D01*
X1908249Y-303079D01*
X1903239Y-303079D01*
X1772849Y-433470D01*
X1772849Y-479920D01*
X1772849Y-197840D02*
G01*
X1772849Y-175599D01*
X1772849Y-220079D02*
G01*
X1772849Y-197840D01*
X1876639Y-60000D02*
G01*
X1845209Y-60000D01*
X1845209Y-60000D02*
G01*
X1845209Y-103240D01*
X1772849Y-175599D01*
X306100Y-314960D02*
G01*
X306100Y-253470D01*
X542319Y-314960D02*
G01*
X542319Y-251359D01*
X638910Y-154769D01*
X898339Y-154769D01*
X963959Y-89149D01*
X1410850Y-89149D01*
X1500000Y0D01*
X384839Y-260639D02*
G01*
X571410Y-74070D01*
X956310Y-74070D01*
X957299Y-73079D01*
X1326920Y-73079D01*
X1500000Y100000D01*
X384839Y-314960D02*
G01*
X384839Y-260639D01*
X69879Y260639D02*
G01*
X79029Y251489D01*
X169699Y251489D01*
X69879Y314960D02*
G01*
X69879Y260639D01*
X1832960Y190000D02*
G01*
X1804219Y218739D01*
X1804219Y261700D01*
X1801310Y264609D01*
X1677820Y264609D01*
X148620Y314960D02*
G01*
X148620Y369279D01*
X301999Y440000D02*
G01*
X219340Y440000D01*
X148620Y369279D01*
X227359Y314960D02*
G01*
X227359Y369279D01*
X306100Y314960D02*
G01*
X306100Y260639D01*
X758170Y349839D02*
G01*
X737220Y349839D01*
X542319Y365309D02*
G01*
X542319Y369279D01*
X1691480Y-201230D02*
G01*
X1684420Y-194169D01*
X1681499Y-194169D01*
X1681499Y-172530D02*
G01*
X1681499Y-194169D01*
X542319Y342119D02*
G01*
X542319Y365309D01*
X542319Y342119D02*
G01*
X542319Y314960D01*
X1348900Y474200D02*
G01*
X1300900Y522199D01*
X837200Y522199D01*
X800000Y485000D01*
X2040320Y110000D02*
G01*
X2013119Y110000D01*
X1963360Y60239D01*
X1963360Y32600D01*
X2079691Y110000D02*
G01*
X2091999Y110000D01*
X2126000Y144000D01*
X2079690Y96630D02*
G01*
X2079690Y110000D01*
X2123999Y405000D02*
G01*
X2123999Y449090D01*
X2100000Y473090D01*
X1963360Y-22600D02*
G01*
X1994790Y-22600D01*
X2079690Y96630D02*
G01*
X2079690Y83249D01*
X2079690Y83249D02*
G01*
X2079620Y83180D01*
X2022309Y83180D01*
X1997010Y57880D01*
X1997010Y-20380D01*
X1994790Y-22600D01*
X1715580Y-172530D02*
G01*
X1715580Y-150889D01*
X1763500Y-108980D02*
G01*
X1763500Y-149490D01*
X1763500Y-149490D02*
G01*
X1716980Y-149490D01*
X1715580Y-150889D01*
X2310100Y0D02*
G01*
X2271530Y0D01*
X1931899Y-97399D02*
G01*
X1930600Y-96100D01*
X1930600Y127600D01*
X1968000Y165000D01*
X2040299Y165000D01*
X2050000Y246900D02*
G01*
X2050000Y223000D01*
X2008999Y181999D01*
X1866999Y181999D01*
X1866999Y190000D01*
X2000000Y246909D02*
G01*
X2000000Y211999D01*
X1986000Y198000D01*
X1910000Y198000D01*
X1873000Y235000D01*
X1867039Y235000D01*
X1832960Y235000D02*
G01*
X1832960Y266100D01*
X1804189Y294870D01*
X1803999Y295000D02*
G01*
X1693339Y294870D01*
D11*
X2135389Y5650D02*
G01*
X2076319Y5650D01*
X2150000Y246909D02*
G01*
X2150000Y225999D01*
X2220000Y155999D01*
X2220000Y50000D01*
X2270000Y0D01*
X2310104Y0D01*
X2310104Y-25590D02*
G01*
X2348410Y-25590D01*
X2366999Y-6999D01*
X2366999Y139000D01*
X2330000Y175999D01*
X2243000Y175999D01*
X2200000Y219000D01*
X2200000Y246909D01*
X2100000Y246900D02*
G01*
X2100000Y290000D01*
X2131999Y321999D01*
X2295000Y321999D01*
X2322600Y349600D01*
X2363999Y349600D01*
X2363999Y349560D02*
G01*
X2367190Y346370D01*
X2446000Y346370D01*
X2076319Y5650D02*
G01*
X2079690Y9020D01*
X2079690Y27240D01*
X2100000Y246909D02*
G01*
X2100000Y216999D01*
X2156999Y160000D01*
X2156999Y27260D01*
X2135389Y5650D01*
X2208580Y-442170D02*
G01*
X2208509Y-442240D01*
X2047719Y-442240D01*
X1999960Y-490000D01*
X1880000Y-490000D01*
D10*
X1845209Y70000D02*
G01*
X1695129Y220079D01*
X1627150Y220079D01*
D11*
X1717610Y149839D02*
G01*
X1719690Y147759D01*
X1763500Y125489D02*
G01*
X1741229Y147759D01*
X1726239Y147759D01*
X1701999Y171999D01*
X1622743Y171999D01*
X1600582Y149839D01*
X1550159Y149839D01*
X1500000Y200000D01*
X915799Y159299D02*
G01*
X874700Y159299D01*
X806599Y227399D01*
X806599Y310500D01*
D10*
X1348900Y238000D02*
G01*
X1306000Y238000D01*
X1130000Y61999D01*
X1130000Y-50000D01*
X1377500Y-177199D02*
G01*
X1377500Y-161599D01*
X1489200Y-50000D01*
X1516400Y-50000D01*
X1542200Y-24200D01*
X1542200Y121300D01*
X1510100Y153499D01*
X1483100Y153499D01*
X1419700Y216799D01*
X1419700Y294000D01*
X1396999Y316700D01*
X1348900Y316700D01*
X336500Y390000D02*
G01*
X504000Y390000D01*
X531999Y418000D01*
X608800Y418000D01*
X636799Y390000D01*
X915799Y390000D01*
X915799Y395500D01*
X404600Y414000D02*
G01*
X491999Y414000D01*
X518000Y440000D01*
X615799Y440000D01*
X641799Y414000D01*
X846000Y414000D01*
X906199Y474200D01*
X915799Y474200D01*
X301999Y440000D02*
G01*
X488000Y440000D01*
X510000Y461999D01*
X571999Y461999D01*
X620000Y510000D01*
D12*
X1950000Y270237D02*
G01*
X1950000Y223582D01*
X2000000Y270237D02*
G01*
X2000000Y223582D01*
X2050000Y270237D02*
G01*
X2050000Y223582D01*
X2100000Y270237D02*
G01*
X2100000Y223582D01*
X2150000Y270237D02*
G01*
X2150000Y223582D01*
X2200000Y270237D02*
G01*
X2200000Y223582D01*
X2250000Y270237D02*
G01*
X2250000Y223582D01*
X2300000Y270237D02*
G01*
X2300000Y223582D01*
X1950000Y496417D02*
G01*
X1950000Y449762D01*
X2000000Y496417D02*
G01*
X2000000Y449762D01*
X2050000Y496417D02*
G01*
X2050000Y449762D01*
X2100000Y496417D02*
G01*
X2100000Y449762D01*
X2150000Y496417D02*
G01*
X2150000Y449762D01*
X2200000Y496417D02*
G01*
X2200000Y449762D01*
X2250000Y496417D02*
G01*
X2250000Y449762D01*
X2300000Y496417D02*
G01*
X2300000Y449762D01*
D14*
G01*
X1307479Y-452800D03*
G01*
X992520Y-374059D03*
G01*
X1307479Y-177210D03*
G36*
X605475Y-384254D02*
G01*
X625160Y-384254D01*
X625160Y-415751D01*
X605475Y-415751D01*
G37*
G36*
X644845Y-384254D02*
G01*
X664531Y-384254D01*
X664531Y-415751D01*
X644845Y-415751D01*
G37*
G36*
X1670475Y515745D02*
G01*
X1690160Y515745D01*
X1690160Y484248D01*
X1670475Y484248D01*
G37*
G36*
X1709845Y515745D02*
G01*
X1729530Y515745D01*
X1729530Y484248D01*
X1709845Y484248D01*
G37*
G36*
X905475Y40745D02*
G01*
X925160Y40745D01*
X925160Y9248D01*
X905475Y9248D01*
G37*
G36*
X944845Y40745D02*
G01*
X964530Y40745D01*
X964530Y9248D01*
X944845Y9248D01*
G37*
G36*
X2025475Y-189254D02*
G01*
X2045160Y-189254D01*
X2045160Y-220751D01*
X2025475Y-220751D01*
G37*
G36*
X2064845Y-189254D02*
G01*
X2084530Y-189254D01*
X2084530Y-220751D01*
X2064845Y-220751D01*
G37*
G36*
X2030475Y70745D02*
G01*
X2050160Y70745D01*
X2050160Y39248D01*
X2030475Y39248D01*
G37*
G36*
X2069845Y70745D02*
G01*
X2089530Y70745D01*
X2089530Y39248D01*
X2069845Y39248D01*
G37*
D16*
G01*
X740000Y-315630D03*
G01*
X740000Y-394369D03*
D17*
G01*
X1094369Y60000D03*
G01*
X1015630Y60000D03*
G01*
X2219369Y-225000D03*
G01*
X2140630Y-225000D03*
D16*
G01*
X2446000Y267629D03*
G01*
X2446000Y346370D03*
D18*
G01*
X850000Y-253989D03*
G36*
X803227Y-364371D02*
G01*
X896772Y-364371D01*
X896772Y-427658D01*
X803227Y-427658D01*
G37*
D19*
G01*
X1880000Y357559D03*
G01*
X1880000Y302440D03*
G01*
X2363999Y349560D03*
G01*
X2363999Y294439D03*
D15*
G01*
X1679309Y143000D03*
G01*
X1718680Y143000D03*
G01*
X2040309Y165000D03*
G01*
X2079679Y165000D03*
G01*
X285309Y-480000D03*
G01*
X324679Y-480000D03*
G01*
X285309Y-425000D03*
G01*
X324679Y-425000D03*
D20*
G01*
X69879Y314960D03*
G01*
X148620Y314960D03*
G01*
X227359Y314960D03*
G01*
X306100Y314960D03*
G01*
X384839Y314960D03*
G01*
X463580Y314960D03*
G01*
X542319Y314960D03*
G01*
X621060Y314960D03*
D21*
G01*
X680120Y196849D03*
G01*
X680120Y118110D03*
G01*
X680120Y39369D03*
G01*
X680120Y-39369D03*
G01*
X680120Y-118110D03*
G01*
X680120Y-196849D03*
D20*
G01*
X621060Y-314960D03*
G01*
X542319Y-314960D03*
G01*
X463580Y-314960D03*
G01*
X384839Y-314960D03*
G01*
X306100Y-314960D03*
G01*
X227359Y-314960D03*
G01*
X148620Y-314960D03*
G01*
X69879Y-314960D03*
G36*
X1983779Y22125D02*
G01*
X1983779Y43070D01*
X1942933Y43070D01*
X1942933Y22125D01*
G37*
G36*
X1983779Y96929D02*
G01*
X1983779Y117874D01*
X1942933Y117874D01*
X1942933Y96929D01*
G37*
G36*
X1897066Y59528D02*
G01*
X1897066Y80471D01*
X1856220Y80471D01*
X1856220Y59528D01*
G37*
G36*
X1983779Y-107874D02*
G01*
X1983779Y-86929D01*
X1942933Y-86929D01*
X1942933Y-107874D01*
G37*
G36*
X1983779Y-33070D02*
G01*
X1983779Y-12125D01*
X1942933Y-12125D01*
X1942933Y-33070D01*
G37*
G36*
X1897066Y-70471D02*
G01*
X1897066Y-49528D01*
X1856220Y-49528D01*
X1856220Y-70471D01*
G37*
G36*
X1844093Y200630D02*
G01*
X1844093Y179369D01*
X1821824Y179369D01*
X1821824Y200630D01*
G37*
G36*
X1855906Y200630D02*
G01*
X1855906Y179369D01*
X1878175Y179369D01*
X1878175Y200630D01*
G37*
G36*
X1844093Y245630D02*
G01*
X1844093Y224369D01*
X1821824Y224369D01*
X1821824Y245630D01*
G37*
G36*
X1855906Y245630D02*
G01*
X1855906Y224369D01*
X1878175Y224369D01*
X1878175Y245630D01*
G37*
G36*
X1692632Y-161898D02*
G01*
X1692632Y-183159D01*
X1670363Y-183159D01*
X1670363Y-161898D01*
G37*
G36*
X1704444Y-161898D02*
G01*
X1704444Y-183159D01*
X1726714Y-183159D01*
X1726714Y-161898D01*
G37*
D24*
G01*
X2031809Y-404569D03*
G01*
X2149530Y-404569D03*
G01*
X2208580Y-404569D03*
D25*
G01*
X2269600Y-525430D03*
G01*
X2269600Y-438809D03*
G01*
X1970389Y-525430D03*
G01*
X1970389Y-438809D03*
D26*
G01*
X1772799Y479920D03*
G01*
X1772849Y220079D03*
G01*
X1627150Y479920D03*
G01*
X1627150Y220079D03*
G01*
X1627200Y-479920D03*
G01*
X1627150Y-220079D03*
G01*
X1772849Y-479920D03*
G01*
X1772849Y-220079D03*
G36*
X2035109Y-37251D02*
G01*
X2108109Y-37251D01*
X2109862Y-37292D01*
X2111611Y-37415D01*
X2113352Y-37620D01*
X2115083Y-37907D01*
X2116797Y-38274D01*
X2118492Y-38721D01*
X2120165Y-39247D01*
X2121812Y-39852D01*
X2123428Y-40533D01*
X2125011Y-41287D01*
X2126556Y-42116D01*
X2128060Y-43018D01*
X2129521Y-43987D01*
X2130936Y-45025D01*
X2132299Y-46127D01*
X2133609Y-47292D01*
X2134863Y-48517D01*
X2136059Y-49801D01*
X2137193Y-51138D01*
X2138263Y-52527D01*
X2139268Y-53964D01*
X2140203Y-55448D01*
X2141067Y-56974D01*
X2141860Y-58537D01*
X2142578Y-61660D01*
X2209403Y-61660D01*
X2209403Y-87644D01*
X2142578Y-87644D01*
X2141860Y-90767D01*
X2141067Y-92332D01*
X2140203Y-93858D01*
X2139268Y-95340D01*
X2138263Y-96779D01*
X2137193Y-98168D01*
X2136059Y-99504D01*
X2134863Y-100787D01*
X2133609Y-102013D01*
X2132299Y-103179D01*
X2130936Y-104281D01*
X2129521Y-105318D01*
X2128060Y-106287D01*
X2126556Y-107188D01*
X2125011Y-108018D01*
X2123428Y-108773D01*
X2121812Y-109454D01*
X2120165Y-110057D01*
X2118492Y-110583D01*
X2116797Y-111030D01*
X2115083Y-111399D01*
X2113352Y-111685D01*
X2111611Y-111889D01*
X2109862Y-112013D01*
X2108109Y-112055D01*
X2035109Y-112055D01*
X2033356Y-112013D01*
X2031607Y-111889D01*
X2029864Y-111685D01*
X2028135Y-111399D01*
X2026419Y-111030D01*
X2024724Y-110583D01*
X2023051Y-110057D01*
X2021405Y-109454D01*
X2019790Y-108773D01*
X2018207Y-108018D01*
X2016661Y-107188D01*
X2015156Y-106287D01*
X2013696Y-105318D01*
X2012281Y-104281D01*
X2010919Y-103179D01*
X2009607Y-102013D01*
X2008353Y-100787D01*
X2007157Y-99504D01*
X2006023Y-98168D01*
X2004953Y-96779D01*
X2003950Y-95340D01*
X2003014Y-93858D01*
X2002150Y-92332D01*
X2001356Y-90767D01*
X2000639Y-89167D01*
X1999996Y-87537D01*
X1999431Y-85877D01*
X1998944Y-84191D01*
X1998536Y-82485D01*
X1998209Y-80763D01*
X1997964Y-79027D01*
X1997799Y-77280D01*
X1997718Y-75529D01*
X1997718Y-73775D01*
X1997799Y-72024D01*
X1997964Y-70279D01*
X1998209Y-68542D01*
X1998536Y-66819D01*
X1998944Y-65113D01*
X1999431Y-63429D01*
X1999996Y-61768D01*
X2000639Y-60138D01*
X2001356Y-58537D01*
X2002150Y-56974D01*
X2003014Y-55448D01*
X2003950Y-53964D01*
X2004953Y-52527D01*
X2006023Y-51138D01*
X2007157Y-49801D01*
X2008353Y-48517D01*
X2009607Y-47292D01*
X2010919Y-46127D01*
X2012281Y-45025D01*
X2013696Y-43987D01*
X2015156Y-43018D01*
X2016661Y-42116D01*
X2018207Y-41287D01*
X2019790Y-40533D01*
X2021405Y-39852D01*
X2023051Y-39247D01*
X2024724Y-38721D01*
X2026419Y-38274D01*
X2028135Y-37907D01*
X2029864Y-37620D01*
X2031607Y-37415D01*
X2033356Y-37292D01*
X2035109Y-37251D01*
G37*
G36*
X2209400Y-29167D02*
G01*
X2209400Y-2712D01*
X2147393Y-2712D01*
X2147393Y-29167D01*
G37*
G36*
X2209400Y-147278D02*
G01*
X2209400Y-120821D01*
X2147393Y-120821D01*
X2147393Y-147278D01*
G37*
G36*
X2282547Y59054D02*
G01*
X2337665Y59054D01*
X2337665Y43306D01*
X2282547Y43306D01*
G37*
G36*
X2282547Y33465D02*
G01*
X2337665Y33465D01*
X2337665Y17716D01*
X2282547Y17716D01*
G37*
G36*
X2282547Y7874D02*
G01*
X2337665Y7874D01*
X2337665Y-7874D01*
X2282547Y-7874D01*
G37*
G36*
X2282547Y-17714D02*
G01*
X2337665Y-17714D01*
X2337665Y-33463D01*
X2282547Y-33463D01*
G37*
G36*
X2282547Y-43305D02*
G01*
X2337665Y-43305D01*
X2337665Y-59054D01*
X2282547Y-59054D01*
G37*
G36*
X1613930Y-138483D02*
G01*
X1613930Y-79484D01*
X1653230Y-79484D01*
X1653230Y-138483D01*
G37*
G36*
X1743851Y-138483D02*
G01*
X1743851Y-79484D01*
X1783152Y-79484D01*
X1783152Y-138483D01*
G37*
G36*
X1743851Y54380D02*
G01*
X1743851Y113479D01*
X1783152Y113479D01*
X1783152Y54380D01*
G37*
G36*
X1613930Y54380D02*
G01*
X1613930Y113479D01*
X1653230Y113479D01*
X1653230Y54380D01*
G37*
D15*
G01*
X2040309Y110000D03*
G01*
X2079679Y110000D03*
D30*
G01*
X758170Y310470D03*
G01*
X758170Y330160D03*
G01*
X758170Y349839D03*
G01*
X758170Y369529D03*
G36*
X801773Y304565D02*
G01*
X781890Y304565D01*
X781890Y316377D01*
X801773Y316377D01*
G37*
G36*
X801773Y324250D02*
G01*
X781890Y324250D01*
X781890Y336062D01*
X801773Y336062D01*
G37*
G36*
X801773Y343935D02*
G01*
X781890Y343935D01*
X781890Y355747D01*
X801773Y355747D01*
G37*
G36*
X801773Y363620D02*
G01*
X781890Y363620D01*
X781890Y375432D01*
X801773Y375432D01*
G37*
G36*
X905475Y95745D02*
G01*
X925160Y95745D01*
X925160Y64248D01*
X905475Y64248D01*
G37*
G36*
X944845Y95745D02*
G01*
X964530Y95745D01*
X964530Y64248D01*
X944845Y64248D01*
G37*
D31*
G01*
X2358000Y214000D03*
G01*
X2156000Y-335999D03*
G01*
X2426000Y-334000D03*
G01*
X788000Y115999D03*
G01*
X788000Y-38000D03*
G01*
X788000Y38000D03*
G01*
X455999Y-428000D03*
G01*
X528000Y-428000D03*
G01*
X388000Y-428000D03*
G01*
X194000Y-490000D03*
G36*
X884300Y505700D02*
G01*
X947299Y505700D01*
X947299Y442699D01*
X884300Y442699D01*
G37*
G36*
X884300Y426999D02*
G01*
X947299Y426999D01*
X947299Y364000D01*
X884300Y364000D01*
G37*
G36*
X884300Y348200D02*
G01*
X947299Y348200D01*
X947299Y285199D01*
X884300Y285199D01*
G37*
G36*
X884300Y269499D02*
G01*
X947299Y269499D01*
X947299Y206500D01*
X884300Y206500D01*
G37*
G36*
X884300Y190799D02*
G01*
X947299Y190799D01*
X947299Y127800D01*
X884300Y127800D01*
G37*
G36*
X1317399Y190799D02*
G01*
X1380399Y190799D01*
X1380399Y127800D01*
X1317399Y127800D01*
G37*
G36*
X1317399Y269499D02*
G01*
X1380399Y269499D01*
X1380399Y206500D01*
X1317399Y206500D01*
G37*
G36*
X1317399Y348200D02*
G01*
X1380399Y348200D01*
X1380399Y285199D01*
X1317399Y285199D01*
G37*
G36*
X1317399Y426999D02*
G01*
X1380399Y426999D01*
X1380399Y364000D01*
X1317399Y364000D01*
G37*
G36*
X1317399Y505700D02*
G01*
X1380399Y505700D01*
X1380399Y442699D01*
X1317399Y442699D01*
G37*
D33*
G01*
X1880000Y-390000D03*
D34*
G01*
X1880000Y-490000D03*
D33*
G01*
X1500000Y-200000D03*
G01*
X1500000Y-100000D03*
G01*
X1500000Y0D03*
G01*
X1500000Y100000D03*
G01*
X1500000Y200000D03*
D35*
G01*
X1500000Y300000D03*
D33*
G01*
X1500000Y-300000D03*
G36*
X662597Y522402D02*
G01*
X737400Y522402D01*
X737400Y447599D01*
X662597Y447599D01*
G37*
D37*
G01*
X800000Y485000D03*
D38*
G01*
X2324769Y-95470D03*
G01*
X2324769Y95470D03*
D39*
G01*
X1500000Y300000D03*
D40*
G01*
X1500000Y200000D03*
G01*
X1500000Y100000D03*
G01*
X1500000Y0D03*
G01*
X1500000Y-100000D03*
G01*
X1500000Y-200000D03*
G01*
X1500000Y-300000D03*
D41*
G01*
X1451570Y450000D03*
G01*
X1451570Y-450000D03*
G01*
X104329Y450000D03*
G01*
X104329Y-450000D03*
D42*
G01*
X2435000Y-235000D03*
D34*
G01*
X2335000Y-235000D03*
D41*
G01*
X2400000Y450000D03*
G01*
X2400000Y-450000D03*
D13*
G01*
X915119Y-358600D03*
G01*
X1130000Y-50010D03*
G01*
X1898000Y-280000D03*
G01*
X2076319Y5650D03*
G01*
X272420Y-383760D03*
G01*
X1587500Y41849D03*
G01*
X395999Y225999D03*
G01*
X1412319Y-193519D03*
G01*
X306100Y-253470D03*
G01*
X169699Y251489D03*
G01*
X1677820Y264609D03*
G01*
X620000Y510000D03*
G01*
X1693339Y294870D03*
G01*
X1691480Y-201230D03*
G01*
X438079Y250720D03*
G01*
X2123999Y405000D03*
G01*
X2126000Y144000D03*
G01*
X1223999Y20000D03*
G01*
X1356999Y80999D03*
G01*
X1016999Y200999D03*
G01*
X1161999Y203000D03*
G01*
X843999Y68000D03*
G01*
X861999Y98000D03*
G01*
X575999Y183000D03*
G01*
X594000Y110000D03*
G01*
X768999Y231999D03*
G01*
X993000Y-265999D03*
G01*
X1138999Y-136999D03*
G01*
X1283999Y-270000D03*
G01*
X853999Y-115000D03*
G01*
X694000Y335000D03*
G01*
X665999Y316999D03*
G01*
X2026999Y-3000D03*
G01*
X1685000Y99000D03*
G01*
X1716999Y73000D03*
G01*
X42199Y207800D03*
G01*
X42199Y107800D03*
G01*
X42199Y7800D03*
G01*
X42199Y-92199D03*
G01*
X42199Y-192199D03*
G01*
X142199Y207800D03*
G01*
X142199Y107800D03*
G01*
X142199Y7800D03*
G01*
X142199Y-92199D03*
G01*
X142199Y-192199D03*
G01*
X158000Y524000D03*
G01*
X242199Y207800D03*
G01*
X242199Y107800D03*
G01*
X242199Y7800D03*
G01*
X242199Y-92199D03*
G01*
X242199Y-192199D03*
G01*
X242199Y-492199D03*
G01*
X371999Y525999D03*
G01*
X342199Y207800D03*
G01*
X342199Y107800D03*
G01*
X342199Y7800D03*
G01*
X342199Y-92199D03*
G01*
X342199Y-192199D03*
G01*
X468000Y525999D03*
G01*
X442199Y107800D03*
G01*
X442199Y7800D03*
G01*
X442199Y-92199D03*
G01*
X442199Y-492199D03*
G01*
X554000Y528000D03*
G01*
X542199Y7800D03*
G01*
X542199Y-192199D03*
G01*
X542199Y-492199D03*
G01*
X642199Y-492199D03*
G01*
X742199Y-192199D03*
G01*
X742199Y-492199D03*
G01*
X842200Y307800D03*
G01*
X842200Y-192199D03*
G01*
X842200Y-492199D03*
G01*
X942200Y-492199D03*
G01*
X1042200Y407800D03*
G01*
X1042200Y307800D03*
G01*
X1042200Y-492199D03*
G01*
X1142200Y407800D03*
G01*
X1142200Y307800D03*
G01*
X1242200Y407800D03*
G01*
X1242200Y307800D03*
G01*
X1542200Y507800D03*
G01*
X1542200Y407800D03*
G01*
X1542200Y-392199D03*
G01*
X1542200Y-492199D03*
G01*
X1642200Y407800D03*
G01*
X1642200Y-292199D03*
G01*
X1642200Y-392199D03*
G01*
X1742200Y407800D03*
G01*
X1742200Y-292199D03*
G01*
X1742200Y-392199D03*
G01*
X1842200Y407800D03*
G01*
X1842200Y107800D03*
G01*
X1842200Y7800D03*
G01*
X1942200Y407800D03*
G01*
X2042200Y407800D03*
G01*
X2042200Y307800D03*
G01*
X2042200Y-192199D03*
G01*
X2042200Y-292199D03*
G01*
X2142200Y-292199D03*
G01*
X2242200Y407800D03*
G01*
X2242200Y-92199D03*
G01*
X2242200Y-292199D03*
G01*
X2338999Y519000D03*
G01*
X2340000Y396999D03*
G01*
X2331999Y-381999D03*
G01*
X2338000Y-503000D03*
G01*
X2468000Y210000D03*
G01*
X2442200Y7800D03*
G01*
X148000Y-238000D03*
G01*
X336449Y390000D03*
G01*
X404600Y414000D03*
G01*
X301999Y440000D03*
G01*
X599050Y231050D03*
G01*
X544430Y241999D03*
G01*
X573110Y391999D03*
G01*
X225999Y-238000D03*
D38*
X2412173Y141729D02*
G01*
X2447606Y141729D01*
X2412173Y-141729D02*
G01*
X2447606Y-141729D01*
M02*
